<svg width="178" height="48" viewBox="0 0 178 48" fill="none" xmlns="http://www.w3.org/2000/svg">
<mask id="mask0_4382_94" style="mask-type:luminance" maskUnits="userSpaceOnUse" x="0" y="0" width="52" height="46">
<path d="M51.7282 0H0V45.6699H51.7282V0Z" fill="white"/>
</mask>
<g mask="url(#mask0_4382_94)">
<path d="M26.2338 2.89453H29.1369L30.4565 3.00173L32.4623 3.26975L34.0458 3.59137L35.6821 4.0738L36.8433 4.50262L38.374 5.25308L39.1658 5.73551L39.852 6.21793L40.5382 6.75395L41.33 7.50442L41.9106 8.14762L42.5967 9.11252L43.2301 10.2382L43.758 11.5782L44.0747 12.7039L44.2858 13.8832L44.3914 14.7408L44.4442 15.4913V16.8313L44.3386 18.0106L44.2331 18.6003V19.0291L44.497 19.7259V20.4764L44.2331 21.1196L44.1803 21.1732V21.4412L44.497 21.8164L45.2359 22.9421L45.9221 23.907L46.45 24.6574L47.2943 25.7831L47.9281 26.6407L48.3503 27.2304L48.4556 27.4448V27.9272L48.1392 28.4096L47.717 28.6776L46.0277 29.5353L45.9749 29.5889V30.1785L46.1333 31.7866V32.5371L45.8694 32.8051L45.5527 32.9659L45.2359 33.0195L45.2887 33.2875L45.6582 34.2524L45.711 34.6276L45.5527 35.11L45.3415 35.3781L44.9192 35.5925L44.7609 35.6461L44.8664 36.6645V37.8438L44.7081 38.755L44.3914 39.5055L43.9691 40.0951L43.7052 40.3631L43.2829 40.7384L42.544 41.1136L41.6467 41.3816H41.33L41.2244 40.792L41.1188 40.6312L40.6437 40.5239L40.3798 40.7384L40.2743 40.9528V41.4888L40.1159 41.5424L38.3212 41.3816L37.4767 41.2208V40.3095L37.2128 40.2024H36.7905L36.5794 40.4704V40.9528L36.685 41.1136L37.0017 41.2744L36.9489 41.4352L35.946 42.132L34.8375 42.9897L34.1513 43.5794L33.5707 44.0618L32.8845 44.705L32.3567 45.241L32.04 45.6162L31.7233 45.5091L30.1926 44.7586L24.8086 42.0249L23.5946 41.4352L23.1195 41.1136L22.9084 41.06H22.4333L21.9055 40.8456L21.6944 40.6312L21.536 40.3095V39.5591L21.6416 39.2375L22.0111 38.9159L22.4861 38.755H22.9611L23.3835 39.0767L23.6474 39.5055L23.7529 39.8807L23.7002 40.3095L23.7529 40.2559V39.6127L23.5418 39.1303L23.1723 38.8087L23.0667 38.755L23.1195 38.5406L23.6474 38.0046L23.7002 37.8974H23.8057L23.9113 37.683L24.703 36.8253L25.1781 36.2357L25.8115 35.4317L25.9699 35.1637L25.9171 34.9492L25.6532 34.6812L24.9142 33.8772L24.0696 32.9659L23.7002 32.5371L22.9611 31.6258L22.4333 30.929L21.8527 30.125L21.061 28.9457L20.3747 27.82L19.7414 26.6944L19.3191 25.8903L19.2663 25.6759L19.3719 25.6223L18.9496 25.3543L18.6857 25.0863L18.5273 24.8718V24.175L18.8441 23.7462L19.2663 23.5318H19.8469L20.1636 23.7462L20.3747 24.0142L20.5331 24.2822V24.8182L20.6387 24.3894H21.061L23.3835 24.8182L25.6004 25.3006L27.4478 25.7831L29.0313 26.3191L30.1398 26.8015L30.4565 27.016V27.1768L30.0342 27.552L29.823 27.82L29.5591 27.7664L28.4507 27.284L26.9727 26.8015L24.3863 26.1583L22.275 25.7295L20.322 25.4079L20.8498 26.4263L21.4832 27.552L22.0638 28.4632L22.75 29.4817L23.4362 30.4466L24.0168 31.197L24.703 32.0011L25.0725 32.4299L25.6532 33.0731L26.7088 34.1452L26.9727 33.8772L28.0284 32.2691L28.7146 31.1434L29.348 29.9641L29.8758 28.8921H29.9814L29.9286 28.7849L29.8758 27.9272L30.0342 27.6592L30.4565 27.2304L30.6148 27.1231L31.0899 27.1768L30.7204 27.016L31.0899 25.9439L31.5121 24.5502L31.8816 22.9421L32.0927 21.602L32.1983 20.5836V17.957L32.04 16.6169L31.8288 15.4377L31.4594 14.0976L31.1427 13.1327L30.6148 11.8999L30.2454 11.0958V10.8814L30.6676 10.667L30.7204 10.6134V10.131L30.4565 9.86295L29.9814 9.91654L29.823 10.131V10.7742L28.7674 10.6134L28.1868 10.5598H26.9727L25.7059 10.7206L24.4391 11.0422L23.489 11.3638L22.3805 11.8463L22.1166 11.8999L21.6416 11.3102L21.536 11.0958L21.9583 10.8278L22.9084 10.399L23.9113 10.0238L25.1253 9.70212L26.0226 9.5413L26.6032 9.48771H29.2952L28.7674 8.73728L28.134 7.87962L27.7117 7.3436L27.2366 6.80758L26.8672 6.37875L26.4977 6.00351V5.89633H26.3921L26.0226 5.4675L25.4948 4.93144L25.6004 4.71702L26.0754 4.18101H26.2866L27.7117 5.62828L28.0812 6.05711L28.7146 6.80758L29.4008 7.71879L29.9814 8.52286L30.6148 9.5413L30.8787 9.91654L31.7233 10.2382L33.2012 10.8278L34.732 11.5782L36.1571 12.4359L36.7378 12.8647L37.4767 13.4007L38.2157 13.9904L38.7435 14.4728L39.1658 14.8481L39.6936 15.3305L41.2244 16.885L41.5939 17.3138L41.7522 17.4746L41.6994 16.8313L41.33 15.3841L40.9076 14.3656L40.3798 13.3471L39.9048 12.5967L39.3769 11.8999L38.7435 11.1494L37.4767 9.86295L36.8961 9.38052L36.2099 8.79087L35.2598 8.09403L34.1513 7.3436L33.2012 6.75395L31.8288 5.94992L30.087 5.03867L28.3451 4.18101L27.7117 3.96659H26.2338V2.89453ZM30.9315 4.1274L31.1954 4.39542L32.5151 5.09226L33.9402 5.94992L35.0487 6.64676L36.1043 7.39719L37.2128 8.25486L37.899 8.84446L38.4796 9.38052L38.9019 9.75572L39.4297 10.2918L39.7992 10.7206L40.4326 11.5246L41.066 12.4359L41.6994 13.5616L42.1745 14.6872L42.544 15.8129L42.7551 16.8313L42.9134 18.1714L43.2829 18.225L43.3885 16.4561V15.7057L43.2829 14.2584L43.0718 12.9719L42.7551 11.8463L42.3328 10.8278L41.8578 9.91654L41.3827 9.2197L40.9076 8.63005L40.4326 8.09403L40.0103 7.71879L39.3769 7.18278L38.5324 6.59317L37.4239 5.94992L36.2099 5.41386L35.207 5.03867L33.6235 4.60983L32.1456 4.28821L31.1954 4.1274H30.9315ZM31.5649 11.3638L32.0927 12.7039L32.5678 14.1512L32.8845 15.4377L33.1484 17.0458L33.254 17.957V20.6372L32.9901 22.6741L32.6734 24.2286L32.3039 25.5687L31.7233 27.3376L31.301 27.284L31.5649 27.4984L31.776 27.7664L31.8288 27.8736V28.5705L31.5121 28.9993L31.2482 29.1601L30.7732 29.2137L30.562 29.2673L30.7732 29.3745L30.6676 29.6961L29.9814 31.0362L29.1896 32.3763L28.609 33.2875L28.0812 34.0916L27.5533 34.842L27.7117 35.11L28.2396 35.5388L28.7146 35.9141L28.9257 35.8605L29.7703 35.2708L30.7732 34.5204L31.5121 33.9308L32.3567 33.2339L32.8845 32.8051L33.6763 32.1082L34.3624 31.5186L34.5208 31.465L34.6264 31.6794L34.8903 32.0011L35.1015 32.0547L35.0487 32.2691L34.6264 32.6443L34.0985 33.1267L33.5179 33.6092L32.8318 34.1988L31.2482 35.4317L30.1926 36.2357L29.7175 36.5573V36.6645L30.9315 37.4686L32.2511 38.219L33.1484 38.6479L33.8346 38.9694L34.8903 39.3983L35.9988 39.7735L37.2656 40.0951L38.6907 40.3631L39.6936 40.4704H40.4326L41.4355 40.3631L42.2273 40.0951L42.8079 39.7735L43.3357 39.2375L43.6524 38.5943L43.8108 38.0046L43.8636 37.5222V37.0398L43.7052 35.9141L43.6524 35.6461V35.1637L43.8636 34.8956L44.6025 34.574L44.5497 34.2524L44.0219 32.9123L43.8108 32.3227L44.9192 32.0547L45.0248 32.0011V31.2506L44.8664 29.6425V29.2137L45.0248 28.9457L45.4998 28.624L46.3444 28.1952L47.2416 27.7128V27.4984L46.5028 26.4799L45.7638 25.515L45.0248 24.4966L44.3914 23.5854L43.758 22.6205L43.3885 21.9237L42.9662 21.9773L42.3328 22.0309L42.2273 22.1381L41.8578 23.2638L41.4883 24.1214L40.9076 25.1934L40.2215 26.3191L39.852 26.8551L39.2714 27.6592L38.5852 28.5169L38.1629 29.0529L37.3712 29.9105L37.0017 30.3394L36.7378 30.661L36.4738 30.393L35.9988 29.9641L36.1043 29.7497L36.5266 29.3745L37.0017 28.8385L37.5823 28.1952L38.0573 27.6056L38.7963 26.6407L39.852 25.0326L40.5382 23.7998L41.1716 22.2989L41.3827 21.8164L41.33 21.602L40.9076 21.0124L40.6965 20.4228V19.7259L40.9076 19.1363L41.2244 18.7075L41.1716 18.4394L40.6965 17.957L40.327 17.5282L39.5881 16.7242L38.7435 15.8665L38.3212 15.4913L37.7934 15.0088L37.0545 14.4192L36.1571 13.7224L35.1015 13.0255L33.7818 12.2751L32.5151 11.6855L31.776 11.3638H31.5649ZM20.2164 25.1934V25.3543L20.322 25.1934H20.2164ZM26.6032 34.5204L26.3393 34.6812L26.181 35.11L26.3921 35.4853L26.6032 35.6461L27.0783 35.5388L27.3422 35.2172L27.2894 35.0564L27.0255 35.3781L26.7616 35.4853L26.4449 35.2172V34.9492L26.5505 34.7348H26.9199L27.1311 34.8956H27.2366V35.0028H27.3422L27.2366 34.7884L26.9199 34.5204H26.6032ZM26.8144 35.7533L26.6032 36.0749L26.0754 36.7717L24.8086 38.2726L24.5447 38.5943L24.703 38.6479L25.6532 38.0582L26.656 37.415L27.7117 36.7181L27.8173 36.5037L26.8672 35.7533H26.8144ZM28.609 36.1285L28.3451 36.2893L28.1868 36.5037V36.8253L28.3979 37.1469L28.609 37.415L28.3451 37.5222L26.181 38.9159L24.8614 39.7199L24.0168 40.2024L23.8585 40.3095L24.3863 40.6312L30.826 43.901L31.776 44.3298L32.5151 43.5794L33.0957 43.0969L33.6763 42.5609L34.4153 41.9712L35.1015 41.4352L35.7876 40.9528L35.8404 40.792L34.4681 40.3095L33.0429 39.7199L31.5121 38.9694L30.2981 38.2726L29.1369 37.5222L28.9257 37.3614V37.2542L29.2424 36.9862L29.2952 36.8789V36.5573L29.0841 36.2357L28.8202 36.1285H28.609Z" fill="white"/>
<path d="M44.0747 21.334L44.3386 21.602L45.2359 22.9421L45.9221 23.9069L46.45 24.6574L47.2943 25.783L47.9281 26.6407L48.3503 27.2303L48.4556 27.4448V27.9272L48.1392 28.4096L47.717 28.6776L46.0277 29.5353L45.9749 29.5889V30.1785L46.1333 31.7866V32.537L45.8694 32.8051L45.5527 32.9659L45.2359 33.0195L45.2887 33.2875L45.6582 34.2524L45.711 34.6276L45.5527 35.11L45.3415 35.378L44.9192 35.5924L44.7609 35.646L44.8664 36.6645V37.8437L44.7081 38.755L44.3914 39.5055L43.9691 40.0951L43.7052 40.3631L43.2829 40.7383L42.544 41.1136L41.6467 41.3816H41.33L41.2244 40.7919L41.1188 40.6311L40.6437 40.5239L40.3798 40.7383L40.2743 40.9528V41.4888L40.1159 41.5424L38.3212 41.3816L37.4767 41.2208V40.3095L37.2128 40.2023H36.7906L36.5794 40.4703V40.9528L36.685 41.1136L37.0017 41.2744L36.9489 41.4352L35.946 42.132L34.8375 42.9897L34.1513 43.5793L33.5707 44.0617L32.8845 44.705L32.3567 45.241L32.04 45.6162L31.7233 45.509L30.1926 44.7586L24.8086 42.0248L23.5946 41.4352L23.1195 41.1136L22.9084 41.0599H22.4333L21.9055 40.8455L21.6944 40.6311L21.536 40.3095V39.5591L21.6416 39.2374L22.0111 38.9158L22.4861 38.755H22.9611L23.3835 39.0766L23.6474 39.5055L23.7529 39.8807L23.7002 40.3095L23.7529 40.2559V39.6127L23.5418 39.1302L23.1723 38.8086L23.0667 38.755L23.1195 38.5406L23.6474 38.0046L23.7002 37.8973H23.8057L23.9113 37.683L24.703 36.8253L25.1781 36.2357L25.8115 35.4316L25.9699 35.1636L25.9171 34.9492L25.6532 34.6812L24.9142 33.8771L24.0696 32.9659L23.7002 32.537L22.9611 31.6258L22.4333 30.929L21.8527 30.1249L21.061 28.9456L20.3747 27.82L19.7414 26.6943L19.3191 25.8903L19.2663 25.6758L19.3719 25.6222L18.9496 25.3542L18.6857 25.0862L18.5273 24.8718V24.1749L18.8441 23.7461L19.2663 23.5317H19.8469L20.1636 23.7461L20.3747 24.0142L20.5331 24.2822V24.8182L20.6387 24.3893H21.061L23.3835 24.8182L25.6004 25.3006L27.4478 25.783L29.0313 26.3191L30.1398 26.8015L30.4565 27.0159V27.1767L30.0342 27.5519L29.823 27.82L29.5591 27.7664L28.4507 27.2839L26.9727 26.8015L24.3863 26.1583L22.275 25.7294L20.322 25.4078L20.8498 26.4263L21.4832 27.5519L22.0638 28.4632L22.75 29.4817L23.4362 30.4465L24.0168 31.197L24.703 32.001L25.0725 32.4299L25.6532 33.0731L26.7088 34.1451L26.9727 33.8771L28.0284 32.269L28.7146 31.1434L29.348 29.9641L29.8758 28.892H29.9814L29.9286 28.7848L29.8758 27.9272L30.0342 27.6592L30.4565 27.2303L30.6148 27.1231L31.0371 27.1767L31.5649 27.4448L31.8288 27.7664L31.8816 27.8736V28.5704L31.5649 28.9993L31.2482 29.2136L30.7204 29.2673L30.826 29.4817L30.2454 30.6609L29.4008 32.1082L28.7674 33.1267L28.3451 33.7699L27.6589 34.7884V34.9492L27.9229 35.2172L28.7146 35.8605L28.9257 35.8068L29.7703 35.2172L30.7732 34.4667L31.5121 33.8771L32.3567 33.1803L32.8845 32.7515L33.6763 32.0546L34.3624 31.465H34.5208L34.8903 31.9474L35.1015 32.0546L35.0487 32.3226L34.6264 32.6979L34.0985 33.1803L33.5179 33.6627L32.8318 34.2524L31.2482 35.4852L30.1926 36.2892L29.7703 36.5573L29.7175 36.6645L29.9286 36.7717L30.8787 37.3613L31.6705 37.8437L32.9901 38.5406L33.8346 38.9158L34.8903 39.3447L35.9988 39.7198L37.2656 40.0415L38.6907 40.3095L39.6936 40.4167H40.4326L41.4355 40.3095L42.2273 40.0415L42.8079 39.7198L43.2829 39.2374L43.5997 38.5942L43.758 38.0046L43.8108 37.5221V37.0397L43.6524 35.9141L43.5997 35.646V35.1636L43.8636 34.842L44.497 34.574H44.6025L43.8636 32.6442L43.758 32.3226L44.0219 32.2154L45.0248 32.001L44.8137 29.6425V29.2136L44.972 28.9456L45.3943 28.624L46.1861 28.1952L47.189 27.7128V27.4983L46.45 26.4799L45.711 25.515L44.972 24.4966L44.3386 23.5853L43.7052 22.6205L43.3885 22.0308V21.87L43.9691 21.4412H44.0747V21.334ZM20.2164 25.1934V25.3542L20.322 25.1934H20.2164ZM26.6032 34.5204L26.3393 34.6812L26.181 35.11L26.3921 35.4852L26.6032 35.646L27.0783 35.5388L27.3422 35.2172L27.2894 35.0564L27.0255 35.378L26.7616 35.4852L26.4449 35.2172V34.9492L26.5505 34.7348H26.9199L27.1311 34.8956H27.2366V35.0028H27.3422L27.2366 34.7884L26.9199 34.5204H26.6032ZM26.8144 35.7532L26.6032 36.0749L26.0754 36.7717L24.8086 38.2726L24.5447 38.5942L24.703 38.6478L25.6532 38.0582L26.656 37.4149L27.7117 36.7181L27.8173 36.5037L26.8672 35.7532H26.8144ZM28.609 36.1285L28.3451 36.2892L28.1868 36.5037V36.8253L28.3979 37.1469L28.609 37.4149L28.3451 37.5221L26.181 38.9158L24.8614 39.7198L24.0168 40.2023L23.8585 40.3095L24.3863 40.6311L30.826 43.9009L31.776 44.3298L32.5151 43.5793L33.0957 43.0969L33.6763 42.5608L34.4153 41.9712L35.1015 41.4352L35.7876 40.9528L35.8404 40.7919L34.4681 40.3095L33.0429 39.7198L31.5121 38.9694L30.2981 38.2726L29.1369 37.5221L28.9257 37.3613V37.2541L29.2424 36.9861L29.2952 36.8789V36.5573L29.0841 36.2357L28.8202 36.1285H28.609Z" fill="white"/>
<path d="M2.42815 3.48438H3.37827L3.95889 3.64518L4.59229 3.9668L5.12013 4.44923L5.59519 5.09249L5.8591 5.78933L5.9119 6.05733V7.02218L5.64799 7.82625L5.27848 8.41586L4.96178 8.7911L4.43394 9.16633L3.80053 9.43434L3.37827 9.54153H2.48094L1.84753 9.3807L1.31969 9.1127L0.844639 8.7375L0.475155 8.30867L0.15845 7.71902L-0.0526851 7.12941L-0.105469 6.75417V6.27175L0.105666 5.36049L0.42237 4.77084L1.00299 4.12761L1.58362 3.75239L2.16424 3.53798L2.42815 3.48438Z" fill="white"/>
<path d="M44.0755 21.334L44.3394 21.602L45.2367 22.9421L45.9229 23.9069L46.4508 24.6574L47.2952 25.783L47.9285 26.6407L48.3512 27.2303L48.4565 27.4448V27.9272L48.1401 28.4096L47.7174 28.6776L46.0285 29.5353L45.9757 29.5889V30.1785L46.1341 31.7866V32.537L45.8701 32.8051L45.5534 32.9659L45.2367 33.0195L45.2895 33.2875L45.659 34.2524L45.7118 34.6276L45.5534 35.11L45.3423 35.378L44.92 35.5924L44.7617 35.646L44.8673 36.6645V37.8437L44.7089 38.755L44.3922 39.5055L43.97 40.0951L43.706 40.3631L43.2837 40.7383L42.5448 41.1136L41.6475 41.3816H41.3307L41.2252 40.7919L41.1196 40.6311L40.6445 40.4703V40.4167L41.4363 40.3095L42.2281 40.0415L42.8087 39.7199L43.2837 39.2374L43.6004 38.5942L43.7588 38.0046L43.8116 37.5221V37.0397L43.6532 35.9141L43.6004 35.646V35.1636L43.8644 34.842L44.4978 34.574H44.6033L43.8644 32.6443L43.7588 32.3226L44.0227 32.2154L45.0256 32.001L44.8145 29.6425V29.2136L44.9728 28.9456L45.3951 28.624L46.1869 28.1952L47.1899 27.7128V27.4983L46.4508 26.4799L45.7118 25.515L44.9728 24.4966L44.3394 23.5853L43.706 22.6205L43.3893 22.0308V21.87L43.97 21.4412H44.0755V21.334Z" fill="white"/>
<path d="M42.4905 18.0645L43.0711 18.1716L43.4934 18.3325L44.074 18.7613L44.2324 19.0293L44.4963 19.7261V20.4766L44.2324 21.1198L44.074 21.4415L43.3878 21.9239L42.9656 22.0311L42.3322 22.0847L41.8571 23.3712L41.4876 24.1752L40.9598 25.1937L40.2736 26.3193L39.9041 26.8553L39.3235 27.6594L38.6373 28.5171L38.215 29.0531L37.4232 29.9108L37.0538 30.3395L36.7371 30.7148L36.4732 30.5004L36.2092 30.1788L35.9453 29.9644L36.0509 29.7499L36.5259 29.3211L36.8954 28.8923L37.5288 28.1954L38.0039 27.6058L38.7429 26.6409L39.7985 25.0328L40.4847 23.8L41.1181 22.2991L41.3293 21.8167L41.2765 21.6022L40.8542 21.0126L40.6431 20.423V19.7261L40.8542 19.1365L41.2765 18.5469L41.6987 18.2789L42.1738 18.118L42.4905 18.0645Z" fill="white"/>
<path d="M8.34061 24.8184H8.60457L9.23793 25.9976L9.92415 27.1769L10.6631 28.3561L11.2965 29.2674L11.9827 30.2322L12.6689 31.0899L13.2495 31.8403L13.7246 32.3764L14.094 32.8052L14.7275 33.5021L15.3081 34.0917V34.1989L15.5192 34.3061L15.7831 34.6277L16.2054 35.0029L16.6805 35.4854L17.1028 35.8606L17.8417 36.5038L18.6862 37.2007L19.5308 37.8439L20.4281 38.4871L21.2199 39.0232L21.431 39.2376L21.3783 40.3096H21.2199L20.2698 39.72L19.3725 39.0768L18.3695 38.3264L17.6306 37.7367L16.9444 37.1471L16.3638 36.6646L15.4664 35.807L14.6747 35.0565L14.094 34.4669L13.7246 34.0381L12.9328 33.1804L12.4578 32.5908L11.8243 31.8403L11.3493 31.1971L10.6631 30.2859L9.92415 29.2138L9.23793 28.1417L8.44621 26.8016L7.8128 25.676L7.49609 25.0864V24.9791L8.34061 24.8184Z" fill="white"/>
<path d="M5.01571 12.0615L5.75468 12.1687L6.3353 12.4903L6.75756 12.9191L7.02146 13.348L7.17982 13.8304L7.23262 14.42L7.12706 15.0097L6.91591 15.4385L6.54645 15.9209L6.07139 16.2426L5.54353 16.457H4.54065L3.96002 16.2426L3.48497 15.8673L3.16826 15.4385L2.90434 14.7953L2.85156 14.0984L3.00991 13.4552L3.27383 12.9728L3.59053 12.5975L4.06559 12.2759L4.54065 12.1151L5.01571 12.0615Z" fill="white"/>
<path d="M15.7299 17.2061H16.4689L17.0495 17.4205L17.4718 17.7421L17.8413 18.3317L17.9468 18.6533V19.511L17.7357 20.047L17.2607 20.5831L16.944 20.7974L16.3633 20.9583H15.8883L15.4132 20.8511L14.8854 20.5294L14.5159 20.047L14.3048 19.6182L14.252 19.4038V18.7606L14.4631 18.1709L14.7798 17.7421L15.0965 17.4741L15.5188 17.2596L15.7299 17.2061Z" fill="white"/>
<path d="M41.382 21.709L42.2794 22.0306L42.1211 22.6738L41.6987 23.7459L41.2765 24.6036L40.8014 25.4612L40.2208 26.3724L39.7985 27.0157L39.3235 27.6589L38.6373 28.5166L38.215 29.0526L37.4232 29.9103L37.0538 30.3391L36.7371 30.7143L36.4732 30.4999L36.2092 30.1783L35.9453 29.9639L36.0509 29.7495L36.5259 29.3206L36.8954 28.8918L37.5288 28.1949L38.0039 27.6053L38.7429 26.6404L39.7985 25.0324L40.4847 23.7995L41.1181 22.2986L41.382 21.709Z" fill="white"/>
<path d="M20.9027 24.3896L22.0112 24.5505L24.9143 25.1401L27.4479 25.7833L29.0314 26.3194L30.1399 26.8018L30.4566 27.0162V27.1771L30.0343 27.5522L29.8232 27.8203L29.5593 27.7667L28.4508 27.2842L26.9729 26.8018L24.3865 26.1586L22.2751 25.7297L20.6388 25.4617L20.4805 25.1937L20.7444 24.4969L20.9027 24.3896Z" fill="white"/>
<path d="M9.50204 22.835H10.0827L13.6192 23.2638L16.7862 23.6926L18.2114 23.907L18.5281 24.0142L18.4753 25.0327L17.7891 24.9791L14.4637 24.4966L11.5078 24.1215L9.50204 23.907L9.39648 23.8534L9.44928 22.8886L9.50204 22.835Z" fill="white"/>
<path d="M10.8743 13.293H11.6132L12.0883 13.4538L12.5106 13.7754L12.8801 14.365L12.9856 14.7402V15.3299L12.7745 15.9195L12.2994 16.4556L11.7716 16.7236L11.4549 16.7772H10.9798L10.452 16.6163L9.97695 16.2411L9.71299 15.8659L9.55469 15.4371V14.5795L9.87135 13.9362L10.3464 13.5074L10.8743 13.293Z" fill="white"/>
<path d="M12.9329 7.82617H13.7246L14.3052 8.04059L14.5164 8.20136V8.3086H14.6219L14.9387 8.84461L15.0442 9.16626V9.8631L14.8859 10.2919L14.6219 10.7207L14.2524 11.0424L13.6718 11.2568H12.9857L12.405 11.0424L11.9827 10.6671L11.666 10.0775L11.6133 9.8631V9.21985L11.8244 8.6302L12.2994 8.09418L12.7217 7.87976L12.9329 7.82617Z" fill="white"/>
<path d="M9.34315 3.37695H9.87101L10.3988 3.53776L10.8739 3.91299L11.1906 4.39542L11.3489 4.87787V5.36029L11.1906 5.89631L10.8211 6.43232L10.2933 6.75397L9.92376 6.86115H9.2376L8.70974 6.64674L8.23468 6.21791L7.97077 5.68189L7.91797 5.52107V4.71704L8.23468 4.0738L8.60418 3.69857L9.132 3.43056L9.34315 3.37695Z" fill="white"/>
<path d="M7.60111 21.4414L8.39283 21.5486L8.86789 21.8702L9.1846 22.2454L9.34295 22.6743V23.5319L9.07905 24.1752L8.70954 24.604L8.02337 24.8184H7.33716L6.86215 24.604L6.43984 24.2288L6.17593 23.7999L6.01758 23.2639L6.07038 22.7815L6.28149 22.2454L6.65099 21.8166L7.07325 21.5486L7.60111 21.4414Z" fill="white"/>
<path d="M24.2805 1.82227H24.9139L25.389 1.98307L25.864 2.4119L26.1279 2.94793L26.1807 3.10874V3.59117L26.0223 4.1808L25.5473 4.71682L25.2306 4.93124L24.7556 5.03847L24.1221 4.98483L23.6999 4.77042L23.4359 4.50242L23.2248 4.23441L23.0137 3.75198V3.05514L23.3304 2.4119L23.7526 2.03668L24.2805 1.82227Z" fill="white"/>
<path d="M20.2159 11.1504H21.0604L21.4827 11.3112L21.7466 11.5256L22.0633 12.0081L22.1688 12.3297V13.1337L21.9049 13.6697L21.5355 14.0449L21.0604 14.2593L20.8493 14.313H20.427L19.8991 14.1522L19.5297 13.8842L19.213 13.3481L19.1074 13.0801V12.2761L19.4241 11.6328L19.7936 11.3112L20.2159 11.1504Z" fill="white"/>
<path d="M22.4872 38.7549H22.9623L23.3846 39.0765L23.6485 39.5053L23.7013 39.9877L23.4901 40.5238L23.2262 40.7918L23.015 40.9526H22.9095V41.0598H22.4344L21.9066 40.8454L21.6955 40.631L21.5371 40.3094V39.559L21.6427 39.2373L22.0122 38.9157L22.4872 38.7549Z" fill="white"/>
<path d="M35.3133 30.0186H35.7355L36.105 30.1793L36.4745 30.5546L36.58 30.769V31.2514L36.3689 31.6802L35.9466 32.0018L35.8411 32.0555H35.1549L34.6798 31.6802L34.5215 31.3586V30.8762L34.7326 30.3937L35.1021 30.0721L35.3133 30.0186Z" fill="white"/>
<path d="M30.614 27.123L31.0363 27.1766L31.5641 27.4446L31.828 27.7663L31.8808 27.8735V28.5703L31.5641 28.9991L31.2474 29.2136L30.7723 29.2672L30.1389 28.9991L30.0334 28.7847L29.9278 28.6775L29.875 27.9271L30.0334 27.6591L30.4556 27.2302L30.614 27.123Z" fill="white"/>
<path d="M19.2663 23.5322H19.8469L20.1636 23.7466L20.3747 24.0146L20.5331 24.2827V24.8187L20.322 25.1939L19.7941 25.4619L19.3719 25.5156L19.0024 25.4083L18.7913 25.1403L18.5273 24.8723V24.1755L18.8441 23.7466L19.2663 23.5322Z" fill="white"/>
<path d="M19.2135 6.54004H19.8469L20.1636 6.75445L20.3747 7.02246L20.4275 7.12969V7.82653L20.1108 8.25536L19.7414 8.46973H19.3191L18.8968 8.25536L18.6329 7.93372L18.5273 7.3977L18.6857 6.96887L18.8968 6.70086L19.2135 6.54004Z" fill="white"/>
<path d="M15.8874 2.7334L16.3625 2.787L16.6792 2.94781L16.9431 3.37664V3.96627L16.732 4.28789L16.468 4.50231L15.993 4.60951L15.5179 4.4487L15.2012 4.07348L15.1484 3.91267V3.43024L15.3068 3.10862L15.6235 2.84061L15.8874 2.7334Z" fill="white"/>
<path d="M28.0805 3.05566L28.8722 3.16287L29.3473 3.37728L30.3502 3.80611L30.5613 3.96692L30.5085 4.18133L30.2446 4.23494L29.664 4.12773H29.1889V4.02052L28.6611 3.96692H28.0805L27.6582 3.6989L27.7638 3.32368L28.0805 3.05566Z" fill="white"/>
<path d="M12.9329 7.82617H13.7246L14.3052 8.04059L14.5164 8.20136V8.3086H14.6219L14.9387 8.84461L15.0442 9.16626V9.8631L14.8859 10.2919L14.6219 10.7207L14.2524 11.0424L13.6718 11.2568H12.9857L12.405 11.0424L11.9827 10.6671L11.8772 10.3991L12.405 10.7207L12.6162 10.9351L12.8801 11.0424H13.6718L14.1997 10.8279L14.358 10.7744L14.4636 10.5599L14.6219 10.3455L14.7803 9.48786V8.95184L14.6219 8.5766L14.4108 8.36219L14.1469 8.14777L13.883 8.04059L13.144 7.98695L12.6162 8.14777L12.0355 8.5766L11.8772 8.8982H11.7716L11.7188 9.64868L11.6133 9.75587V9.21985L11.8244 8.6302L12.2994 8.09418L12.7217 7.87976L12.9329 7.82617Z" fill="white"/>
<path d="M24.2805 1.82227H24.9139L25.389 1.98307L25.864 2.4119L26.1279 2.94793L26.1807 3.10874V3.59117L26.0223 4.1808L25.5473 4.71682L25.2306 4.93124L24.7556 5.03847L24.1221 4.98483L23.6999 4.77042L23.4359 4.50242L23.2248 4.23441L23.0137 3.75198V3.05514L23.3304 2.4119L23.7526 2.03668L24.2805 1.82227ZM24.3861 1.92947L23.8582 2.19749L23.4359 2.5191L23.2248 3.00153L23.172 3.91279L23.3304 4.23441H23.4359V4.39521L23.8582 4.66323L24.2805 4.82405H25.0723L25.389 4.71682V4.60963L25.6529 4.50242L25.9696 4.01999L26.0751 3.75198V3.26955L25.864 2.73352L25.6529 2.4119L25.2834 2.03668L24.8083 1.92947H24.3861Z" fill="white"/>
<path d="M7.60111 21.4414L8.39283 21.5486L8.86789 21.8702L9.1846 22.2454L9.34295 22.6743V23.5319L9.07905 24.1752L8.70954 24.604L8.02337 24.8184H7.70667V24.7648L8.18173 24.604L8.55119 24.3896L8.81514 24.1215L9.13185 23.6927L9.1846 23.1567L9.13185 22.7279L8.92069 22.299L8.65679 22.031V21.9238L8.34008 21.8166L7.97057 21.7094H7.33716L6.75655 22.031L6.38708 22.5134L6.28149 22.7815L6.07038 23.2639L6.01758 23.0495L6.17593 22.4598L6.38708 22.0846L6.86215 21.6558L7.23161 21.495L7.60111 21.4414Z" fill="white"/>
<path d="M10.4512 22.9424H11.0318L16.4685 23.6392L18.2104 23.9072L18.5271 24.0144L18.4743 25.0329L17.7881 24.9793L17.0491 24.8721V24.7649H17.6298L18.2104 24.8721L18.2631 24.7113V24.0144H17.7881L17.2603 23.9608L17.1547 23.9072L16.6269 23.8536L16.4685 23.8L15.8879 23.7464L15.5184 23.6392L14.6211 23.5856L14.0405 23.4784L13.5126 23.3712L12.4042 23.264L11.5596 23.1568L10.4512 22.996V22.9424Z" fill="white"/>
<path d="M20.2159 11.1504H21.0604L21.4827 11.3112L21.7466 11.5256L22.0633 12.0081L22.1688 12.3297V13.1337L21.9049 13.6697L21.5355 14.0449L21.0604 14.2593L20.8493 14.313H20.427L19.8991 14.1522L19.688 13.9377L19.9519 13.9913L20.3742 14.0986H20.9548L21.4299 13.8842L21.7994 13.4553L21.9049 13.2945L21.9577 13.0265V12.2761L21.7466 11.74L21.2715 11.3648L20.9548 11.2576L20.3742 11.3112L20.0575 11.3648V11.472L19.8464 11.5256L19.5824 11.8472L19.4769 11.9008L19.4241 12.0616H19.3185L19.2657 12.2761L19.1602 12.9729H19.1074V12.2761L19.4241 11.6328L19.7936 11.3112L20.2159 11.1504Z" fill="white"/>
<path d="M16.1004 2.94824L16.3116 3.05545L16.47 3.21626L16.4172 3.48428L15.8365 3.32347L15.9421 3.9131L16.1532 4.12751L16.0476 4.34192L15.6254 4.28832L15.3615 4.02031L15.2031 3.75229L15.4143 3.37707L15.5198 3.26986L15.8893 3.10905L16.1004 2.94824Z" fill="white"/>
<path d="M16.4688 23.6924L17.1549 23.746L18.4217 23.9604L18.5273 24.014L18.4745 25.0325L17.7883 24.9789L17.0494 24.8717V24.7645H17.63L18.2106 24.8717L18.2634 24.7109V24.014H17.7883L17.2605 23.9604L17.1549 23.9068L16.6271 23.8532L16.4688 23.7996V23.6924Z" fill="white"/>
<path d="M28.3989 3.2168L29.349 3.53842V3.75283L29.1379 3.86004L28.874 3.75283H28.0294L27.8711 3.64562L27.9766 3.37761L28.3989 3.2168Z" fill="white"/>
<path d="M40.6447 40.5234H40.9615L41.1726 40.7379V41.2203L40.9087 41.3811L40.5919 41.3275L40.4336 41.2203V40.7914L40.5391 40.5771L40.6447 40.5234Z" fill="white"/>
<path d="M30.1389 9.9707L30.6139 10.0243L30.7195 10.2923L30.6667 10.6139L30.4028 10.7748L30.0333 10.7212L29.9277 10.5604V10.0779L30.1389 9.9707Z" fill="white"/>
<path d="M30.6136 27.123L31.0359 27.1766L31.5637 27.4446L31.8276 27.7663L31.8804 27.8735V28.5703L31.5637 28.9991L31.247 29.2136H31.0359V29.1063L31.3526 28.8919L31.6165 28.5703L31.7221 28.0343L31.6165 27.7127L31.3526 27.4982L30.9303 27.3375H30.6136L30.3497 27.4982L30.2441 27.4446L30.6136 27.123Z" fill="white"/>
<path d="M37.055 40.3096H37.3717L37.4245 40.4168V40.9528L37.3717 41.1136H37.0022L36.6855 40.8992L36.7383 40.524L36.8967 40.3632L37.055 40.3096Z" fill="white"/>
<path d="M30.9319 10.3457L31.143 10.3993L31.3542 10.6674L31.4598 10.8818V11.1498L31.2486 11.257L30.668 11.1498L30.6152 10.8281L30.8263 10.6137L30.9319 10.3457Z" fill="white"/>
<path d="M26.6565 34.6816H26.9204L27.1315 34.9497V35.3249L26.8148 35.5393L26.5509 35.3785L26.3926 35.2177V34.9497L26.6565 34.6816Z" fill="white"/>
<path d="M12.9329 7.82617H13.7246L14.1469 7.98695L14.0941 8.09418L13.4079 7.98695L12.8801 8.04059L12.5634 8.20136L12.0355 8.5766L11.8772 8.8982H11.7716L11.7188 9.64868L11.6133 9.75587V9.21985L11.8244 8.6302L12.2994 8.09418L12.7217 7.87976L12.9329 7.82617Z" fill="white"/>
<path d="M28.7151 36.3428L29.0846 36.5036L29.1902 36.6644L29.1374 36.8788L28.7679 37.2004L28.504 37.0396L28.3984 36.8252L28.4512 36.5036L28.7151 36.3428Z" fill="white"/>
<path d="M36.3153 30.4473L36.5264 30.6617L36.5792 30.7689V31.2513L36.368 31.6801L35.9458 32.0018L35.8402 32.0554H35.418L35.5235 31.9481L35.893 31.7337L36.1569 31.5193L36.3153 31.3049L36.4208 30.8225L36.3153 30.4473Z" fill="white"/>
<path d="M35.3132 30.0186H35.7354L36.1049 30.1793L36.1577 30.2866L35.8938 30.1793H35.4187L35.1548 30.3402L34.7325 30.7154L34.5742 30.8762L34.627 30.5546L34.9965 30.1257L35.3132 30.0186Z" fill="white"/>
<path d="M19.2661 23.5322H19.8468L20.1634 23.7466L20.3746 24.0146L20.4801 24.2827L20.3218 24.2291L20.1634 23.9611V23.8538L19.8468 23.7466L19.4772 23.6931L18.9494 23.9075L18.7383 23.9611L18.8438 23.7466L19.2661 23.5322Z" fill="white"/>
<path d="M22.4872 38.7549H22.9622L23.2261 38.9693L22.6455 38.9157L21.9066 39.1301L21.6426 39.559H21.5898V39.2909L22.0121 38.9157L22.4872 38.7549Z" fill="white"/>
<path d="M9.50204 22.835H9.71319L9.55484 23.6926L9.50204 23.8534H9.39648L9.44928 22.8886L9.50204 22.835Z" fill="white"/>
<path d="M12.2994 8.09473L12.405 8.14836L12.0355 8.5772L11.8772 8.8988H11.7716L11.7188 9.64923L11.6133 9.75646V9.2204L11.8244 8.63079L12.2994 8.09473Z" fill="white"/>
<path d="M28.4512 26.1582L28.7679 26.2118L30.0347 26.7478L29.8763 26.8014L29.5068 26.6406L28.8734 26.4798V26.3726L28.6095 26.319L28.4512 26.1582Z" fill="white"/>
<path d="M30.3504 26.9629L30.5087 27.1237L30.0337 27.5525L29.8225 27.8206L29.5586 27.767L29.5059 27.6597L29.8753 27.5525L30.1392 27.1773L30.2976 27.1237L30.3504 26.9629Z" fill="white"/>
<path d="M29.6642 9.5957L29.9281 9.70293L29.9809 9.91735L29.717 10.0782L29.5059 9.91735L29.5586 9.64934L29.6642 9.5957Z" fill="white"/>
<path d="M20.639 24.3896H20.9029L20.7446 24.6041L20.5335 25.2473L20.5862 25.4081L20.2695 25.3545L20.3751 25.0865L20.5335 24.8721L20.639 24.3896Z" fill="white"/>
<path d="M25.6523 25.3545L26.233 25.4617L26.9719 25.6761L26.7608 25.7297L26.1802 25.6225L25.6523 25.4081V25.3545Z" fill="white"/>
<path d="M14.1465 7.9873L14.516 8.20172V8.3089H14.6216L14.8855 8.73774L14.8327 8.84492L14.516 8.41614L14.1993 8.20172L14.0938 8.0409L14.1465 7.9873Z" fill="white"/>
<path d="M36.2091 40.5234H36.4202L36.473 40.6843L36.3675 40.8987L36.1035 40.8451L36.0508 40.6307L36.2091 40.5234Z" fill="white"/>
<path d="M27.4473 25.8369L27.9751 25.9441L28.4502 26.1049L28.3446 26.2122L28.0807 26.1585L27.5529 25.9441L27.4473 25.8369Z" fill="white"/>
<path d="M22.0117 24.6035L22.5396 24.6571L23.2785 24.8179V24.8715H22.8035L22.0117 24.6571V24.6035Z" fill="white"/>
<path d="M40.6447 40.5234H40.9614L41.1725 40.7379V41.2203H41.1197L41.0669 40.6843H40.6975L40.4863 40.7914L40.5391 40.5771L40.6447 40.5234Z" fill="white"/>
<path d="M15.5195 23.5322L16.4697 23.6394V23.7466H15.889L15.5195 23.6394V23.5322Z" fill="white"/>
<path d="M34.5742 31.3584L34.8381 31.6264L35.2604 31.948L35.3659 32.0552L35.0492 32.0016L34.6798 31.68L34.5742 31.5192V31.3584Z" fill="white"/>
<path d="M16.4688 23.6924L17.1549 23.746V23.9068L16.6271 23.8532L16.4688 23.7996V23.6924Z" fill="white"/>
<path d="M12.7741 7.93359H12.8797V8.04083L12.563 8.20165L12.1934 8.46966L12.0879 8.41602L12.4046 8.04083L12.7741 7.93359Z" fill="white"/>
<path d="M15.1484 3.43066H15.2012L15.3068 3.91309L15.5179 4.23471L15.4123 4.34192L15.2012 4.0739L15.1484 3.91309V3.43066Z" fill="white"/>
<path d="M11.7188 9.16699H11.7716V10.0247L11.8244 10.2927L11.666 10.0782L11.6133 9.75665L11.666 9.435L11.7188 9.16699Z" fill="white"/>
<path d="M12.932 7.82617H13.4071L13.3543 7.93336L12.8792 7.98695L12.5098 8.04059L12.7209 7.87976L12.932 7.82617Z" fill="white"/>
<path d="M18.6857 23.9609L18.7385 24.1218L18.5801 24.8722H18.5273V24.1754L18.6857 23.9609Z" fill="white"/>
</g>
<path d="M68.0451 20.5049H62.7227C62.0875 20.5049 61.8027 20.2202 61.8027 19.585V6.09277C61.8027 5.45759 62.0875 5.17285 62.7227 5.17285H68.0451C73.1484 5.17285 76.3463 8.12975 76.3463 12.8389C76.3463 17.548 73.1484 20.5049 68.0451 20.5049ZM65.4167 8.30497V17.3728H68.1546C70.9581 17.3728 72.6228 15.5548 72.6228 12.8389C72.6228 10.1229 70.9581 8.30497 68.1546 8.30497H65.4167ZM88.4656 16.0586H81.1719C81.2376 16.6281 81.4566 17.1756 81.8947 17.548C82.3547 17.9422 83.0775 18.1394 83.7126 18.1394C84.304 18.1394 84.8516 18.0518 85.3554 17.8765C85.7058 17.7451 86.0343 17.5918 86.3629 17.3728C86.5162 17.2633 86.6695 17.2195 86.8009 17.2195C86.9981 17.2195 87.1733 17.2852 87.3485 17.4385L88.1589 18.0956C88.3999 18.2927 88.5094 18.4898 88.5094 18.665C88.5094 18.8622 88.378 19.0593 88.1589 19.2345C86.9543 20.264 85.2896 20.7896 83.625 20.7677C80.2739 20.7677 77.8208 18.4022 77.8208 15.0292C77.8208 11.6561 80.2739 9.2906 83.625 9.2906C87.02 9.2906 89.276 11.7875 89.276 15.2482V15.3358C89.276 15.8615 88.9474 16.0586 88.4656 16.0586ZM81.2376 13.9778H85.9248C85.881 13.3426 85.6401 12.7951 85.2239 12.3789C84.7859 11.9628 84.2602 11.7437 83.625 11.7437C82.9898 11.7437 82.3985 11.9847 81.9823 12.4008C81.5662 12.7951 81.3252 13.3426 81.2376 13.9778ZM95.7737 16.9347L98.3363 10.1886C98.5335 9.70676 98.7525 9.55343 99.2782 9.55343H101.315C101.687 9.55343 101.907 9.72866 101.907 10.0353C101.907 10.1229 101.885 10.2324 101.819 10.3419L97.7669 19.8697C97.5697 20.3516 97.3288 20.5049 96.8031 20.5049H94.7223C94.1967 20.5049 93.9776 20.3516 93.7586 19.8697L89.7066 10.3419C89.6628 10.2324 89.6409 10.1229 89.6409 10.0353C89.6409 9.75056 89.8599 9.55343 90.2322 9.55343H92.2473C92.773 9.55343 92.992 9.70676 93.1891 10.1886L95.7737 16.9347ZM112.957 16.0586H105.663C105.729 16.6281 105.948 17.1756 106.386 17.548C106.846 17.9422 107.569 18.1394 108.204 18.1394C108.795 18.1394 109.343 18.0518 109.847 17.8765C110.197 17.7451 110.526 17.5918 110.854 17.3728C111.007 17.2633 111.161 17.2195 111.292 17.2195C111.489 17.2195 111.664 17.2852 111.84 17.4385L112.65 18.0956C112.891 18.2927 113.001 18.4898 113.001 18.665C113.001 18.8622 112.869 19.0593 112.65 19.2345C111.445 20.264 109.781 20.7896 108.116 20.7677C104.765 20.7677 102.312 18.4022 102.312 15.0292C102.312 11.6561 104.765 9.2906 108.116 9.2906C111.511 9.2906 113.767 11.7875 113.767 15.2482V15.3358C113.767 15.8615 113.439 16.0586 112.957 16.0586ZM105.729 13.9778H110.416C110.372 13.3426 110.131 12.7951 109.715 12.3789C109.277 11.9628 108.751 11.7437 108.116 11.7437C107.481 11.7437 106.89 11.9847 106.473 12.4008C106.057 12.7951 105.816 13.3426 105.729 13.9778ZM119.247 4.91002V19.6945C119.247 20.2421 118.984 20.5049 118.436 20.5049H116.553C116.005 20.5049 115.742 20.2421 115.742 19.6945V5.67662C115.742 5.17285 115.917 4.93192 116.421 4.8005L118.436 4.29674C118.524 4.27483 118.611 4.25293 118.699 4.25293C119.049 4.25293 119.247 4.49386 119.247 4.91002ZM127.503 9.2906C131.051 9.2906 133.635 11.6561 133.635 15.0292C133.635 18.4022 131.051 20.7677 127.503 20.7677C123.954 20.7677 121.37 18.4022 121.37 15.0292C121.37 11.6561 123.954 9.2906 127.503 9.2906ZM127.503 17.8327C129.08 17.8327 130.197 16.6719 130.197 15.0292C130.197 13.3864 129.08 12.2256 127.503 12.2256C125.926 12.2256 124.809 13.3864 124.809 15.0292C124.809 16.6719 125.926 17.8327 127.503 17.8327ZM139.092 19.4316V24.0751C139.092 24.6226 138.829 24.8855 138.282 24.8855H136.573C136.026 24.8855 135.763 24.6226 135.763 24.0751V10.3638C135.763 9.81627 136.026 9.55343 136.573 9.55343H137.844C138.347 9.55343 138.654 9.77246 138.654 10.32V10.8895C139.552 9.83817 140.8 9.2906 142.246 9.2906C145.553 9.2906 147.634 11.5685 147.634 15.0292C147.634 18.4898 145.553 20.7677 142.246 20.7677C141.107 20.7677 139.902 20.2859 139.092 19.4316ZM141.545 17.7451C143.078 17.7451 144.195 16.6281 144.195 15.0292C144.195 13.4303 143.078 12.3132 141.545 12.3132C140.012 12.3132 138.939 13.4303 138.939 15.0292C138.939 16.6281 140.012 17.7451 141.545 17.7451ZM159.586 16.0586H152.292C152.358 16.6281 152.577 17.1756 153.015 17.548C153.475 17.9422 154.198 18.1394 154.833 18.1394C155.424 18.1394 155.972 18.0518 156.476 17.8765C156.826 17.7451 157.155 17.5918 157.483 17.3728C157.636 17.2633 157.79 17.2195 157.921 17.2195C158.118 17.2195 158.293 17.2852 158.469 17.4385L159.279 18.0956C159.52 18.2927 159.63 18.4898 159.63 18.665C159.63 18.8622 159.498 19.0593 159.279 19.2345C158.074 20.264 156.41 20.7896 154.745 20.7677C151.394 20.7677 148.941 18.4022 148.941 15.0292C148.941 11.6561 151.394 9.2906 154.745 9.2906C158.14 9.2906 160.396 11.7875 160.396 15.2482V15.3358C160.396 15.8615 160.068 16.0586 159.586 16.0586ZM152.358 13.9778H157.045C157.001 13.3426 156.76 12.7951 156.344 12.3789C155.906 11.9628 155.38 11.7437 154.745 11.7437C154.11 11.7437 153.519 11.9847 153.102 12.4008C152.686 12.7951 152.445 13.3426 152.358 13.9778ZM165.588 10.3638V11.24C166.201 10.0791 167.406 9.33441 169.136 9.33441C169.508 9.33441 169.924 9.33441 170.253 9.50963C170.56 9.66295 170.691 9.86007 170.691 10.101C170.691 10.2324 170.647 10.3638 170.581 10.5172L169.968 11.9847C169.815 12.3789 169.618 12.5103 169.311 12.5103C169.245 12.5103 169.158 12.5103 169.048 12.4884C168.698 12.4227 168.347 12.357 167.997 12.357C166.595 12.357 166.026 13.1893 166.026 14.4816V19.6945C166.026 20.2421 165.763 20.5049 165.215 20.5049H163.332C162.784 20.5049 162.521 20.2421 162.521 19.6945V10.3638C162.521 9.81627 162.784 9.55343 163.332 9.55343H164.777C165.325 9.55343 165.588 9.81627 165.588 10.3638Z" fill="white"/>
<path d="M73.2793 38.0706L74.5497 39.1438C74.8125 39.341 74.9439 39.4943 74.9439 39.8228C74.9439 40.2609 74.2649 40.8304 73.9364 41.0713C72.4689 42.1664 70.6729 42.6702 68.833 42.6702C64.0144 42.6702 60.707 39.3191 60.707 34.7414C60.707 30.1636 64.0144 26.8125 68.833 26.8125C70.4319 26.8125 71.987 27.2068 73.345 28.0172C73.8707 28.3238 74.5716 28.8057 74.8344 29.3532C74.9001 29.4847 74.922 29.5942 74.922 29.7037C74.922 29.9446 74.7906 30.1417 74.5497 30.3389L73.2793 31.4121C73.0603 31.6092 72.8412 31.7188 72.6222 31.7188C72.447 31.7188 72.2937 31.653 72.1184 31.4997C71.1985 30.7112 70.0815 30.1636 68.833 30.1636C66.2266 30.1636 64.4305 32.0692 64.4305 34.7414C64.4305 37.4135 66.2266 39.3191 68.833 39.3191C70.0815 39.3191 71.1985 38.7715 72.1404 37.983C72.2937 37.8297 72.4689 37.764 72.6222 37.764C72.8412 37.764 73.0603 37.8735 73.2793 38.0706ZM84.2778 41.6408V41.2246C83.5112 42.276 82.219 42.6702 80.7953 42.6702C78.2545 42.6702 76.4366 41.1808 76.4366 38.8153C76.4366 36.4279 78.364 35.048 80.8391 35.048C82.0656 35.048 82.876 35.267 83.8398 35.5956V35.3984C83.8179 34.2814 83.0951 33.5586 81.6057 33.5586C80.62 33.5586 79.6563 33.7338 78.7583 34.1062C78.6488 34.15 78.5612 34.1719 78.4736 34.1719C78.1888 34.1719 77.9698 33.9528 77.8603 33.6462L77.5974 32.9234C77.5536 32.792 77.5317 32.6606 77.5317 32.5292C77.5317 32.2663 77.6632 32.0473 77.9479 31.894C79.043 31.3683 80.401 31.1931 81.6057 31.1931C85.1101 31.1931 87.1909 33.1424 87.1909 35.8146V41.597C87.1909 42.1445 86.9281 42.4074 86.3805 42.4074H85.1101C84.5845 42.4074 84.2778 42.1664 84.2778 41.6408ZM83.8398 38.5744V37.6325C83.1389 37.3478 82.5913 37.2383 81.8028 37.2383C80.7077 37.2383 79.7877 37.8078 79.7877 38.8153C79.7877 39.8009 80.6858 40.3923 81.6714 40.3923C82.9856 40.3923 83.8398 39.6476 83.8398 38.5744ZM93.0548 32.2663V33.1424C93.6681 31.9816 94.8728 31.2369 96.6031 31.2369C96.9755 31.2369 97.3916 31.2369 97.7202 31.4121C98.0268 31.5654 98.1582 31.7626 98.1582 32.0035C98.1582 32.1349 98.1144 32.2663 98.0487 32.4196L97.4354 33.8871C97.2821 34.2814 97.085 34.4128 96.7783 34.4128C96.7126 34.4128 96.625 34.4128 96.5155 34.3909C96.1651 34.3252 95.8146 34.2595 95.4642 34.2595C94.0624 34.2595 93.4929 35.0918 93.4929 36.3841V41.597C93.4929 42.1445 93.2301 42.4074 92.6825 42.4074H90.7988C90.2513 42.4074 89.9884 42.1445 89.9884 41.597V32.2663C89.9884 31.7188 90.2513 31.4559 90.7988 31.4559H92.2444C92.792 31.4559 93.0548 31.7188 93.0548 32.2663ZM108.785 37.9611H101.492C101.557 38.5306 101.776 39.0781 102.214 39.4505C102.674 39.8447 103.397 40.0419 104.032 40.0419C104.624 40.0419 105.171 39.9542 105.675 39.779C106.026 39.6476 106.354 39.4943 106.683 39.2753C106.836 39.1657 106.989 39.1219 107.121 39.1219C107.318 39.1219 107.493 39.1876 107.668 39.341L108.479 39.9981C108.72 40.1952 108.829 40.3923 108.829 40.5675C108.829 40.7647 108.698 40.9618 108.479 41.137C107.274 42.1664 105.609 42.6921 103.945 42.6702C100.594 42.6702 98.1405 40.3047 98.1405 36.9316C98.1405 33.5586 100.594 31.1931 103.945 31.1931C107.34 31.1931 109.596 33.69 109.596 37.1507V37.2383C109.596 37.764 109.267 37.9611 108.785 37.9611ZM101.557 35.8803H106.245C106.201 35.2451 105.96 34.6976 105.544 34.2814C105.106 33.8652 104.58 33.6462 103.945 33.6462C103.31 33.6462 102.718 33.8871 102.302 34.3033C101.886 34.6975 101.645 35.2451 101.557 35.8803ZM121.555 37.9611H114.261C114.327 38.5306 114.546 39.0781 114.984 39.4505C115.444 39.8447 116.167 40.0419 116.802 40.0419C117.393 40.0419 117.941 39.9542 118.445 39.779C118.795 39.6476 119.123 39.4943 119.452 39.2753C119.605 39.1657 119.759 39.1219 119.89 39.1219C120.087 39.1219 120.262 39.1876 120.438 39.341L121.248 39.9981C121.489 40.1952 121.599 40.3923 121.599 40.5675C121.599 40.7647 121.467 40.9618 121.248 41.137C120.043 42.1664 118.379 42.6921 116.714 42.6702C113.363 42.6702 110.91 40.3047 110.91 36.9316C110.91 33.5586 113.363 31.1931 116.714 31.1931C120.109 31.1931 122.365 33.69 122.365 37.1507V37.2383C122.365 37.764 122.037 37.9611 121.555 37.9611ZM114.327 35.8803H119.014C118.97 35.2451 118.729 34.6976 118.313 34.2814C117.875 33.8652 117.349 33.6462 116.714 33.6462C116.079 33.6462 115.488 33.8871 115.071 34.3033C114.655 34.6975 114.414 35.2451 114.327 35.8803ZM127.556 32.2663V33.1424C128.169 31.9816 129.374 31.2369 131.104 31.2369C131.477 31.2369 131.893 31.2369 132.221 31.4121C132.528 31.5654 132.66 31.7626 132.66 32.0035C132.66 32.1349 132.616 32.2663 132.55 32.4196L131.937 33.8871C131.783 34.2814 131.586 34.4128 131.28 34.4128C131.214 34.4128 131.126 34.4128 131.017 34.3909C130.666 34.3252 130.316 34.2595 129.965 34.2595C128.564 34.2595 127.994 35.0918 127.994 36.3841V41.597C127.994 42.1445 127.731 42.4074 127.184 42.4074H125.3C124.753 42.4074 124.49 42.1445 124.49 41.597V32.2663C124.49 31.7188 124.753 31.4559 125.3 31.4559H126.746C127.293 31.4559 127.556 31.7188 127.556 32.2663Z" fill="white"/>
</svg>
