<svg width="381" height="103" viewBox="0 0 381 103" fill="none" xmlns="http://www.w3.org/2000/svg">
<g clip-path="url(#clip0_4183_34)">
<path d="M56.2926 6.21094H62.5222L65.3538 6.44098L69.6579 7.0161L73.0559 7.70624L76.5671 8.74145L79.0589 9.66164L82.3436 11.272L84.0426 12.3072L85.515 13.3424L86.9875 14.4926L88.6865 16.103L89.9324 17.4832L91.4048 19.5537L92.764 21.9692L93.8967 24.8447L94.5763 27.2602L95.0293 29.7907L95.2558 31.6311L95.3691 33.2415V36.117L95.1426 38.6476L94.9161 39.9128V40.833L95.4824 42.3283V43.9386L94.9161 45.3189L94.8028 45.4339V46.0091L95.4824 46.8142L97.0681 49.2297L98.5405 51.3001L99.6732 52.9105L101.485 55.326L102.845 57.1663L103.751 58.4316L103.977 58.8917V59.9269L103.298 60.9621L102.392 61.5372L98.7671 63.3776L98.6538 63.4926V64.7579L98.9936 68.2086V69.8189L98.4273 70.394L97.7477 70.7391L97.0681 70.8541L97.1814 71.4292L97.9742 73.4997L98.0875 74.3048L97.7477 75.34L97.2946 75.9152L96.3885 76.3753L96.0487 76.4903L96.2752 78.6757V81.2062L95.9354 83.1616L95.2558 84.772L94.3497 86.0372L93.7834 86.6123L92.8773 87.4175L91.2916 88.2227L89.3661 88.7978H88.6865L88.4599 87.5325L88.2334 87.1875L87.214 86.9574L86.6477 87.4175L86.4212 87.8776V89.0278L86.0814 89.1429L82.2303 88.7978L80.4181 88.4527V86.4973L79.8518 86.2673H78.9456L78.4926 86.8424V87.8776L78.7191 88.2227L79.3987 88.5677L79.2854 88.9128L77.1334 90.4081L74.7548 92.2485L73.2824 93.5138L72.0365 94.549L70.564 95.9292L69.4314 97.0795L68.7518 97.8846L68.0722 97.6546L64.7875 96.0443L53.2344 90.1781L50.6293 88.9128L49.6099 88.2227L49.1569 88.1076H48.1375L47.0048 87.6476L46.5518 87.1875L46.212 86.4973V84.887L46.4385 84.1969L47.2314 83.5067L48.2508 83.1616H49.2701L50.1763 83.8518L50.7426 84.772L50.9691 85.5771L50.8559 86.4973L50.9691 86.3823V85.002L50.5161 83.9668L49.7232 83.2767L49.4967 83.1616L49.6099 82.7015L50.7426 81.5513L50.8559 81.3213H51.0824L51.3089 80.8612L53.0079 79.0208L54.0273 77.7555L55.3865 76.0302L55.7263 75.4551L55.613 74.995L55.0467 74.4199L53.461 72.6945L51.6487 70.7391L50.8559 69.8189L49.2701 67.8635L48.1375 66.3682L46.8916 64.6429L45.1926 62.1123L43.7201 59.6968L42.361 57.2814L41.4548 55.556L41.3416 55.0959L41.5681 54.9809L40.662 54.4058L40.0957 53.8307L39.7559 53.3706V51.8753L40.4355 50.9551L41.3416 50.495H42.5875L43.2671 50.9551L43.7201 51.5302L44.0599 52.1053V53.2555L44.2865 52.3354H45.1926L50.1763 53.2555L54.9334 54.2907L58.8977 55.326L62.2957 56.4762L64.6742 57.5114L65.3538 57.9715V58.3166L64.4477 59.1217L63.9946 59.6968L63.4283 59.5818L61.0497 58.5466L57.8783 57.5114L52.3283 56.1311L47.7977 55.2109L43.6069 54.5208L44.7395 56.7062L46.0987 59.1217L47.3446 61.0771L48.8171 63.2626L50.2895 65.333L51.5354 66.9433L53.0079 68.6687L53.8008 69.5889L55.0467 70.9692L57.312 73.2696L57.8783 72.6945L60.1436 69.2438L61.6161 66.8283L62.9752 64.2978L64.1079 61.9973H64.3344L64.2212 61.7673L64.1079 59.9269L64.4477 59.3518L65.3538 58.4316L65.6936 58.2015L66.713 58.3166L65.9201 57.9715L66.713 55.671L67.6191 52.6804L68.412 49.2297L68.865 46.3541L69.0916 44.1687V38.5325L68.7518 35.6569L68.2987 33.1264L67.5059 30.2508L66.8263 28.1804L65.6936 25.5349L64.9008 23.8095V23.3494L65.8069 22.8893L65.9201 22.7743V21.7391L65.3538 21.164L64.3344 21.279L63.9946 21.7391V23.1194L61.7293 22.7743L60.4834 22.6593H57.8783L55.1599 23.0044L52.4416 23.6945L50.4028 24.3846L48.0242 25.4199L47.4579 25.5349L46.4385 24.2696L46.212 23.8095L47.1181 23.2344L49.1569 22.3142L51.3089 21.5091L53.914 20.8189L55.8395 20.4738L57.0854 20.3588H62.862L61.7293 18.7485L60.3701 16.9081L59.464 15.7579L58.4446 14.6077L57.6518 13.6875L56.8589 12.8823V12.6523H56.6324L55.8395 11.7321L54.7069 10.5818L54.9334 10.1217L55.9528 8.9715H56.4059L59.464 12.0771L60.2569 12.9973L61.6161 14.6077L63.0885 16.563L64.3344 18.2884L65.6936 20.4738L66.2599 21.279L68.0722 21.9692L71.2436 23.2344L74.5283 24.8447L77.5865 26.6851L78.8324 27.6053L80.4181 28.7555L82.0038 30.0208L83.1365 31.056L84.0426 31.8612L85.1752 32.8964L88.4599 36.2321L89.2528 37.1523L89.5926 37.4973L89.4793 36.117L88.6865 33.0114L87.7803 30.826L86.6477 28.6405L85.6283 27.0302L84.4956 25.5349L83.1365 23.9246L80.4181 21.164L79.1722 20.1288L77.6997 18.8635L75.661 17.3682L73.2824 15.7579L71.2436 14.4926L68.2987 12.7673L64.561 10.8119L60.8232 8.9715L59.464 8.51141H56.2926V6.21094ZM66.3732 8.85648L66.9395 9.43159L69.7712 10.9269L72.8293 12.7673L75.2079 14.2626L77.4732 15.8729L79.8518 17.7133L81.3242 18.9785L82.5701 20.1288L83.4763 20.9339L84.6089 22.0842L85.4018 23.0044L86.761 24.7297L88.1201 26.6851L89.4793 29.1006L90.4987 31.5161L91.2916 33.9316L91.7446 36.117L92.0844 38.9926L92.8773 39.1076L93.1038 35.3119V33.7015L92.8773 30.5959L92.4242 27.8354L91.7446 25.4199L90.8385 23.2344L89.8191 21.279L88.7997 19.7837L87.7803 18.5184L86.761 17.3682L85.8548 16.563L84.4956 15.4128L82.6834 14.1476L80.3048 12.7673L77.6997 11.617L75.5477 10.8119L72.1497 9.89169L68.9783 9.20155L66.9395 8.85648H66.3732ZM67.7324 24.3846L68.865 27.2602L69.8844 30.3659L70.564 33.1264L71.1303 36.5771L71.3569 38.5325V44.2837L70.7905 48.6546L70.111 51.9903L69.3181 54.8659L68.0722 58.6616L67.1661 58.5466L67.7324 59.0067L68.1854 59.5818L68.2987 59.8119V61.3072L67.6191 62.2274L67.0528 62.5724L66.0334 62.6875L65.5803 62.8025L66.0334 63.0325L65.8069 63.7227L64.3344 66.5983L62.6354 69.4738L61.3895 71.4292L60.2569 73.1546L59.1242 74.7649L59.464 75.34L60.5967 76.2602L61.6161 77.0654L62.0691 76.9504L63.8814 75.6851L66.0334 74.0748L67.6191 72.8095L69.4314 71.3142L70.564 70.394L72.263 68.8987L73.7354 67.6335L74.0752 67.5184L74.3018 67.9785L74.8681 68.6687L75.3212 68.7837L75.2079 69.2438L74.3018 70.049L73.1691 71.0842L71.9232 72.1194L70.4508 73.3846L67.0528 76.0302L64.7875 77.7555L63.7681 78.4457V78.6757L66.3732 80.4011L69.2048 82.0114L71.1303 82.9316L72.6028 83.6217L74.8681 84.5419L77.2467 85.3471L79.965 86.0372L83.0232 86.6123L85.1752 86.8424H86.761L88.913 86.6123L90.612 86.0372L91.8579 85.3471L92.9905 84.1969L93.6701 82.8166L94.0099 81.5513L94.1232 80.5161V79.4809L93.7834 77.0654L93.6701 76.4903V75.4551L94.1232 74.8799L95.7089 74.1898L95.5956 73.4997L94.463 70.6241L94.0099 69.3588L96.3885 68.7837L96.615 68.6687V67.0584L96.2752 63.6076V62.6875L96.615 62.1123L97.6344 61.4222L99.4467 60.502L101.372 59.4668V59.0067L99.7865 56.8213L98.2007 54.7508L96.615 52.5654L95.2558 50.61L93.8967 48.5396L93.1038 47.0443L92.1977 47.1593L90.8385 47.2743L90.612 47.5044L89.8191 49.9199L89.0263 51.7602L87.7803 54.0607L86.3079 56.4762L85.515 57.6264L84.2691 59.3518L82.7967 61.1922L81.8905 62.3424L80.1916 64.1828L79.3987 65.103L78.8324 65.7931L78.2661 65.218L77.2467 64.2978L77.4732 63.8377L78.3793 63.0325L79.3987 61.8823L80.6446 60.502L81.664 59.2368L83.2497 57.1663L85.515 53.7156L86.9875 51.0701L88.3467 47.8494L88.7997 46.8142L88.6865 46.3541L87.7803 45.0889L87.3273 43.8236V42.3283L87.7803 41.063L88.4599 40.1429L88.3467 39.5677L87.3273 38.5325L86.5344 37.6123L84.9487 35.887L83.1365 34.0466L82.2303 33.2415L81.0977 32.2062L79.512 30.941L77.5865 29.4457L75.3212 27.9504L72.4895 26.34L69.7712 25.0748L68.1854 24.3846H67.7324ZM43.3803 54.0607V54.4058L43.6069 54.0607H43.3803ZM57.0854 74.0748L56.5191 74.4199L56.1793 75.34L56.6324 76.1452L57.0854 76.4903L58.1048 76.2602L58.6712 75.5701L58.5579 75.225L57.9916 75.9152L57.4252 76.1452L56.7457 75.5701V74.995L56.9722 74.5349H57.765L58.2181 74.8799H58.4446V75.11H58.6712L58.4446 74.6499L57.765 74.0748H57.0854ZM57.5385 76.7203L57.0854 77.4105L55.9528 78.9058L53.2344 82.1264L52.6681 82.8166L53.0079 82.9316L55.0467 81.6663L57.1987 80.2861L59.464 78.7907L59.6905 78.3307L57.6518 76.7203H57.5385ZM61.3895 77.5255L60.8232 77.8706L60.4834 78.3307V79.0208L60.9365 79.7109L61.3895 80.2861L60.8232 80.5161L56.1793 83.5067L53.3477 85.2321L51.5354 86.2673L51.1957 86.4973L52.3283 87.1875L66.1467 94.2039L68.1854 95.1241L69.7712 93.5138L71.0171 92.4785L72.263 91.3283L73.8487 90.063L75.3212 88.9128L76.7936 87.8776L76.9069 87.5325L73.962 86.4973L70.9038 85.2321L67.6191 83.6217L65.014 82.1264L62.5222 80.5161L62.0691 80.171V79.941L62.7487 79.3659L62.862 79.1358V78.4457L62.4089 77.7555L61.8426 77.5255H61.3895Z" fill="white"/>
<path d="M94.5763 45.7793L95.1426 46.3544L97.0681 49.23L98.5405 51.3004L99.6732 52.9108L101.485 55.3262L102.845 57.1666L103.751 58.4319L103.977 58.892V59.9272L103.298 60.9624L102.392 61.5375L98.7671 63.3779L98.6538 63.4929V64.7582L98.9936 68.2089V69.8192L98.4273 70.3943L97.7477 70.7394L97.0681 70.8544L97.1814 71.4295L97.9742 73.5L98.0875 74.3051L97.7477 75.3403L97.2946 75.9154L96.3885 76.3755L96.0487 76.4906L96.2752 78.676V81.2065L95.9354 83.1619L95.2559 84.7723L94.3497 86.0375L93.7834 86.6126L92.8773 87.4178L91.2916 88.223L89.3661 88.7981H88.6865L88.4599 87.5328L88.2334 87.1877L87.214 86.9577L86.6477 87.4178L86.4212 87.8779V89.0281L86.0814 89.1431L82.2303 88.7981L80.4181 88.453V86.4976L79.8518 86.2676H78.9457L78.4926 86.8427V87.8779L78.7191 88.223L79.3987 88.568L79.2854 88.9131L77.1334 90.4084L74.7548 92.2488L73.2824 93.514L72.0365 94.5492L70.564 95.9295L69.4314 97.0798L68.7518 97.8849L68.0722 97.6549L64.7875 96.0446L53.2344 90.1784L50.6293 88.9131L49.6099 88.223L49.1569 88.1079H48.1375L47.0048 87.6478L46.5518 87.1877L46.212 86.4976V84.8873L46.4385 84.1971L47.2314 83.507L48.2508 83.1619H49.2701L50.1763 83.8521L50.7426 84.7723L50.9691 85.5774L50.8559 86.4976L50.9691 86.3826V85.0023L50.5161 83.9671L49.7232 83.2769L49.4967 83.1619L49.6099 82.7018L50.7426 81.5516L50.8559 81.3215H51.0824L51.3089 80.8615L53.0079 79.0211L54.0273 77.7558L55.3865 76.0305L55.7263 75.4554L55.613 74.9953L55.0467 74.4201L53.461 72.6948L51.6487 70.7394L50.8559 69.8192L49.2701 67.8638L48.1375 66.3685L46.8916 64.6431L45.1926 62.1126L43.7201 59.6971L42.361 57.2816L41.4548 55.5563L41.3416 55.0962L41.5681 54.9812L40.662 54.4061L40.0957 53.8309L39.7559 53.3708V51.8755L40.4355 50.9554L41.3416 50.4953H42.5875L43.2671 50.9554L43.7201 51.5305L44.0599 52.1056V53.2558L44.2865 52.3356H45.1926L50.1763 53.2558L54.9334 54.291L58.8977 55.3262L62.2957 56.4765L64.6742 57.5117L65.3538 57.9718V58.3169L64.4477 59.122L63.9946 59.6971L63.4283 59.5821L61.0497 58.5469L57.8783 57.5117L52.3283 56.1314L47.7977 55.2112L43.6069 54.5211L44.7395 56.7065L46.0987 59.122L47.3446 61.0774L48.8171 63.2629L50.2895 65.3333L51.5354 66.9436L53.0079 68.669L53.8008 69.5892L55.0467 70.9694L57.312 73.2699L57.8783 72.6948L60.1436 69.2441L61.6161 66.8286L62.9752 64.2981L64.1079 61.9976H64.3344L64.2212 61.7676L64.1079 59.9272L64.4477 59.3521L65.3538 58.4319L65.6936 58.2018L66.5997 58.3169L67.7324 58.892L68.2987 59.5821L68.412 59.8122V61.3075L67.7324 62.2277L67.0528 62.6877L65.9201 62.8028L66.1467 63.2629L64.9008 65.7934L63.0885 68.899L61.7293 71.0845L60.8232 72.4647L59.3508 74.6502V74.9953L59.9171 75.5704L61.6161 76.9507L62.0691 76.8356L63.8814 75.5704L66.0334 73.96L67.6191 72.6948L69.4314 71.1995L70.564 70.2793L72.263 68.784L73.7354 67.5187H74.0752L74.8681 68.5539L75.3212 68.784L75.2079 69.3591L74.3018 70.1643L73.1691 71.1995L71.9232 72.2347L70.4508 73.5L67.0528 76.1455L64.7875 77.8708L63.8814 78.446L63.7681 78.676L64.2212 78.9061L66.2599 80.1713L67.9589 81.2065L70.7905 82.7018L72.6028 83.507L74.8681 84.4272L77.2467 85.2323L79.965 85.9225L83.0232 86.4976L85.1752 86.7277H86.761L88.913 86.4976L90.612 85.9225L91.8579 85.2323L92.8773 84.1971L93.5569 82.8169L93.8967 81.5516L94.0099 80.5164V79.4812L93.6701 77.0657L93.5569 76.4906V75.4554L94.1232 74.7652L95.4824 74.1901H95.7089L94.1232 70.0492L93.8967 69.3591L94.463 69.1291L96.615 68.669L96.162 63.6079V62.6877L96.5018 62.1126L97.4079 61.4225L99.1069 60.5023L101.259 59.4671V59.007L99.6732 56.8216L98.0875 54.7511L96.5018 52.5657L95.1426 50.6103L93.7834 48.5399L93.1038 47.2746V46.9295L94.3497 46.0093H94.5763V45.7793ZM43.3803 54.061V54.4061L43.6069 54.061H43.3803ZM57.0854 74.0751L56.5191 74.4201L56.1793 75.3403L56.6324 76.1455L57.0854 76.4906L58.1048 76.2605L58.6712 75.5704L58.5579 75.2253L57.9916 75.9154L57.4252 76.1455L56.7457 75.5704V74.9953L56.9722 74.5352H57.765L58.2181 74.8802H58.4446V75.1103H58.6712L58.4446 74.6502L57.765 74.0751H57.0854ZM57.5385 76.7206L57.0854 77.4108L55.9528 78.9061L53.2344 82.1267L52.6681 82.8169L53.0079 82.9319L55.0467 81.6666L57.1987 80.2863L59.464 78.791L59.6906 78.3309L57.6518 76.7206H57.5385ZM61.3895 77.5258L60.8232 77.8708L60.4834 78.3309V79.0211L60.9365 79.7112L61.3895 80.2863L60.8232 80.5164L56.1793 83.507L53.3477 85.2323L51.5354 86.2676L51.1957 86.4976L52.3283 87.1877L66.1467 94.2042L68.1854 95.1244L69.7712 93.514L71.0171 92.4788L72.263 91.3286L73.8487 90.0633L75.3212 88.9131L76.7936 87.8779L76.9069 87.5328L73.962 86.4976L70.9038 85.2323L67.6191 83.622L65.014 82.1267L62.5222 80.5164L62.0691 80.1713V79.9413L62.7487 79.3662L62.862 79.1361V78.446L62.4089 77.7558L61.8426 77.5258H61.3895Z" fill="white"/>
<path d="M5.21017 7.47656H7.24895L8.49487 7.82163L9.85405 8.51177L10.9867 9.54698L12.0061 10.9273L12.5724 12.4226L12.6857 12.9977V15.0681L12.1194 16.7935L11.3265 18.0587L10.6469 18.8639L9.51425 19.6691L8.15507 20.2442L7.24895 20.4742H5.32344L3.96425 20.1291L2.8316 19.554L1.81221 18.7489L1.01936 17.8287L0.339764 16.5634L-0.113297 15.2982L-0.226562 14.493V13.4578L0.226499 11.5024L0.906091 10.2371L2.15201 8.85684L3.39793 8.05168L4.64385 7.59159L5.21017 7.47656Z" fill="white"/>
<path d="M94.5771 45.7793L95.1434 46.3544L97.0689 49.23L98.5414 51.3004L99.674 52.9108L101.486 55.3262L102.845 57.1666L103.752 58.4319L103.978 58.892V59.9272L103.299 60.9624L102.392 61.5375L98.7679 63.3779L98.6546 63.4929V64.7582L98.9944 68.2089V69.8192L98.4281 70.3943L97.7485 70.7394L97.0689 70.8544L97.1822 71.4295L97.975 73.5L98.0883 74.3051L97.7485 75.3403L97.2955 75.9154L96.3893 76.3755L96.0495 76.4906L96.2761 78.676V81.2065L95.9363 83.1619L95.2567 84.7723L94.3506 86.0375L93.7842 86.6126L92.8781 87.4178L91.2924 88.223L89.3669 88.7981H88.6873L88.4608 87.5328L88.2342 87.1877L87.2148 86.8427V86.7277L88.9138 86.4976L90.6128 85.9225L91.8587 85.2324L92.8781 84.1971L93.5577 82.8169L93.8975 81.5516L94.0108 80.5164V79.4812L93.671 77.0657L93.5577 76.4906V75.4554L94.124 74.7652L95.4832 74.1901H95.7097L94.124 70.0493L93.8975 69.3591L94.4638 69.1291L96.6159 68.669L96.1628 63.6079V62.6877L96.5026 62.1126L97.4087 61.4225L99.1077 60.5023L101.26 59.4671V59.007L99.674 56.8216L98.0883 54.7511L96.5026 52.5657L95.1434 50.6103L93.7842 48.5399L93.1046 47.2746V46.9295L94.3506 46.0093H94.5771V45.7793Z" fill="white"/>
<path d="M91.1777 38.7637L92.4236 38.9937L93.3298 39.3388L94.5757 40.259L94.9155 40.8341L95.4818 42.3294V43.9397L94.9155 45.32L94.5757 46.0102L93.1032 47.0454L92.1971 47.2754L90.8379 47.3904L89.8185 50.151L89.0257 51.8763L87.893 54.0618L86.4206 56.4773L85.6277 57.6275L84.3818 59.3529L82.9093 61.1933L82.0032 62.3435L80.3042 64.1839L79.5114 65.104L78.8318 65.9092L78.2655 65.4491L77.6991 64.759L77.1328 64.2989L77.3593 63.8388L78.3787 62.9186L79.1716 61.9984L80.5308 60.5031L81.5502 59.2379L83.1359 57.1674L85.4012 53.7167L86.8736 51.0712L88.2328 47.8505L88.6859 46.8153L88.5726 46.3552L87.6665 45.09L87.2134 43.8247V42.3294L87.6665 41.0641L88.5726 39.7989L89.4787 39.2238L90.4981 38.8787L91.1777 38.7637Z" fill="white"/>
<path d="M17.8962 53.2559H18.4626L19.8217 55.7864L21.2942 58.3169L22.8799 60.8474L24.2391 62.8028L25.7115 64.8732L27.184 66.7136L28.4299 68.3239L29.4493 69.4742L30.2421 70.3944L31.6013 71.8897L32.8473 73.1549V73.385L33.3003 73.615L33.8666 74.3052L34.7728 75.1103L35.7922 76.1455L36.6983 76.9507L38.284 78.331L40.0962 79.8263L41.9085 81.2066L43.834 82.5868L45.533 83.7371L45.986 84.1972L45.8728 86.4976H45.533L43.4942 85.2324L41.5687 83.8521L39.4166 82.2418L37.8309 80.9765L36.3585 79.7113L35.1126 78.676L33.187 76.8357L31.4881 75.2253L30.2421 73.9601L29.4493 73.0399L27.7503 71.1995L26.7309 69.9343L25.3717 68.3239L24.3524 66.9437L22.8799 64.9883L21.2942 62.6878L19.8217 60.3873L18.1228 57.5117L16.7636 55.0962L16.084 53.831V53.6009L17.8962 53.2559Z" fill="white"/>
<path d="M10.7611 25.8809L12.3468 26.1109L13.5927 26.801L14.4988 27.7212L15.0651 28.6414L15.4049 29.6766L15.5182 30.9419L15.2917 32.2072L14.8386 33.1273L14.0458 34.1625L13.0264 34.8527L11.8937 35.3128H9.74168L8.49576 34.8527L7.47637 34.0475L6.79678 33.1273L6.23045 31.7471L6.11719 30.2518L6.45698 28.8715L7.02331 27.8363L7.7029 27.0311L8.72229 26.341L9.74168 25.9959L10.7611 25.8809Z" fill="white"/>
<path d="M33.7535 36.9219H35.3392L36.5851 37.382L37.4912 38.0721L38.2841 39.3374L38.5106 40.0275V41.8679L38.0575 43.0181L37.0382 44.1684L36.3586 44.6284L35.1126 44.9735H34.0933L33.0739 44.7435L31.9412 44.0533L31.1484 43.0181L30.6953 42.0979L30.582 41.6378V40.2576L31.0351 38.9923L31.7147 38.0721L32.3943 37.497L33.3004 37.0369L33.7535 36.9219Z" fill="white"/>
<path d="M88.7991 46.584L90.7246 47.2741L90.3849 48.6544L89.4787 50.9549L88.5726 52.7953L87.5532 54.6356L86.3073 56.591L85.4012 57.9713L84.3818 59.3516L82.9093 61.192L82.0032 62.3422L80.3042 64.1826L79.5114 65.1028L78.8318 65.9079L78.2655 65.4478L77.6991 64.7577L77.1328 64.2976L77.3593 63.8375L78.3787 62.9173L79.1716 61.9971L80.5308 60.5018L81.5502 59.2366L83.1359 57.1661L85.4012 53.7154L86.8736 51.0699L88.2328 47.8492L88.7991 46.584Z" fill="white"/>
<path d="M44.8534 52.3359L47.232 52.681L53.4616 53.9463L58.8983 55.3265L62.2962 56.4768L64.6748 57.512L65.3544 57.9721V58.3172L64.4483 59.1223L63.9952 59.6974L63.4289 59.5824L61.0503 58.5472L57.8789 57.512L52.3289 56.1317L47.7983 55.2115L44.2871 54.6364L43.9473 54.0613L44.5136 52.566L44.8534 52.3359Z" fill="white"/>
<path d="M20.3886 49H21.6346L29.2233 49.9202L36.0193 50.8404L39.0774 51.3005L39.757 51.5305L39.6437 53.716L38.1713 53.6009L31.0356 52.5657L24.6927 51.7606L20.3886 51.3005L20.1621 51.1854L20.2754 49.115L20.3886 49Z" fill="white"/>
<path d="M23.3336 28.5254H24.9193L25.9387 28.8705L26.8448 29.5606L27.6377 30.8259L27.8642 31.631V32.8963L27.4111 34.1615L26.3917 35.3118L25.2591 35.8869L24.5795 36.0019H23.5601L22.4275 35.6568L21.4081 34.8517L20.8417 34.0465L20.502 33.1263V31.286L21.1815 29.9057L22.2009 28.9855L23.3336 28.5254Z" fill="white"/>
<path d="M27.7496 16.793H29.4486L30.6945 17.2531L31.1476 17.5981V17.8282H31.3741L32.0537 18.9784L32.2802 19.6686V21.1639L31.9404 22.084L31.3741 23.0042L30.5812 23.6944L29.3353 24.1545H27.8629L26.6169 23.6944L25.7108 22.8892L25.0312 21.624L24.918 21.1639V19.7836L25.371 18.5183L26.3904 17.3681L27.2965 16.908L27.7496 16.793Z" fill="white"/>
<path d="M20.0484 7.24609H21.1811L22.3137 7.59116L23.3331 8.39633L24.0127 9.43154L24.3525 10.4668V11.502L24.0127 12.6522L23.2198 13.8024L22.0872 14.4926L21.2943 14.7226H19.8219L18.6892 14.2625L17.6698 13.3423L17.1035 12.1921L16.9902 11.847V10.1217L17.6698 8.7414L18.4627 7.93623L19.5953 7.36112L20.0484 7.24609Z" fill="white"/>
<path d="M16.3101 46.0098L18.009 46.2398L19.0284 46.93L19.708 47.7351L20.0478 48.6553V50.4957L19.4815 51.876L18.6886 52.7962L17.2162 53.2562H15.7437L14.7244 52.7962L13.8182 51.991L13.2519 51.0708L12.9121 49.9206L13.0254 48.8854L13.4784 47.7351L14.2713 46.8149L15.1774 46.2398L16.3101 46.0098Z" fill="white"/>
<path d="M52.1012 3.91016H53.4604L54.4798 4.25523L55.4991 5.17541L56.0655 6.32565L56.1787 6.67072V7.70593L55.8389 8.97119L54.8195 10.1214L54.14 10.5815L53.1206 10.8116L51.7614 10.6965L50.8553 10.2364L50.2889 9.66133L49.8359 9.08621L49.3828 8.051V6.5557L50.0624 5.17541L50.9685 4.37025L52.1012 3.91016Z" fill="white"/>
<path d="M43.3805 23.9258H45.1928L46.0989 24.2709L46.6652 24.7309L47.3448 25.7662L47.5713 26.4563V28.1816L47.005 29.3319L46.2122 30.137L45.1928 30.5971L44.7397 30.7122H43.8336L42.7009 30.3671L41.9081 29.792L41.2285 28.6417L41.002 28.0666V26.3413L41.6815 24.961L42.4744 24.2709L43.3805 23.9258Z" fill="white"/>
<path d="M48.2517 83.1621H49.2711L50.1772 83.8523L50.7435 84.7724L50.8568 85.8076L50.4037 86.9579L49.8374 87.533L49.3843 87.8781H49.1578V88.1081H48.1384L47.0057 87.648L46.5527 87.1879L46.2129 86.4978V84.8875L46.4394 84.1973L47.2323 83.5072L48.2517 83.1621Z" fill="white"/>
<path d="M75.7752 64.4141H76.6813L77.4741 64.7591L78.267 65.5643L78.4935 66.0244V67.0596L78.0405 67.9798L77.1343 68.6699L76.9078 68.785H75.4354L74.416 67.9798L74.0762 67.2896V66.2544L74.5292 65.2192L75.3221 64.5291L75.7752 64.4141Z" fill="white"/>
<path d="M65.6931 58.2012L66.5993 58.3162L67.7319 58.8913L68.2982 59.5815L68.4115 59.8115V61.3068L67.7319 62.227L67.0523 62.6871L66.0329 62.8021L64.6737 62.227L64.4472 61.7669L64.2207 61.5369L64.1074 59.9265L64.4472 59.3514L65.3533 58.4312L65.6931 58.2012Z" fill="white"/>
<path d="M41.3416 50.4961H42.5875L43.2671 50.9562L43.7201 51.5313L44.0599 52.1064V53.2567L43.6069 54.0618L42.4742 54.6369L41.5681 54.752L40.7752 54.5219L40.3222 53.9468L39.7559 53.3717V51.8764L40.4355 50.9562L41.3416 50.4961Z" fill="white"/>
<path d="M41.2283 14.0332H42.5875L43.2671 14.4933L43.7201 15.0684L43.8334 15.2985V16.7938L43.1538 17.714L42.361 18.174H41.4548L40.5487 17.714L39.9824 17.0238L39.7559 15.8736L40.0957 14.9534L40.5487 14.3783L41.2283 14.0332Z" fill="white"/>
<path d="M34.0935 5.86523L35.1129 5.98026L35.7925 6.32533L36.3588 7.24552V8.51077L35.9058 9.20092L35.3394 9.66101L34.3201 9.89106L33.3007 9.54599L32.6211 8.74082L32.5078 8.39575V7.36054L32.8476 6.6704L33.5272 6.09528L34.0935 5.86523Z" fill="white"/>
<path d="M60.2577 6.55664L61.9567 6.78669L62.9761 7.24678L65.1281 8.16697L65.5812 8.51204L65.4679 8.97213L64.9016 9.08716L63.6556 8.85711H62.6363V8.62706L61.5036 8.51204H60.2577L59.3516 7.93692L59.5781 7.13176L60.2577 6.55664Z" fill="white"/>
<path d="M27.7496 16.793H29.4486L30.6945 17.2531L31.1476 17.5981V17.8282H31.3741L32.0537 18.9784L32.2802 19.6686V21.1639L31.9404 22.084L31.3741 23.0042L30.5812 23.6944L29.3353 24.1545H27.8629L26.6169 23.6944L25.7108 22.8892L25.4843 22.3141L26.6169 23.0042L27.07 23.4643L27.6363 23.6944H29.3353L30.468 23.2343L30.8078 23.1193L31.0343 22.6592L31.3741 22.1991L31.7139 20.3587V19.2085L31.3741 18.4033L30.921 17.9432L30.3547 17.4831L29.7884 17.2531L28.2027 17.138L27.07 17.4831L25.8241 18.4033L25.4843 19.0934H25.2578L25.1445 20.7038L24.918 20.9338V19.7836L25.371 18.5183L26.3904 17.3681L27.2965 16.908L27.7496 16.793Z" fill="white"/>
<path d="M52.1012 3.91016H53.4604L54.4798 4.25523L55.4991 5.17541L56.0655 6.32565L56.1787 6.67072V7.70593L55.8389 8.97119L54.8195 10.1214L54.14 10.5815L53.1206 10.8116L51.7614 10.6965L50.8553 10.2364L50.2889 9.66133L49.8359 9.08621L49.3828 8.051V6.5557L50.0624 5.17541L50.9685 4.37025L52.1012 3.91016ZM52.3277 4.1402L51.1951 4.71532L50.2889 5.40546L49.8359 6.44067L49.7226 8.39607L50.0624 9.08621H50.2889V9.43128L51.1951 10.0064L52.1012 10.3515H53.8002L54.4798 10.1214V9.89138L55.0461 9.66133L55.7257 8.62612L55.9522 8.051V7.01579L55.4991 5.86556L55.0461 5.17541L54.2532 4.37025L53.2338 4.1402H52.3277Z" fill="white"/>
<path d="M16.3101 46.0098L18.009 46.2398L19.0284 46.93L19.708 47.7351L20.0478 48.6553V50.4957L19.4815 51.876L18.6886 52.7962L17.2162 53.2562H16.5366V53.1412L17.556 52.7962L18.3488 52.3361L18.9152 51.7609L19.5948 50.8408L19.708 49.6905L19.5948 48.7703L19.1417 47.8501L18.5754 47.275V47.045L17.8958 46.8149L17.1029 46.5849H15.7437L14.4978 47.275L13.705 48.3102L13.4784 48.8854L13.0254 49.9206L12.9121 49.4605L13.2519 48.1952L13.705 47.39L14.7244 46.4699L15.5172 46.1248L16.3101 46.0098Z" fill="white"/>
<path d="M22.4258 49.2305H23.6717L35.338 50.7258L39.0758 51.3009L39.7554 51.5309L39.6421 53.7164L38.1697 53.6014L36.5839 53.3713V53.1413H37.8299L39.0758 53.3713L39.189 53.0262V51.5309H38.1697L37.037 51.4159L36.8105 51.3009L35.6778 51.1859L35.338 51.0708L34.0921 50.9558L33.2993 50.7258L31.3737 50.6108L30.1278 50.3807L28.9952 50.1507L26.6166 49.9206L24.8044 49.6906L22.4258 49.3455V49.2305Z" fill="white"/>
<path d="M43.3805 23.9258H45.1928L46.0989 24.2709L46.6652 24.7309L47.3448 25.7662L47.5713 26.4563V28.1816L47.005 29.3319L46.2122 30.137L45.1928 30.5971L44.7397 30.7122H43.8336L42.7009 30.3671L42.2479 29.907L42.8142 30.022L43.7203 30.2521H44.9662L45.9856 29.792L46.7785 28.8718L47.005 28.5267L47.1183 27.9516V26.3413L46.6652 25.191L45.6458 24.3859L44.9662 24.1558L43.7203 24.2709L43.0407 24.3859V24.6159L42.5877 24.7309L42.0213 25.4211L41.7948 25.5361L41.6815 25.8812H41.455L41.3417 26.3413L41.1152 27.8366H41.002V26.3413L41.6815 24.961L42.4744 24.2709L43.3805 23.9258Z" fill="white"/>
<path d="M34.5466 6.32617L34.9997 6.55622L35.3395 6.90129L35.2262 7.47641L33.9803 7.13134L34.2068 8.39659L34.6599 8.85669L34.4333 9.31678L33.5272 9.20176L32.9609 8.62664L32.6211 8.05152L33.0742 7.24636L33.3007 7.01631L34.0935 6.67124L34.5466 6.32617Z" fill="white"/>
<path d="M35.3379 50.8398L36.8103 50.9549L39.5287 51.415L39.7552 51.53L39.642 53.7154L38.1695 53.6004L36.5838 53.3704V53.1403H37.8297L39.0756 53.3704L39.1889 53.0253V51.53H38.1695L37.0369 51.415L36.8103 51.2999L35.6777 51.1849L35.3379 51.0699V50.8398Z" fill="white"/>
<path d="M60.9373 6.90234L62.9761 7.59248V8.05258L62.5231 8.28263L61.9567 8.05258H60.1445L59.8047 7.82253L60.0312 7.24741L60.9373 6.90234Z" fill="white"/>
<path d="M87.2148 86.957H87.8944L88.3474 87.4171V88.4523L87.7811 88.7974L87.1015 88.6824L86.7617 88.4523V87.5321L86.9882 87.0721L87.2148 86.957Z" fill="white"/>
<path d="M64.6738 21.3945L65.6932 21.5096L65.9197 22.0847L65.8064 22.7748L65.2401 23.1199L64.4472 23.0049L64.2207 22.6598V21.6246L64.6738 21.3945Z" fill="white"/>
<path d="M65.6932 58.2012L66.5994 58.3162L67.732 58.8913L68.2983 59.5815L68.4116 59.8115V61.3068L67.732 62.227L67.0524 62.6871H66.5994V62.457L67.279 61.9969L67.8453 61.3068L68.0718 60.1566L67.8453 59.4664L67.279 59.0063L66.3728 58.6613H65.6932L65.1269 59.0063L64.9004 58.8913L65.6932 58.2012Z" fill="white"/>
<path d="M79.5116 86.498H80.1912L80.3045 86.7281V87.8783L80.1912 88.2234H79.3983L78.7188 87.7633L78.832 86.9581L79.1718 86.6131L79.5116 86.498Z" fill="white"/>
<path d="M66.373 22.1992L66.826 22.3142L67.2791 22.8894L67.5056 23.3495V23.9246L67.0525 24.1546L65.8066 23.9246L65.6934 23.2344L66.1464 22.7743L66.373 22.1992Z" fill="white"/>
<path d="M57.1991 74.4199H57.7655L58.2185 74.995V75.8002L57.5389 76.2603L56.9726 75.9152L56.6328 75.5702V74.995L57.1991 74.4199Z" fill="white"/>
<path d="M27.7496 16.793H29.4486L30.3547 17.138L30.2414 17.3681L28.769 17.138L27.6363 17.2531L26.9567 17.5981L25.8241 18.4033L25.4843 19.0934H25.2578L25.1445 20.7038L24.918 20.9338V19.7836L25.371 18.5183L26.3904 17.3681L27.2965 16.908L27.7496 16.793Z" fill="white"/>
<path d="M61.6171 77.9863L62.4099 78.3314L62.6365 78.6765L62.5232 79.1366L61.7304 79.8267L61.164 79.4816L60.9375 79.0215L61.0508 78.3314L61.6171 77.9863Z" fill="white"/>
<path d="M77.9275 65.334L78.3805 65.7941L78.4938 66.0241V67.0593L78.0407 67.9795L77.1346 68.6697L76.9081 68.7847H76.002L76.2285 68.5546L77.0213 68.0945L77.5877 67.6345L77.9275 67.1744L78.154 66.1391L77.9275 65.334Z" fill="white"/>
<path d="M75.7752 64.4141H76.6813L77.4741 64.7591L77.5874 64.9892L77.0211 64.7591H76.0017L75.4354 65.1042L74.5292 65.9094L74.1895 66.2544L74.3027 65.5643L75.0956 64.6441L75.7752 64.4141Z" fill="white"/>
<path d="M41.3416 50.4961H42.5876L43.2671 50.9562L43.7202 51.5313L43.9467 52.1064L43.6069 51.9914L43.2671 51.4163V51.1862L42.5876 50.9562L41.7947 50.8412L40.662 51.3013L40.209 51.4163L40.4355 50.9562L41.3416 50.4961Z" fill="white"/>
<path d="M48.2517 83.1621H49.2711L49.8374 83.6222L48.5915 83.5072L47.0058 83.9673L46.4394 84.8875H46.3262V84.3123L47.2323 83.5072L48.2517 83.1621Z" fill="white"/>
<path d="M20.3886 49H20.8417L20.5019 50.8404L20.3886 51.1854H20.1621L20.2754 49.115L20.3886 49Z" fill="white"/>
<path d="M26.3904 17.3691L26.6169 17.4842L25.8241 18.4044L25.4843 19.0945H25.2578L25.1445 20.7048L24.918 20.9349V19.7846L25.371 18.5194L26.3904 17.3691Z" fill="white"/>
<path d="M61.0508 56.1309L61.7304 56.2459L64.4487 57.3961L64.1089 57.5111L63.3161 57.1661L61.9569 56.821V56.591L61.3906 56.4759L61.0508 56.1309Z" fill="white"/>
<path d="M65.1267 57.8574L65.4665 58.2025L64.4471 59.1227L63.994 59.6978L63.4277 59.5828L63.3145 59.3527L64.1073 59.1227L64.6736 58.3175L65.0134 58.2025L65.1267 57.8574Z" fill="white"/>
<path d="M63.6542 20.5898L64.2206 20.8199L64.3338 21.28L63.7675 21.6251L63.3145 21.28L63.4277 20.7049L63.6542 20.5898Z" fill="white"/>
<path d="M44.287 52.3359H44.8533L44.5135 52.796L44.0605 54.1763L44.1737 54.5214L43.4941 54.4064L43.7207 53.8312L44.0605 53.3711L44.287 52.3359Z" fill="white"/>
<path d="M55.0469 54.4062L56.2928 54.6363L57.8785 55.0964L57.4254 55.2114L56.1795 54.9814L55.0469 54.5213V54.4062Z" fill="white"/>
<path d="M30.3555 17.1387L31.1483 17.5988V17.8288H31.3748L31.9412 18.749L31.8279 18.979L31.1483 18.0589L30.4687 17.5988L30.2422 17.2537L30.3555 17.1387Z" fill="white"/>
<path d="M77.6992 86.957H78.1522L78.2655 87.3021L78.039 87.7622L77.4726 87.6472L77.3594 87.1871L77.6992 86.957Z" fill="white"/>
<path d="M58.8984 55.4414L60.0311 55.6715L61.0505 56.0165L60.8239 56.2466L60.2576 56.1315L59.125 55.6715L58.8984 55.4414Z" fill="white"/>
<path d="M47.2324 52.7949L48.3651 52.9099L49.9508 53.255V53.37H48.9314L47.2324 52.9099V52.7949Z" fill="white"/>
<path d="M87.2148 86.957H87.8944L88.3474 87.4171V88.4523H88.2342L88.1209 87.3021H87.3281L86.875 87.5321L86.9883 87.0721L87.2148 86.957Z" fill="white"/>
<path d="M33.3008 50.4961L35.3396 50.7261V50.9562H34.0936L33.3008 50.7261V50.4961Z" fill="white"/>
<path d="M74.1895 67.2891L74.7558 67.8642L75.6619 68.5543L75.8884 68.7844L75.2088 68.6693L74.416 67.9792L74.1895 67.6341V67.2891Z" fill="white"/>
<path d="M35.3379 50.8398L36.8103 50.9549V51.2999L35.6777 51.1849L35.3379 51.0699V50.8398Z" fill="white"/>
<path d="M27.4099 17.0234H27.6365V17.2535L26.9569 17.5986L26.164 18.1737L25.9375 18.0586L26.6171 17.2535L27.4099 17.0234Z" fill="white"/>
<path d="M32.5078 7.36133H32.6211L32.8476 8.39654L33.3007 9.08668L33.0741 9.31673L32.6211 8.74161L32.5078 8.39654V7.36133Z" fill="white"/>
<path d="M25.1445 19.6699H25.2578V21.5103L25.371 22.0854L25.0312 21.6253L24.918 20.9352L25.0312 20.245L25.1445 19.6699Z" fill="white"/>
<path d="M27.7499 16.793H28.7693L28.656 17.023L27.6366 17.138L26.8438 17.2531L27.2968 16.908L27.7499 16.793Z" fill="white"/>
<path d="M40.0957 51.416L40.2089 51.7611L39.8691 53.3714H39.7559V51.8761L40.0957 51.416Z" fill="white"/>
</g>
<path d="M146.014 44H134.593C133.23 44 132.619 43.389 132.619 42.026V13.074C132.619 11.711 133.23 11.1 134.593 11.1H146.014C156.965 11.1 163.827 17.445 163.827 27.55C163.827 37.655 156.965 44 146.014 44ZM140.374 17.821V37.279H146.249C152.265 37.279 155.837 33.378 155.837 27.55C155.837 21.722 152.265 17.821 146.249 17.821H140.374ZM189.833 34.459H174.182C174.323 35.681 174.793 36.856 175.733 37.655C176.72 38.501 178.271 38.924 179.634 38.924C180.903 38.924 182.078 38.736 183.159 38.36C183.911 38.078 184.616 37.749 185.321 37.279C185.65 37.044 185.979 36.95 186.261 36.95C186.684 36.95 187.06 37.091 187.436 37.42L189.175 38.83C189.692 39.253 189.927 39.676 189.927 40.052C189.927 40.475 189.645 40.898 189.175 41.274C186.59 43.483 183.018 44.611 179.446 44.564C172.255 44.564 166.991 39.488 166.991 32.25C166.991 25.012 172.255 19.936 179.446 19.936C186.731 19.936 191.572 25.294 191.572 32.72V32.908C191.572 34.036 190.867 34.459 189.833 34.459ZM174.323 29.994H184.381C184.287 28.631 183.77 27.456 182.877 26.563C181.937 25.67 180.809 25.2 179.446 25.2C178.083 25.2 176.814 25.717 175.921 26.61C175.028 27.456 174.511 28.631 174.323 29.994ZM205.515 36.339L211.014 21.863C211.437 20.829 211.907 20.5 213.035 20.5H217.406C218.205 20.5 218.675 20.876 218.675 21.534C218.675 21.722 218.628 21.957 218.487 22.192L209.792 42.637C209.369 43.671 208.852 44 207.724 44H203.259C202.131 44 201.661 43.671 201.191 42.637L192.496 22.192C192.402 21.957 192.355 21.722 192.355 21.534C192.355 20.923 192.825 20.5 193.624 20.5H197.948C199.076 20.5 199.546 20.829 199.969 21.863L205.515 36.339ZM242.387 34.459H226.736C226.877 35.681 227.347 36.856 228.287 37.655C229.274 38.501 230.825 38.924 232.188 38.924C233.457 38.924 234.632 38.736 235.713 38.36C236.465 38.078 237.17 37.749 237.875 37.279C238.204 37.044 238.533 36.95 238.815 36.95C239.238 36.95 239.614 37.091 239.99 37.42L241.729 38.83C242.246 39.253 242.481 39.676 242.481 40.052C242.481 40.475 242.199 40.898 241.729 41.274C239.144 43.483 235.572 44.611 232 44.564C224.809 44.564 219.545 39.488 219.545 32.25C219.545 25.012 224.809 19.936 232 19.936C239.285 19.936 244.126 25.294 244.126 32.72V32.908C244.126 34.036 243.421 34.459 242.387 34.459ZM226.877 29.994H236.935C236.841 28.631 236.324 27.456 235.431 26.563C234.491 25.67 233.363 25.2 232 25.2C230.637 25.2 229.368 25.717 228.475 26.61C227.582 27.456 227.065 28.631 226.877 29.994ZM255.884 10.536V42.261C255.884 43.436 255.32 44 254.145 44H250.103C248.928 44 248.364 43.436 248.364 42.261V12.181C248.364 11.1 248.74 10.583 249.821 10.301L254.145 9.22C254.333 9.173 254.521 9.126 254.709 9.126C255.461 9.126 255.884 9.643 255.884 10.536ZM273.6 19.936C281.214 19.936 286.76 25.012 286.76 32.25C286.76 39.488 281.214 44.564 273.6 44.564C265.986 44.564 260.44 39.488 260.44 32.25C260.44 25.012 265.986 19.936 273.6 19.936ZM273.6 38.266C276.984 38.266 279.381 35.775 279.381 32.25C279.381 28.725 276.984 26.234 273.6 26.234C270.216 26.234 267.819 28.725 267.819 32.25C267.819 35.775 270.216 38.266 273.6 38.266ZM298.469 41.697V51.661C298.469 52.836 297.905 53.4 296.73 53.4H293.064C291.889 53.4 291.325 52.836 291.325 51.661V22.239C291.325 21.064 291.889 20.5 293.064 20.5H295.79C296.871 20.5 297.529 20.97 297.529 22.145V23.367C299.456 21.111 302.135 19.936 305.237 19.936C312.334 19.936 316.799 24.824 316.799 32.25C316.799 39.676 312.334 44.564 305.237 44.564C302.793 44.564 300.208 43.53 298.469 41.697ZM303.733 38.078C307.023 38.078 309.42 35.681 309.42 32.25C309.42 28.819 307.023 26.422 303.733 26.422C300.443 26.422 298.14 28.819 298.14 32.25C298.14 35.681 300.443 38.078 303.733 38.078ZM342.445 34.459H326.794C326.935 35.681 327.405 36.856 328.345 37.655C329.332 38.501 330.883 38.924 332.246 38.924C333.515 38.924 334.69 38.736 335.771 38.36C336.523 38.078 337.228 37.749 337.933 37.279C338.262 37.044 338.591 36.95 338.873 36.95C339.296 36.95 339.672 37.091 340.048 37.42L341.787 38.83C342.304 39.253 342.539 39.676 342.539 40.052C342.539 40.475 342.257 40.898 341.787 41.274C339.202 43.483 335.63 44.611 332.058 44.564C324.867 44.564 319.603 39.488 319.603 32.25C319.603 25.012 324.867 19.936 332.058 19.936C339.343 19.936 344.184 25.294 344.184 32.72V32.908C344.184 34.036 343.479 34.459 342.445 34.459ZM326.935 29.994H336.993C336.899 28.631 336.382 27.456 335.489 26.563C334.549 25.67 333.421 25.2 332.058 25.2C330.695 25.2 329.426 25.717 328.533 26.61C327.64 27.456 327.123 28.631 326.935 29.994ZM355.324 22.239V24.119C356.64 21.628 359.225 20.03 362.938 20.03C363.737 20.03 364.63 20.03 365.335 20.406C365.993 20.735 366.275 21.158 366.275 21.675C366.275 21.957 366.181 22.239 366.04 22.568L364.724 25.717C364.395 26.563 363.972 26.845 363.314 26.845C363.173 26.845 362.985 26.845 362.75 26.798C361.998 26.657 361.246 26.516 360.494 26.516C357.486 26.516 356.264 28.302 356.264 31.075V42.261C356.264 43.436 355.7 44 354.525 44H350.483C349.308 44 348.744 43.436 348.744 42.261V22.239C348.744 21.064 349.308 20.5 350.483 20.5H353.585C354.76 20.5 355.324 21.064 355.324 22.239Z" fill="white"/>
<path d="M157.247 81.694L159.973 83.997C160.537 84.42 160.819 84.749 160.819 85.454C160.819 86.394 159.362 87.616 158.657 88.133C155.508 90.483 151.654 91.564 147.706 91.564C137.366 91.564 130.269 84.373 130.269 74.55C130.269 64.727 137.366 57.536 147.706 57.536C151.137 57.536 154.474 58.382 157.388 60.121C158.516 60.779 160.02 61.813 160.584 62.988C160.725 63.27 160.772 63.505 160.772 63.74C160.772 64.257 160.49 64.68 159.973 65.103L157.247 67.406C156.777 67.829 156.307 68.064 155.837 68.064C155.461 68.064 155.132 67.923 154.756 67.594C152.782 65.902 150.385 64.727 147.706 64.727C142.113 64.727 138.259 68.816 138.259 74.55C138.259 80.284 142.113 84.373 147.706 84.373C150.385 84.373 152.782 83.198 154.803 81.506C155.132 81.177 155.508 81.036 155.837 81.036C156.307 81.036 156.777 81.271 157.247 81.694ZM180.848 89.355V88.462C179.203 90.718 176.43 91.564 173.375 91.564C167.923 91.564 164.022 88.368 164.022 83.292C164.022 78.169 168.158 75.208 173.469 75.208C176.101 75.208 177.84 75.678 179.908 76.383V75.96C179.861 73.563 178.31 72.012 175.114 72.012C172.999 72.012 170.931 72.388 169.004 73.187C168.769 73.281 168.581 73.328 168.393 73.328C167.782 73.328 167.312 72.858 167.077 72.2L166.513 70.649C166.419 70.367 166.372 70.085 166.372 69.803C166.372 69.239 166.654 68.769 167.265 68.44C169.615 67.312 172.529 66.936 175.114 66.936C182.634 66.936 187.099 71.119 187.099 76.853V89.261C187.099 90.436 186.535 91 185.36 91H182.634C181.506 91 180.848 90.483 180.848 89.355ZM179.908 82.775V80.754C178.404 80.143 177.229 79.908 175.537 79.908C173.187 79.908 171.213 81.13 171.213 83.292C171.213 85.407 173.14 86.676 175.255 86.676C178.075 86.676 179.908 85.078 179.908 82.775ZM199.682 69.239V71.119C200.998 68.628 203.583 67.03 207.296 67.03C208.095 67.03 208.988 67.03 209.693 67.406C210.351 67.735 210.633 68.158 210.633 68.675C210.633 68.957 210.539 69.239 210.398 69.568L209.082 72.717C208.753 73.563 208.33 73.845 207.672 73.845C207.531 73.845 207.343 73.845 207.108 73.798C206.356 73.657 205.604 73.516 204.852 73.516C201.844 73.516 200.622 75.302 200.622 78.075V89.261C200.622 90.436 200.058 91 198.883 91H194.841C193.666 91 193.102 90.436 193.102 89.261V69.239C193.102 68.064 193.666 67.5 194.841 67.5H197.943C199.118 67.5 199.682 68.064 199.682 69.239ZM233.437 81.459H217.786C217.927 82.681 218.397 83.856 219.337 84.655C220.324 85.501 221.875 85.924 223.238 85.924C224.507 85.924 225.682 85.736 226.763 85.36C227.515 85.078 228.22 84.749 228.925 84.279C229.254 84.044 229.583 83.95 229.865 83.95C230.288 83.95 230.664 84.091 231.04 84.42L232.779 85.83C233.296 86.253 233.531 86.676 233.531 87.052C233.531 87.475 233.249 87.898 232.779 88.274C230.194 90.483 226.622 91.611 223.05 91.564C215.859 91.564 210.595 86.488 210.595 79.25C210.595 72.012 215.859 66.936 223.05 66.936C230.335 66.936 235.176 72.294 235.176 79.72V79.908C235.176 81.036 234.471 81.459 233.437 81.459ZM217.927 76.994H227.985C227.891 75.631 227.374 74.456 226.481 73.563C225.541 72.67 224.413 72.2 223.05 72.2C221.687 72.2 220.418 72.717 219.525 73.61C218.632 74.456 218.115 75.631 217.927 76.994ZM260.838 81.459H245.187C245.328 82.681 245.798 83.856 246.738 84.655C247.725 85.501 249.276 85.924 250.639 85.924C251.908 85.924 253.083 85.736 254.164 85.36C254.916 85.078 255.621 84.749 256.326 84.279C256.655 84.044 256.984 83.95 257.266 83.95C257.689 83.95 258.065 84.091 258.441 84.42L260.18 85.83C260.697 86.253 260.932 86.676 260.932 87.052C260.932 87.475 260.65 87.898 260.18 88.274C257.595 90.483 254.023 91.611 250.451 91.564C243.26 91.564 237.996 86.488 237.996 79.25C237.996 72.012 243.26 66.936 250.451 66.936C257.736 66.936 262.577 72.294 262.577 79.72V79.908C262.577 81.036 261.872 81.459 260.838 81.459ZM245.328 76.994H255.386C255.292 75.631 254.775 74.456 253.882 73.563C252.942 72.67 251.814 72.2 250.451 72.2C249.088 72.2 247.819 72.717 246.926 73.61C246.033 74.456 245.516 75.631 245.328 76.994ZM273.716 69.239V71.119C275.032 68.628 277.617 67.03 281.33 67.03C282.129 67.03 283.022 67.03 283.727 67.406C284.385 67.735 284.667 68.158 284.667 68.675C284.667 68.957 284.573 69.239 284.432 69.568L283.116 72.717C282.787 73.563 282.364 73.845 281.706 73.845C281.565 73.845 281.377 73.845 281.142 73.798C280.39 73.657 279.638 73.516 278.886 73.516C275.878 73.516 274.656 75.302 274.656 78.075V89.261C274.656 90.436 274.092 91 272.917 91H268.875C267.7 91 267.136 90.436 267.136 89.261V69.239C267.136 68.064 267.7 67.5 268.875 67.5H271.977C273.152 67.5 273.716 68.064 273.716 69.239Z" fill="white"/>
<defs>
<clipPath id="clip0_4183_34">
<rect width="111" height="98" fill="white"/>
</clipPath>
</defs>
</svg>
