<svg width="301" height="138" viewBox="0 0 301 138" fill="none" xmlns="http://www.w3.org/2000/svg">
<g clip-path="url(#clip0_4443_166)">
<path d="M155.45 0C69.597 0 0 31.834 0 71.107C0 101.568 41.833 127.507 100.624 137.654C66.291 122.887 44.386 99.944 45.348 74.935C46.924 33.879 109.484 2.835 185.081 5.625C234.393 7.444 277.056 23.209 300.335 45.357C277.771 18.829 221.431 0 155.45 0ZM43.109 65.876C41.7456 68.6921 39.7876 71.179 37.37 73.165C35.0519 75.0193 32.4227 76.4468 29.605 77.381C27.0908 78.1388 24.5021 78.623 21.884 78.825C21.6567 80.5338 21.5211 82.2536 21.478 83.977C21.3748 86.0401 21.9788 88.0767 23.19 89.75C23.7299 90.4502 24.4286 91.012 25.2285 91.3889C26.0283 91.7659 26.9063 91.9472 27.79 91.918C29.7486 91.8814 31.6611 91.3173 33.326 90.285C35.7431 88.6985 37.9133 86.7648 39.767 84.546L40.946 85.846C37.9267 90.3047 34.9837 93.4817 32.117 95.377C29.3066 97.2544 25.9967 98.2436 22.617 98.216C18.229 98.216 15.1933 96.9327 13.51 94.366C11.8041 91.7124 10.9265 88.6111 10.989 85.457C11.0404 79.9811 12.326 74.5874 14.75 69.677C17.0558 64.6655 20.5834 60.3133 25.009 57.02C29.3263 53.8413 33.6673 52.2537 38.032 52.257C38.9551 52.192 39.8813 52.3302 40.7451 52.6619C41.609 52.9937 42.3897 53.5108 43.032 54.177C44.1864 55.5259 44.793 57.2586 44.732 59.033C44.7354 61.4098 44.1794 63.7539 43.109 65.876Z" fill="#D92024"/>
<path d="M33.6612 55.4317C32.4032 55.4317 30.9812 56.5087 29.4102 58.6587C26.5202 62.5673 24.1172 68.455 22.2012 76.3217C24.076 76.0527 25.894 75.4784 27.5832 74.6217C29.0462 73.7232 30.3183 72.5458 31.3272 71.1567C32.6807 69.322 33.7494 67.2935 34.4972 65.1397C35.3361 62.9646 35.7843 60.6586 35.8212 58.3277C35.8659 57.5725 35.651 56.8248 35.2122 56.2087C35.033 55.9663 34.7991 55.7696 34.5296 55.6346C34.2601 55.4996 33.9626 55.43 33.6612 55.4317Z" fill="#D92024"/>
<path d="M82.5148 66.4007C87.0975 67.6954 90.3142 69.2641 92.1648 71.1067C93.4914 72.442 94.5287 74.0361 95.2122 75.7897C95.8958 77.5434 96.2109 79.419 96.1378 81.2997C96.2022 83.324 95.8463 85.3397 95.0926 87.2195C94.3389 89.0993 93.2038 90.8026 91.7589 92.2217C88.1695 95.7064 82.9618 97.4487 76.1358 97.4487H51.5948V95.8487C53.8255 95.8487 55.3382 95.5971 56.1328 95.0937C56.8897 94.6371 57.4784 93.9478 57.8109 93.1287C58.1289 92.3194 58.2878 90.3327 58.2878 87.1687V49.1657C58.4027 47.1609 58.2422 45.1499 57.8109 43.1887C57.4831 42.3601 56.8837 41.6673 56.1108 41.2237C54.6859 40.6151 53.1343 40.3622 51.5898 40.4867V38.8867H74.7408C80.2742 38.8867 84.1928 39.4841 86.4968 40.6787C88.8077 41.8799 90.7064 43.7448 91.9489 46.0337C93.2632 48.3435 93.9525 50.9561 93.9489 53.6137C93.9806 56.3393 93.0889 58.9955 91.4189 61.1497C89.7329 63.3557 86.7648 65.106 82.5148 66.4007ZM69.5448 68.6077V87.3877L69.5098 89.5467C69.4213 90.8024 69.7693 92.0501 70.4948 93.0787C70.8538 93.4871 71.3024 93.8068 71.8055 94.0129C72.3086 94.219 72.8526 94.3059 73.3949 94.2667C75.258 94.2788 77.0842 93.7464 78.6488 92.7347C80.2988 91.6578 81.5839 90.1063 82.3349 88.2847C83.2137 86.232 83.6515 84.0175 83.6198 81.7847C83.6599 79.2432 83.1242 76.7257 82.0528 74.4207C81.1926 72.4441 79.6663 70.8319 77.7399 69.8647C75.9125 68.998 73.1812 68.577 69.5459 68.6017L69.5448 68.6077ZM69.5448 65.2397C72.9175 65.2397 75.4058 64.7777 77.0098 63.8537C78.5963 62.9525 79.8792 61.6003 80.6958 59.9687C81.5408 57.9477 81.9774 55.7795 81.9805 53.589C81.9836 51.3985 81.5531 49.2291 80.7139 47.2057C79.922 45.6068 78.6603 44.2882 77.0979 43.4267C75.5292 42.5674 73.0112 42.151 69.5439 42.1777L69.5448 65.2397Z" fill="#0C3253"/>
<path d="M132.991 37.5506L133.384 57.0726H131.923C131.467 52.7109 129.697 48.5907 126.846 45.2586C124.15 42.2772 121.235 40.7879 118.101 40.7906C117.03 40.7373 115.961 40.9205 114.969 41.3272C113.977 41.7339 113.087 42.354 112.362 43.1436C110.977 44.6084 110.207 46.5489 110.212 48.5646C110.19 49.758 110.447 50.9399 110.963 52.0166C111.8 53.5554 112.926 54.9191 114.278 56.0336C116.743 57.8826 119.325 59.5711 122.008 61.0886C127.658 64.4586 131.47 67.6386 133.442 70.6286C135.623 74.1407 136.625 78.2581 136.301 82.3799C135.977 86.5017 134.345 90.4122 131.642 93.5406C130.159 95.254 128.315 96.6178 126.243 97.5342C124.17 98.4506 121.921 98.8967 119.656 98.8406C118.199 98.8495 116.748 98.6608 115.343 98.2796C113.582 97.7389 111.878 97.0306 110.253 96.1646C109.39 95.6698 108.428 95.3755 107.437 95.3036C106.703 95.3488 106.009 95.6541 105.481 96.1646C104.695 96.8825 104.116 97.797 103.803 98.8136H102.477V76.6606H103.797C104.845 82.8766 106.858 87.6192 109.836 90.8886C112.814 94.1579 116.028 95.7972 119.478 95.8066C120.668 95.8576 121.854 95.6472 122.954 95.19C124.054 94.7329 125.04 94.0401 125.844 93.1606C127.387 91.4941 128.234 89.2998 128.21 87.0286C128.216 85.6407 127.914 84.2687 127.327 83.0116C126.648 81.6144 125.71 80.3588 124.563 79.3116C122.54 77.5739 120.345 76.0474 118.012 74.7556C114.625 72.8651 111.448 70.6216 108.534 68.0626C106.68 66.3037 105.181 64.2054 104.119 61.8816C103.068 59.5222 102.539 56.964 102.569 54.3816C102.461 50.0212 103.97 45.7751 106.807 42.4616C108.101 40.8882 109.736 39.6281 111.586 38.7757C113.437 37.9233 115.457 37.5007 117.495 37.5396C119.03 37.5486 120.556 37.7897 122.02 38.2546C123.446 38.7429 124.813 39.3868 126.099 40.1746C127.105 40.8795 128.253 41.3572 129.463 41.5746C129.744 41.5837 130.023 41.5256 130.277 41.4051C130.531 41.2846 130.753 41.1051 130.924 40.8816C131.473 39.8503 131.813 38.7207 131.924 37.5576L132.991 37.5506Z" fill="#0C3253"/>
<path d="M159.174 42.2572V66.0962H160.136C163.203 66.0962 165.421 64.9295 166.793 62.5962C168.164 60.2629 169.047 56.8225 169.442 52.2752H170.793V82.9352H169.442C169.267 80.1255 168.66 77.3597 167.642 74.7352C167.046 73.0085 165.934 71.5071 164.455 70.4352C162.826 69.6076 161.007 69.228 159.184 69.3352V85.8352C159.091 87.8136 159.205 89.7964 159.524 91.7512C159.744 92.4603 160.187 93.0796 160.787 93.5172C161.691 94.0432 162.732 94.2847 163.776 94.2102H166.663C171.175 94.2102 174.792 92.9435 177.514 90.4102C180.236 87.8768 182.188 84.0185 183.372 78.8352H184.696L182.524 97.4472H140.758V95.8472H142.358C143.553 95.9074 144.737 95.5928 145.744 94.9472C146.438 94.437 146.939 93.7071 147.166 92.8762C147.532 91.0865 147.664 89.2569 147.559 87.4332V48.9102C147.606 47.2894 147.547 45.6672 147.382 44.0542C147.207 43.1532 146.742 42.3344 146.058 41.7232C145.021 40.8671 143.7 40.4336 142.358 40.5092H140.758V38.9092H181.187V56.2282H179.836C179.147 51.9962 178.18 48.9588 176.936 47.1162C175.644 45.2364 173.788 43.8157 171.636 43.0592C170.309 42.5385 167.814 42.2782 164.153 42.2782L159.174 42.2572Z" fill="#0C3253"/>
<path d="M238.295 37.5505V58.1935H236.971C235.385 52.5515 232.999 48.2588 229.815 45.3155C227.042 42.5438 223.299 40.9604 219.379 40.9005C217.702 40.8565 216.034 41.1629 214.482 41.7999C212.929 42.437 211.527 43.3909 210.364 44.6005C207.746 47.4947 205.982 51.0585 205.269 54.8955C204.266 59.3462 203.762 63.8951 203.769 68.4575C203.698 73.4278 204.25 78.3873 205.411 83.2205C206.503 87.4585 208.27 90.5678 210.711 92.5485C213.157 94.5403 216.233 95.5967 219.386 95.5285C220.593 95.5256 221.795 95.3772 222.966 95.0865C224.256 94.7611 225.514 94.3179 226.723 93.7625V81.5995C226.808 80.0977 226.676 78.5914 226.33 77.1275C225.994 76.3633 225.428 75.723 224.71 75.2955C223.824 74.7291 222.787 74.443 221.735 74.4745H220.484V72.8745H243.975V74.4745C242.685 74.4959 241.415 74.7972 240.253 75.3575C239.485 75.8949 238.916 76.6707 238.633 77.5645C238.345 78.8828 238.238 80.2343 238.315 81.5815V93.7575C232.175 97.1085 225.285 98.8477 218.29 98.8125C214.361 98.9476 210.454 98.1724 206.874 96.5475C200.843 93.5329 196.077 88.4748 193.427 82.2745C191.717 78.036 190.87 73.4986 190.937 68.9285C190.937 60.1165 193.489 52.6735 198.592 46.5995C200.892 43.7054 203.826 41.3786 207.168 39.7986C210.51 38.2187 214.17 37.428 217.866 37.4875C220.048 37.4652 222.224 37.6977 224.351 38.1805C226.095 38.6817 227.787 39.3453 229.406 40.1625C230.721 40.8645 232.114 41.4083 233.556 41.7825C233.91 41.7721 234.257 41.6882 234.576 41.5362C234.895 41.3842 235.179 41.1674 235.41 40.8995C236.174 39.9143 236.71 38.7713 236.977 37.5535L238.295 37.5505Z" fill="#0C3253"/>
<path d="M74.8954 110.888C74.8716 111.052 74.8582 111.218 74.8554 111.383C74.8494 111.485 74.864 111.586 74.8984 111.682C74.9328 111.777 74.9862 111.865 75.0554 111.939C75.1277 112.009 75.2137 112.064 75.3079 112.1C75.4022 112.135 75.5027 112.151 75.6034 112.146C75.8335 112.146 76.0603 112.092 76.2654 111.987C76.5498 111.844 76.8105 111.658 77.0384 111.435L77.1794 111.563C76.8889 111.932 76.5308 112.242 76.1244 112.477C75.7739 112.663 75.3821 112.757 74.9854 112.751C74.7881 112.775 74.5881 112.754 74.4001 112.689C74.2121 112.625 74.041 112.52 73.8994 112.38C73.691 112.148 73.5735 111.849 73.5684 111.537C73.5721 111 73.7251 110.474 74.0104 110.018C74.3065 109.514 74.7277 109.094 75.2334 108.8C75.7032 108.515 76.2416 108.362 76.7914 108.358C77.0074 108.345 77.2209 108.411 77.3914 108.544C77.4563 108.603 77.5077 108.676 77.5422 108.756C77.5767 108.837 77.5935 108.924 77.5914 109.012C77.5878 109.244 77.5185 109.471 77.3914 109.665C77.214 109.946 76.9775 110.185 76.6984 110.365C76.4143 110.549 76.1027 110.686 75.7754 110.771C75.4858 110.834 75.1914 110.874 74.8954 110.888ZM74.9354 110.645C75.1574 110.624 75.3748 110.569 75.5804 110.482C75.7472 110.403 75.897 110.292 76.0214 110.155C76.1754 109.98 76.3034 109.784 76.4014 109.572C76.5003 109.368 76.5545 109.146 76.5604 108.919C76.5627 108.883 76.5576 108.846 76.5454 108.812C76.5332 108.778 76.5141 108.746 76.4894 108.719C76.4649 108.694 76.4353 108.674 76.4025 108.661C76.3697 108.648 76.3345 108.642 76.2994 108.644C76.0958 108.676 75.913 108.787 75.7914 108.953C75.3808 109.45 75.0838 110.03 74.9214 110.653L74.9354 110.645Z" fill="#0C3253"/>
<path d="M79.1544 106.348H81.6794C82.0847 106.336 82.4902 106.366 82.8894 106.436C83.1775 106.494 83.4366 106.65 83.6224 106.877C83.7972 107.081 83.8915 107.342 83.8874 107.61C83.883 107.85 83.8139 108.083 83.6874 108.286C83.5339 108.529 83.3194 108.727 83.0654 108.86C82.6628 109.052 82.2368 109.19 81.7984 109.271C82.2578 109.369 82.683 109.586 83.0304 109.902C83.2506 110.144 83.372 110.459 83.3704 110.785C83.3635 111.128 83.244 111.459 83.0304 111.726C82.8088 112.035 82.502 112.273 82.1474 112.41C81.4783 112.588 80.7856 112.659 80.0944 112.622H77.4414L77.5074 112.45C77.6942 112.461 77.8814 112.437 78.0594 112.379C78.1675 112.336 78.2609 112.262 78.3284 112.167C78.4353 111.977 78.5141 111.772 78.5624 111.558L79.7054 107.7C79.7952 107.446 79.8546 107.182 79.8824 106.914C79.8821 106.862 79.8691 106.811 79.8446 106.765C79.82 106.718 79.7846 106.679 79.7414 106.649C79.5557 106.556 79.3491 106.512 79.1414 106.521L79.1544 106.348ZM80.4784 109.465L79.6614 112.255H80.0144C80.2871 112.286 80.5632 112.249 80.8181 112.147C81.073 112.046 81.2988 111.882 81.4754 111.672C81.7422 111.319 81.8861 110.888 81.8854 110.445C81.8905 110.247 81.8366 110.052 81.7304 109.884C81.6334 109.731 81.4892 109.613 81.3194 109.548C81.0476 109.476 80.7661 109.448 80.4854 109.464L80.4784 109.465ZM80.5884 109.121C80.9374 109.131 81.284 109.062 81.6034 108.921C81.8612 108.781 82.0683 108.563 82.1954 108.298C82.3348 108.05 82.412 107.771 82.4204 107.486C82.4251 107.377 82.4071 107.268 82.3675 107.166C82.3279 107.064 82.2676 106.972 82.1904 106.894C82.1068 106.818 82.0086 106.76 81.9016 106.722C81.7947 106.685 81.6813 106.67 81.5684 106.678H81.3124L80.5884 109.121Z" fill="#0C3253"/>
<path d="M86.6655 108.335L85.7515 111.478C85.7171 111.575 85.695 111.676 85.6855 111.778C85.685 111.791 85.6875 111.803 85.6929 111.815C85.6983 111.826 85.7064 111.836 85.7165 111.844C85.7421 111.867 85.7752 111.879 85.8095 111.879C85.9555 111.879 86.1455 111.755 86.3875 111.504C86.814 111.022 87.1801 110.49 87.4775 109.919L87.9195 108.506L89.1195 108.462L88.1965 111.535C88.1489 111.679 88.1121 111.827 88.0865 111.977C88.0889 112.005 88.1013 112.032 88.1215 112.052C88.1294 112.064 88.14 112.073 88.1523 112.08C88.1646 112.087 88.1784 112.091 88.1925 112.092C88.2165 112.091 88.2402 112.086 88.2622 112.076C88.2842 112.067 88.304 112.053 88.3205 112.035C88.4904 111.875 88.639 111.694 88.7625 111.496L88.9215 111.606C88.4805 112.383 88.0035 112.767 87.4775 112.767C87.3178 112.772 87.1616 112.72 87.0365 112.621C86.9813 112.575 86.9375 112.516 86.9084 112.45C86.8793 112.385 86.8656 112.313 86.8685 112.241C86.8775 112.024 86.9176 111.81 86.9875 111.605L87.2175 110.824C86.9453 111.233 86.6505 111.627 86.3345 112.003C86.1313 112.244 85.8897 112.45 85.6195 112.612C85.4518 112.71 85.2617 112.763 85.0675 112.766C84.9844 112.769 84.9017 112.754 84.8247 112.723C84.7476 112.692 84.6781 112.645 84.6205 112.585C84.5624 112.527 84.5165 112.458 84.4854 112.383C84.4544 112.307 84.4387 112.226 84.4395 112.144C84.4497 111.927 84.4897 111.713 84.5585 111.508L85.0885 109.658C85.1554 109.461 85.1997 109.256 85.2205 109.049C85.2232 109.006 85.2108 108.964 85.1855 108.93C85.1537 108.889 85.1106 108.858 85.0615 108.842C84.954 108.82 84.8441 108.811 84.7345 108.816L84.7835 108.639L86.3945 108.365L86.6655 108.335Z" fill="#0C3253"/>
<path d="M93.0629 108.336L92.8509 109.762H92.6829C92.6777 109.435 92.5536 109.121 92.3339 108.879C92.2507 108.783 92.1487 108.705 92.0342 108.649C91.9197 108.594 91.795 108.563 91.6679 108.557C91.5387 108.552 91.4125 108.596 91.3149 108.681C91.27 108.717 91.2336 108.763 91.2084 108.815C91.1831 108.867 91.1697 108.924 91.1689 108.981C91.1694 109.077 91.1905 109.172 91.2309 109.259C91.3047 109.388 91.397 109.506 91.5049 109.608C91.8425 109.937 92.1457 110.3 92.4099 110.69C92.5168 110.885 92.5728 111.104 92.5729 111.326C92.5717 111.578 92.5011 111.825 92.3687 112.039C92.2364 112.253 92.0475 112.426 91.8229 112.54C91.5818 112.666 91.314 112.733 91.0419 112.734C90.8137 112.727 90.5872 112.694 90.3669 112.634C90.2377 112.59 90.1031 112.564 89.9669 112.555C89.9035 112.555 89.8407 112.567 89.7819 112.59C89.7245 112.629 89.675 112.679 89.6359 112.736H89.4629L89.6919 111.195H89.8469C89.9158 111.474 90.0196 111.743 90.1559 111.995C90.2476 112.154 90.3802 112.285 90.5399 112.375C90.6724 112.459 90.8242 112.508 90.9809 112.516C91.0617 112.521 91.1426 112.509 91.2186 112.481C91.2945 112.453 91.3638 112.41 91.4219 112.353C91.4762 112.306 91.5197 112.248 91.5494 112.182C91.5791 112.116 91.5943 112.045 91.5939 111.973C91.5912 111.827 91.5535 111.683 91.4839 111.554C91.3338 111.325 91.1605 111.112 90.9669 110.918C90.6918 110.645 90.4488 110.342 90.2429 110.013C90.1601 109.851 90.1176 109.671 90.1189 109.488C90.1159 109.331 90.1475 109.175 90.2117 109.032C90.2758 108.888 90.3708 108.761 90.4899 108.658C90.7825 108.419 91.1546 108.299 91.5319 108.322C91.7732 108.329 92.013 108.362 92.2469 108.422C92.3579 108.452 92.472 108.468 92.5869 108.47C92.6454 108.472 92.7035 108.459 92.7558 108.433C92.8082 108.407 92.8532 108.368 92.8869 108.32L93.0629 108.336Z" fill="#0C3253"/>
<path d="M95.6935 108.337L94.7265 111.626C94.6845 111.746 94.658 111.871 94.6475 111.997C94.6491 112.032 94.6634 112.065 94.6875 112.089C94.6987 112.101 94.7123 112.111 94.7275 112.118C94.7426 112.125 94.7589 112.129 94.7755 112.129C94.836 112.128 94.8939 112.104 94.9385 112.063C95.1365 111.881 95.3087 111.673 95.4505 111.445L95.6095 111.538C95.1325 112.35 94.6255 112.752 94.0955 112.752C93.9177 112.76 93.743 112.702 93.6055 112.589C93.5448 112.534 93.4971 112.465 93.4658 112.389C93.4345 112.313 93.4204 112.231 93.4245 112.148C93.4294 111.998 93.456 111.849 93.5035 111.706L94.1565 109.499C94.2102 109.344 94.2438 109.182 94.2565 109.018C94.2553 108.984 94.2469 108.95 94.2317 108.918C94.2166 108.887 94.195 108.86 94.1685 108.837C94.0988 108.781 94.0108 108.753 93.9215 108.758H93.7555L93.8175 108.573L95.4175 108.321L95.6935 108.337ZM95.4025 106.209C95.4942 106.207 95.5853 106.224 95.6702 106.258C95.7552 106.292 95.8322 106.344 95.8965 106.409C95.9609 106.472 96.0118 106.546 96.0462 106.629C96.0806 106.712 96.0977 106.801 96.0965 106.89C96.0967 106.98 96.0782 107.068 96.0424 107.15C96.0066 107.233 95.9542 107.306 95.8885 107.367C95.8255 107.432 95.7498 107.483 95.6662 107.518C95.5826 107.552 95.4929 107.569 95.4025 107.567C95.3116 107.568 95.2214 107.551 95.1373 107.517C95.0531 107.483 94.9767 107.432 94.9125 107.367C94.8487 107.305 94.7981 107.231 94.7637 107.149C94.7293 107.067 94.7119 106.979 94.7125 106.89C94.7092 106.8 94.7253 106.711 94.7598 106.628C94.7944 106.545 94.8465 106.47 94.9125 106.409C94.9759 106.344 95.0522 106.292 95.1365 106.258C95.2209 106.223 95.3115 106.207 95.4025 106.209Z" fill="#0C3253"/>
<path d="M98.4919 108.335L97.9089 110.317C98.1792 109.904 98.4741 109.507 98.7919 109.129C99.0031 108.883 99.2518 108.671 99.5289 108.502C99.708 108.399 99.9095 108.341 100.116 108.334C100.194 108.333 100.272 108.349 100.344 108.379C100.416 108.41 100.481 108.454 100.535 108.511C100.594 108.574 100.64 108.647 100.67 108.727C100.7 108.808 100.715 108.893 100.712 108.979C100.704 109.193 100.664 109.404 100.593 109.606L99.9929 111.579C99.9543 111.689 99.9291 111.803 99.9179 111.919C99.9177 111.935 99.9207 111.95 99.9267 111.965C99.9327 111.979 99.9416 111.992 99.9529 112.003C99.9711 112.023 99.9966 112.036 100.024 112.038C100.06 112.036 100.095 112.024 100.124 112.003C100.25 111.891 100.361 111.763 100.455 111.623C100.486 111.574 100.53 111.513 100.592 111.429L100.778 111.535C100.336 112.299 99.8289 112.674 99.3169 112.674C99.157 112.679 99.0005 112.627 98.8749 112.528C98.8228 112.481 98.7813 112.424 98.7532 112.36C98.7251 112.296 98.711 112.227 98.7119 112.157C98.7254 111.96 98.7641 111.766 98.8269 111.579L99.4139 109.606C99.4492 109.514 99.4701 109.417 99.4759 109.319C99.4758 109.302 99.4723 109.284 99.4654 109.268C99.4585 109.252 99.4485 109.238 99.4359 109.226C99.4072 109.204 99.3721 109.192 99.3359 109.191C99.1646 109.214 99.0076 109.299 98.8939 109.429C98.3745 109.96 97.9491 110.575 97.6359 111.248L97.2469 112.621H96.0469L96.9299 109.65C96.994 109.448 97.0356 109.239 97.0539 109.027C97.0581 108.982 97.0456 108.936 97.0189 108.899C96.9881 108.857 96.9446 108.826 96.8949 108.811C96.7891 108.788 96.6809 108.78 96.5729 108.785L96.6259 108.608L98.2149 108.334L98.4919 108.335Z" fill="#0C3253"/>
<path d="M102.792 110.887C102.768 111.051 102.753 111.216 102.748 111.382C102.741 111.484 102.756 111.586 102.791 111.682C102.827 111.777 102.882 111.864 102.954 111.936C103.026 112.009 103.113 112.065 103.208 112.101C103.303 112.137 103.405 112.153 103.507 112.146C103.737 112.146 103.964 112.091 104.169 111.987C104.452 111.844 104.711 111.657 104.937 111.435L105.083 111.563C104.792 111.933 104.432 112.244 104.023 112.477C103.673 112.664 103.281 112.758 102.884 112.751C102.687 112.775 102.487 112.754 102.299 112.689C102.111 112.625 101.94 112.519 101.798 112.38C101.599 112.141 101.493 111.839 101.498 111.528C101.504 110.991 101.656 110.465 101.94 110.009C102.241 109.507 102.663 109.088 103.167 108.791C103.637 108.506 104.176 108.354 104.725 108.349C104.942 108.333 105.156 108.399 105.325 108.535C105.39 108.594 105.442 108.667 105.476 108.747C105.511 108.828 105.527 108.915 105.525 109.003C105.522 109.235 105.452 109.462 105.325 109.656C105.151 109.938 104.915 110.177 104.636 110.356C104.351 110.54 104.038 110.677 103.709 110.762C103.408 110.83 103.101 110.872 102.792 110.887ZM102.836 110.644C103.058 110.623 103.276 110.568 103.481 110.481C103.648 110.401 103.797 110.29 103.922 110.154C104.079 109.98 104.209 109.784 104.306 109.571C104.403 109.367 104.457 109.144 104.465 108.918C104.467 108.881 104.461 108.845 104.448 108.81C104.435 108.776 104.416 108.745 104.39 108.718C104.367 108.693 104.338 108.673 104.306 108.66C104.273 108.647 104.239 108.641 104.204 108.643C104.103 108.658 104.005 108.693 103.917 108.746C103.83 108.799 103.753 108.869 103.692 108.952C103.286 109.449 102.994 110.03 102.836 110.652V110.644Z" fill="#0C3253"/>
<path d="M109.162 108.335L108.954 109.761H108.777C108.775 109.435 108.653 109.12 108.433 108.878C108.351 108.783 108.25 108.705 108.137 108.649C108.024 108.594 107.901 108.562 107.775 108.556C107.643 108.55 107.514 108.594 107.413 108.68C107.369 108.717 107.333 108.763 107.309 108.814C107.285 108.866 107.272 108.923 107.272 108.98C107.273 109.076 107.294 109.171 107.334 109.258C107.408 109.387 107.5 109.505 107.608 109.607C107.937 109.938 108.232 110.301 108.491 110.689C108.596 110.885 108.651 111.103 108.65 111.325C108.65 111.567 108.587 111.805 108.465 112.014C108.33 112.239 108.134 112.421 107.9 112.539C107.659 112.666 107.391 112.732 107.119 112.733C106.891 112.726 106.664 112.693 106.444 112.633C106.317 112.59 106.185 112.563 106.051 112.554C105.984 112.548 105.917 112.562 105.858 112.594C105.799 112.626 105.751 112.675 105.72 112.735H105.543L105.777 111.194H105.927C105.998 111.472 106.102 111.741 106.236 111.994C106.329 112.152 106.461 112.283 106.62 112.374C106.753 112.458 106.904 112.507 107.061 112.515C107.142 112.52 107.223 112.508 107.298 112.479C107.374 112.451 107.444 112.408 107.502 112.352C107.555 112.304 107.598 112.246 107.627 112.18C107.656 112.115 107.67 112.044 107.67 111.972C107.669 111.826 107.631 111.682 107.56 111.553C107.412 111.324 107.24 111.111 107.048 110.917C106.772 110.646 106.527 110.344 106.319 110.017C106.24 109.854 106.199 109.674 106.2 109.492C106.196 109.335 106.227 109.179 106.291 109.035C106.356 108.892 106.451 108.764 106.571 108.662C106.862 108.422 107.233 108.302 107.609 108.326C107.852 108.332 108.093 108.366 108.329 108.426C108.44 108.456 108.554 108.472 108.669 108.474C108.727 108.476 108.786 108.463 108.838 108.437C108.89 108.411 108.935 108.372 108.969 108.324L109.162 108.335Z" fill="#0C3253"/>
<path d="M112.922 108.334L112.715 109.76H112.538C112.536 109.434 112.414 109.119 112.194 108.877C112.112 108.781 112.01 108.703 111.896 108.648C111.783 108.593 111.659 108.561 111.532 108.555C111.4 108.55 111.271 108.594 111.17 108.678C111.086 108.756 111.035 108.864 111.029 108.978C111.03 109.074 111.051 109.169 111.091 109.256C111.165 109.386 111.257 109.503 111.365 109.605C111.701 109.935 112.003 110.297 112.265 110.687C112.374 110.882 112.43 111.101 112.428 111.323C112.429 111.566 112.364 111.805 112.238 112.012C112.104 112.236 111.909 112.418 111.677 112.537C111.434 112.664 111.165 112.731 110.891 112.731C110.664 112.725 110.439 112.691 110.22 112.631C110.091 112.588 109.956 112.561 109.82 112.552C109.758 112.551 109.696 112.563 109.639 112.587C109.58 112.626 109.529 112.676 109.489 112.733H109.328L109.553 111.192H109.703C109.775 111.471 109.88 111.739 110.016 111.992C110.107 112.15 110.238 112.281 110.396 112.372C110.536 112.459 110.696 112.507 110.86 112.513C110.941 112.518 111.022 112.506 111.098 112.478C111.173 112.45 111.243 112.406 111.301 112.35C111.355 112.303 111.399 112.245 111.429 112.179C111.458 112.114 111.473 112.042 111.473 111.97C111.472 111.824 111.434 111.68 111.363 111.551C111.214 111.323 111.042 111.11 110.851 110.915C110.572 110.645 110.327 110.341 110.122 110.01C110.039 109.848 109.997 109.668 109.998 109.485C109.996 109.328 110.028 109.173 110.092 109.03C110.156 108.886 110.251 108.759 110.369 108.655C110.661 108.415 111.034 108.295 111.411 108.319C111.652 108.326 111.892 108.36 112.126 108.419C112.237 108.449 112.351 108.466 112.466 108.468C112.525 108.47 112.583 108.458 112.635 108.431C112.687 108.405 112.732 108.366 112.766 108.318L112.922 108.334Z" fill="#0C3253"/>
<path d="M121.138 106.21L120.604 108.338H120.445C120.423 108.064 120.364 107.795 120.268 107.538C120.151 107.273 119.969 107.042 119.738 106.867C119.532 106.716 119.283 106.634 119.027 106.633C118.788 106.637 118.56 106.733 118.389 106.9C118.218 107.068 118.118 107.294 118.109 107.533C118.111 107.77 118.177 108.001 118.299 108.204C118.559 108.571 118.862 108.905 119.204 109.197C119.506 109.46 119.764 109.77 119.968 110.115C120.097 110.373 120.163 110.657 120.162 110.945C120.163 111.277 120.068 111.602 119.888 111.881C119.694 112.172 119.42 112.401 119.098 112.539C118.725 112.699 118.321 112.779 117.915 112.773C117.572 112.763 117.231 112.723 116.895 112.654C116.625 112.594 116.35 112.554 116.074 112.535C115.976 112.533 115.879 112.549 115.787 112.584C115.673 112.63 115.568 112.694 115.474 112.774H115.289L115.859 110.381H116.04C116.068 110.749 116.156 111.11 116.301 111.449C116.418 111.73 116.615 111.971 116.866 112.142C117.115 112.305 117.407 112.39 117.705 112.385C117.995 112.392 118.275 112.284 118.486 112.085C118.585 111.995 118.663 111.885 118.717 111.762C118.771 111.64 118.799 111.508 118.799 111.374C118.798 111.14 118.737 110.911 118.622 110.707C118.395 110.363 118.124 110.051 117.814 109.78C117.461 109.466 117.163 109.096 116.931 108.685C116.813 108.451 116.753 108.192 116.754 107.93C116.754 107.7 116.804 107.474 116.901 107.265C116.998 107.057 117.139 106.873 117.315 106.725C117.722 106.373 118.248 106.19 118.785 106.213C119.15 106.228 119.512 106.289 119.862 106.394C120.042 106.449 120.227 106.485 120.414 106.5C120.5 106.5 120.584 106.481 120.661 106.443C120.758 106.382 120.844 106.304 120.913 106.213L121.138 106.21Z" fill="#0C3253"/>
<path d="M124.043 108.335C124.287 108.334 124.527 108.393 124.743 108.507C124.947 108.61 125.113 108.773 125.22 108.975C125.335 109.176 125.393 109.405 125.388 109.637C125.376 110.167 125.224 110.685 124.947 111.137C124.679 111.622 124.292 112.029 123.821 112.32C123.403 112.599 122.915 112.752 122.413 112.762C122.23 112.773 122.047 112.746 121.876 112.681C121.705 112.616 121.549 112.516 121.42 112.387C121.304 112.265 121.214 112.122 121.154 111.965C121.094 111.808 121.066 111.641 121.071 111.473C121.068 111.057 121.159 110.645 121.336 110.268C121.499 109.905 121.725 109.573 122.003 109.288C122.268 109.009 122.58 108.779 122.925 108.608C123.27 108.429 123.654 108.335 124.043 108.335ZM123.853 108.582C123.702 108.575 123.553 108.625 123.438 108.723C123.098 109.122 122.844 109.586 122.692 110.087C122.438 110.7 122.297 111.353 122.277 112.016C122.274 112.08 122.285 112.144 122.307 112.204C122.33 112.264 122.365 112.319 122.409 112.365C122.447 112.409 122.495 112.444 122.548 112.469C122.602 112.493 122.659 112.506 122.718 112.506C122.836 112.507 122.951 112.468 123.045 112.396C123.259 112.178 123.432 111.924 123.557 111.646C123.765 111.238 123.93 110.809 124.047 110.366C124.172 109.95 124.239 109.52 124.247 109.086C124.253 108.952 124.211 108.82 124.128 108.715C124.094 108.675 124.052 108.642 124.005 108.62C123.957 108.597 123.905 108.585 123.853 108.585V108.582Z" fill="#0C3253"/>
<path d="M128.754 106.209L127.191 111.418C127.127 111.606 127.081 111.8 127.054 111.996C127.055 112.033 127.069 112.069 127.094 112.096C127.105 112.108 127.119 112.118 127.134 112.125C127.149 112.131 127.165 112.135 127.182 112.135C127.242 112.133 127.3 112.11 127.345 112.069C127.542 111.893 127.71 111.688 127.845 111.46L128.035 111.544C127.807 111.93 127.507 112.27 127.152 112.544C126.969 112.674 126.749 112.744 126.525 112.744C126.344 112.752 126.166 112.694 126.025 112.58C125.967 112.532 125.921 112.472 125.89 112.404C125.858 112.336 125.843 112.262 125.844 112.187C125.857 111.998 125.895 111.811 125.955 111.631L127.235 107.379C127.284 107.227 127.317 107.07 127.335 106.911C127.337 106.875 127.328 106.839 127.31 106.808C127.293 106.777 127.267 106.751 127.235 106.734C127.114 106.664 126.974 106.635 126.835 106.65L126.888 106.478L128.477 106.204L128.754 106.209Z" fill="#0C3253"/>
<path d="M130.962 108.335L130.048 111.478C130.013 111.575 129.991 111.676 129.982 111.778C129.981 111.791 129.983 111.804 129.99 111.816C129.996 111.828 130.005 111.837 130.017 111.844C130.041 111.866 130.072 111.879 130.105 111.879C130.246 111.879 130.445 111.755 130.683 111.504C131.109 111.022 131.475 110.49 131.773 109.919L132.214 108.506L133.406 108.462L132.523 111.517C132.472 111.661 132.434 111.808 132.408 111.958C132.408 111.986 132.419 112.013 132.439 112.033C132.458 112.055 132.485 112.07 132.514 112.073C132.538 112.072 132.561 112.067 132.583 112.057C132.605 112.048 132.625 112.033 132.642 112.016C132.813 111.857 132.961 111.676 133.083 111.477L133.242 111.587C132.801 112.364 132.324 112.748 131.798 112.748C131.638 112.753 131.481 112.701 131.356 112.602C131.301 112.555 131.258 112.497 131.229 112.431C131.2 112.365 131.186 112.294 131.188 112.222C131.197 112.006 131.236 111.792 131.303 111.586L131.537 110.805C131.266 111.215 130.971 111.609 130.654 111.984C130.451 112.224 130.211 112.429 129.943 112.593C129.773 112.69 129.582 112.743 129.387 112.747C129.305 112.749 129.223 112.733 129.147 112.702C129.071 112.671 129.002 112.625 128.945 112.566C128.887 112.508 128.841 112.439 128.81 112.364C128.779 112.288 128.763 112.207 128.764 112.125C128.774 111.908 128.814 111.694 128.883 111.489L129.413 109.639C129.48 109.442 129.526 109.237 129.55 109.03C129.551 108.986 129.535 108.943 129.506 108.911C129.477 108.867 129.432 108.836 129.382 108.823C129.277 108.801 129.17 108.792 129.064 108.797L129.108 108.62L130.715 108.346L130.962 108.335Z" fill="#0C3253"/>
<path d="M136.524 107.206L136.149 108.464H136.763L136.604 108.998H135.992L135.206 111.678C135.165 111.801 135.139 111.929 135.131 112.058C135.131 112.077 135.134 112.096 135.142 112.113C135.15 112.13 135.161 112.145 135.175 112.158C135.185 112.173 135.199 112.185 135.215 112.193C135.232 112.201 135.25 112.204 135.268 112.202C135.328 112.201 135.385 112.179 135.431 112.14C135.624 111.977 135.793 111.787 135.931 111.575L136.099 111.675C135.923 111.996 135.679 112.275 135.384 112.492C135.157 112.651 134.889 112.74 134.612 112.748C134.431 112.757 134.254 112.7 134.112 112.589C134.055 112.538 134.011 112.475 133.981 112.405C133.951 112.335 133.937 112.259 133.94 112.183C133.947 111.951 133.987 111.72 134.059 111.499L134.805 108.999H134.165L134.258 108.655C134.618 108.531 134.961 108.36 135.278 108.147C135.643 107.87 135.979 107.555 136.278 107.207L136.524 107.206Z" fill="#0C3253"/>
<path d="M138.909 108.337L137.938 111.626C137.898 111.747 137.872 111.871 137.859 111.997C137.86 112.032 137.874 112.065 137.899 112.09C137.911 112.103 137.925 112.113 137.941 112.12C137.957 112.127 137.974 112.131 137.992 112.13C138.051 112.128 138.108 112.105 138.151 112.064C138.351 111.885 138.524 111.677 138.663 111.446L138.822 111.539C138.35 112.351 137.842 112.753 137.312 112.753C137.133 112.761 136.957 112.703 136.818 112.59C136.76 112.533 136.714 112.464 136.683 112.388C136.653 112.312 136.638 112.231 136.641 112.149C136.644 111.999 136.669 111.85 136.716 111.707L137.374 109.5C137.428 109.345 137.459 109.183 137.467 109.019C137.467 108.984 137.459 108.95 137.444 108.919C137.429 108.887 137.406 108.86 137.379 108.838C137.31 108.782 137.221 108.753 137.132 108.759H136.964L137.026 108.573L138.626 108.321L138.909 108.337ZM138.609 106.209C138.701 106.207 138.792 106.223 138.877 106.257C138.962 106.292 139.039 106.344 139.103 106.409C139.167 106.472 139.217 106.546 139.252 106.629C139.286 106.711 139.304 106.799 139.304 106.888C139.304 106.977 139.286 107.066 139.252 107.148C139.217 107.23 139.167 107.305 139.103 107.367C138.972 107.494 138.797 107.565 138.615 107.565C138.433 107.565 138.258 107.494 138.127 107.367C138.062 107.306 138.011 107.232 137.977 107.15C137.943 107.068 137.926 106.979 137.927 106.89C137.924 106.8 137.94 106.711 137.975 106.628C138.009 106.545 138.061 106.47 138.127 106.409C138.188 106.345 138.262 106.294 138.344 106.259C138.427 106.225 138.515 106.208 138.604 106.209H138.609Z" fill="#0C3253"/>
<path d="M142.298 108.335C142.542 108.334 142.783 108.393 142.999 108.507C143.209 108.607 143.382 108.771 143.493 108.975C143.606 109.177 143.664 109.405 143.661 109.637C143.651 110.168 143.499 110.686 143.22 111.137C142.952 111.62 142.567 112.027 142.099 112.32C141.68 112.597 141.192 112.75 140.69 112.761C140.516 112.774 140.342 112.749 140.178 112.689C140.014 112.63 139.864 112.536 139.739 112.414C139.614 112.292 139.516 112.145 139.452 111.983C139.388 111.82 139.359 111.646 139.367 111.472C139.363 111.056 139.45 110.645 139.622 110.267C139.789 109.906 140.014 109.574 140.289 109.287C140.557 109.009 140.871 108.778 141.216 108.607C141.551 108.433 141.922 108.34 142.298 108.335ZM142.099 108.582C141.949 108.575 141.801 108.625 141.687 108.723C141.348 109.122 141.094 109.586 140.941 110.087C140.685 110.699 140.545 111.353 140.526 112.016C140.524 112.08 140.535 112.144 140.557 112.204C140.58 112.264 140.615 112.319 140.66 112.365C140.698 112.409 140.746 112.444 140.799 112.469C140.852 112.493 140.91 112.506 140.969 112.506C141.087 112.507 141.202 112.468 141.295 112.396C141.508 112.178 141.68 111.923 141.803 111.645C142.014 111.237 142.181 110.808 142.303 110.365C142.423 109.949 142.487 109.518 142.493 109.085C142.501 108.952 142.46 108.82 142.379 108.714C142.344 108.673 142.302 108.641 142.254 108.619C142.206 108.596 142.153 108.585 142.1 108.585L142.099 108.582Z" fill="#0C3253"/>
<path d="M146.526 108.335L145.943 110.317C146.215 109.905 146.51 109.509 146.826 109.13C147.04 108.884 147.29 108.672 147.568 108.502C147.747 108.4 147.949 108.342 148.155 108.334C148.237 108.331 148.319 108.345 148.395 108.376C148.471 108.406 148.539 108.452 148.596 108.511C148.712 108.64 148.773 108.807 148.768 108.98C148.76 109.193 148.721 109.404 148.653 109.606L148.053 111.58C148.015 111.689 147.989 111.804 147.978 111.92C147.979 111.95 147.99 111.98 148.009 112.003C148.029 112.024 148.056 112.037 148.084 112.039C148.12 112.037 148.155 112.025 148.184 112.003C148.314 111.894 148.427 111.766 148.519 111.623C148.561 111.556 148.607 111.492 148.656 111.429L148.837 111.536C148.373 112.3 147.883 112.675 147.376 112.675C147.216 112.681 147.06 112.629 146.935 112.528C146.882 112.482 146.84 112.425 146.812 112.361C146.784 112.297 146.77 112.228 146.772 112.158C146.783 111.961 146.82 111.767 146.882 111.58L147.469 109.606C147.505 109.515 147.528 109.418 147.535 109.32C147.534 109.302 147.53 109.285 147.523 109.269C147.515 109.253 147.504 109.238 147.491 109.227C147.463 109.204 147.428 109.191 147.391 109.192C147.22 109.215 147.064 109.299 146.95 109.429C146.431 109.96 146.006 110.575 145.692 111.248L145.304 112.622H144.072L144.955 109.651C145.024 109.449 145.065 109.24 145.079 109.028C145.083 108.982 145.071 108.937 145.044 108.899C145.014 108.859 144.973 108.828 144.925 108.812C144.819 108.789 144.711 108.78 144.603 108.785L144.651 108.609L146.24 108.334L146.526 108.335Z" fill="#0C3253"/>
<path d="M152.915 108.335L152.708 109.761H152.531C152.53 109.435 152.407 109.12 152.187 108.878C152.105 108.782 152.004 108.704 151.89 108.648C151.776 108.593 151.652 108.562 151.525 108.556C151.394 108.551 151.265 108.595 151.163 108.679C151.12 108.717 151.085 108.763 151.061 108.814C151.037 108.866 151.023 108.922 151.022 108.979C151.023 109.075 151.044 109.17 151.084 109.257C151.158 109.386 151.25 109.504 151.358 109.606C151.696 109.937 152 110.299 152.268 110.688C152.378 110.893 152.432 111.123 152.427 111.354C152.421 111.586 152.356 111.813 152.237 112.012C152.102 112.237 151.906 112.419 151.672 112.537C151.433 112.664 151.166 112.731 150.895 112.731C150.666 112.724 150.437 112.691 150.215 112.631C150.089 112.587 149.956 112.561 149.822 112.552C149.76 112.551 149.699 112.563 149.641 112.587C149.581 112.623 149.531 112.673 149.495 112.733H149.318L149.548 111.192H149.702C149.771 111.47 149.871 111.738 150.002 111.992C150.097 112.15 150.23 112.281 150.39 112.372C150.523 112.457 150.675 112.505 150.831 112.513C150.912 112.517 150.993 112.505 151.068 112.477C151.144 112.449 151.214 112.406 151.272 112.35C151.327 112.303 151.37 112.245 151.399 112.179C151.428 112.113 151.442 112.042 151.44 111.97C151.438 111.823 151.398 111.679 151.325 111.551C151.179 111.322 151.009 111.109 150.817 110.915C150.54 110.643 150.296 110.34 150.089 110.01C150.008 109.847 149.967 109.667 149.97 109.485C149.966 109.329 149.997 109.173 150.06 109.029C150.124 108.886 150.218 108.758 150.336 108.655C150.629 108.416 151.001 108.295 151.378 108.319C151.62 108.326 151.859 108.36 152.093 108.419C152.204 108.449 152.318 108.466 152.433 108.468C152.492 108.471 152.55 108.458 152.603 108.432C152.655 108.406 152.7 108.367 152.733 108.318L152.915 108.335Z" fill="#0C3253"/>
<path d="M159.148 106.682L158.437 109.114H158.653C159.081 109.141 159.509 109.065 159.902 108.893C160.199 108.704 160.433 108.43 160.573 108.107H160.745L160.025 110.548H159.866C159.89 110.416 159.903 110.282 159.906 110.148C159.911 109.997 159.857 109.85 159.756 109.738C159.646 109.626 159.508 109.545 159.356 109.504C159.138 109.463 158.916 109.447 158.694 109.456H158.336L157.727 111.562C157.681 111.694 157.654 111.833 157.647 111.973C157.647 112.009 157.657 112.043 157.676 112.074C157.695 112.104 157.721 112.129 157.753 112.145C157.931 112.222 158.125 112.254 158.318 112.238C158.845 112.241 159.365 112.126 159.841 111.902C160.336 111.661 160.772 111.316 161.121 110.891H161.311L160.644 112.608H155.158L155.211 112.436C155.459 112.454 155.707 112.392 155.917 112.26C156.12 112.04 156.259 111.768 156.317 111.474L157.522 107.439C157.58 107.266 157.613 107.087 157.622 106.905C157.625 106.854 157.614 106.802 157.592 106.756C157.569 106.71 157.536 106.67 157.494 106.64C157.315 106.549 157.117 106.504 156.916 106.508L156.965 106.336H162.065L161.659 107.907H161.487C161.495 107.68 161.443 107.455 161.337 107.254C161.212 107.058 161.03 106.904 160.816 106.813C160.471 106.703 160.11 106.656 159.748 106.676L159.148 106.682Z" fill="#0C3253"/>
<path d="M164.511 108.335L163.928 110.317C164.196 109.902 164.491 109.505 164.811 109.129C165.022 108.88 165.273 108.668 165.553 108.502C165.731 108.399 165.931 108.341 166.136 108.334C166.215 108.333 166.292 108.348 166.365 108.378C166.437 108.409 166.502 108.454 166.555 108.511C166.614 108.573 166.66 108.647 166.689 108.727C166.719 108.808 166.732 108.893 166.727 108.979C166.723 109.192 166.686 109.404 166.617 109.606L166.017 111.579C165.981 111.69 165.956 111.804 165.942 111.919C165.942 111.95 165.953 111.98 165.973 112.003C165.995 112.023 166.024 112.035 166.053 112.038C166.089 112.036 166.124 112.024 166.153 112.003C166.281 111.891 166.394 111.764 166.489 111.623C166.53 111.555 166.576 111.49 166.626 111.429L166.807 111.535C166.343 112.299 165.858 112.674 165.35 112.674C165.191 112.68 165.034 112.628 164.909 112.528C164.857 112.482 164.815 112.425 164.786 112.361C164.758 112.297 164.745 112.227 164.746 112.157C164.758 111.96 164.795 111.766 164.856 111.579L165.448 109.606C165.48 109.513 165.499 109.417 165.505 109.319C165.507 109.302 165.504 109.284 165.497 109.268C165.49 109.252 165.479 109.237 165.465 109.226C165.437 109.204 165.402 109.191 165.365 109.191C165.194 109.213 165.036 109.298 164.923 109.429C164.399 109.957 163.972 110.573 163.66 111.248L163.272 112.621H162.072L162.955 109.65C163.022 109.448 163.065 109.239 163.083 109.027C163.085 108.982 163.073 108.937 163.048 108.899C163.016 108.857 162.971 108.826 162.92 108.811C162.816 108.788 162.709 108.78 162.602 108.785L162.655 108.608L164.244 108.334L164.511 108.335Z" fill="#0C3253"/>
<path d="M171.933 108.395L171.015 111.485L170.922 111.86C170.919 111.894 170.919 111.927 170.922 111.96C170.922 111.998 170.937 112.033 170.962 112.06C170.982 112.084 171.01 112.099 171.041 112.104C171.147 112.084 171.244 112.032 171.319 111.954C171.443 111.816 171.557 111.668 171.659 111.512L171.822 111.591C171.65 111.934 171.406 112.235 171.107 112.474C170.871 112.651 170.585 112.747 170.29 112.748C170.14 112.759 169.993 112.71 169.879 112.611C169.832 112.568 169.795 112.514 169.77 112.455C169.746 112.396 169.735 112.332 169.738 112.267C169.76 112.038 169.812 111.812 169.893 111.596L170.003 111.221C169.737 111.723 169.381 112.172 168.952 112.545C168.773 112.686 168.553 112.764 168.325 112.766C168.198 112.775 168.071 112.746 167.96 112.684C167.849 112.622 167.758 112.53 167.698 112.417C167.568 112.176 167.503 111.905 167.508 111.631C167.529 111.108 167.666 110.596 167.908 110.131C168.154 109.603 168.52 109.139 168.976 108.776C169.257 108.519 169.616 108.364 169.996 108.335C170.076 108.33 170.156 108.34 170.232 108.366C170.308 108.392 170.378 108.432 170.438 108.485C170.568 108.641 170.65 108.831 170.672 109.032L170.844 108.463L171.933 108.395ZM170.423 109.278C170.436 109.09 170.395 108.901 170.304 108.735C170.278 108.698 170.244 108.668 170.204 108.647C170.164 108.627 170.119 108.616 170.074 108.616C169.961 108.627 169.855 108.677 169.774 108.757C169.473 109.098 169.24 109.493 169.09 109.922C168.872 110.398 168.748 110.91 168.724 111.432C168.715 111.557 168.745 111.682 168.808 111.789C168.828 111.82 168.855 111.845 168.886 111.864C168.917 111.882 168.953 111.893 168.989 111.895C169.075 111.889 169.159 111.865 169.235 111.824C169.311 111.783 169.378 111.726 169.43 111.657C169.653 111.405 169.84 111.122 169.986 110.818C170.251 110.347 170.4 109.819 170.42 109.278H170.423Z" fill="#0C3253"/>
<path d="M175.187 106.209L174.375 108.999C174.549 108.789 174.757 108.609 174.989 108.465C175.158 108.379 175.346 108.335 175.536 108.337C175.698 108.328 175.861 108.359 176.008 108.429C176.156 108.499 176.283 108.605 176.379 108.737C176.568 109.007 176.666 109.33 176.661 109.66C176.661 110.074 176.58 110.484 176.422 110.866C176.263 111.249 176.031 111.596 175.739 111.889C175.507 112.16 175.22 112.38 174.898 112.532C174.575 112.684 174.223 112.766 173.867 112.772C173.292 112.759 172.729 112.607 172.225 112.331L173.664 107.431C173.721 107.278 173.757 107.117 173.77 106.954C173.77 106.919 173.762 106.885 173.745 106.854C173.729 106.823 173.705 106.797 173.677 106.777C173.556 106.707 173.415 106.681 173.277 106.702L173.326 106.516L174.906 106.242L175.187 106.209ZM173.373 112.35C173.49 112.434 173.629 112.483 173.773 112.491C173.919 112.497 174.064 112.462 174.192 112.391C174.419 112.246 174.612 112.053 174.757 111.826C174.969 111.522 175.134 111.187 175.247 110.833C175.379 110.458 175.447 110.064 175.447 109.667C175.459 109.489 175.406 109.313 175.297 109.173C175.255 109.12 175.203 109.076 175.142 109.047C175.082 109.017 175.015 109.001 174.948 109.001C174.834 109.003 174.722 109.033 174.622 109.088C174.523 109.142 174.437 109.22 174.374 109.314C174.204 109.586 174.083 109.884 174.016 110.197L173.373 112.35Z" fill="#0C3253"/>
<path d="M180.017 106.209L178.46 111.418C178.396 111.606 178.35 111.8 178.322 111.996C178.325 112.033 178.339 112.068 178.362 112.096C178.374 112.108 178.387 112.118 178.403 112.125C178.418 112.131 178.434 112.135 178.451 112.135C178.51 112.134 178.567 112.11 178.609 112.069C178.809 111.894 178.981 111.688 179.117 111.46L179.298 111.544C179.07 111.931 178.771 112.27 178.415 112.544C178.233 112.675 178.013 112.745 177.788 112.744C177.607 112.753 177.429 112.694 177.288 112.58C177.231 112.532 177.185 112.472 177.153 112.404C177.122 112.336 177.106 112.262 177.107 112.187C177.121 111.998 177.158 111.811 177.218 111.631L178.488 107.375C178.541 107.224 178.576 107.067 178.594 106.907C178.595 106.871 178.586 106.836 178.569 106.805C178.551 106.774 178.525 106.748 178.494 106.73C178.373 106.661 178.233 106.632 178.094 106.646L178.147 106.474L179.736 106.2L180.017 106.209Z" fill="#0C3253"/>
<path d="M182.11 108.335L181.143 111.624C181.101 111.744 181.074 111.869 181.063 111.995C181.064 112.013 181.068 112.031 181.076 112.047C181.083 112.063 181.094 112.077 181.107 112.088C181.117 112.102 181.131 112.113 181.146 112.12C181.162 112.127 181.178 112.13 181.195 112.128C181.254 112.125 181.31 112.102 181.354 112.062C181.552 111.881 181.724 111.673 181.866 111.444L182.025 111.537C181.548 112.349 181.041 112.751 180.511 112.751C180.335 112.76 180.161 112.702 180.025 112.588C179.964 112.533 179.916 112.464 179.884 112.388C179.852 112.312 179.837 112.229 179.84 112.146C179.846 111.996 179.873 111.848 179.92 111.705L180.578 109.498C180.63 109.343 180.661 109.181 180.671 109.017C180.67 108.983 180.662 108.949 180.647 108.918C180.631 108.886 180.61 108.859 180.583 108.836C180.514 108.78 180.426 108.752 180.336 108.756H180.168L180.23 108.571L181.83 108.319L182.11 108.335ZM181.819 106.207C181.91 106.204 182 106.22 182.083 106.255C182.167 106.289 182.242 106.341 182.304 106.407C182.37 106.469 182.422 106.543 182.457 106.626C182.491 106.709 182.507 106.799 182.504 106.888C182.506 106.977 182.489 107.066 182.454 107.148C182.42 107.23 182.369 107.304 182.304 107.365C182.175 107.493 182 107.564 181.819 107.564C181.637 107.564 181.463 107.493 181.333 107.365C181.27 107.303 181.219 107.228 181.185 107.146C181.15 107.064 181.132 106.976 181.132 106.886C181.132 106.797 181.15 106.709 181.185 106.627C181.219 106.544 181.27 106.47 181.333 106.407C181.397 106.342 181.473 106.291 181.556 106.257C181.64 106.223 181.731 106.206 181.821 106.208L181.819 106.207Z" fill="#0C3253"/>
<path d="M184.912 108.335L184.325 110.317C184.596 109.904 184.89 109.508 185.208 109.13C185.418 108.883 185.667 108.671 185.945 108.503C186.124 108.4 186.326 108.343 186.532 108.335C186.61 108.334 186.688 108.349 186.76 108.38C186.832 108.41 186.897 108.455 186.951 108.512C187.07 108.638 187.133 108.807 187.128 108.98C187.12 109.193 187.081 109.405 187.013 109.607L186.413 111.58C186.377 111.69 186.351 111.804 186.338 111.92C186.34 111.951 186.352 111.981 186.373 112.004C186.393 112.025 186.419 112.038 186.448 112.039C186.484 112.037 186.519 112.024 186.548 112.004C186.677 111.893 186.792 111.765 186.888 111.624C186.926 111.556 186.971 111.491 187.02 111.43L187.197 111.536C186.755 112.3 186.248 112.675 185.745 112.675C185.578 112.685 185.413 112.633 185.281 112.529C185.229 112.482 185.188 112.425 185.159 112.361C185.131 112.297 185.117 112.228 185.118 112.158C185.132 111.962 185.169 111.768 185.228 111.58L185.82 109.607C185.856 109.515 185.876 109.418 185.882 109.32C185.882 109.303 185.879 109.285 185.872 109.269C185.865 109.253 185.855 109.239 185.842 109.227C185.814 109.205 185.778 109.192 185.742 109.192C185.571 109.214 185.414 109.299 185.301 109.43C184.782 109.961 184.356 110.576 184.043 111.249L183.655 112.622H182.455L183.338 109.651C183.405 109.449 183.448 109.241 183.466 109.029C183.468 108.984 183.455 108.939 183.43 108.901C183.4 108.859 183.356 108.828 183.307 108.813C183.203 108.791 183.096 108.782 182.989 108.787L183.042 108.61L184.627 108.336L184.912 108.335Z" fill="#0C3253"/>
<path d="M191.442 108.619H192.696L192.546 109.127H191.884C191.977 109.284 192.029 109.461 192.034 109.643C192.034 109.92 191.955 110.192 191.805 110.425C191.632 110.675 191.391 110.87 191.112 110.99C190.796 111.134 190.452 111.207 190.105 111.202C189.996 111.208 189.887 111.208 189.778 111.202C189.649 111.192 189.521 111.173 189.394 111.145C189.251 111.206 189.118 111.29 189.001 111.392C188.969 111.429 188.95 111.475 188.948 111.524C188.948 111.552 188.955 111.58 188.967 111.605C188.979 111.631 188.997 111.653 189.019 111.67C189.125 111.751 189.25 111.806 189.381 111.829C189.811 111.905 190.235 112.015 190.648 112.156C190.895 112.245 191.115 112.398 191.284 112.598C191.43 112.781 191.505 113.01 191.496 113.243C191.492 113.443 191.441 113.638 191.347 113.814C191.252 113.99 191.117 114.141 190.953 114.254C190.46 114.585 189.869 114.741 189.276 114.696C188.691 114.737 188.105 114.61 187.589 114.33C187.476 114.265 187.381 114.172 187.313 114.06C187.245 113.948 187.207 113.821 187.201 113.69C187.204 113.59 187.227 113.491 187.271 113.4C187.314 113.31 187.376 113.229 187.452 113.164C187.78 112.934 188.156 112.783 188.552 112.723C188.406 112.652 188.274 112.555 188.163 112.436C188.08 112.332 188.033 112.203 188.031 112.07C188.032 111.967 188.054 111.864 188.097 111.77C188.139 111.676 188.201 111.591 188.278 111.522C188.532 111.32 188.819 111.163 189.126 111.058C188.864 110.969 188.632 110.807 188.459 110.59C188.32 110.398 188.25 110.165 188.259 109.928C188.262 109.653 188.349 109.386 188.506 109.16C188.695 108.903 188.947 108.701 189.239 108.573C189.587 108.417 189.966 108.341 190.347 108.348C190.587 108.345 190.826 108.375 191.058 108.436C191.195 108.477 191.324 108.539 191.442 108.619ZM188.829 112.819C188.599 112.891 188.388 113.017 188.215 113.185C188.152 113.256 188.106 113.34 188.08 113.431C188.053 113.523 188.048 113.619 188.064 113.712C188.079 113.806 188.116 113.895 188.17 113.972C188.224 114.05 188.296 114.115 188.378 114.161C188.687 114.349 189.047 114.434 189.407 114.404C189.708 114.43 190.01 114.355 190.264 114.192C190.343 114.138 190.408 114.065 190.453 113.981C190.499 113.896 190.523 113.802 190.524 113.706C190.525 113.622 190.503 113.54 190.461 113.467C190.419 113.394 190.359 113.333 190.286 113.291C189.991 113.138 189.676 113.028 189.35 112.964C189.134 112.911 188.957 112.864 188.825 112.818L188.829 112.819ZM190.454 108.563C190.383 108.561 190.312 108.574 190.245 108.6C190.179 108.625 190.118 108.664 190.066 108.713C189.861 108.926 189.709 109.185 189.624 109.468C189.507 109.791 189.444 110.132 189.439 110.475C189.436 110.542 189.445 110.609 189.468 110.672C189.491 110.734 189.526 110.792 189.571 110.841C189.615 110.883 189.667 110.916 189.724 110.938C189.781 110.96 189.841 110.971 189.902 110.969C190.026 110.971 190.146 110.925 190.237 110.841C190.454 110.609 190.614 110.329 190.705 110.024C190.829 109.701 190.897 109.359 190.905 109.013C190.905 108.896 190.859 108.784 190.776 108.701C190.693 108.619 190.581 108.572 190.464 108.572L190.454 108.563Z" fill="#0C3253"/>
<path d="M202.16 106.209L201.719 108.222H201.538C201.559 107.766 201.417 107.317 201.138 106.955C201.005 106.822 200.845 106.719 200.669 106.653C200.493 106.587 200.305 106.559 200.118 106.571C199.626 106.583 199.149 106.746 198.754 107.039C198.251 107.416 197.853 107.914 197.597 108.487C197.282 109.126 197.119 109.828 197.12 110.54C197.091 111.05 197.248 111.554 197.562 111.957C197.681 112.107 197.831 112.229 198.003 112.314C198.175 112.398 198.363 112.444 198.555 112.447C198.757 112.437 198.956 112.39 199.142 112.31L199.628 110.655C199.69 110.478 199.733 110.294 199.756 110.107C199.755 110.051 199.742 109.995 199.715 109.945C199.689 109.895 199.652 109.852 199.606 109.82C199.452 109.726 199.273 109.685 199.094 109.701L199.143 109.525H201.898L201.858 109.701C201.724 109.702 201.593 109.734 201.474 109.794C201.379 109.844 201.302 109.921 201.253 110.015C201.193 110.158 201.144 110.305 201.107 110.456L200.507 112.421C199.84 112.669 199.134 112.795 198.423 112.792C197.927 112.809 197.435 112.706 196.988 112.492C196.575 112.275 196.233 111.944 196.004 111.538C195.743 111.088 195.61 110.575 195.62 110.055C195.62 109.472 195.767 108.899 196.046 108.387C196.326 107.876 196.729 107.443 197.22 107.128C198.056 106.54 199.058 106.231 200.081 106.245C200.252 106.244 200.423 106.254 200.593 106.276C200.799 106.308 201.004 106.351 201.207 106.404C201.334 106.439 201.464 106.463 201.596 106.475C201.674 106.468 201.75 106.444 201.818 106.404C201.886 106.364 201.944 106.31 201.989 106.245L202.16 106.209Z" fill="#0C3253"/>
<path d="M204.205 108.336L203.494 110.936C203.826 110.101 204.272 109.315 204.818 108.601C204.887 108.524 204.971 108.461 205.065 108.416C205.159 108.371 205.261 108.346 205.365 108.341C205.425 108.339 205.485 108.351 205.54 108.375C205.595 108.399 205.644 108.436 205.683 108.482C205.774 108.594 205.82 108.737 205.811 108.882C205.819 109.15 205.74 109.413 205.586 109.632C205.554 109.688 205.509 109.735 205.454 109.769C205.399 109.803 205.336 109.823 205.272 109.826C205.213 109.828 205.155 109.813 205.105 109.782C205.055 109.752 205.015 109.707 204.99 109.654C204.954 109.582 204.91 109.515 204.858 109.454C204.836 109.434 204.807 109.423 204.778 109.423C204.742 109.423 204.707 109.434 204.678 109.454C204.57 109.525 204.477 109.616 204.404 109.723C204.245 109.948 204.108 110.188 203.993 110.438C203.834 110.778 203.706 111.06 203.613 111.29C203.461 111.724 203.333 112.166 203.229 112.614H202.09L202.867 109.546C202.91 109.402 202.94 109.254 202.955 109.104C202.958 109.037 202.941 108.971 202.906 108.914C202.877 108.867 202.834 108.832 202.782 108.814C202.677 108.784 202.568 108.772 202.46 108.779L202.504 108.646L203.925 108.346L204.205 108.336Z" fill="#0C3253"/>
<path d="M208.85 108.335C209.094 108.334 209.334 108.393 209.55 108.507C209.76 108.607 209.933 108.771 210.044 108.975C210.157 109.177 210.215 109.405 210.212 109.637C210.202 110.168 210.049 110.686 209.77 111.137C209.504 111.621 209.118 112.029 208.649 112.32C208.231 112.598 207.743 112.751 207.241 112.762C207.058 112.773 206.875 112.746 206.704 112.681C206.533 112.616 206.378 112.516 206.248 112.387C206.133 112.265 206.042 112.122 205.982 111.965C205.923 111.808 205.894 111.641 205.899 111.473C205.897 111.057 205.986 110.646 206.16 110.268C206.326 109.907 206.551 109.575 206.826 109.288C207.093 109.009 207.406 108.779 207.753 108.608C208.092 108.432 208.468 108.338 208.85 108.335ZM208.66 108.582C208.509 108.574 208.36 108.625 208.245 108.723C207.904 109.12 207.65 109.585 207.499 110.087C207.243 110.699 207.102 111.353 207.084 112.016C207.081 112.08 207.092 112.144 207.114 112.204C207.137 112.264 207.172 112.319 207.216 112.365C207.254 112.409 207.302 112.445 207.355 112.469C207.408 112.494 207.466 112.506 207.525 112.506C207.643 112.506 207.758 112.468 207.851 112.396C208.063 112.178 208.235 111.923 208.359 111.645C208.573 111.238 208.74 110.809 208.859 110.365C208.979 109.949 209.043 109.518 209.049 109.085C209.056 108.952 209.016 108.82 208.934 108.714C208.9 108.674 208.858 108.642 208.811 108.619C208.763 108.597 208.711 108.585 208.659 108.585L208.66 108.582Z" fill="#0C3253"/>
<path d="M213.076 108.335L212.162 111.478C212.128 111.575 212.105 111.676 212.096 111.778C212.095 111.791 212.098 111.804 212.104 111.816C212.11 111.828 212.119 111.837 212.131 111.844C212.155 111.866 212.186 111.879 212.219 111.879C212.365 111.879 212.559 111.755 212.797 111.504C213.223 111.022 213.589 110.49 213.887 109.919L214.328 108.506L215.52 108.462L214.597 111.535C214.549 111.68 214.51 111.827 214.482 111.977C214.486 112.006 214.5 112.032 214.522 112.052C214.53 112.063 214.541 112.073 214.553 112.08C214.565 112.086 214.579 112.091 214.593 112.092C214.617 112.091 214.641 112.086 214.663 112.076C214.685 112.066 214.704 112.052 214.721 112.035C214.892 111.876 215.041 111.695 215.163 111.496L215.322 111.606C214.881 112.383 214.404 112.767 213.878 112.767C213.718 112.772 213.562 112.72 213.437 112.621C213.383 112.574 213.339 112.516 213.31 112.45C213.281 112.384 213.267 112.313 213.269 112.241C213.278 112.024 213.318 111.81 213.388 111.605L213.617 110.824C213.346 111.234 213.051 111.628 212.734 112.003C212.532 112.245 212.29 112.451 212.019 112.612C211.851 112.71 211.661 112.763 211.467 112.766C211.385 112.769 211.303 112.754 211.227 112.723C211.15 112.692 211.082 112.645 211.025 112.585C210.965 112.528 210.918 112.46 210.887 112.384C210.855 112.308 210.839 112.226 210.84 112.144C210.85 111.927 210.89 111.713 210.959 111.508L211.493 109.658C211.559 109.461 211.602 109.256 211.621 109.049C211.624 109.006 211.611 108.964 211.586 108.93C211.555 108.888 211.512 108.857 211.462 108.842C211.355 108.82 211.245 108.811 211.136 108.816L211.184 108.639L212.791 108.365L213.076 108.335Z" fill="#0C3253"/>
<path d="M216.461 108.595L218.024 108.335H218.311L218.094 109.085C218.338 108.851 218.611 108.649 218.906 108.485C219.101 108.386 219.315 108.334 219.533 108.331C219.666 108.325 219.797 108.352 219.916 108.411C220.035 108.469 220.137 108.557 220.213 108.666C220.381 108.906 220.467 109.194 220.456 109.487C220.46 110.364 220.123 111.207 219.516 111.84C219.297 112.111 219.023 112.331 218.711 112.486C218.4 112.642 218.058 112.728 217.71 112.74C217.609 112.743 217.508 112.732 217.41 112.709C217.293 112.669 217.178 112.622 217.066 112.568L216.819 113.394C216.749 113.619 216.706 113.852 216.691 114.087C216.69 114.131 216.698 114.175 216.715 114.215C216.732 114.255 216.758 114.292 216.791 114.321C216.94 114.405 217.106 114.455 217.277 114.467L217.233 114.635H214.699L214.743 114.467C214.927 114.467 215.105 114.399 215.243 114.277C215.431 114.052 215.56 113.783 215.618 113.496L216.766 109.611C216.836 109.413 216.881 109.206 216.899 108.997C216.899 108.95 216.885 108.904 216.859 108.865C216.832 108.826 216.791 108.799 216.744 108.79C216.633 108.766 216.518 108.757 216.404 108.763L216.461 108.595ZM217.198 112.127C217.26 112.245 217.347 112.348 217.454 112.427C217.534 112.476 217.626 112.501 217.719 112.498C217.821 112.499 217.922 112.473 218.011 112.423C218.145 112.332 218.265 112.221 218.368 112.096C218.529 111.903 218.665 111.691 218.774 111.465C219.051 110.904 219.202 110.29 219.215 109.665C219.23 109.484 219.185 109.302 219.087 109.149C219.052 109.099 219.005 109.058 218.951 109.029C218.896 109.001 218.836 108.986 218.774 108.986C218.665 108.986 218.557 109.013 218.461 109.065C218.275 109.188 218.106 109.337 217.961 109.507L217.198 112.127Z" fill="#0C3253"/>
</g>
<defs>
<clipPath id="clip0_4443_166">
<rect width="300.334" height="137.654" fill="white"/>
</clipPath>
</defs>
</svg>
