<svg width="85" height="56" viewBox="0 0 85 56" fill="none" xmlns="http://www.w3.org/2000/svg">
<path d="M79.2336 39.8243C78.9229 38.1452 77.1575 36.1058 75.8682 34.6167C75.4402 34.1218 74.9228 33.5246 74.7308 33.2243C77.186 30.1538 77.9871 26.9014 77.1116 23.5528C76.1224 19.7672 74.3447 17.9701 71.6086 16.1449L71.5792 16.1262C70.045 15.2474 68.5357 15.1995 67.505 15.327C67.79 14.5545 67.7702 12.9943 67.1784 11.2694C66.4103 9.03085 64.491 5.90094 59.7154 3.70329C54.7238 1.34538 50.9193 1.99595 48.6069 2.95645C46.0867 4.00363 44.769 5.60866 44.7142 5.67619L44.6013 5.81578V31.6651H40.3956V5.81628L40.2829 5.67669C40.228 5.60866 38.9102 4.00363 36.39 2.95696C34.0777 1.99646 30.2733 1.34588 25.2862 3.70127C20.5059 5.90145 18.5867 9.03138 17.8186 11.2694C17.2268 12.9943 17.207 14.555 17.492 15.327C16.4612 15.1995 14.952 15.2479 13.4178 16.1262L13.3883 16.1449C10.6523 17.9701 8.87477 19.7672 7.88516 23.5528C7.0104 26.9009 7.81152 30.1538 10.2661 33.2243C10.0742 33.5246 9.55703 34.1218 9.1288 34.6167C7.83943 36.1058 6.07416 38.1452 5.76377 39.8243C5.38683 41.8648 5.00787 45.677 6.70255 48.303C7.61339 49.8828 9.17498 50.9738 10.0041 51.3226C10.1574 51.3871 10.4161 51.496 14.6904 51.496C15.7155 51.496 16.9717 51.4899 18.5125 51.4748C21.8795 51.4425 25.2176 51.3825 26.0751 51.3664C26.2601 52.5698 27.3101 53.495 28.5739 53.495C29.9679 53.495 31.1017 52.3703 31.1017 50.9875C31.1017 49.6047 29.9679 48.4799 28.5739 48.4799C27.4025 48.4799 26.4149 49.2746 26.1295 50.349C20.4109 50.4593 11.2309 50.5622 10.3825 50.3772C9.69927 50.0819 8.35658 49.131 7.58646 47.788L7.57224 47.7643C7.04952 46.958 6.75081 46.0096 6.5979 45.0345H29.8526L35.7373 38.8104L29.8805 36.3668C29.9211 36.192 29.9435 36.01 29.9435 35.8236C29.9435 34.4917 28.8514 33.4083 27.5087 33.4083C26.166 33.4083 25.0738 34.4917 25.0738 35.8236C25.0738 37.1555 26.166 38.239 27.5087 38.239C28.2971 38.239 28.9986 37.865 29.4436 37.2875L33.9821 39.1813L29.4086 44.0186H6.48869C6.3942 42.5033 6.5847 41.0217 6.77164 40.0077C6.83362 39.6731 6.97484 39.3098 7.16992 38.9318H15.716C15.8557 40.109 16.8671 41.0252 18.0904 41.0252C19.4091 41.0252 20.482 39.9609 20.482 38.6527C20.482 37.3444 19.4091 36.2801 18.0904 36.2801C17.0312 36.2801 16.1315 36.967 15.8181 37.9149H7.78866C8.42217 36.9937 9.2329 36.0564 9.90651 35.2789C10.4109 34.6957 10.763 34.2846 10.9932 33.9686H21.9989V27.7142L17.9161 23.715C18.1828 23.3215 18.3388 22.8478 18.3388 22.3388C18.3388 20.9752 17.2202 19.8655 15.8455 19.8655C14.4709 19.8655 13.3522 20.9752 13.3522 22.3388C13.3522 23.7025 14.4709 24.8121 15.8455 24.8121C16.3372 24.8121 16.7955 24.6695 17.1821 24.4251L20.9743 28.1391V32.9517H11.3187C11.2873 32.8594 11.236 32.7773 11.1653 32.7103C8.81377 29.8278 8.06502 26.9155 8.87733 23.8072C9.78766 20.3231 11.3614 18.7236 13.9456 16.9976C15.9354 15.8663 17.9228 16.4105 18.3475 16.5486L35.2394 32.5505L35.3695 11.9724C36.5623 11.7189 37.4599 10.6651 37.4599 9.40734C37.4599 7.96053 36.2737 6.78384 34.8153 6.78384C33.3568 6.78384 32.1706 7.96053 32.1706 9.40734C32.1706 10.6949 33.1104 11.7678 34.3448 11.9885L34.2301 30.1886L19.0002 15.7609C18.8803 15.6117 18.6034 15.2545 18.477 15.0292C18.3368 14.7516 18.1549 13.4443 18.7894 11.5959C19.4792 9.58621 21.1983 6.78485 25.4629 4.74341V13.3703L27.7114 17.1755C27.2328 17.6255 26.9337 18.2604 26.9337 18.9644C26.9337 20.3246 28.0487 21.4307 29.4198 21.4307C30.7909 21.4307 31.9059 20.3246 31.9059 18.9644C31.9059 17.6043 30.7909 16.4982 29.4198 16.4982C29.1267 16.4982 28.8453 16.5491 28.5836 16.6418L26.4871 13.0941V4.27878C29.9085 2.83904 33.0875 2.70197 35.9476 3.87362C37.8501 4.6532 39.0189 5.80419 39.371 6.18466V32.6806H45.626V6.18618C45.9786 5.8047 47.1474 4.65472 49.0494 3.87513C51.9084 2.70399 55.0865 2.84055 58.5099 4.28029V13.0951L56.3188 16.8035C56.1548 16.7698 55.9851 16.7516 55.8109 16.7516C54.4398 16.7516 53.3247 17.8578 53.3247 19.2179C53.3247 20.5781 54.4398 21.6842 55.8109 21.6842C57.1819 21.6842 58.297 20.5781 58.297 19.2179C58.297 18.395 57.8881 17.6658 57.2622 17.2173L59.535 13.3713V4.74442C63.7982 6.78434 65.5187 9.58621 66.2086 11.597C66.8431 13.4454 66.6612 14.7526 66.521 15.0302C66.3945 15.2555 66.1177 15.6128 65.9978 15.762L50.768 30.1896L50.6532 11.9895C51.8876 11.7688 52.8274 10.6959 52.8274 9.40831C52.8274 7.96151 51.6412 6.78485 50.1827 6.78485C48.7243 6.78485 47.5381 7.96151 47.5381 9.40831C47.5381 10.6662 48.4352 11.7199 49.6285 11.9734L49.7586 32.5516L66.6506 16.5496C67.0788 16.4105 69.0646 15.8678 71.0529 16.9981C73.6371 18.7236 75.2104 20.3231 76.1209 23.8078C76.9333 26.9161 76.1848 29.8282 73.8331 32.7108C73.7626 32.7773 73.7113 32.86 73.6798 32.9522H64.0242V28.1396L67.8164 24.4256C68.203 24.67 68.6612 24.8126 69.1529 24.8126C70.5276 24.8126 71.6462 23.7029 71.6462 22.3393C71.6462 20.9756 70.5276 19.8659 69.1529 19.8659C67.7783 19.8659 66.6597 20.9756 66.6597 22.3393C66.6597 22.8482 66.8157 23.322 67.0823 23.7155L62.9995 27.7148V33.9691H74.0054C74.2355 34.2856 74.5875 34.6963 75.092 35.2793C75.7651 36.0569 76.576 36.9947 77.2101 37.9154H69.1804C68.8669 36.9675 67.9668 36.2807 66.9081 36.2807C65.5893 36.2807 64.5165 37.345 64.5165 38.6532C64.5165 39.9614 65.5893 41.0257 66.9081 41.0257C68.1314 41.0257 69.1428 40.1096 69.2825 38.9324H77.8284C78.024 39.3108 78.1647 39.6741 78.2271 40.0082C78.4144 41.0221 78.6047 42.5037 78.5099 44.019H55.5893L51.0159 39.1818L55.6021 37.2684C56.0466 37.858 56.7557 38.2399 57.5528 38.2399C58.8955 38.2399 59.9876 37.1565 59.9876 35.8246C59.9876 34.4927 58.8955 33.4092 57.5528 33.4092C56.2101 33.4092 55.1179 34.4927 55.1179 35.8246C55.1179 36.003 55.1382 36.1763 55.1753 36.3436L49.2607 38.8114L55.1454 45.0355H78.4001C78.2474 46.0106 77.9488 46.9595 77.426 47.7653L77.4117 47.789C76.6414 49.132 75.2987 50.0829 74.6155 50.3782C73.7666 50.5631 64.5871 50.4604 58.8685 50.35C58.583 49.2756 57.5955 48.4809 56.424 48.4809C55.0301 48.4809 53.8962 49.6057 53.8962 50.9885C53.8962 52.3713 55.0301 53.4961 56.424 53.4961C57.6879 53.4961 58.7385 52.5709 58.9229 51.3675C59.7804 51.3836 63.1185 51.4435 66.4854 51.4758C68.0267 51.4904 69.2825 51.4969 70.3077 51.4969C74.5809 51.4969 74.8405 51.3876 74.9934 51.3236C75.823 50.9749 77.3846 49.8839 78.2956 48.304C79.9903 45.6775 79.6119 41.8658 79.2343 39.8253L79.2336 39.8243ZM28.5745 49.4973C29.4036 49.4973 30.0776 50.166 30.0776 50.9885C30.0776 51.8109 29.4036 52.4796 28.5745 52.4796C27.7455 52.4796 27.0713 51.8109 27.0713 50.9885C27.0713 50.166 27.7455 49.4973 28.5745 49.4973ZM27.5087 37.223C26.7309 37.223 26.0985 36.5956 26.0985 35.8241C26.0985 35.0526 26.7309 34.4252 27.5087 34.4252C28.2864 34.4252 28.9189 35.0526 28.9189 35.8241C28.9189 36.5956 28.2864 37.223 27.5087 37.223ZM18.0904 37.2971C18.8438 37.2971 19.4569 37.9054 19.4569 38.6527C19.4569 39.4 18.8438 40.0082 18.0904 40.0082C17.337 40.0082 16.7239 39.4 16.7239 38.6527C16.7239 37.9054 17.337 37.2971 18.0904 37.2971ZM14.3769 22.3393C14.3769 21.536 15.0358 20.8829 15.845 20.8829C16.6542 20.8829 17.3132 21.5365 17.3132 22.3393C17.3132 23.1421 16.6542 23.7957 15.845 23.7957C15.0358 23.7957 14.3769 23.1421 14.3769 22.3393ZM33.1947 9.40786C33.1947 8.52191 33.9216 7.80076 34.8147 7.80076C35.7078 7.80076 36.4348 8.52191 36.4348 9.40786C36.4348 10.2937 35.7078 11.0149 34.8147 11.0149C33.9216 11.0149 33.1947 10.2937 33.1947 9.40786ZM30.8803 18.9655C30.8803 19.7647 30.2244 20.4153 29.4187 20.4153C28.6131 20.4153 27.9573 19.7647 27.9573 18.9655C27.9573 18.1662 28.6131 17.5157 29.4187 17.5157C30.2244 17.5157 30.8803 18.1662 30.8803 18.9655ZM55.8114 20.6677C55.0057 20.6677 54.3499 20.0171 54.3499 19.2179C54.3499 18.4187 55.0057 17.7681 55.8114 17.7681C56.6171 17.7681 57.2729 18.4187 57.2729 19.2179C57.2729 20.0171 56.6171 20.6677 55.8114 20.6677ZM48.5623 9.40786C48.5623 8.52191 49.2892 7.80076 50.1822 7.80076C51.0753 7.80076 51.8023 8.52191 51.8023 9.40786C51.8023 10.2937 51.0753 11.0149 50.1822 11.0149C49.2892 11.0149 48.5623 10.2937 48.5623 9.40786ZM69.1514 20.8824C69.9612 20.8824 70.6195 21.536 70.6195 22.3388C70.6195 23.1415 69.9607 23.7951 69.1514 23.7951C68.3422 23.7951 67.6833 23.1415 67.6833 22.3388C67.6833 21.536 68.3422 20.8824 69.1514 20.8824ZM66.9066 40.0088C66.1532 40.0088 65.5401 39.4005 65.5401 38.6532C65.5401 37.9058 66.1532 37.2976 66.9066 37.2976C67.66 37.2976 68.2731 37.9058 68.2731 38.6532C68.2731 39.4005 67.66 40.0088 66.9066 40.0088ZM57.5518 34.4252C58.3295 34.4252 58.962 35.0526 58.962 35.8241C58.962 36.5956 58.3295 37.223 57.5518 37.223C56.774 37.223 56.1415 36.5956 56.1415 35.8241C56.1415 35.0526 56.774 34.4252 57.5518 34.4252ZM56.4225 52.4796C55.5934 52.4796 54.9193 51.8109 54.9193 50.9885C54.9193 50.166 55.5934 49.4973 56.4225 49.4973C57.2516 49.4973 57.9256 50.166 57.9256 50.9885C57.9256 51.8109 57.2516 52.4796 56.4225 52.4796Z" fill="#E6E7E8"/>
<path d="M72.5576 29.5269C66.8356 18.206 55.0296 10.4348 41.3939 10.4348C36.1158 10.4348 31.112 11.5994 26.6289 13.6832C30.418 12.5493 34.4363 11.939 38.5984 11.939C52.6583 11.939 65.0794 18.8953 72.5576 29.5269Z" fill="#174273"/>
<path d="M52.3509 18.24C42.4393 14.0649 32.2585 13.501 23.2796 18.7752C19.5931 20.9406 16.3642 23.3605 14.1133 26.6633C16.2788 24.3089 19.1582 23.0274 22.0593 21.31C31.8602 15.5082 41.9364 15.8398 52.3509 18.24Z" fill="#E7534B"/>
<path d="M18.1315 40.0363V43.4505H9.95274V45.4813C9.95274 46.1158 10.1092 46.5784 10.4226 46.8696C10.7356 47.1609 11.235 47.3061 11.9208 47.3061H14.3241C15.0033 47.3061 15.5011 47.1624 15.8176 46.8742C16.1341 46.5864 16.2921 46.1354 16.2921 45.5201V45.3926L18.1315 45.5594V45.7555C18.1315 47.7762 17.0602 48.7866 14.9174 48.7866H11.3274C9.18466 48.7866 8.11328 47.7762 8.11328 45.7555V40.0358C8.11328 38.0215 9.18466 37.0142 11.3274 37.0142H14.9174C17.0602 37.0142 18.1315 38.022 18.1315 40.0363ZM14.3241 38.5059H11.9208C11.235 38.5059 10.7356 38.6515 10.4226 38.9422C10.1092 39.2335 9.95274 39.6961 9.95274 40.3306V41.9593H16.2921V40.3306C16.2921 39.6961 16.1341 39.2335 15.8176 38.9422C15.5011 38.6515 15.0033 38.5059 14.3241 38.5059Z" fill="#174273"/>
<path d="M31.3168 41.2134C32.0026 41.4554 32.5 41.8282 32.8104 42.3317C33.1202 42.8357 33.2751 43.5154 33.2751 44.3721V44.9511C33.2751 46.2069 32.9637 47.1276 32.3404 47.7127C31.7176 48.2983 30.7336 48.5905 29.3885 48.5905H22.3867V34.4048H28.9831C30.3283 34.4048 31.3122 34.6975 31.9351 35.2826C32.5578 35.8682 32.8698 36.7884 32.8698 38.0442V38.4463C32.8698 39.1397 32.7493 39.7057 32.5086 40.1436C32.2678 40.582 31.8705 40.9387 31.3168 41.2134ZM30.951 38.5255V38.2997C30.951 37.4627 30.7682 36.8791 30.4024 36.5485C30.0366 36.2184 29.3951 36.0532 28.4791 36.0532H24.3059V40.5367H28.4791C29.4484 40.5367 30.1042 40.3961 30.4471 40.1149C30.7834 39.8403 30.951 39.3106 30.951 38.5255ZM31.3565 44.6962V44.3727C31.3565 43.529 31.1766 42.947 30.8174 42.6265C30.4578 42.306 29.8137 42.1457 28.884 42.1457H24.3054V46.9432H28.884C29.8004 46.9432 30.4416 46.7779 30.8073 46.4479C31.1731 46.1178 31.3565 45.5332 31.3565 44.6962Z" fill="#174273"/>
<path d="M43.8839 48.7871H40.3828C39.0376 48.7871 38.0536 48.4994 37.4308 47.9239C36.808 47.3484 36.4961 46.4393 36.4961 45.1966V45.0394L38.4148 44.7939V44.9315C38.4148 45.7489 38.5941 46.3229 38.9538 46.6535C39.3129 46.9835 39.9509 47.1488 40.8674 47.1488H43.3794C44.2959 47.1488 44.937 46.982 45.3028 46.6484C45.6685 46.3148 45.8514 45.7297 45.8514 44.8922V44.5878C45.8514 44.2149 45.8052 43.9075 45.7127 43.6656C45.6202 43.4238 45.4704 43.2322 45.2626 43.0917C45.0548 42.9511 44.8272 42.8447 44.5803 42.7726C44.3329 42.7006 44.0084 42.6386 43.606 42.5862L39.9962 42.0565C38.7236 41.8802 37.8402 41.5466 37.3459 41.0557C36.8319 40.5458 36.5748 39.7737 36.5748 38.7406V37.8381C36.5748 36.5823 36.8862 35.6636 37.5096 35.0816C38.1323 34.4996 39.1163 34.2083 40.4615 34.2083H43.7844C45.1295 34.2083 46.1166 34.496 46.7465 35.0715C47.3759 35.647 47.6908 36.5561 47.6908 37.7988L47.671 37.9656L45.7721 38.2009V38.0634C45.7721 37.246 45.5893 36.6736 45.2235 36.3465C44.8578 36.0194 44.2161 35.8561 43.3002 35.8561H40.9665C40.05 35.8561 39.409 36.0215 39.0432 36.3515C38.6774 36.6816 38.4945 37.2656 38.4945 38.1027V38.2987C38.4945 38.979 38.6459 39.4497 38.9497 39.7112C39.253 39.9728 39.8529 40.1723 40.7496 40.3099L44.369 40.83C45.6416 41.0064 46.528 41.3435 47.0294 41.8403C47.5237 42.3307 47.7711 43.1057 47.7711 44.1655V45.1563C47.7711 46.4121 47.4577 47.3308 46.8318 47.9128C46.2054 48.4948 45.223 48.7861 43.8849 48.7861L43.8839 48.7871Z" fill="#174273"/>
<path d="M62.0526 34.4045V36.0529H54.0125V40.4578H61.2022V42.0961H54.0125V46.9424H62.0526V48.5908H52.0938V34.4051L62.0526 34.4045Z" fill="#174273"/>
<path d="M76.7171 37.7993V37.9661L74.7889 38.2014V38.0638C74.7889 37.2465 74.609 36.674 74.2498 36.3469C73.8902 36.0199 73.2526 35.8566 72.3362 35.8566H69.844C68.9276 35.8566 68.2915 36.0204 67.9354 36.3469C67.5793 36.674 67.4016 37.259 67.4016 38.1032V44.8917C67.4016 45.7287 67.5793 46.3142 67.9354 46.6479C68.2915 46.9815 68.9276 47.1483 69.844 47.1483H72.3362C73.2526 47.1483 73.8902 46.983 74.2498 46.6529C74.609 46.3228 74.7889 45.7489 74.7889 44.931V42.7041H70.4373V41.0557H76.7171V45.1956C76.7171 46.4382 76.4057 47.3473 75.7829 47.9228C75.1597 48.4983 74.1757 48.7861 72.8305 48.7861H69.3593C68.0142 48.7861 67.0302 48.4953 66.4074 47.9128C65.7845 47.3307 65.4727 46.4115 65.4727 45.1562V37.8376C65.4727 36.5817 65.7841 35.6631 66.4074 35.0811C67.0302 34.499 68.0142 34.2078 69.3593 34.2078H72.8305C74.1757 34.2078 75.1597 34.4955 75.7829 35.071C76.4049 35.6464 76.7171 36.5556 76.7171 37.7983V37.7993Z" fill="#174273"/>
</svg>
