<svg width="167" height="48" viewBox="0 0 167 48" fill="none" xmlns="http://www.w3.org/2000/svg">
<g clip-path="url(#clip0_4382_175)">
<mask id="mask0_4382_175" style="mask-type:luminance" maskUnits="userSpaceOnUse" x="0" y="0" width="167" height="48">
<path d="M166.353 0H0V48H166.353V0Z" fill="white"/>
</mask>
<g mask="url(#mask0_4382_175)">
<path d="M41.2859 5.63182C40.8466 6.22791 40.7838 7.79652 40.7838 16.5181C40.7838 28.1259 40.7525 28.2828 38.0859 30.6357C35.9212 32.5181 35.325 32.6122 23.529 32.4868C14.5251 32.3927 12.8309 32.2986 11.6388 31.828C8.34468 30.5416 6.83879 28.3456 6.83879 24.8633C6.8074 21.0671 8.65839 18.7142 12.1094 18.0867C14.4623 17.6475 14.8702 17.4279 14.9956 16.5809C15.1839 15.3887 14.5251 14.9809 12.4859 14.9809C8.53291 14.9809 4.6427 16.5495 2.38388 19.0906C-1.94553 23.9221 0.0309394 31.7965 6.11722 34.0868C9.37997 35.3103 10.9486 35.4045 25.0977 35.3103C38.3367 35.2162 38.776 35.1847 40.2191 34.5259C42.4466 33.5221 44.6426 31.2946 45.6779 29.0045L46.5878 27.0593L46.6819 16.5181C46.776 4.25144 46.9643 4.94163 43.7643 4.94163C42.0389 4.94163 41.6937 5.03575 41.2859 5.63182Z" fill="white"/>
<path d="M52.2656 5.44372C51.8265 5.88292 51.7637 7.63978 51.7637 20.2829C51.7637 31.0123 51.8578 34.7142 52.1401 34.9966C52.3597 35.2163 53.4265 35.373 54.8067 35.373C56.7206 35.373 57.1284 35.2789 57.4107 34.777C57.599 34.3693 57.7244 29.2241 57.7244 20.2516C57.7244 3.9692 57.9126 4.94174 54.7441 4.94174C53.3637 4.94174 52.6107 5.09861 52.2656 5.44372Z" fill="white"/>
<path d="M105.16 5.31783C104.877 5.60019 104.783 9.36489 104.783 20.3453C104.783 33.3962 104.846 35.0277 105.285 35.1844C106.164 35.5296 109.677 35.3727 110.054 34.9962C110.336 34.7138 110.43 31.012 110.43 20.2825C110.43 7.63941 110.368 5.88254 109.928 5.44332C109.332 4.84725 105.724 4.75313 105.16 5.31783Z" fill="white"/>
<path d="M24.5644 10.7456C23.184 11.3417 22.8389 12.1888 22.6507 15.326C22.5252 17.7731 22.5566 18.0868 23.184 18.7142C23.7802 19.3103 24.1879 19.3731 27.0743 19.3731C30.3684 19.3731 31.6861 18.9652 31.6861 17.9613C31.6861 16.9888 30.7449 16.5495 28.5486 16.5495C26.2585 16.5495 25.4115 16.1103 25.4115 14.9809C25.4115 13.8515 26.2585 13.4123 28.5486 13.4123C30.0861 13.4123 30.839 13.2868 31.1839 12.9103C31.8428 12.2515 31.8115 11.4358 31.1214 10.8084C30.3684 10.1182 26.039 10.0868 24.5644 10.7456Z" fill="white"/>
<path d="M77.8032 15.4828C77.4893 15.8279 77.458 16.2044 77.6775 16.8005C77.9599 17.6475 77.9914 17.6475 82.0385 17.8358C86.6815 18.0554 87.4032 18.2122 89.5051 19.3103C91.4503 20.3456 92.5481 22.1338 92.7679 24.7063C92.9246 26.3063 92.8305 26.8082 92.1091 28.2828C90.3521 31.828 88.407 32.5494 80.3757 32.5494C74.0385 32.5494 73.7246 32.6122 73.7246 34.1809C73.7246 34.8398 73.9128 35.0906 74.4775 35.2475C74.8855 35.3416 78.807 35.3729 83.1679 35.3103C90.5404 35.2162 91.262 35.1534 92.9246 34.4946C95.6856 33.3652 97.3797 31.9221 98.5404 29.5692C99.4815 27.6553 99.5128 27.3729 99.3874 24.8005C99.2933 22.5103 99.1051 21.7573 98.3521 20.3769C96.9404 17.8044 94.7757 16.2985 91.2305 15.4515C88.3444 14.7612 78.3679 14.7926 77.8032 15.4828Z" fill="white"/>
<path d="M63.1203 18.1802C62.8379 18.4625 62.7438 20.7841 62.7438 26.7134C62.7438 37.1605 62.3673 39.0428 59.7005 41.992C58.477 43.341 56.9398 44.2508 55.277 44.6273C53.5203 45.0038 53.1438 47.0744 54.7751 47.4821C55.9045 47.7645 59.3556 47.0115 61.4575 46.0391C64.8457 44.4391 67.2928 41.0821 68.077 36.9723C68.5476 34.4939 68.485 18.6508 68.0144 18.1802C67.7946 17.9606 66.7593 17.8037 65.5673 17.8037C64.3751 17.8037 63.3398 17.9606 63.1203 18.1802Z" fill="white"/>
<path d="M104.124 39.7331C103.246 40.6428 103.215 40.7369 103.215 43.7487C103.215 45.7567 103.34 46.9802 103.591 47.231C104.124 47.7644 111.089 47.7644 111.623 47.231C112.219 46.635 112.062 45.5056 111.309 44.9722C110.838 44.6272 109.897 44.4703 108.485 44.4703C106.666 44.4703 106.321 44.3762 106.038 43.8115C105.756 43.3096 105.787 42.9957 106.195 42.3997C106.634 41.7096 106.885 41.6468 108.956 41.6468C111.372 41.6468 111.999 41.3644 111.999 40.235C111.999 39.0428 111.403 38.8232 108.14 38.8232C105.128 38.8232 105.034 38.8545 104.124 39.7331Z" fill="white"/>
<path d="M3.76367 44.1571V47.6079H5.8029C7.6225 47.6079 7.8421 47.5454 7.8421 46.9806C7.8421 46.4472 7.6225 46.3531 6.5872 46.3531C5.39504 46.3531 5.33231 46.2903 5.33231 45.4119C5.33231 44.5336 5.42642 44.4708 6.43033 44.4708C7.18327 44.4708 7.52838 44.3138 7.52838 44.0002C7.52838 43.6865 7.18327 43.5296 6.43033 43.5296C5.45779 43.5296 5.33231 43.4355 5.33231 42.7454C5.33231 42.0237 5.45779 41.9609 6.5872 41.9609C7.6225 41.9609 7.8421 41.8668 7.8421 41.3336C7.8421 40.7689 7.6225 40.7061 5.8029 40.7061H3.76367V44.1571Z" fill="white"/>
<path d="M10.666 44.1884V47.6708L12.5797 47.5453C14.2739 47.4197 14.6503 47.263 15.4033 46.4159C16.0307 45.7256 16.3131 45.0668 16.3131 44.3138C16.3131 41.8983 14.9954 40.7061 12.2346 40.7061H10.666V44.1884ZM14.2425 42.463C14.9013 43.0903 14.8699 45.0668 14.2111 45.7884C13.9287 46.1021 13.3013 46.3531 12.7993 46.3531H11.9209V44.1571V41.9609H12.8307C13.3327 41.9609 13.9915 42.1806 14.2425 42.463Z" fill="white"/>
<path d="M18.4149 40.9254C18.2894 41.0195 18.1953 42.5883 18.1953 44.3765V47.6078H18.9796C19.6698 47.6078 19.7639 47.4824 19.7639 46.3842C19.7639 44.596 20.2659 44.5334 21.2698 46.1647C21.8659 47.1687 22.3365 47.5765 22.8384 47.6078C23.7169 47.6078 23.7169 47.5452 22.713 46.0393C21.8973 44.8158 21.8973 44.753 22.4306 44.157C23.1835 43.3099 23.1208 41.9607 22.2737 41.2706C21.5835 40.7059 18.8541 40.4548 18.4149 40.9254ZM21.5208 42.4313C21.7718 43.0588 21.113 43.8431 20.36 43.8431C19.9208 43.8431 19.7639 43.6235 19.7639 42.9019C19.7639 42.1177 19.8894 41.9607 20.5483 41.9607C20.9875 41.9607 21.4267 42.1805 21.5208 42.4313Z" fill="white"/>
<path d="M27.7963 40.957C27.6396 41.2078 25.4121 47.357 25.4121 47.5137C25.4121 47.5765 25.7573 47.6078 26.1963 47.6078C26.7611 47.6078 27.0121 47.3882 27.1691 46.8235C27.3258 46.1334 27.5455 46.0393 28.7062 46.0393C29.8669 46.0393 30.0867 46.1334 30.2434 46.8235C30.4003 47.3882 30.6514 47.6078 31.2161 47.6078H31.9691L30.8081 44.2511C29.7415 41.1765 29.5533 40.8628 28.8003 40.7687C28.3611 40.7059 27.8905 40.8 27.7963 40.957ZM29.4905 44.3765C29.4905 44.596 29.114 44.7842 28.6749 44.7842C27.922 44.7842 27.8905 44.7217 28.0787 43.749C28.2043 43.2158 28.3926 42.6195 28.4867 42.4313C28.6749 42.149 29.4592 43.6864 29.4905 44.3765Z" fill="white"/>
<path d="M35.1374 41.459C35.0119 41.8668 34.4472 43.4042 33.9138 44.9101L32.9727 47.6079H33.7256C34.2903 47.6079 34.5414 47.3884 34.6983 46.8237C34.855 46.1336 35.0748 46.0395 36.2668 46.0395C37.459 46.0395 37.6472 46.1336 37.8355 46.8237C37.9609 47.3884 38.2432 47.6079 38.808 47.6079C39.3101 47.6079 39.5296 47.4512 39.4668 47.2002C39.3727 47.0119 38.8395 45.4432 38.2748 43.7491C37.3021 40.8315 37.2079 40.7061 36.3296 40.7061C35.6708 40.7061 35.3571 40.8943 35.1374 41.459ZM37.0197 44.2197C37.0197 44.6277 36.7689 44.7844 36.2042 44.7844C35.5454 44.7844 35.4197 44.659 35.6079 44.2197C35.7021 43.9373 35.8903 43.2472 35.9844 42.7454L36.2042 41.8042L36.5807 42.7454C36.8002 43.2472 36.9884 43.9373 37.0197 44.2197Z" fill="white"/>
<path d="M41.0977 44.1571V47.6079H41.8819C42.572 47.6079 42.6661 47.4825 42.6661 46.3844C42.6661 44.5962 43.1682 44.5336 44.1407 46.1649C44.8308 47.3256 45.176 47.6079 45.8977 47.6079H46.776L45.4897 45.6943L44.2035 43.8119L45.3014 42.4315C46.6191 40.8315 46.6506 40.7061 45.7407 40.7061C45.2701 40.7373 44.6426 41.2079 43.9212 42.1806L42.8231 43.655L42.729 42.1806C42.6348 40.863 42.5407 40.7061 41.8506 40.7061H41.0977V44.1571Z" fill="white"/>
<path d="M118.482 34.8352C117.834 34.1669 117.517 33.3733 117.532 32.4545L117.892 8.1852C117.932 7.2419 118.28 6.45244 118.935 5.81687C119.604 5.16905 120.398 4.85232 121.316 4.86668L145.585 5.26465C146.504 5.25416 147.294 5.58943 147.954 6.27042C148.602 6.93882 148.918 7.74484 148.903 8.68854L148.879 11.464C148.839 12.4073 148.491 13.1967 147.836 13.8323C147.167 14.4802 146.374 14.7969 145.455 14.7825L134.503 14.6113L147.411 27.9286C148.046 28.5843 148.356 29.3841 148.342 30.3279C148.327 31.2714 147.992 32.0611 147.336 32.6966L144.915 35.0434C144.259 35.6792 143.459 35.9895 142.515 35.9747C141.572 35.9599 140.782 35.6248 140.147 34.9691L127.239 21.6517L127.068 32.6034C127.054 33.5222 126.712 34.3055 126.044 34.9535C125.388 35.5891 124.588 35.9119 123.644 35.922L120.85 35.8782C119.907 35.8387 119.118 35.4909 118.482 34.8352Z" fill="white"/>
</g>
</g>
<defs>
<clipPath id="clip0_4382_175">
<rect width="166.353" height="48" fill="white"/>
</clipPath>
</defs>
</svg>
