<svg width="707" height="204" viewBox="0 0 707 204" fill="none" xmlns="http://www.w3.org/2000/svg">
<g clip-path="url(#clip0_1772_862)">
<path d="M175.467 23.9333C173.6 26.4667 173.333 33.1333 173.333 70.2C173.333 119.533 173.2 120.2 161.867 130.2C152.667 138.2 150.133 138.6 100 138.067C61.7333 137.667 54.5333 137.267 49.4667 135.267C35.4667 129.8 29.0667 120.467 29.0667 105.667C28.9333 89.5333 36.8 79.5333 51.4667 76.8667C61.4667 75 63.2 74.0667 63.7333 70.4667C64.5333 65.4 61.7333 63.6667 53.0667 63.6667C36.2667 63.6667 19.7333 70.3333 10.1333 81.1333C-8.26668 101.667 0.133319 135.133 26 144.867C39.8667 150.067 46.5333 150.467 106.667 150.067C162.933 149.667 164.8 149.533 170.933 146.733C180.4 142.467 189.733 133 194.133 123.267L198 115L198.4 70.2C198.8 18.0667 199.6 21 186 21C178.667 21 177.2 21.4 175.467 23.9333Z" fill="white"/>
<path d="M222.133 23.1334C220.267 25 220 32.4667 220 86.2C220 131.8 220.4 147.533 221.6 148.733C222.533 149.667 227.067 150.333 232.933 150.333C241.067 150.333 242.8 149.933 244 147.8C244.8 146.067 245.333 124.2 245.333 86.0667C245.333 16.8667 246.133 21 232.667 21C226.8 21 223.6 21.6667 222.133 23.1334Z" fill="white"/>
<path d="M446.933 22.6C445.733 23.8 445.333 39.8 445.333 86.4667C445.333 141.933 445.6 148.867 447.467 149.533C451.2 151 466.133 150.333 467.733 148.733C468.933 147.533 469.333 131.8 469.333 86.2C469.333 32.4667 469.067 25 467.2 23.1333C464.667 20.6 449.333 20.2 446.933 22.6Z" fill="white"/>
<path d="M104.4 45.6667C98.5334 48.2 97.0667 51.8 96.2667 65.1333C95.7334 75.5333 95.8667 76.8667 98.5334 79.5333C101.067 82.0667 102.8 82.3333 115.067 82.3333C129.067 82.3333 134.667 80.6 134.667 76.3333C134.667 72.2 130.667 70.3333 121.333 70.3333C111.6 70.3333 108 68.4667 108 63.6667C108 58.8667 111.6 57 121.333 57C127.867 57 131.067 56.4667 132.533 54.8667C135.333 52.0667 135.2 48.6 132.267 45.9333C129.067 43 110.667 42.8667 104.4 45.6667Z" fill="white"/>
<path d="M330.667 65.8C329.333 67.2667 329.2 68.8667 330.133 71.4C331.333 75 331.467 75 348.667 75.8C368.4 76.7333 371.467 77.4 380.4 82.0667C388.667 86.4667 393.333 94.0667 394.267 105C394.933 111.8 394.533 113.933 391.467 120.2C384 135.267 375.733 138.333 341.6 138.333C314.667 138.333 313.333 138.6 313.333 145.267C313.333 148.067 314.133 149.133 316.533 149.8C318.267 150.2 334.933 150.333 353.467 150.067C384.8 149.667 387.867 149.4 394.933 146.6C406.667 141.8 413.867 135.667 418.8 125.667C422.8 117.533 422.933 116.333 422.4 105.4C422 95.6667 421.2 92.4667 418 86.6C412 75.6667 402.8 69.2667 387.733 65.6667C375.467 62.7333 333.067 62.8667 330.667 65.8Z" fill="white"/>
<path d="M268.267 77.2667C267.067 78.4667 266.667 88.3333 266.667 113.533C266.667 157.933 265.067 165.933 253.733 178.467C248.533 184.2 242 188.067 234.933 189.667C227.467 191.267 225.867 200.067 232.8 201.8C237.6 203 252.267 199.8 261.2 195.667C275.6 188.867 286 174.6 289.333 157.133C291.333 146.6 291.067 79.2667 289.067 77.2667C288.133 76.3333 283.733 75.6667 278.667 75.6667C273.6 75.6667 269.2 76.3333 268.267 77.2667Z" fill="white"/>
<path d="M442.533 168.867C438.8 172.733 438.667 173.133 438.667 185.933C438.667 194.467 439.2 199.667 440.267 200.733C442.533 203 472.133 203 474.4 200.733C476.933 198.2 476.267 193.4 473.067 191.133C471.067 189.667 467.067 189 461.067 189C453.333 189 451.867 188.6 450.667 186.2C449.467 184.067 449.6 182.733 451.333 180.2C453.2 177.267 454.267 177 463.067 177C473.333 177 476 175.8 476 171C476 165.933 473.467 165 459.6 165C446.8 165 446.4 165.133 442.533 168.867Z" fill="white"/>
<path d="M16 187.667V202.333H24.6667C32.4 202.333 33.3333 202.067 33.3333 199.667C33.3333 197.4 32.4 197 28 197C22.9333 197 22.6667 196.733 22.6667 193C22.6667 189.267 23.0667 189 27.3333 189C30.5333 189 32 188.333 32 187C32 185.667 30.5333 185 27.3333 185C23.2 185 22.6667 184.6 22.6667 181.667C22.6667 178.6 23.2 178.333 28 178.333C32.4 178.333 33.3333 177.933 33.3333 175.667C33.3333 173.267 32.4 173 24.6667 173H16V187.667Z" fill="white"/>
<path d="M45.3334 187.8V202.6L53.4667 202.067C60.6667 201.533 62.2667 200.867 65.4667 197.267C68.1334 194.333 69.3334 191.533 69.3334 188.333C69.3334 178.067 63.7334 173 52 173H45.3334V187.8ZM60.5334 180.467C63.3334 183.133 63.2 191.533 60.4 194.6C59.2 195.933 56.5334 197 54.4 197H50.6667V187.667V178.333H54.5334C56.6667 178.333 59.4667 179.267 60.5334 180.467Z" fill="white"/>
<path d="M78.2667 173.933C77.7334 174.333 77.3334 181 77.3334 188.6V202.333H80.6667C83.6 202.333 84 201.8 84 197.133C84 189.533 86.1334 189.267 90.4 196.2C92.9334 200.467 94.9334 202.2 97.0667 202.333C100.8 202.333 100.8 202.067 96.5334 195.667C93.0667 190.467 93.0667 190.2 95.3334 187.667C98.5334 184.067 98.2667 178.333 94.6667 175.4C91.7334 173 80.1334 171.933 78.2667 173.933ZM91.4667 180.333C92.5334 183 89.7334 186.333 86.5334 186.333C84.6667 186.333 84 185.4 84 182.333C84 179 84.5334 178.333 87.3334 178.333C89.2 178.333 91.0667 179.267 91.4667 180.333Z" fill="white"/>
<path d="M118.133 174.067C117.467 175.133 108 201.267 108 201.933C108 202.2 109.467 202.333 111.333 202.333C113.733 202.333 114.8 201.4 115.467 199C116.133 196.067 117.067 195.667 122 195.667C126.933 195.667 127.867 196.067 128.533 199C129.2 201.4 130.267 202.333 132.667 202.333H135.867L130.933 188.067C126.4 175 125.6 173.667 122.4 173.267C120.533 173 118.533 173.4 118.133 174.067ZM125.333 188.6C125.333 189.533 123.733 190.333 121.867 190.333C118.667 190.333 118.533 190.067 119.333 185.933C119.867 183.667 120.667 181.133 121.067 180.333C121.867 179.133 125.2 185.667 125.333 188.6Z" fill="white"/>
<path d="M149.333 176.2C148.8 177.933 146.4 184.467 144.133 190.867L140.133 202.333H143.333C145.733 202.333 146.8 201.4 147.467 199C148.133 196.067 149.067 195.667 154.133 195.667C159.2 195.667 160 196.067 160.8 199C161.333 201.4 162.533 202.333 164.933 202.333C167.067 202.333 168 201.667 167.733 200.6C167.333 199.8 165.067 193.133 162.667 185.933C158.533 173.533 158.133 173 154.4 173C151.6 173 150.267 173.8 149.333 176.2ZM157.333 187.933C157.333 189.667 156.267 190.333 153.867 190.333C151.067 190.333 150.533 189.8 151.333 187.933C151.733 186.733 152.533 183.8 152.933 181.667L153.867 177.667L155.467 181.667C156.4 183.8 157.2 186.733 157.333 187.933Z" fill="white"/>
<path d="M174.667 187.667V202.333H178C180.933 202.333 181.333 201.8 181.333 197.133C181.333 189.533 183.467 189.267 187.6 196.2C190.533 201.133 192 202.333 195.067 202.333H198.8L193.333 194.2L187.867 186.2L192.533 180.333C198.133 173.533 198.267 173 194.4 173C192.4 173.133 189.733 175.133 186.667 179.267L182 185.533L181.6 179.267C181.2 173.667 180.8 173 177.867 173H174.667V187.667Z" fill="white"/>
<path d="M503.552 148.049C500.798 145.209 499.452 141.836 499.513 137.931L501.046 34.7866C501.215 30.7776 502.692 27.4224 505.479 24.7212C508.32 21.968 511.693 20.6219 515.598 20.6829L618.739 22.3743C622.646 22.3297 626.002 23.7546 628.807 26.6488C631.561 29.4895 632.906 32.9151 632.843 36.9258L632.738 48.7216C632.57 52.7306 631.092 56.0857 628.305 58.787C625.464 61.5402 622.092 62.8863 618.186 62.8252L571.641 62.0977L626.498 118.696C629.199 121.483 630.518 124.882 630.456 128.893C630.393 132.903 628.968 136.259 626.181 138.96L615.89 148.934C613.103 151.636 609.704 152.955 605.694 152.892C601.683 152.829 598.327 151.405 595.626 148.618L540.77 92.0193L540.042 138.564C539.981 142.469 538.53 145.798 535.69 148.552C532.903 151.253 529.503 152.625 525.491 152.668L513.617 152.482C509.608 152.314 506.253 150.836 503.552 148.049Z" fill="white"/>
</g>
<defs>
<clipPath id="clip0_1772_862">
<rect width="707" height="204" fill="white"/>
</clipPath>
</defs>
</svg>
