<svg width="132" height="48" viewBox="0 0 132 48" fill="none" xmlns="http://www.w3.org/2000/svg">
<path d="M87.625 9.59961C89.1247 9.59961 90.6245 9.59961 92.1697 9.59961C92.3456 10.4794 92.3456 10.4794 92.4035 10.8518C92.4104 10.8949 92.4172 10.938 92.4243 10.9824C92.4466 11.1237 92.4688 11.265 92.4909 11.4063C92.5071 11.5089 92.5233 11.6115 92.5395 11.7141C92.5833 11.9909 92.6268 12.2677 92.6703 12.5445C92.7162 12.8364 92.7623 13.1284 92.8083 13.4203C92.8957 13.974 92.9829 14.5278 93.07 15.0816C93.1682 15.7057 93.2666 16.3298 93.365 16.9538C93.9753 20.8249 93.9753 20.8249 94.2633 22.6719C94.5161 22.6888 94.7688 22.7057 95.0293 22.723C95.0441 22.6413 95.059 22.5596 95.0743 22.4754C95.231 21.6192 95.3981 20.7653 95.5707 19.9121C95.6071 19.7317 95.6435 19.5513 95.6798 19.3709C95.7496 19.0249 95.8194 18.679 95.8893 18.3331C95.9454 18.0552 96.0015 17.7773 96.0576 17.4993C96.0656 17.4598 96.0736 17.4202 96.0818 17.3794C96.098 17.2994 96.1141 17.2193 96.1303 17.1393C96.2346 16.6223 96.339 16.1054 96.4434 15.5884C96.6185 14.7217 96.7932 13.8549 96.9675 12.988C97.0286 12.6839 97.0899 12.3797 97.1512 12.0756C97.1973 11.8467 97.2433 11.6178 97.2892 11.3888C97.331 11.1805 97.3729 10.9721 97.415 10.7638C97.43 10.6895 97.445 10.6152 97.4598 10.5408C97.4796 10.4418 97.4996 10.3429 97.5197 10.244C97.5306 10.1893 97.5416 10.1346 97.553 10.0783C97.5824 9.95706 97.5824 9.95706 97.6335 9.90599C97.7796 9.90113 97.9245 9.89958 98.0706 9.9002C98.1164 9.90019 98.1622 9.90018 98.2094 9.90017C98.3617 9.90021 98.5139 9.90061 98.6662 9.90101C98.7714 9.9011 98.8767 9.90117 98.9819 9.90122C99.2595 9.90142 99.5372 9.90192 99.8148 9.90249C100.098 9.90301 100.381 9.90324 100.664 9.9035C101.22 9.90405 101.776 9.90492 102.331 9.90599C102.41 10.0892 102.461 10.2646 102.5 10.46C102.518 10.5499 102.518 10.5499 102.536 10.6416C102.549 10.7071 102.562 10.7726 102.576 10.8401C102.59 10.9103 102.604 10.9805 102.618 11.0507C102.657 11.2424 102.695 11.4341 102.733 11.6258C102.774 11.8299 102.815 12.0339 102.856 12.2379C102.926 12.5862 102.996 12.9345 103.065 13.2828C103.174 13.8239 103.282 14.3648 103.391 14.9058C103.427 15.0856 103.463 15.2653 103.499 15.4451C103.508 15.4895 103.517 15.5338 103.526 15.5795C103.589 15.8924 103.651 16.2054 103.714 16.5183C103.917 17.5301 104.121 18.5416 104.326 19.5529C104.348 19.6627 104.37 19.7725 104.393 19.8822C104.482 20.3227 104.572 20.7632 104.661 21.2036C104.696 21.3754 104.731 21.5473 104.766 21.7191C104.782 21.7965 104.798 21.8739 104.814 21.9513C104.835 22.0542 104.856 22.1571 104.876 22.26C104.888 22.3167 104.899 22.3734 104.911 22.4318C104.936 22.5698 104.936 22.5698 104.936 22.723C105.205 22.723 105.475 22.723 105.753 22.723C105.757 22.6466 105.762 22.5701 105.767 22.4914C105.811 21.962 105.904 21.4386 105.987 20.9142C106.006 20.7932 106.025 20.6722 106.044 20.5512C106.09 20.258 106.136 19.9647 106.183 19.6715C106.237 19.3297 106.291 18.988 106.345 18.6462C106.441 18.0366 106.537 17.427 106.634 16.8174C106.727 16.2261 106.821 15.6348 106.914 15.0435C106.92 15.007 106.926 14.9705 106.931 14.9329C106.94 14.8783 106.94 14.8783 106.949 14.8225C106.96 14.7492 106.972 14.6759 106.984 14.6026C106.989 14.5664 106.995 14.5302 107.001 14.493C107.09 13.9288 107.179 13.3646 107.268 12.8004C107.3 12.5961 107.333 12.3917 107.365 12.1874C107.421 11.8333 107.477 11.4792 107.533 11.1252C107.551 11.0075 107.57 10.8898 107.589 10.7722C107.614 10.6119 107.639 10.4517 107.665 10.2915C107.672 10.2446 107.679 10.1978 107.687 10.1495C107.694 10.1066 107.701 10.0637 107.708 10.0195C107.714 9.98251 107.719 9.94553 107.725 9.90744C107.744 9.8039 107.77 9.70168 107.795 9.59961C109.295 9.59961 110.795 9.59961 112.34 9.59961C112.31 9.86946 112.281 10.1235 112.231 10.3876C112.219 10.4491 112.207 10.5106 112.195 10.5739C112.182 10.6409 112.169 10.7079 112.157 10.7749C112.143 10.8469 112.129 10.919 112.115 10.9911C112.086 11.1469 112.056 11.3028 112.026 11.4586C111.977 11.7115 111.929 11.9645 111.881 12.2175C111.811 12.5833 111.741 12.9492 111.671 13.315C111.561 13.891 111.451 14.4671 111.341 15.0431C111.332 15.0914 111.322 15.1397 111.313 15.1894C111.275 15.386 111.238 15.5826 111.2 15.7792C111.153 16.0284 111.105 16.2775 111.058 16.5267C110.777 17.997 110.497 19.4675 110.219 20.9382C110.201 21.0301 110.184 21.1221 110.166 21.214C110.009 22.047 109.851 22.88 109.693 23.7131C109.632 24.0369 109.571 24.3608 109.51 24.6846C109.467 24.9066 109.426 25.1286 109.384 25.3506C109.352 25.5159 109.321 25.6812 109.29 25.8464C109.279 25.9053 109.268 25.9642 109.256 26.0248C109.246 26.0784 109.236 26.132 109.225 26.1872C109.217 26.2335 109.208 26.2798 109.199 26.3275C109.177 26.4373 109.15 26.5462 109.123 26.6549C106.747 26.6549 104.371 26.6549 101.923 26.6549C101.846 26.4248 101.792 26.2216 101.748 25.9855C101.741 25.9501 101.735 25.9147 101.728 25.8783C101.706 25.7604 101.684 25.6425 101.662 25.5245C101.647 25.4397 101.631 25.3549 101.615 25.27C101.572 25.0398 101.53 24.8095 101.487 24.5793C101.442 24.3372 101.397 24.0953 101.353 23.8533C101.267 23.394 101.182 22.9347 101.097 22.4753C100.982 21.8552 100.867 21.2351 100.752 20.615C100.724 20.4649 100.697 20.3148 100.669 20.1647C100.66 20.116 100.651 20.0672 100.641 20.0169C100.58 19.6841 100.518 19.3512 100.456 19.0183C100.3 18.1762 100.144 17.3342 99.9824 16.4932C99.973 16.5443 99.973 16.5443 99.9633 16.5965C99.8063 17.4421 99.6493 18.2878 99.4922 19.1334C99.4163 19.5425 99.3403 19.9515 99.2644 20.3605C99.1979 20.7188 99.1314 21.0771 99.0648 21.4354C99.0299 21.6235 98.995 21.8116 98.9601 21.9997C98.672 23.5516 98.3824 25.1032 98.0931 26.6549C95.7002 26.6549 93.3074 26.6549 90.842 26.6549C90.4647 24.6753 90.4647 24.6753 90.3386 24.0132C90.33 23.9682 90.3214 23.9233 90.3126 23.877C90.0024 22.2486 89.6923 20.6202 89.3823 18.9917C89.2861 18.4867 89.19 17.9816 89.0938 17.4765C88.8944 16.4294 88.695 15.3823 88.4959 14.3351C88.4112 13.8894 88.3264 13.4438 88.2415 12.9981C88.1694 12.6195 88.0973 12.2408 88.0254 11.8622C87.9888 11.6695 87.9522 11.4769 87.9154 11.2843C87.8757 11.0759 87.8361 10.8674 87.7966 10.659C87.785 10.5985 87.7734 10.538 87.7615 10.4756C87.7509 10.4196 87.7403 10.3635 87.7294 10.3058C87.7202 10.2578 87.7111 10.2099 87.7017 10.1604C87.6704 9.97437 87.6484 9.78683 87.625 9.59961Z" fill="white"/>
<path d="M124.136 2.75781C125.652 2.75781 127.169 2.75781 128.731 2.75781C128.731 10.6441 128.731 18.5304 128.731 26.6557C127.248 26.6557 125.766 26.6557 124.238 26.6557C124.204 26.2176 124.17 25.7794 124.136 25.328C124.066 25.4102 123.997 25.4923 123.925 25.577C123.258 26.3254 122.351 26.7643 121.378 26.9621C121.335 26.9711 121.291 26.9801 121.246 26.9894C120.822 27.0692 120.405 27.0846 119.974 27.0833C119.938 27.0833 119.902 27.0833 119.865 27.0833C118.482 27.0783 117.28 26.7263 116.272 25.7365C116.233 25.6995 116.195 25.6624 116.156 25.6242C115.117 24.5506 114.717 22.9719 114.472 21.5429C114.46 21.4756 114.46 21.4756 114.448 21.4068C114.297 20.4578 114.262 19.5127 114.264 18.5528C114.264 18.3561 114.263 18.1595 114.262 17.9628C114.256 15.5558 114.593 12.7461 116.272 10.877C116.304 10.8409 116.335 10.8048 116.368 10.7677C117.116 9.97014 118.137 9.57056 119.182 9.34505C119.236 9.33307 119.291 9.32109 119.346 9.30874C120.714 9.05571 122.138 9.20306 123.481 9.51589C123.682 9.5624 123.883 9.60667 124.085 9.65143C124.11 6.23909 124.11 6.23909 124.136 2.75781ZM120.102 13.5833C120.07 13.6078 120.039 13.6323 120.007 13.6575C119.129 14.4249 119.03 15.9931 118.943 17.0716C118.74 19.9765 118.74 19.9765 119.747 22.574C120.171 22.9953 120.631 23.1459 121.215 23.1546C122.086 23.1489 122.705 22.7509 123.319 22.1621C123.372 22.1123 123.372 22.1123 123.427 22.0615C123.798 21.7083 124.15 21.3624 124.185 20.8296C124.186 20.6912 124.185 20.5539 124.182 20.4156C124.182 20.339 124.182 20.2625 124.182 20.1859C124.182 19.9798 124.18 19.7737 124.177 19.5676C124.174 19.3516 124.174 19.1355 124.174 18.9195C124.172 18.5111 124.169 18.1028 124.165 17.6945C124.16 17.2293 124.158 16.7641 124.156 16.2989C124.152 15.3426 124.145 14.3864 124.136 13.4302C123.915 13.3944 123.695 13.359 123.474 13.3239C123.4 13.3119 123.325 13.2999 123.25 13.2878C121.595 12.9901 121.595 12.9901 120.102 13.5833Z" fill="white"/>
<path d="M25.4108 10.5824C26.4494 10.7811 27.4384 10.802 28.4929 10.7741C28.5777 10.7721 28.6625 10.77 28.7472 10.768C29.0824 10.7599 29.4175 10.7514 29.7526 10.7414C30.3713 10.7231 30.9888 10.7188 31.6078 10.7231C31.6078 11.4308 31.6078 12.1386 31.6078 12.8678C30.6536 12.8745 29.7018 12.8483 28.7483 12.8167C28.7722 12.8463 28.7961 12.8759 28.8207 12.9063C29.5224 13.7884 29.6792 14.8186 29.6802 15.9188C29.6802 15.9539 29.6802 15.989 29.6803 16.0251C29.6783 17.3177 29.4765 18.653 28.5951 19.6592C28.5522 19.7102 28.5522 19.7102 28.5085 19.7622C27.5691 20.7951 25.9397 21.0921 24.6121 21.1912C24.3098 21.2046 24.0074 21.2039 23.7048 21.2017C23.5707 21.2007 23.4367 21.2006 23.3026 21.2006C22.8687 21.1997 22.4392 21.1934 22.0078 21.1401C21.9428 21.3288 21.8783 21.5177 21.8143 21.7067C21.7818 21.8022 21.749 21.8975 21.7161 21.9928C21.5122 22.5965 21.4155 23.1112 21.6759 23.7188C22.4305 24.4734 24.2189 24.2166 25.1947 24.2283C26.1969 24.2408 27.2062 24.2643 28.1897 24.4752C28.2429 24.4863 28.2961 24.4974 28.3509 24.5088C29.32 24.7184 30.1968 25.0877 30.7557 25.9497C31.2484 26.8069 31.3804 27.7375 31.3725 28.7112C31.3717 28.8319 31.3725 28.9526 31.3735 29.0733C31.3752 30.3084 31.0272 31.4032 30.178 32.3231C28.5598 33.882 25.8963 34.0329 23.7889 34.005C22.0972 33.9675 20.1229 33.8768 18.7397 32.7826C18.7087 32.7611 18.6776 32.7395 18.6456 32.7172C17.9089 32.168 17.6209 31.1103 17.4857 30.2528C17.3478 29.0763 17.4125 27.8456 18.1645 26.878C18.6562 26.2752 19.2428 25.7909 19.8632 25.3273C19.8344 25.2902 19.8344 25.2902 19.8051 25.2523C19.721 25.1421 19.6386 25.0308 19.5568 24.9188C19.5337 24.8876 19.5106 24.8563 19.4868 24.8241C19.2102 24.42 19.078 23.9233 19.0461 23.438C19.0429 23.4001 19.0397 23.3621 19.0364 23.3231C18.9901 22.3914 19.6168 21.4116 20.0674 20.6295C20.0291 20.609 19.9908 20.5885 19.9513 20.5674C19.5693 20.3552 19.2531 20.121 18.944 19.8124C18.8905 19.7598 18.8905 19.7598 18.8359 19.7061C17.7562 18.5739 17.6254 16.9173 17.6605 15.4318C17.7178 14.0794 18.1066 12.7994 19.0972 11.8465C19.1344 11.8089 19.1716 11.7713 19.2099 11.7326C20.7443 10.2608 23.4496 10.2036 25.4108 10.5824ZM20.8493 13.3561C20.1394 14.2225 20.1013 15.4731 20.1853 16.5404C20.285 17.3342 20.5539 18.1196 21.1908 18.638C21.8751 19.1438 22.6537 19.2118 23.4759 19.2124C23.5327 19.2125 23.5327 19.2125 23.5907 19.2125C24.5962 19.2111 25.6632 19.1417 26.4504 18.4337C27.2081 17.6063 27.204 16.4272 27.1731 15.3747C27.1311 14.5222 26.8925 13.7386 26.2621 13.139C24.9519 12.0533 22.0316 12.1273 20.8493 13.3561ZM21.1397 26.7061C21.0522 26.7835 20.9639 26.8601 20.8749 26.9358C20.2566 27.5017 19.9755 28.0129 19.8995 28.8625C19.8779 29.6505 20.0446 30.4429 20.578 31.0465C21.8469 32.0773 24.0489 31.9723 25.5663 31.8252C26.5773 31.7137 27.6477 31.4938 28.3334 30.6763C28.8462 29.9649 28.8929 29.0744 28.774 28.2292C28.6825 27.7556 28.5082 27.3732 28.1866 27.0124C27.1591 26.3409 25.791 26.4307 24.6135 26.3994C24.4023 26.3937 24.1912 26.3875 23.9801 26.3813C23.8082 26.3763 23.6363 26.3714 23.4644 26.3669C23.1464 26.3582 22.829 26.347 22.5115 26.3282C22.4552 26.3251 22.399 26.3219 22.3411 26.3187C22.2371 26.3126 22.1333 26.3058 22.0295 26.2981C21.6141 26.2745 21.4092 26.3881 21.1397 26.7061Z" fill="white"/>
<path d="M83.2317 2.38082C83.2807 2.38486 83.3298 2.38891 83.3803 2.39307C83.9764 2.44707 84.5694 2.52818 85.1626 2.60741C85.2145 2.61434 85.2665 2.62127 85.32 2.62841C85.4694 2.64842 85.6188 2.66865 85.7681 2.689C85.8361 2.69817 85.8361 2.69817 85.9055 2.70753C85.9476 2.71333 85.9896 2.71913 86.033 2.72511C86.088 2.73264 86.088 2.73264 86.1441 2.74033C86.2486 2.75757 86.3496 2.78136 86.4519 2.80848C86.4626 5.42193 86.4626 5.42193 86.4009 6.5872C86.3578 6.58565 86.3147 6.58411 86.2703 6.58251C84.3363 6.35032 84.3363 6.35032 82.6221 6.89358C82.1256 7.61706 82.2174 8.83205 82.1626 9.59997C83.5275 9.59997 84.8924 9.59997 86.2987 9.59997C86.2987 10.8975 86.2987 12.195 86.2987 13.5319C84.9338 13.5319 83.5689 13.5319 82.1626 13.5319C82.1626 17.8626 82.1626 22.1933 82.1626 26.6553C80.646 26.6553 79.1294 26.6553 77.5668 26.6553C77.5668 22.3246 77.5668 17.9938 77.5668 13.5319C76.9602 13.5319 76.3535 13.5319 75.7285 13.5319C75.7285 12.2343 75.7285 10.9368 75.7285 9.59997C76.3352 9.59997 76.9418 9.59997 77.5668 9.59997C77.5647 9.41776 77.5626 9.23556 77.5604 9.04784C77.5552 7.34132 77.5972 5.09516 78.6902 3.67656C78.7108 3.64655 78.7313 3.61653 78.7525 3.5856C79.2745 2.88535 80.2713 2.5809 81.0902 2.45103C81.2623 2.42811 81.4346 2.40846 81.6072 2.39039C81.648 2.3861 81.6888 2.38181 81.7308 2.37739C82.2313 2.3303 82.7312 2.33927 83.2317 2.38082Z" fill="white"/>
<path d="M59.489 11.4094C61.0939 12.826 61.4177 14.9934 61.5537 17.0261C61.714 19.783 61.6232 23.1921 59.6932 25.3786C58.987 26.1275 58.0367 26.5493 57.0379 26.7573C56.9722 26.7711 56.9722 26.7711 56.9052 26.7852C56.3586 26.8848 55.8109 26.8774 55.2571 26.8754C55.2059 26.8753 55.1547 26.8753 55.102 26.8752C54.0097 26.8722 53.0577 26.7409 51.9826 26.502C51.9826 28.8274 51.9826 31.1529 51.9826 33.5488C51.1569 33.5488 50.3312 33.5488 49.4805 33.5488C49.4805 26.0332 49.4805 18.5177 49.4805 10.7743C50.2893 10.7743 51.0982 10.7743 51.9315 10.7743C51.9568 11.8107 51.9568 11.8107 51.9826 12.868C52.2017 12.6152 52.4207 12.3624 52.6464 12.102C53.4241 11.3799 54.4734 10.6124 55.5571 10.468C55.6106 10.4597 55.6106 10.4597 55.6652 10.4512C56.976 10.2739 58.4632 10.5418 59.489 11.4094ZM52.7486 14.4509C52.6279 14.5965 52.5139 14.7464 52.4007 14.8977C52.3715 14.9363 52.3423 14.9748 52.3122 15.0144C52.0335 15.3796 52.0335 15.3796 51.9703 15.8299C51.9702 15.8665 51.9701 15.9031 51.9701 15.9409C51.9699 16.0639 51.9704 16.1869 51.971 16.3099C51.971 16.398 51.971 16.486 51.971 16.5741C51.9709 16.8135 51.9715 17.0528 51.9722 17.2922C51.9729 17.5423 51.9729 17.7923 51.9731 18.0424C51.9734 18.516 51.9742 18.9896 51.9752 19.4633C51.9764 20.0024 51.9769 20.5416 51.9775 21.0807C51.9785 22.19 51.9803 23.2992 51.9826 24.4084C52.178 24.4418 52.3735 24.4748 52.569 24.5079C52.6239 24.5173 52.6788 24.5266 52.7354 24.5363C53.1527 24.6066 53.5641 24.6533 53.9869 24.6765C54.0468 24.6804 54.1068 24.6844 54.1686 24.6884C55.4099 24.7656 56.598 24.7182 57.6084 23.9113C58.289 23.294 58.5763 22.3219 58.7613 21.4531C58.7715 21.4055 58.7816 21.358 58.7921 21.309C58.9668 20.4323 58.996 19.5666 58.9945 18.6748C58.9943 18.4867 58.9955 18.2987 58.9968 18.1106C59.0012 16.4444 58.9285 14.472 57.7229 13.1877C57.1464 12.6476 56.473 12.5738 55.7154 12.5953C54.5325 12.6563 53.5196 13.6231 52.7486 14.4509Z" fill="white"/>
<path d="M12.6284 11.8083C14.0027 13.1061 14.4893 15.0655 14.5606 16.8974C14.5664 17.1106 14.5682 17.3238 14.5688 17.537C14.5691 17.6013 14.5693 17.6656 14.5696 17.7318C14.5647 18.397 14.5021 19.0425 14.4507 19.7105C11.0299 19.7105 7.60916 19.7105 4.08474 19.7105C4.22477 21.9645 4.22477 21.9645 5.38248 23.853C6.15445 24.4216 7.08693 24.6197 8.02922 24.6212C8.07373 24.6214 8.11823 24.6216 8.16409 24.6218C8.30962 24.6223 8.45516 24.6223 8.6007 24.6222C8.65114 24.6221 8.70159 24.6221 8.75357 24.6221C10.4877 24.6199 12.213 24.5064 13.9401 24.3573C13.9996 25.3927 13.9996 25.3927 13.9943 25.8988C13.9941 25.9431 13.9939 25.9874 13.9936 26.0331C13.993 26.1383 13.9921 26.2435 13.9911 26.3488C13.1991 26.5182 12.3953 26.6151 11.5911 26.7062C11.5563 26.7102 11.5215 26.7142 11.4856 26.7183C10.3877 26.8435 9.29366 26.875 8.18899 26.8785C8.12673 26.8789 8.06446 26.8793 8.0003 26.8798C7.25977 26.8835 6.5472 26.8575 5.82091 26.7062C5.76911 26.6955 5.76911 26.6955 5.71627 26.6845C4.57368 26.4424 3.5015 25.8312 2.84365 24.8492C2.23939 23.9072 1.91928 22.8248 1.72304 21.7307C1.71532 21.6882 1.70761 21.6458 1.69966 21.6021C1.55454 20.7294 1.51446 19.8488 1.51823 18.9656C1.51878 18.8135 1.51823 18.6614 1.51758 18.5094C1.51694 17.6627 1.56399 16.816 1.72304 15.9828C1.73168 15.937 1.74032 15.8911 1.74922 15.8439C2.07899 14.167 2.77013 12.521 4.20941 11.5031C5.08564 10.9241 6.05067 10.5745 7.09751 10.4679C7.14937 10.4623 7.20124 10.4567 7.25469 10.4509C9.09027 10.2814 11.2063 10.5265 12.6284 11.8083ZM5.13454 13.7216C4.22834 14.8624 4.08474 16.2556 4.08474 17.6679C6.7135 17.6679 9.34227 17.6679 12.0507 17.6679C12.0572 16.8756 12.0572 16.8756 11.9869 16.0977C11.9766 16.0238 11.9766 16.0238 11.9661 15.9484C11.808 14.8712 11.46 13.7735 10.5613 13.0901C8.99625 12.0572 6.38021 12.3344 5.13454 13.7216Z" fill="white"/>
<path d="M32.9355 10.7744C33.7612 10.7744 34.587 10.7744 35.4377 10.7744C35.5269 11.0422 35.6139 11.3052 35.6911 11.5758C35.7187 11.6723 35.7187 11.6723 35.7469 11.7708C35.7668 11.8409 35.7868 11.9109 35.8067 11.981C35.8281 12.0561 35.8496 12.1311 35.871 12.2062C35.9293 12.4104 35.9875 12.6147 36.0456 12.8189C36.0953 12.9932 36.145 13.1675 36.1947 13.3418C36.6985 15.1078 37.2002 16.8745 37.7017 18.6411C37.9037 19.3527 38.1059 20.0642 38.3081 20.7757C38.3975 21.0899 38.4868 21.4041 38.5761 21.7184C38.6478 21.9704 38.7194 22.2224 38.7911 22.4744C38.8578 22.7088 38.9244 22.9433 38.991 23.1778C39.0155 23.2639 39.04 23.35 39.0645 23.4361C39.0979 23.5536 39.1313 23.6712 39.1647 23.7888C39.1745 23.823 39.1842 23.8572 39.1943 23.8925C39.2381 24.047 39.2796 24.2015 39.3185 24.3574C39.6555 24.3742 39.9926 24.3911 40.3398 24.4085C40.3527 24.3386 40.3655 24.2688 40.3788 24.1969C40.4467 23.8588 40.5404 23.5291 40.6348 23.1975C40.655 23.1262 40.6751 23.0549 40.6952 22.9837C40.7508 22.7865 40.8067 22.5895 40.8627 22.3924C40.9109 22.2225 40.959 22.0526 41.0071 21.8826C41.1927 21.2265 41.379 20.5707 41.5653 19.9148C41.6004 19.7915 41.6354 19.6683 41.6704 19.545C42.5012 16.6208 43.334 13.6972 44.1696 10.7744C44.9953 10.7744 45.821 10.7744 46.6717 10.7744C46.6346 11.0339 46.5915 11.2564 46.5204 11.5053C46.5102 11.5414 46.5 11.5774 46.4895 11.6145C46.4552 11.735 46.4207 11.8554 46.3861 11.9758C46.3612 12.0632 46.3364 12.1505 46.3115 12.2378C46.2432 12.4776 46.1747 12.7174 46.1061 12.9571C46.0321 13.2156 45.9584 13.4742 45.8847 13.7327C45.7403 14.2392 45.5956 14.7455 45.4509 15.2519C45.3331 15.6637 45.2155 16.0756 45.098 16.4875C45.0812 16.5461 45.0645 16.6047 45.0473 16.6651C45.0133 16.7842 44.9793 16.9033 44.9453 17.0224C43.8305 20.9284 42.7123 24.8334 41.5928 28.738C41.5457 28.9024 41.4986 29.0668 41.4514 29.2312C41.4362 29.2843 41.421 29.3374 41.4053 29.3921C41.3751 29.4976 41.3449 29.603 41.3146 29.7085C41.2292 30.0065 41.1437 30.3046 41.0582 30.6026C41.006 30.7845 40.9539 30.9665 40.9017 31.1484C40.8771 31.2342 40.8525 31.3199 40.8279 31.4057C40.711 31.8134 40.5946 32.2212 40.4812 32.6298C40.4643 32.6906 40.4475 32.7514 40.4301 32.814C40.3996 32.924 40.3694 33.0341 40.3393 33.1442C40.3264 33.1909 40.3135 33.2376 40.3002 33.2858C40.2892 33.3259 40.2783 33.3661 40.267 33.4074C40.2377 33.4978 40.2377 33.4978 40.1866 33.5489C40.1082 33.5536 40.0296 33.5549 39.9511 33.5547C39.901 33.5547 39.8509 33.5547 39.7993 33.5547C39.7449 33.5544 39.6904 33.5541 39.6343 33.5539C39.5511 33.5538 39.5511 33.5538 39.4662 33.5536C39.2883 33.5534 39.1103 33.5527 38.9324 33.5521C38.812 33.5518 38.6917 33.5516 38.5714 33.5514C38.2758 33.5508 37.9801 33.55 37.6845 33.5489C37.8081 33.0266 37.9584 32.5131 38.1103 31.9986C38.1373 31.9071 38.1642 31.8155 38.1912 31.724C38.2477 31.5319 38.3043 31.3397 38.361 31.1477C38.4316 30.9082 38.5022 30.6687 38.5726 30.4292C38.9531 29.1359 39.3387 27.8442 39.727 26.5531C38.9519 26.5531 38.1767 26.5531 37.3781 26.5531C37.1847 25.9407 36.9961 25.3305 36.8244 24.7122C36.8016 24.6307 36.7788 24.5492 36.756 24.4677C36.7076 24.2946 36.6592 24.1214 36.611 23.9482C36.5338 23.6712 36.4564 23.3942 36.3789 23.1172C36.3657 23.0702 36.3525 23.0231 36.339 22.9746C36.3122 22.8789 36.2854 22.7831 36.2586 22.6874C36.218 22.5423 36.1775 22.3971 36.1369 22.252C35.8816 21.3389 35.6245 20.4262 35.3669 19.5137C35.3207 19.3501 35.2745 19.1865 35.2284 19.0229C35.1123 18.6118 34.9963 18.2006 34.8802 17.7895C34.5013 16.4474 34.1225 15.1052 33.7443 13.7629C33.693 13.5807 33.6416 13.3985 33.5903 13.2164C33.4833 12.8368 33.3764 12.4572 33.2697 12.0776C33.2388 11.9674 33.2077 11.8573 33.1767 11.7472C33.1351 11.5998 33.0938 11.4524 33.0524 11.305C33.0404 11.2623 33.0283 11.2197 33.0159 11.1757C32.9355 10.8882 32.9355 10.8882 32.9355 10.7744Z" fill="white"/>
<path d="M66.0261 5.97461C66.8518 5.97461 67.6775 5.97461 68.5282 5.97461C68.5282 7.55861 68.5282 9.14261 68.5282 10.7746C70.1459 10.7746 71.7636 10.7746 73.4304 10.7746C73.4304 11.4824 73.4304 12.1901 73.4304 12.9193C71.8127 12.9193 70.195 12.9193 68.5282 12.9193C68.5344 14.4723 68.5344 14.4723 68.5414 16.0253C68.5445 16.6593 68.5475 17.2933 68.5498 17.9274C68.5515 18.3893 68.5535 18.8512 68.5559 19.3131C68.5572 19.5573 68.5583 19.8014 68.559 20.0455C68.4364 22.2919 68.4364 22.2919 69.2495 24.2682C69.7347 24.5636 70.2448 24.6238 70.8006 24.6257C70.8542 24.6259 70.9078 24.6261 70.963 24.6263C71.5947 24.6219 72.2227 24.5658 72.8516 24.5097C72.893 24.5061 72.9343 24.5025 72.9769 24.4988C73.0554 24.4919 73.1339 24.4847 73.2124 24.4773C73.3019 24.4694 73.3917 24.4642 73.4814 24.4597C73.5913 24.5696 73.5604 24.8098 73.571 24.9626C73.5743 25.0078 73.5776 25.0531 73.5811 25.0997C73.5917 25.2449 73.602 25.3901 73.6123 25.5352C73.6194 25.6334 73.6265 25.7316 73.6337 25.8298C73.6513 26.0709 73.6686 26.3121 73.6857 26.5533C73.2777 26.6529 72.8735 26.7362 72.457 26.7895C72.4115 26.7957 72.3661 26.8019 72.3192 26.8083C71.7099 26.889 71.1057 26.9229 70.491 26.9235C70.4552 26.9236 70.4194 26.9236 70.3825 26.9237C69.2287 26.9226 67.9648 26.7755 67.0865 25.9396C66.5922 25.3851 66.3651 24.6763 66.2176 23.9618C66.2099 23.9249 66.2022 23.8879 66.1942 23.8499C66.0433 23.0507 66.0109 22.2403 66.0145 21.4293C66.0145 21.3356 66.0145 21.2419 66.0145 21.1482C66.0144 20.8974 66.015 20.6465 66.0158 20.3957C66.0164 20.1322 66.0164 19.8688 66.0166 19.6053C66.0169 19.108 66.0177 18.6107 66.0188 18.1134C66.0199 17.5466 66.0205 16.9797 66.021 16.4129C66.022 15.2484 66.0239 14.0838 66.0261 12.9193C65.2847 12.9193 64.5432 12.9193 63.7793 12.9193C63.7793 12.2115 63.7793 11.5038 63.7793 10.7746C64.5207 10.7746 65.2622 10.7746 66.0261 10.7746C66.0261 9.19061 66.0261 7.60661 66.0261 5.97461Z" fill="white"/>
<path d="M106.073 33.6863C106.136 33.6848 106.199 33.6833 106.264 33.6818C106.814 33.678 107.378 33.7563 107.811 34.1239C108.352 34.6743 108.381 35.377 108.379 36.1079C108.379 36.2329 108.38 36.3578 108.381 36.4828C108.383 36.7925 108.384 37.1022 108.384 37.4119C108.385 37.6752 108.386 37.9385 108.388 38.2019C108.389 38.3247 108.388 38.4474 108.388 38.5702C108.389 38.6455 108.389 38.7208 108.39 38.796C108.39 38.8615 108.39 38.927 108.39 38.9944C108.411 39.1798 108.45 39.2743 108.563 39.4214C108.73 39.5332 108.88 39.5745 109.073 39.6256C109.075 39.7139 109.076 39.8022 109.076 39.8905C109.077 39.9397 109.078 39.9889 109.078 40.0395C109.074 40.18 109.054 40.306 109.022 40.4426C108.586 40.4741 108.2 40.4116 107.797 40.2384C107.754 40.2013 107.712 40.1641 107.669 40.1259C107.548 40.0193 107.548 40.0193 107.398 40.0391C107.204 40.094 107.01 40.15 106.817 40.2097C106.04 40.4403 105.059 40.6532 104.285 40.3066C103.91 40.0814 103.581 39.7765 103.468 39.3438C103.46 39.3094 103.452 39.2749 103.443 39.2394C103.435 39.2034 103.426 39.1674 103.417 39.1303C103.276 38.4994 103.324 37.8673 103.633 37.2932C103.925 36.8517 104.361 36.6664 104.863 36.5626C105.125 36.5111 105.384 36.4802 105.649 36.4561C105.695 36.4517 105.741 36.4473 105.788 36.4428C105.932 36.429 106.076 36.4156 106.22 36.4022C106.319 36.3929 106.417 36.3835 106.516 36.3741C106.755 36.3513 106.995 36.3288 107.235 36.3065C107.239 36.1522 107.242 35.998 107.245 35.8437C107.246 35.8004 107.247 35.7571 107.248 35.7126C107.252 35.3725 107.213 35.1142 106.967 34.8607C106.646 34.6636 106.328 34.656 105.962 34.6597C105.913 34.6599 105.865 34.6601 105.815 34.6603C105.293 34.6664 104.775 34.7127 104.255 34.7652C104.091 34.7765 103.927 34.7746 103.763 34.7746C103.746 34.5049 103.729 34.2353 103.712 33.9575C103.898 33.9244 104.084 33.8914 104.27 33.8586C104.322 33.8493 104.374 33.84 104.428 33.8304C104.981 33.7332 105.511 33.6906 106.073 33.6863ZM106.251 37.1995C106.167 37.2084 106.083 37.2169 105.998 37.2251C105.243 37.2799 105.243 37.2799 104.608 37.6533C104.38 38.0362 104.36 38.4765 104.462 38.9051C104.564 39.1913 104.681 39.3584 104.937 39.5235C105.335 39.6529 105.781 39.5801 106.185 39.5107C106.218 39.5051 106.252 39.4996 106.286 39.4938C106.633 39.4298 106.943 39.3228 107.286 39.2171C107.286 38.5262 107.286 37.8353 107.286 37.1235C106.938 37.1235 106.597 37.1628 106.251 37.1995Z" fill="white"/>
<path d="M126.09 33.6866C126.142 33.6869 126.194 33.6872 126.248 33.6875C126.935 33.6986 127.478 33.8544 128.002 34.3153C128.614 34.9735 128.708 35.8749 128.694 36.7313C128.694 36.7983 128.694 36.8652 128.694 36.9342C128.69 37.4223 128.69 37.4223 128.631 37.4813C128.5 37.4861 128.371 37.4877 128.24 37.4871C128.179 37.4871 128.179 37.4871 128.117 37.4871C127.981 37.4871 127.845 37.4867 127.71 37.4863C127.616 37.4862 127.522 37.4861 127.428 37.4861C127.181 37.4859 126.933 37.4854 126.686 37.4848C126.434 37.4843 126.182 37.484 125.929 37.4838C125.434 37.4832 124.939 37.4824 124.443 37.4813C124.467 37.6368 124.49 37.7922 124.514 37.9476C124.52 37.9914 124.527 38.0352 124.534 38.0803C124.615 38.6056 124.733 38.9751 125.171 39.3036C125.549 39.484 125.947 39.4876 126.358 39.4823C126.412 39.482 126.466 39.4817 126.521 39.4814C126.907 39.4776 127.292 39.4597 127.677 39.4331C127.927 39.4179 128.176 39.4168 128.426 39.4217C128.503 39.5751 128.482 39.7174 128.481 39.8877C128.48 39.9531 128.48 40.0185 128.479 40.0859C128.479 40.1364 128.478 40.1868 128.477 40.2387C128.327 40.2634 128.177 40.2879 128.027 40.3121C127.986 40.319 127.944 40.3259 127.901 40.333C127.328 40.4251 126.763 40.4534 126.183 40.4558C126.117 40.4568 126.052 40.4579 125.985 40.4589C125.347 40.4615 124.674 40.3695 124.177 39.9355C123.428 39.1515 123.343 37.9386 123.362 36.9062C123.41 35.931 123.566 34.9529 124.303 34.2451C124.825 33.8109 125.428 33.6828 126.09 33.6866ZM124.801 35.1323C124.483 35.5682 124.443 36.1464 124.443 36.6643C125.505 36.6643 126.567 36.6643 127.66 36.6643C127.66 36.0742 127.632 35.4144 127.228 34.9431C126.91 34.6363 126.534 34.5637 126.103 34.5515C125.546 34.5685 125.175 34.7089 124.801 35.1323Z" fill="white"/>
<path d="M89.7802 33.6898C89.8259 33.6887 89.8716 33.6877 89.9187 33.6866C90.4569 33.6835 90.9309 33.8276 91.3376 34.1872C92.0168 34.897 91.9387 36.2194 91.9302 37.1344C91.9299 37.2279 91.9297 37.3214 91.9296 37.4149C91.929 37.6569 91.9275 37.8989 91.9258 38.1409C91.9242 38.3895 91.9235 38.638 91.9227 38.8866C91.9211 39.3714 91.9184 39.8561 91.9153 40.3408C91.5782 40.3408 91.2412 40.3408 90.894 40.3408C90.8925 40.1663 90.8925 40.1663 90.8909 39.9882C90.8875 39.6005 90.8835 39.2129 90.8793 38.8252C90.8768 38.5905 90.8744 38.3559 90.8724 38.1212C90.8705 37.8941 90.8682 37.6669 90.8655 37.4398C90.8646 37.3538 90.8638 37.2678 90.8632 37.1819C90.8657 36.126 90.8657 36.126 90.5776 35.1231C90.5365 35.0302 90.5365 35.0302 90.5365 34.9281C90.5028 34.9281 90.4691 34.9281 90.4344 34.9281C90.4344 34.8944 90.4344 34.8607 90.4344 34.8259C89.5488 34.6322 88.8488 34.6417 87.9983 35.0308C87.8812 35.0813 87.8812 35.0813 87.7791 35.0813C87.7791 36.8169 87.7791 38.5526 87.7791 40.3408C87.4421 40.3408 87.105 40.3408 86.7578 40.3408C86.7578 38.1839 86.7578 36.027 86.7578 33.8047C87.0948 33.8047 87.4319 33.8047 87.7791 33.8047C87.7959 33.9395 87.8128 34.0743 87.8302 34.2132C87.9076 34.1705 87.9076 34.1705 87.9865 34.127C88.1949 34.0224 88.4104 33.9452 88.6312 33.8717C88.664 33.8607 88.6967 33.8498 88.7305 33.8385C89.0894 33.7216 89.4049 33.6919 89.7802 33.6898Z" fill="white"/>
<path d="M116.885 33.8047C117.255 33.8047 117.626 33.8047 118.008 33.8047C118.216 34.5225 118.413 35.2416 118.601 35.9647C118.627 36.0639 118.653 36.1632 118.679 36.2624C118.746 36.5195 118.813 36.7766 118.88 37.0337C118.949 37.2977 119.018 37.5617 119.086 37.8257C119.221 38.3406 119.355 38.8556 119.489 39.3706C119.624 39.3706 119.759 39.3706 119.898 39.3706C120.015 38.9383 120.132 38.506 120.25 38.0737C120.306 37.8672 120.362 37.6607 120.418 37.4542C120.732 36.2982 120.732 36.2982 121.044 35.1417C121.056 35.0963 121.069 35.0508 121.081 35.004C121.135 34.8048 121.188 34.6056 121.242 34.4063C121.26 34.339 121.278 34.2717 121.296 34.2044C121.311 34.1486 121.326 34.0927 121.341 34.0351C121.378 33.9068 121.378 33.9068 121.429 33.8047C121.783 33.8047 122.137 33.8047 122.502 33.8047C122.359 34.3849 122.207 34.9617 122.048 35.5377C122.024 35.6242 122 35.7107 121.977 35.7972C121.927 35.9778 121.877 36.1584 121.827 36.3389C121.765 36.565 121.703 36.7911 121.641 37.0172C121.336 38.1262 121.027 39.234 120.715 40.3409C120.041 40.3409 119.366 40.3409 118.672 40.3409C117.979 37.8473 117.979 37.8473 117.937 37.6935C117.908 37.5914 117.88 37.4892 117.852 37.3871C117.781 37.1337 117.711 36.8803 117.64 36.6268C117.52 36.1922 117.399 35.7576 117.277 35.3232C117.229 35.1499 117.181 34.9765 117.132 34.8031C117.11 34.7227 117.087 34.6423 117.065 34.562C117.034 34.4527 117.003 34.3434 116.973 34.2341C116.956 34.173 116.939 34.1118 116.921 34.0489C116.885 33.9068 116.885 33.9068 116.885 33.8047Z" fill="white"/>
<path d="M110.503 31.8643C110.857 31.8643 111.211 31.8643 111.575 31.8643C111.575 32.5046 111.575 33.1449 111.575 33.8047C112.232 33.8047 112.89 33.8047 113.567 33.8047C113.567 34.108 113.567 34.4113 113.567 34.7238C112.909 34.7238 112.252 34.7238 111.575 34.7238C111.581 35.3999 111.581 35.3999 111.588 36.0759C111.591 36.352 111.594 36.6281 111.597 36.9042C111.599 37.1271 111.601 37.3499 111.604 37.5727C111.605 37.6573 111.605 37.742 111.606 37.8266C111.575 38.5978 111.575 38.5978 111.821 39.2972C112.317 39.6231 113.005 39.4739 113.567 39.4217C113.644 39.577 113.637 39.7424 113.646 39.9132C113.649 39.9493 113.651 39.9853 113.653 40.0225C113.659 40.1116 113.664 40.2007 113.669 40.2898C113.266 40.4731 112.84 40.4552 112.405 40.4589C112.348 40.4604 112.291 40.4619 112.232 40.4634C111.781 40.4668 111.414 40.3784 111.02 40.1557C110.405 39.469 110.495 38.434 110.498 37.5762C110.498 37.4935 110.498 37.4108 110.498 37.3281C110.498 37.1126 110.499 36.897 110.499 36.6814C110.5 36.4606 110.5 36.2398 110.5 36.019C110.501 35.5873 110.502 35.1555 110.503 34.7238C110.216 34.7238 109.93 34.7238 109.635 34.7238C109.635 34.4205 109.635 34.1172 109.635 33.8047C109.921 33.8047 110.208 33.8047 110.503 33.8047C110.503 33.1643 110.503 32.524 110.503 31.8643Z" fill="white"/>
<path d="M96.7665 31.8643C97.1204 31.8643 97.4743 31.8643 97.8389 31.8643C97.8389 32.5046 97.8389 33.1449 97.8389 33.8047C98.4961 33.8047 99.1532 33.8047 99.8304 33.8047C99.8304 34.108 99.8304 34.4113 99.8304 34.7238C99.1732 34.7238 98.516 34.7238 97.8389 34.7238C97.845 35.3908 97.845 35.3908 97.852 36.0578C97.8551 36.3302 97.8581 36.6026 97.8604 36.875C97.8623 37.0948 97.8647 37.3147 97.8674 37.5345C97.8683 37.618 97.8691 37.7015 97.8697 37.785C97.8494 38.581 97.8494 38.581 98.0942 39.3196C98.5532 39.6117 99.1905 39.4782 99.7053 39.4279C99.7466 39.4258 99.7878 39.4238 99.8304 39.4217C99.9386 39.5299 99.9028 39.7597 99.9101 39.91C99.9123 39.9512 99.9146 39.9923 99.9168 40.0348C99.9223 40.1368 99.9274 40.2388 99.9325 40.3409C99.5034 40.4249 99.0896 40.4616 98.6527 40.4621C98.5968 40.4634 98.541 40.4646 98.4834 40.4659C98.0382 40.4675 97.6718 40.3752 97.2835 40.1557C96.6347 39.4306 96.7581 38.2666 96.7615 37.3568C96.7616 37.2801 96.7617 37.2034 96.7618 37.1268C96.7619 36.928 96.7624 36.7292 96.763 36.5304C96.7635 36.3264 96.7638 36.1223 96.764 35.9182C96.7646 35.5201 96.7655 35.122 96.7665 34.7238C96.4801 34.7238 96.1936 34.7238 95.8984 34.7238C95.8984 34.4205 95.8984 34.1172 95.8984 33.8047C96.1849 33.8047 96.4714 33.8047 96.7665 33.8047C96.7665 33.1643 96.7665 32.524 96.7665 31.8643Z" fill="white"/>
<path d="M114.689 33.8047C115.026 33.8047 115.363 33.8047 115.711 33.8047C115.711 35.9616 115.711 38.1186 115.711 40.3409C115.374 40.3409 115.037 40.3409 114.689 40.3409C114.689 38.1839 114.689 36.027 114.689 33.8047Z" fill="white"/>
<path d="M100.953 33.8047C101.29 33.8047 101.627 33.8047 101.974 33.8047C101.974 35.9616 101.974 38.1186 101.974 40.3409C101.637 40.3409 101.3 40.3409 100.953 40.3409C100.953 38.1839 100.953 36.027 100.953 33.8047Z" fill="white"/>
<path d="M93.6504 33.8047C93.9874 33.8047 94.3244 33.8047 94.6717 33.8047C94.6717 35.9616 94.6717 38.1186 94.6717 40.3409C94.3346 40.3409 93.9976 40.3409 93.6504 40.3409C93.6504 38.1839 93.6504 36.027 93.6504 33.8047Z" fill="white"/>
<path d="M83.9492 33.8047C84.2862 33.8047 84.6233 33.8047 84.9705 33.8047C84.9705 35.9616 84.9705 38.1186 84.9705 40.3409C84.6335 40.3409 84.2965 40.3409 83.9492 40.3409C83.9492 38.1839 83.9492 36.027 83.9492 33.8047Z" fill="white"/>
<path d="M114.689 31.251C115.026 31.251 115.363 31.251 115.711 31.251C115.711 31.6386 115.711 32.0261 115.711 32.4254C115.374 32.4254 115.037 32.4254 114.689 32.4254C114.689 32.0379 114.689 31.6503 114.689 31.251Z" fill="white"/>
<path d="M100.953 31.251C101.29 31.251 101.627 31.251 101.974 31.251C101.974 31.6386 101.974 32.0261 101.974 32.4254C101.637 32.4254 101.3 32.4254 100.953 32.4254C100.953 32.0379 100.953 31.6503 100.953 31.251Z" fill="white"/>
<path d="M93.6504 31.251C93.9874 31.251 94.3244 31.251 94.6717 31.251C94.6717 31.6386 94.6717 32.0261 94.6717 32.4254C94.3346 32.4254 93.9976 32.4254 93.6504 32.4254C93.6504 32.0379 93.6504 31.6503 93.6504 31.251Z" fill="white"/>
<path d="M83.9492 31.251C84.2862 31.251 84.6233 31.251 84.9705 31.251C84.9705 31.6386 84.9705 32.0261 84.9705 32.4254C84.6335 32.4254 84.2965 32.4254 83.9492 32.4254C83.9492 32.0379 83.9492 31.6503 83.9492 31.251Z" fill="white"/>
</svg>
