<?xml version="1.0" encoding="UTF-8"?>
<svg version="1.1" xmlns="http://www.w3.org/2000/svg" width="2571" height="940">
<path d="M0 0 C29.37 0 58.74 0 89 0 C92.44601694 17.23008469 92.44601694 17.23008469 93.57992554 24.52293396 C93.71371821 25.36663467 93.84751088 26.21033538 93.98535788 27.07960278 C94.42332545 29.84615616 94.85695195 32.61337041 95.29052734 35.38061523 C95.6077121 37.39003602 95.92516891 39.39941388 96.24287415 41.40875244 C97.09907897 46.82882779 97.95149221 52.24949318 98.80318403 57.67027926 C99.70216438 63.38779836 100.60465719 69.10476303 101.50674438 74.8217926 C103.21731637 85.6661057 104.92471013 96.51091669 106.63097346 107.35590845 C108.55401786 119.57766539 110.48081233 131.79883015 112.40784144 144.01995933 C124.36060491 219.82785006 124.36060491 219.82785006 130 256 C134.95 256.33 139.9 256.66 145 257 C145.29114685 255.4000267 145.5822937 253.80005341 145.88226318 252.15159607 C148.95066877 235.38321965 152.22260806 218.66198449 155.602525 201.95372367 C156.31671215 198.42070602 157.02835316 194.88717534 157.74034119 191.35371399 C159.10584882 184.5789763 160.47358804 177.80469127 161.84228975 171.03059822 C162.94188547 165.5882625 164.04074324 160.14577827 165.1390686 154.70318604 C165.29547953 153.92811864 165.45189045 153.15305124 165.6130411 152.35449696 C165.92933132 150.78715346 166.24561889 149.21980943 166.56190383 147.65246487 C168.60492973 137.52849207 170.64846944 127.40462329 172.69355774 117.28106689 C176.12231966 100.30758133 179.54457867 83.33281566 182.95671463 66.35597801 C184.15426876 60.39979295 185.35391839 54.44402977 186.55391121 48.48833561 C187.4570113 44.00554059 188.35885738 39.52250159 189.25769043 35.03884888 C190.07575352 30.95834028 190.89724229 26.878538 191.72165108 22.79930687 C192.01516488 21.34371931 192.30736164 19.88786545 192.59812737 18.43172646 C192.98534651 16.49333405 193.37763516 14.55595631 193.77026367 12.61865234 C193.9855925 11.54787445 194.20092133 10.47709656 194.42277527 9.37387085 C195 7 195 7 196 6 C198.86091818 5.90477582 201.69763621 5.87446674 204.55883789 5.88647461 C205.45631241 5.88632858 206.35378693 5.88618256 207.27845764 5.8860321 C210.25988134 5.88673158 213.2412434 5.89452559 216.22265625 5.90234375 C218.28388942 5.90420781 220.34512304 5.90563177 222.40635681 5.90663147 C227.8430401 5.91045763 233.27969686 5.92028874 238.71636963 5.93133545 C244.25947714 5.94154747 249.80258892 5.94612864 255.34570312 5.95117188 C266.23048043 5.96191092 277.11523802 5.97898851 288 6 C289.54451425 9.58731908 290.52980164 13.02202775 291.29626465 16.84881592 C291.65257414 18.60960181 291.65257414 18.60960181 292.01608181 20.40595913 C292.27052091 21.68835004 292.52496 22.97074095 292.78710938 24.29199219 C293.06352521 25.66723559 293.34036462 27.04239392 293.61759281 28.41747379 C294.37307351 32.17088047 295.12264369 35.92544642 295.87124944 39.68022943 C296.66910416 43.6764984 297.4725386 47.67164539 298.27537537 51.66691589 C299.64516997 58.48737358 301.01163879 65.30849025 302.3757019 72.13009644 C304.49430754 82.72504339 306.61873916 93.31881702 308.74438477 103.91235352 C309.45078028 107.4330556 310.1571487 110.95376312 310.86351013 114.47447205 C311.03776191 115.34295715 311.21201369 116.21144226 311.39154583 117.1062451 C312.62102095 123.23442544 313.84955105 129.3627948 315.07777405 135.4912262 C319.04913372 155.30469045 323.03743095 175.11454138 327.05859375 194.91796875 C327.49496485 197.06806432 327.9313357 199.21815994 328.3677063 201.36825562 C330.11897301 209.99461623 331.87250535 218.62050736 333.6311636 227.24536419 C334.3166196 230.60988437 334.99983553 233.97485644 335.68242073 237.3399601 C335.990531 238.85610023 336.29969178 240.37202734 336.61001396 241.88771629 C337.02248516 243.90239495 337.43116369 245.91784901 337.83959961 247.93334961 C338.06586533 249.04326767 338.29213104 250.15318573 338.5252533 251.29673767 C339 254 339 254 339 257 C344.28 257 349.56 257 355 257 C355.09104004 255.50307617 355.18208008 254.00615234 355.27587891 252.46386719 C356.14739576 242.09656973 357.95414907 231.84703723 359.5859375 221.578125 C359.95921027 219.208549 360.33210465 216.83891336 360.70465088 214.46922302 C361.60860678 208.72585263 362.51656791 202.98312616 363.42642355 197.24068767 C364.48656536 190.54858008 365.54204928 183.85574035 366.59735274 177.16286838 C368.47997049 165.22406473 370.36672465 153.28591854 372.25585938 141.34814453 C374.08825947 129.76886002 375.91780276 118.18912897 377.74414062 106.60888672 C377.85681833 105.89443508 377.96949604 105.17998344 378.08558822 104.44388175 C378.25431516 103.37403521 378.25431516 103.37403521 378.42645073 102.28257561 C378.6529413 100.84647475 378.87943323 99.41037411 379.10592651 97.97427368 C379.21762991 97.2660076 379.3293333 96.55774152 379.44442165 95.82801282 C381.18712682 84.77901648 382.93249872 73.73044122 384.6781162 62.68190467 C385.31031004 58.68032096 385.94209356 54.67867271 386.57357645 50.67697674 C387.66780484 43.74290401 388.76384751 36.80912134 389.86193085 29.87565804 C390.22657328 27.57146969 390.59060397 25.26718444 390.95398712 22.96279716 C391.44893944 19.8247849 391.94609885 16.68713026 392.44384766 13.54956055 C392.58810873 12.63167881 392.7323698 11.71379707 392.88100243 10.76810074 C393.01474581 9.9280386 393.14848919 9.08797646 393.2862854 8.22245789 C393.40079859 7.49838084 393.51531178 6.7743038 393.63329506 6.02828503 C393.99986757 4.00073248 394.50027391 1.99890435 395 0 C424.37 0 453.74 0 484 0 C483.41283096 5.28452133 482.84936186 10.25896496 481.86004639 15.43066406 C481.63139169 16.63517086 481.40273699 17.83967766 481.16715336 19.08068466 C480.91455545 20.39234299 480.66189537 21.70398935 480.40917969 23.015625 C480.1399436 24.4268342 479.87101651 25.83810238 479.60237026 27.24942398 C479.02059623 30.3020745 478.43662433 33.35429342 477.85094261 36.40619659 C476.90050148 41.35883289 475.95492436 46.31239103 475.00984192 51.26605225 C473.64229692 58.43131063 472.27241487 65.59611879 470.90090942 72.76062012 C468.74164147 84.04060822 466.58689598 95.32145737 464.43334961 106.60253906 C464.25286524 107.54796963 464.07238087 108.4934002 463.88642728 109.46748018 C463.15152564 113.31717481 462.41664323 117.16687311 461.6818251 121.01658368 C460.75041608 125.89620022 459.81885522 130.77578768 458.88696098 135.65531158 C453.38806371 164.44829674 447.91129982 193.24540273 442.45703125 222.046875 C442.11600897 223.84748844 441.77498648 225.64810185 441.43396378 227.44871521 C438.34455595 243.76171536 435.25731995 260.07512609 432.17211944 276.38892245 C430.97268573 282.73094657 429.77248053 289.07282439 428.57172173 295.41459775 C427.74869345 299.76172759 426.92670966 304.10905307 426.10559309 308.4565444 C425.49392196 311.69353445 424.88075643 314.93024107 424.26782227 318.16699219 C424.05044781 319.31971619 423.83307335 320.47244019 423.60911179 321.66009521 C423.41004353 322.70979492 423.21097527 323.75949463 423.00587463 324.84100342 C422.83450265 325.74738934 422.66313066 326.65377525 422.48656559 327.58762741 C422.05275194 329.73845802 421.53215802 331.87136794 421 334 C374.47 334 327.94 334 280 334 C278.49754644 329.49263933 277.42824776 325.51349038 276.57156372 320.88999939 C276.44200346 320.19731872 276.3124432 319.50463804 276.17895687 318.79096705 C275.74822221 316.48239138 275.3235821 314.17273796 274.89892578 311.86303711 C274.59022244 310.20159673 274.28114077 308.5402266 273.97171021 306.87892151 C273.13306773 302.37044612 272.29968542 297.86101249 271.46720743 293.35139537 C270.59136216 288.61206549 269.71057206 283.87365483 268.83029175 279.13514709 C267.16010533 270.14054273 265.49419308 261.14515241 263.82988632 252.14945847 C261.58275954 240.00466462 259.32971363 227.86096942 257.07676864 215.7172538 C256.53153673 212.77834881 255.98632608 209.83943988 255.44113159 206.90052795 C255.26390056 205.94517027 255.08666954 204.98981259 254.90406787 204.00550467 C253.69497586 197.48706556 252.48754933 190.96831936 251.28079224 184.44944763 C248.22733203 167.95856423 245.17239928 151.46852832 242 135 C241.81421402 136.0007051 241.81421402 136.0007051 241.6246748 137.02162647 C238.55003753 153.58255901 235.47514425 170.143444 232.39999676 186.70428181 C230.91262548 194.71437263 229.42532786 202.72447711 227.93823242 210.73461914 C226.63559934 217.75116559 225.33279888 224.76768094 224.02983028 231.78416508 C223.34581967 235.46758903 222.66187019 239.15102429 221.97812462 242.83449745 C216.33631846 273.22628491 210.66544886 303.61259246 205 334 C158.14 334 111.28 334 63 334 C55.61137548 295.23156674 55.61137548 295.23156674 53.14086914 282.265625 C52.97314125 281.38534008 52.80541336 280.50505516 52.63260281 279.59809494 C46.55660974 247.70902325 40.48459167 215.81919452 34.41346836 183.9291954 C32.53044655 174.03823655 30.64725705 164.14730969 28.76361084 154.25646973 C24.85842902 133.75052063 20.95464115 113.24430812 17.05545044 92.73721886 C15.3958928 84.00928106 13.7355159 75.28150102 12.07293701 66.55413818 C10.66038747 59.13922575 9.2495427 51.72399159 7.84095532 44.30832541 C7.12436723 40.53603857 6.40697904 36.76390866 5.68739891 32.99219131 C4.90874052 28.91067469 4.13398983 24.82842603 3.35961914 20.74609375 C3.13289457 19.56100157 2.90617001 18.37590939 2.672575 17.15490532 C2.46509195 16.05763178 2.25760891 14.96035824 2.0438385 13.82983398 C1.86509217 12.89026352 1.68634584 11.95069305 1.50218296 10.98265076 C0.88870301 7.33896592 0.45830451 3.66643611 0 0 Z " fill="#FFFFFF" transform="translate(1716,188)"/>
<path d="M0 0 C29.7 0 59.4 0 90 0 C90 154.44 90 308.88 90 468 C60.96 468 31.92 468 2 468 C1.34 459.42 0.68 450.84 0 442 C-1.36125 443.60875 -2.7225 445.2175 -4.125 446.875 C-17.17842983 461.53186744 -34.9542075 470.12778478 -54 474 C-54.85223145 474.17660156 -55.70446289 474.35320312 -56.58251953 474.53515625 C-64.88630452 476.097959 -73.06655622 476.39972821 -81.5 476.375 C-82.20043427 476.37445618 -82.90086853 476.37391235 -83.62252808 476.37335205 C-110.72322597 476.27695083 -134.26364713 469.38277 -154 450 C-154.75023438 449.27425781 -155.50046875 448.54851562 -156.2734375 447.80078125 C-176.62065066 426.77532766 -184.45676147 395.85838301 -189.25 367.875 C-189.47671387 366.55580566 -189.47671387 366.55580566 -189.70800781 365.20996094 C-192.66654687 346.62392436 -193.34765509 328.11577993 -193.31567383 309.3190918 C-193.31252412 305.46699399 -193.33603608 301.615675 -193.36132812 297.76367188 C-193.48215965 250.62659847 -186.87299534 195.60326432 -154 159 C-153.37609375 158.29359375 -152.7521875 157.5871875 -152.109375 156.859375 C-137.47518575 141.24137471 -117.47875607 133.4162385 -97 129 C-95.94039062 128.76539063 -94.88078125 128.53078125 -93.7890625 128.2890625 C-67.00254987 123.33391673 -39.11355209 126.21950278 -12.828125 132.34570312 C-8.89134653 133.25649096 -4.94453978 134.1234356 -1 135 C-0.505 68.175 -0.505 68.175 0 0 Z M-79 212 C-79.61230469 212.47953125 -80.22460938 212.9590625 -80.85546875 213.453125 C-98.04561171 228.48026984 -99.99312255 259.19080849 -101.6875 280.3125 C-105.65834356 337.19969033 -105.65834356 337.19969033 -85.9453125 388.06640625 C-77.64503137 396.31668569 -68.63596283 399.26759599 -57.1875 399.4375 C-40.13350208 399.32565905 -28.00600432 391.53208309 -16 380 C-14.948125 379.02546875 -14.948125 379.02546875 -13.875 378.03125 C-6.61769344 371.11412969 0.28130364 364.33900269 0.96203613 353.9066925 C0.98507771 351.19535039 0.96599967 348.506736 0.90820312 345.7980957 C0.90594174 344.29895652 0.90722254 342.79980851 0.91174316 341.30067444 C0.91402239 337.26347157 0.86725935 333.22820141 0.8111515 329.19144464 C0.76086594 324.96083608 0.75642021 320.73017466 0.74694824 316.49931335 C0.72216317 308.50233062 0.65662429 300.50623126 0.57615232 292.5096361 C0.48648187 283.39964335 0.44268439 274.28960661 0.40258884 265.17928183 C0.31914964 246.45235525 0.17859399 227.72624885 0 209 C-4.31587459 208.29927543 -8.63285163 207.60588859 -12.95089722 206.91870117 C-14.41356637 206.68494007 -15.87594056 206.4493243 -17.33798218 206.21166992 C-49.74522535 200.38180608 -49.74522535 200.38180608 -79 212 Z " fill="#FFFFFF" transform="translate(2431,54)"/>
<path d="M0 0 C20.33977255 3.89083344 39.70776272 4.29919407 60.359375 3.75390625 C62.01919573 3.71345471 63.67902664 3.67341906 65.33886719 3.63378906 C71.90228692 3.47504756 78.4653836 3.30814875 85.02783203 3.11303711 C97.14418446 2.75480752 109.23651455 2.67087296 121.359375 2.75390625 C121.359375 16.61390625 121.359375 30.47390625 121.359375 44.75390625 C102.67195092 44.88550783 84.03370728 44.37232698 65.359375 43.75390625 C65.82770752 44.33325928 66.29604004 44.9126123 66.77856445 45.50952148 C80.51941169 62.78408602 83.59036089 82.9576928 83.609375 104.50390625 C83.61004974 105.19098663 83.61072449 105.87806702 83.61141968 106.58596802 C83.57205505 131.89963354 79.6202469 158.0483615 62.359375 177.75390625 C61.52019531 178.75164062 61.52019531 178.75164062 60.6640625 179.76953125 C42.26726192 199.9980479 10.35782606 205.81390619 -15.640625 207.75390625 C-21.56136494 208.01695017 -27.48342308 208.00268587 -33.40869141 207.9597168 C-36.03427755 207.94127524 -38.65951148 207.93920942 -41.28515625 207.93945312 C-49.78237909 207.92113885 -58.19391031 207.79803073 -66.640625 206.75390625 C-67.9139856 210.44929923 -69.17696458 214.14806953 -70.4309082 217.85009766 C-71.06645887 219.71958995 -71.70991538 221.5863886 -72.35351562 223.453125 C-76.34718345 235.27438177 -78.23991057 245.35557326 -73.140625 257.25390625 C-58.36371089 272.03082036 -23.34054894 267.00200596 -4.23144531 267.23071289 C15.3949874 267.47538401 35.16021458 267.93667733 54.421875 272.06640625 C55.46351807 272.28369385 56.50516113 272.50098145 57.57836914 272.72485352 C76.55522406 276.82903654 93.72608738 284.06066062 104.671875 300.94140625 C114.31989377 317.72818084 116.90482914 335.95347544 116.75048828 355.02050781 C116.73433099 357.38534739 116.75049186 359.74849102 116.76953125 362.11328125 C116.8035976 386.30054331 109.9894127 407.74029282 93.359375 425.75390625 C61.66904687 456.28280875 9.50798458 459.23855326 -31.76171875 458.69140625 C-64.89134938 457.95667654 -103.5532516 456.18123148 -130.640625 434.75390625 C-131.2490625 434.33109375 -131.8575 433.90828125 -132.484375 433.47265625 C-146.911962 422.71754594 -152.55164285 402.00360424 -155.19921875 385.2109375 C-157.90007897 362.17144932 -156.63210112 338.07024605 -141.90625 319.12109375 C-132.27677416 307.31701548 -120.78969567 297.83190818 -108.640625 288.75390625 C-109.20330078 288.026875 -109.20330078 288.026875 -109.77734375 287.28515625 C-111.42519109 285.12676679 -113.03871453 282.94659221 -114.640625 280.75390625 C-115.09308594 280.14160156 -115.54554688 279.52929688 -116.01171875 278.8984375 C-121.42830352 270.98448655 -124.01741528 261.25785453 -124.640625 251.75390625 C-124.70378906 251.01140625 -124.76695312 250.26890625 -124.83203125 249.50390625 C-125.73847464 231.25807807 -113.4652052 212.07136863 -104.640625 196.75390625 C-105.39085937 196.35300781 -106.14109375 195.95210937 -106.9140625 195.5390625 C-114.39610772 191.38341774 -120.58806275 186.79620992 -126.640625 180.75390625 C-127.68863281 179.72330078 -127.68863281 179.72330078 -128.7578125 178.671875 C-149.90192582 156.4993515 -152.46349125 124.05663585 -151.77685547 94.96630859 C-150.65372731 68.48222201 -143.03930689 43.41628781 -123.640625 24.75390625 C-122.91230469 24.01785156 -122.18398438 23.28179687 -121.43359375 22.5234375 C-91.38421688 -6.29943419 -38.40628938 -7.41914756 0 0 Z M-89.328125 54.31640625 C-103.23150239 71.28433318 -103.97658314 95.77540027 -102.33203125 116.67578125 C-100.38010269 132.22211493 -95.11253533 147.60235133 -82.640625 157.75390625 C-69.2403772 167.66043593 -53.99297502 168.99085268 -37.890625 169.00390625 C-36.77814392 169.00491837 -36.77814392 169.00491837 -35.64318848 169.00595093 C-15.95163105 168.97744256 4.94400565 167.61958239 20.359375 153.75390625 C35.19782602 137.55066619 35.11809314 114.45929817 34.51171875 93.84863281 C33.6899129 77.15438453 29.01732381 61.80718002 16.671875 50.06640625 C-8.98686007 28.80493086 -66.17467952 30.25300003 -89.328125 54.31640625 Z M-83.640625 315.75390625 C-85.35470834 317.27111937 -87.08428205 318.77099387 -88.828125 320.25390625 C-100.93599719 331.33536541 -106.44096278 341.34687041 -107.9296875 357.984375 C-108.35142323 373.4160687 -105.08684858 388.93419771 -94.640625 400.75390625 C-69.79200208 420.94073933 -26.67019815 418.88455183 3.046875 416.00390625 C22.84553981 413.82067591 43.80583753 409.51373926 57.234375 393.50390625 C67.27825825 379.57284704 68.19218026 362.13399537 65.86328125 345.58203125 C64.07134797 336.30852345 60.65846975 328.8192594 54.359375 321.75390625 C34.23817712 308.60240041 7.44701742 310.36195969 -15.61340332 309.7477417 C-19.74836283 309.63627001 -23.88307244 309.51595241 -28.01776886 309.39516068 C-31.38402456 309.29685799 -34.75029352 309.20127325 -38.11682129 309.11273193 C-44.34397985 308.942015 -50.55848276 308.72259149 -56.77734375 308.35449219 C-57.87880234 308.29290421 -58.98026093 308.23131622 -60.11509705 308.16786194 C-62.14990701 308.04950124 -64.18393614 307.91634514 -66.21656799 307.76512146 C-74.35086908 307.30207666 -78.36304463 309.5269739 -83.640625 315.75390625 Z " fill="#FFFFFF" transform="translate(497.640625,207.24609375)"/>
<path d="M0 0 C0.9600293 0.07919678 1.92005859 0.15839355 2.90917969 0.23999023 C14.58337262 1.29738454 26.19576808 2.8859129 37.8125 4.4375 C38.83028534 4.57319397 39.84807068 4.70888794 40.896698 4.84869385 C43.82226115 5.24056114 46.74719971 5.63672094 49.671875 6.03515625 C51.00325249 6.21479164 51.00325249 6.21479164 52.36152649 6.39805603 C53.18549423 6.51169998 54.00946198 6.62534393 54.85839844 6.74243164 C55.93562164 6.88993614 55.93562164 6.88993614 57.03460693 7.04042053 C59.08080547 7.3780202 61.05861704 7.84386154 63.0625 8.375 C63.27150322 59.55506431 63.27150322 59.55506431 62.0625 82.375 C61.21880859 82.34470703 60.37511719 82.31441406 59.50585938 82.28320312 C21.6316197 77.73611556 21.6316197 77.73611556 -11.9375 88.375 C-21.66073816 102.54314704 -19.86333556 126.33669784 -20.9375 141.375 C5.7925 141.375 32.5225 141.375 60.0625 141.375 C60.0625 166.785 60.0625 192.195 60.0625 218.375 C33.3325 218.375 6.6025 218.375 -20.9375 218.375 C-20.9375 303.185 -20.9375 387.995 -20.9375 475.375 C-50.6375 475.375 -80.3375 475.375 -110.9375 475.375 C-110.9375 390.565 -110.9375 305.755 -110.9375 218.375 C-122.8175 218.375 -134.6975 218.375 -146.9375 218.375 C-146.9375 192.965 -146.9375 167.555 -146.9375 141.375 C-135.0575 141.375 -123.1775 141.375 -110.9375 141.375 C-110.97875 137.806875 -111.02 134.23875 -111.0625 130.5625 C-111.1643547 97.14308835 -110.34241891 53.1558522 -88.9375 25.375 C-88.5353125 24.7871875 -88.133125 24.199375 -87.71875 23.59375 C-77.49606919 9.8803977 -57.97548139 3.91818833 -41.9375 1.375 C-38.56745875 0.92612297 -35.19378081 0.54127011 -31.8125 0.1875 C-31.01384521 0.10346924 -30.21519043 0.01943848 -29.39233398 -0.06713867 C-19.59223318 -0.98923136 -9.80104905 -0.81372346 0 0 Z " fill="#FFFFFF" transform="translate(1629.9375,46.625)"/>
<path d="M0 0 C31.430421 27.74164931 37.77156264 70.18608744 40.43359375 109.99243164 C43.57338085 163.98205197 41.79527909 230.74307505 4 273.5625 C-9.83050806 288.22868831 -28.44130774 296.48885759 -48 300.5625 C-49.28632324 300.83284058 -49.28632324 300.83284058 -50.59863281 301.10864258 C-61.30337666 303.05819929 -72.02861065 302.91461257 -82.875 302.875 C-83.87689362 302.87350952 -84.87878723 302.87201904 -85.91104126 302.8704834 C-107.30199289 302.81314361 -125.94596727 300.24117394 -147 295.5625 C-147 341.1025 -147 386.6425 -147 433.5625 C-163.17 433.5625 -179.34 433.5625 -196 433.5625 C-196 286.3825 -196 139.2025 -196 -12.4375 C-180.16 -12.4375 -164.32 -12.4375 -148 -12.4375 C-147.505 7.8575 -147.505 7.8575 -147 28.5625 C-142.71 23.6125 -138.42 18.6625 -134 13.5625 C-118.77025794 -0.57940334 -98.22136482 -15.60798469 -77 -18.4375 C-75.95199219 -18.59992188 -75.95199219 -18.59992188 -74.8828125 -18.765625 C-49.21247567 -22.23705845 -20.08812848 -16.99220379 0 0 Z M-132 59.5625 C-134.36234442 62.41257982 -136.59582696 65.34831412 -138.8125 68.3125 C-139.38419922 69.06660156 -139.95589844 69.82070313 -140.54492188 70.59765625 C-146.00361448 77.74955258 -146.00361448 77.74955258 -147.24050903 86.56694031 C-147.24221788 87.28412525 -147.24392673 88.00131018 -147.24568737 88.740228 C-147.24898822 91.14942927 -147.23796891 93.55835357 -147.22705078 95.9675293 C-147.2264868 97.69208774 -147.22680298 99.41664667 -147.22793579 101.14120483 C-147.2285108 105.82893608 -147.21673257 110.51656546 -147.20278788 115.20427299 C-147.19030515 120.10100526 -147.18911196 124.99773974 -147.18673706 129.89448547 C-147.18051505 139.16984998 -147.1640945 148.44516747 -147.14403808 157.72051126 C-147.12170149 168.27901906 -147.11069129 178.83752908 -147.10064721 189.39605463 C-147.07972889 211.11822935 -147.04453892 232.84036172 -147 254.5625 C-143.17296063 255.21644587 -139.34488536 255.86412461 -135.51660156 256.51074219 C-134.44117096 256.69458466 -133.36574036 256.87842712 -132.25772095 257.06784058 C-124.08516583 258.44363519 -116.02916253 259.3583288 -107.75 259.8125 C-106.57566406 259.88984375 -105.40132812 259.9671875 -104.19140625 260.046875 C-79.88160571 261.557806 -56.61589556 260.62986984 -36.828125 244.828125 C-23.49977845 232.73962464 -17.87366741 213.70239452 -14.25 196.6875 C-14.05124268 195.75631348 -13.85248535 194.82512695 -13.64770508 193.86572266 C-10.22594058 176.69676629 -9.65328371 159.74404409 -9.68432617 142.27978516 C-9.68747108 138.5963739 -9.66399434 134.91378058 -9.63867188 131.23046875 C-9.55200839 98.60098587 -10.97578889 59.97415966 -34.5859375 34.82421875 C-45.87479885 24.24776127 -59.06266078 22.80213954 -73.8984375 23.22265625 C-97.06408989 24.41794606 -116.90023228 43.35129202 -132 59.5625 Z " fill="#FFFFFF" transform="translate(1165,223.4375)"/>
<path d="M0 0 C26.91504483 25.41554971 36.44265205 63.786933 37.83984375 99.66162109 C37.95373701 103.83678676 37.98885478 108.01093548 38 112.1875 C38.00555908 113.44594727 38.01111816 114.70439453 38.0168457 116.00097656 C37.9207017 129.02725669 36.69366429 141.66986418 35.6875 154.75 C-31.3025 154.75 -98.2925 154.75 -167.3125 154.75 C-164.57030035 198.89247476 -164.57030035 198.89247476 -141.8984375 235.875 C-126.78075899 247.0092902 -108.51963091 250.89024733 -90.06640625 250.91796875 C-89.19483887 250.9221582 -88.32327148 250.92634766 -87.42529297 250.93066406 C-84.57514959 250.94046528 -81.72515758 250.94043895 -78.875 250.9375 C-77.88708466 250.93722809 -76.89916931 250.93695618 -75.88131714 250.93667603 C-41.92139419 250.89411333 -8.13313077 248.67031403 25.6875 245.75 C26.854479 266.02806907 26.854479 266.02806907 26.75 275.9375 C26.74548828 276.80568359 26.74097656 277.67386719 26.73632812 278.56835938 C26.72494371 280.62893908 26.70704127 282.6894815 26.6875 284.75 C11.17653723 288.06839074 -4.56450683 289.96671501 -20.3125 291.75 C-20.99423279 291.82839111 -21.67596558 291.90678223 -22.37835693 291.98754883 C-43.87871874 294.43886601 -65.30449942 295.056135 -86.9375 295.125 C-88.15693298 295.13285522 -89.37636597 295.14071045 -90.63275146 295.14880371 C-105.13483696 295.22165517 -119.08933001 294.71376485 -133.3125 291.75 C-134.32683609 291.53972168 -134.32683609 291.53972168 -135.36166382 291.32519531 C-157.73749402 286.58366096 -178.73433711 274.61529913 -191.6171875 255.3828125 C-203.45050807 236.93653493 -209.71942746 215.73886998 -213.5625 194.3125 C-213.71356201 193.48153809 -213.86462402 192.65057617 -214.02026367 191.79443359 C-216.86230458 174.7037172 -217.64714214 157.46018196 -217.57324219 140.16333008 C-217.56249044 137.18485236 -217.5732393 134.20697574 -217.5859375 131.22851562 C-217.59854967 114.64811322 -216.67722098 98.06741886 -213.5625 81.75 C-213.39331055 80.85249023 -213.22412109 79.95498047 -213.04980469 79.03027344 C-206.59182454 46.18978114 -193.05687375 13.95642112 -164.87109375 -5.9765625 C-147.71150819 -17.31637595 -128.81298907 -24.16198722 -108.3125 -26.25 C-107.29671875 -26.35957031 -106.2809375 -26.46914062 -105.234375 -26.58203125 C-69.28757309 -29.90224079 -27.84851903 -25.102954 0 0 Z M-146.75390625 37.46875 C-164.50040468 59.8095196 -167.3125 87.09172204 -167.3125 114.75 C-115.8325 114.75 -64.3525 114.75 -11.3125 114.75 C-11.18493084 99.23498774 -11.18493084 99.23498774 -12.5625 84 C-12.76383545 82.55306763 -12.76383545 82.55306763 -12.96923828 81.0769043 C-16.06504148 59.98212242 -22.88022646 38.48408907 -40.48046875 25.1015625 C-71.12876586 4.87471315 -122.35945949 10.30309409 -146.75390625 37.46875 Z " fill="#FFFFFF" transform="translate(247.3125,231.25)"/>
<path d="M0 0 C16.17 0 32.34 0 49 0 C50.74820351 5.24461052 52.45166369 10.39367563 53.96337891 15.69360352 C54.50421867 17.58432587 54.50421867 17.58432587 55.0559845 19.51324463 C55.44622231 20.88511899 55.83641339 22.25700665 56.2265625 23.62890625 C56.64617575 25.09890261 57.06595496 26.56885161 57.48588562 28.03875732 C58.62784162 32.03807042 59.76723004 36.03811089 60.90610123 40.03830338 C61.87825735 43.45173693 62.85188891 46.86474894 63.82550526 50.27776623 C73.69112726 84.86276272 83.51667372 119.45919101 93.33757019 154.05690956 C97.29303418 167.99138479 101.25196631 181.92487091 105.21321678 195.85770226 C106.96276382 202.01152844 108.71197856 208.1654491 110.46122837 214.31935978 C111.86411633 219.25462942 113.26722305 224.18983666 114.67080688 229.12490845 C115.97655416 233.71601406 117.28171661 238.30728553 118.58643532 242.89868355 C119.06577076 244.58508197 119.5453284 246.27141725 120.02512169 247.95768547 C120.68008864 250.25971174 121.33428103 252.56195674 121.98828125 254.86425781 C122.17924031 255.53470784 122.37019938 256.20515787 122.56694508 256.89592457 C123.42571314 259.92201692 124.23690111 262.94760442 125 266 C131.6 266.33 138.2 266.66 145 267 C145.25209229 265.63286865 145.50418457 264.2657373 145.76391602 262.85717773 C147.09282526 256.23493328 148.92921273 249.77830779 150.77734375 243.28515625 C151.17164753 241.88945527 151.56563341 240.49366445 151.95933533 239.09779358 C153.04932453 235.23733083 154.14429999 231.37829777 155.24019623 227.51950836 C156.18453855 224.19203894 157.12602322 220.86376364 158.06754684 217.53549576 C161.70226229 204.6876503 165.35064061 191.84369205 169 179 C169.6859358 176.58555162 170.37186916 174.17110254 171.05780029 171.75665283 C187.327439 114.4917564 203.6356754 57.23791311 220 0 C236.17 0 252.34 0 269 0 C268.27400023 5.08199836 267.42884625 9.43795279 266.03689575 14.31410217 C265.83681447 15.01977241 265.63673319 15.72544264 265.43058884 16.45249683 C264.76033771 18.81212757 264.0835369 21.16982751 263.40673828 23.52758789 C262.91945355 25.23784762 262.43257119 26.94822204 261.94605637 28.65870094 C260.6090251 33.35489913 259.26622431 38.0494307 257.92244482 42.7437017 C256.47433255 47.80613218 255.03146797 52.87005831 253.58792114 57.93379211 C250.75971042 67.85145938 247.92648052 77.76768621 245.09159529 87.68344742 C242.78596304 95.74855359 240.48251011 103.81427939 238.18054199 111.88043213 C237.8528855 113.02854496 237.52522901 114.17665779 237.18764353 115.35956192 C236.52207718 117.69174034 235.85651313 120.02391941 235.19095135 122.35609913 C213.36013463 198.84853707 191.46138201 275.32162675 169.53819156 351.78763664 C168.61528175 355.00678166 167.69246728 358.225954 166.76969337 361.44513798 C166.4715542 362.48522375 166.17341503 363.52530952 165.86624134 364.59691304 C165.27431637 366.66191259 164.68239711 368.72691378 164.09048378 370.79191667 C162.41732193 376.62880362 160.74343182 382.46548105 159.06894553 388.30198818 C158.0469492 391.8646855 157.02547194 395.4275314 156.00425076 398.99045098 C155.52273889 400.67029408 155.04109162 402.35009839 154.55930018 404.02986133 C152.27002168 412.01334855 149.99004917 419.99888204 147.76940918 428.00177002 C147.43889431 429.19193033 147.10837944 430.38209064 146.76784897 431.60831642 C146.17171658 433.7628167 145.57869421 435.91818111 144.98950577 438.07459068 C144.73690868 438.98975267 144.4843116 439.90491467 144.22406006 440.84780884 C144.00932919 441.63390345 143.79459831 442.41999805 143.57336044 443.22991371 C143 445 143 445 142 446 C140.4651703 446.09319449 138.92607918 446.117458 137.38842773 446.11352539 C136.40748642 446.11344986 135.4265451 446.11337433 134.4158783 446.11329651 C133.3492244 446.10813522 132.2825705 446.10297394 131.18359375 446.09765625 C129.55430687 446.09553383 129.55430687 446.09553383 127.8921051 446.09336853 C124.40720925 446.08775048 120.92237658 446.07519492 117.4375 446.0625 C115.08138113 446.05748733 112.72526126 446.05292402 110.36914062 446.04882812 C104.57940536 446.03777519 98.78970719 446.02101951 93 446 C95.42080106 435.77184944 98.36373761 425.71683281 101.33984375 415.640625 C101.867498 413.847934 102.3949646 412.05518776 102.92225647 410.26239014 C104.02943363 406.49984074 105.13821921 402.7377706 106.24829102 398.97607422 C107.63196205 394.28712186 109.01270828 389.59731547 110.39233971 384.90717316 C117.84359514 359.57903554 125.39571751 334.28266341 133 309 C117.82 309 102.64 309 87 309 C83.21268805 297.00684548 79.51973418 285.05683571 76.15625 272.94921875 C75.7101731 271.35307101 75.26378783 269.75700943 74.81712341 268.161026 C73.86874845 264.77031351 72.92223238 261.37909031 71.9772644 257.98742676 C70.46553205 252.56195646 68.94918723 247.13778202 67.43188477 241.71386719 C67.17407887 240.79225485 66.91627298 239.87064251 66.65065479 238.92110252 C66.12609013 237.04590713 65.60151102 235.17071577 65.07691765 233.29552841 C64.28199406 230.45353836 63.48746098 227.61143938 62.69300842 224.76931763 C57.69358156 206.88695237 52.65860115 189.01469679 47.61364746 171.14513016 C46.70914495 167.94109352 45.8049678 164.73696511 44.90079308 161.53283596 C42.628742 153.48137367 40.3560614 145.43008919 38.08310509 137.37888241 C30.66303941 111.09559186 23.24531398 84.81164243 15.83853245 58.5246048 C14.83323656 54.95676279 13.82779627 51.38896168 12.82189941 47.82128906 C10.72624026 40.38835897 8.63286372 32.95479413 6.54418945 25.51989746 C5.93782283 23.36282671 5.33058273 21.20600129 4.72241211 19.04943848 C3.9088485 16.163848 3.09847873 13.27738108 2.2890625 10.390625 C2.0527713 9.55523193 1.8164801 8.71983887 1.57302856 7.85913086 C0 2.22869393 0 2.22869393 0 0 Z " fill="#FFFFFF" transform="translate(645,211)"/>
<path d="M0 0 C16.17 0 32.34 0 49 0 C49 31.02 49 62.04 49 94 C80.68 94 112.36 94 145 94 C145 107.86 145 121.72 145 136 C113.32 136 81.64 136 49 136 C49.11996558 166.41313276 49.11996558 166.41313276 49.2578125 196.82617188 C49.31805293 209.2424147 49.37639702 221.65864432 49.421875 234.07495117 C49.45501697 243.12081129 49.49496715 252.16661258 49.54279006 261.21240741 C49.56783659 265.99346125 49.58967974 270.77447719 49.60334396 275.55557823 C47.20215249 319.54691844 47.20215249 319.54691844 63.125 358.25 C72.62678053 364.03369249 82.61693347 365.21380551 93.5 365.25 C94.54994141 365.25394775 95.59988281 365.25789551 96.68164062 365.26196289 C109.05253818 365.17688227 121.35065499 364.07699951 133.66601562 362.97949219 C134.47578857 362.90878006 135.28556152 362.83806793 136.11987305 362.76521301 C137.65760455 362.62994626 139.19491188 362.48974488 140.73168945 362.34403992 C142.48471335 362.18925533 144.24239594 362.08876382 146 362 C148.15213974 364.15213974 147.54599293 368.8565755 147.75390625 371.84765625 C147.81907944 372.7340831 147.88425262 373.62050995 147.95140076 374.53379822 C148.15940171 377.37640494 148.36101468 380.21942472 148.5625 383.0625 C148.70205474 384.98505652 148.84202321 386.90758305 148.98242188 388.83007812 C149.32642367 393.55305034 149.66469556 398.27640268 150 403 C142.01034799 404.94993596 134.09494367 406.58084721 125.9375 407.625 C125.04740234 407.74617188 124.15730469 407.86734375 123.24023438 407.9921875 C111.30720991 409.57294812 99.47491514 410.23790496 87.4375 410.25 C86.73645142 410.25100708 86.03540283 410.25201416 85.31311035 410.25305176 C62.7181768 410.23118362 37.96635558 407.35007159 20.765625 390.98046875 C11.08527629 380.1222015 6.63887541 366.24122012 3.75 352.25 C3.59893799 351.52627197 3.44787598 350.80254395 3.29223633 350.05688477 C0.33581482 334.40769367 -0.2972852 318.53686008 -0.22705078 302.65527344 C-0.22648457 300.81983445 -0.22680731 298.98439502 -0.22793579 297.1489563 C-0.22850212 292.23703297 -0.21686657 287.32521029 -0.20278788 282.41331005 C-0.1901584 277.25375588 -0.1891005 272.09419859 -0.18673706 266.93463135 C-0.18055778 257.1958845 -0.16419581 247.45718336 -0.14403808 237.71845651 C-0.12156752 226.61784758 -0.11065779 215.5172363 -0.10064721 204.41661024 C-0.07982582 181.61104244 -0.04319482 158.80553716 0 136 C-14.52 136 -29.04 136 -44 136 C-44 122.14 -44 108.28 -44 94 C-29.48 94 -14.96 94 0 94 C0 62.98 0 31.96 0 0 Z " fill="#FFFFFF" transform="translate(1293,117)"/>
<path d="M0 0 C1.23363281 -0.02900391 2.46726562 -0.05800781 3.73828125 -0.08789062 C14.51093477 -0.16152075 25.55119219 1.37173895 34.0390625 8.5703125 C44.62455629 19.34914864 45.18963267 33.11022217 45.16069031 47.42385864 C45.15614072 49.87128913 45.170404 52.3180235 45.18908691 54.76538086 C45.2316933 60.83014581 45.24314476 66.89488932 45.25531006 72.95977783 C45.2668483 78.11689458 45.29039364 83.27368418 45.33000183 88.43066406 C45.34352743 90.83542813 45.33941341 93.2397444 45.33459473 95.64453125 C45.3439336 97.11849538 45.35410198 98.59245457 45.36523438 100.06640625 C45.36728882 101.34845947 45.36934326 102.6305127 45.37145996 103.95141602 C45.78029085 107.58145464 46.54411013 109.43207112 48.75 112.3125 C52.03463659 114.50225773 54.95696275 115.31056563 58.75 116.3125 C58.77725341 118.0415774 58.79650987 119.77078176 58.8125 121.5 C58.82410156 122.46292969 58.83570312 123.42585937 58.84765625 124.41796875 C58.75486622 127.16826513 58.37111685 129.63729591 57.75 132.3125 C49.21106652 132.92853528 41.64619203 131.70555865 33.75 128.3125 C32.92242188 127.58546875 32.09484375 126.8584375 31.2421875 126.109375 C28.88288724 124.02148864 28.88288724 124.02148864 25.94921875 124.41015625 C22.13967786 125.48464214 18.3442443 126.58145967 14.5625 127.75 C-0.64914819 132.26727122 -19.85848047 136.43656112 -35.0234375 129.6484375 C-42.37321584 125.23857049 -48.81488877 119.26694148 -51.02490234 110.79345703 C-51.18168457 110.11911621 -51.3384668 109.44477539 -51.5 108.75 C-51.66838379 108.04472168 -51.83676758 107.33944336 -52.01025391 106.61279297 C-54.77241399 94.25723394 -53.83871789 81.87904751 -47.78515625 70.63671875 C-42.07429735 61.99050744 -33.52906251 58.36161764 -23.69140625 56.32788086 C-18.57870799 55.3201091 -13.49075744 54.71570441 -8.3046875 54.2421875 C-7.40879913 54.15623322 -6.51291077 54.07027893 -5.58987427 53.98171997 C-2.76868323 53.71214997 0.05311526 53.44969771 2.875 53.1875 C4.80473248 53.0043796 6.73442049 52.82078999 8.6640625 52.63671875 C13.35887922 52.18989489 18.05425414 51.74944669 22.75 51.3125 C22.83149592 48.29111433 22.89073421 45.27196095 22.9375 42.25 C22.96263672 41.40244141 22.98777344 40.55488281 23.01367188 39.68164062 C23.09080029 33.02288778 22.32880932 27.96294291 17.5 23 C11.20873939 19.13945371 4.99791338 18.99018746 -2.1875 19.0625 C-3.13246338 19.06636719 -4.07742676 19.07023438 -5.05102539 19.07421875 C-15.27734331 19.19485361 -25.43156901 20.10076011 -35.60131836 21.12890625 C-38.81042776 21.35134613 -42.03319061 21.3125 -45.25 21.3125 C-45.58 16.0325 -45.91 10.7525 -46.25 5.3125 C-42.60475693 4.66318164 -38.95886657 4.01795298 -35.3125 3.375 C-34.29091797 3.19259766 -33.26933594 3.01019531 -32.21679688 2.82226562 C-21.39182299 0.92011367 -11.00305356 0.08516295 0 0 Z M3.48632812 68.80175781 C1.83659027 68.97476646 0.18618112 69.14149589 -1.46484375 69.30175781 C-16.25425745 70.37476053 -16.25425745 70.37476053 -28.6875 77.6875 C-33.1511043 85.18635523 -33.55897012 93.80887563 -31.5625 102.203125 C-29.54890201 107.80763941 -27.25738948 111.07856096 -22.25 114.3125 C-14.4495624 116.84723339 -5.72727043 115.42059756 2.1875 114.0625 C2.84194092 113.95325195 3.49638184 113.84400391 4.1706543 113.73144531 C10.95641361 112.47717033 17.02566409 110.38152643 23.75 108.3125 C23.75 94.7825 23.75 81.2525 23.75 67.3125 C16.94083831 67.3125 10.24893872 68.08159065 3.48632812 68.80175781 Z " fill="#FFFFFF" transform="translate(2077.25,659.6875)"/>
<path d="M0 0 C1.02053467 0.00563965 2.04106934 0.0112793 3.0925293 0.01708984 C16.55295106 0.23403752 27.18118904 3.28694636 37.4375 12.3125 C49.42026284 25.20176026 51.27423768 42.85365206 51 59.625 C50.99484375 60.93662109 50.9896875 62.24824219 50.984375 63.59960938 C50.90501537 73.15748463 50.90501537 73.15748463 49.75 74.3125 C47.19410112 74.40756052 44.66532028 74.43806761 42.10913086 74.42602539 C40.90922264 74.42624443 40.90922264 74.42624443 39.68507385 74.4264679 C37.02830335 74.42576855 34.37160207 74.41797518 31.71484375 74.41015625 C29.87781309 74.40829215 28.04078194 74.40686821 26.20375061 74.40586853 C21.35890338 74.40204275 16.51408592 74.39221196 11.66925049 74.38116455 C6.72937422 74.37095172 1.78949315 74.36637119 -3.15039062 74.36132812 C-12.85027353 74.35058974 -22.55013429 74.3335126 -32.25 74.3125 C-31.79485193 77.35773797 -31.33296997 80.40169859 -30.8671875 83.4453125 C-30.73981201 84.30229736 -30.61243652 85.15928223 -30.48120117 86.04223633 C-28.89424321 96.33027218 -26.57711413 103.56716441 -18 110 C-10.59727353 113.53311945 -2.8118617 113.60366454 5.25 113.5 C6.30082764 113.49355469 7.35165527 113.48710938 8.43432617 113.48046875 C16.00318402 113.40660935 23.5289038 113.05663308 31.078125 112.53515625 C35.97386432 112.23828695 40.84772767 112.21720745 45.75 112.3125 C47.25156874 115.31563748 46.84281204 118.10317522 46.8125 121.4375 C46.80347656 122.71882812 46.79445313 124.00015625 46.78515625 125.3203125 C46.77355469 126.30773437 46.76195313 127.29515625 46.75 128.3125 C43.81321053 128.79638552 40.87567724 129.27467411 37.9375 129.75 C37.12345703 129.88470703 36.30941406 130.01941406 35.47070312 130.15820312 C24.24478568 131.96315456 13.17876313 132.51687526 1.8125 132.5625 C0.53181641 132.583125 -0.74886719 132.60375 -2.06835938 132.625 C-14.55015229 132.67586823 -27.72391058 130.87302786 -37.47265625 122.375 C-52.14196346 107.02021115 -53.80278005 83.26916055 -53.43359375 63.05078125 C-52.49569179 43.95350095 -49.42694506 24.79767222 -35 10.9375 C-24.77213574 2.43460774 -12.96244019 -0.07440515 0 0 Z M-25.25 28.3125 C-31.47052482 36.8476387 -32.25 48.17029283 -32.25 58.3125 C-11.46 58.3125 9.33 58.3125 30.75 58.3125 C30.75 46.75682405 30.18819281 33.83520122 22.2890625 24.60546875 C16.06195338 18.59762404 8.68236454 17.17559029 0.25 16.9375 C-10.65366427 17.27024093 -17.91872014 20.01974082 -25.25 28.3125 Z " fill="#FFFFFF" transform="translate(2469.25,659.6875)"/>
<path d="M0 0 C0.89525391 -0.020625 1.79050781 -0.04125 2.71289062 -0.0625 C13.25283791 -0.12338056 22.53457941 2.69869059 30.5 9.7421875 C43.80183238 23.64260234 42.27141772 49.5377963 42.10546875 67.45703125 C42.09984977 69.28789414 42.09559063 71.11876165 42.09260559 72.94963074 C42.08133748 77.68908912 42.05203389 82.42825648 42.01849365 87.16760254 C41.98739561 92.03552314 41.9740168 96.90349235 41.95898438 101.77148438 C41.92714007 111.26446913 41.87452804 120.75716447 41.8125 130.25 C35.2125 130.25 28.6125 130.25 21.8125 130.25 C21.782771 126.83140625 21.782771 126.83140625 21.75244141 123.34375 C21.68506324 115.75213505 21.60743568 108.16064865 21.52497292 100.56918335 C21.47535909 95.97356083 21.42903087 91.3779575 21.390625 86.78222656 C21.35332499 82.33411873 21.30685462 77.88618686 21.25443649 73.43823242 C21.23612675 71.75450781 21.22093589 70.07074584 21.20915604 68.38696289 C21.25780651 47.70868029 21.25780651 47.70868029 15.6171875 28.0703125 C14.8125 26.25 14.8125 26.25 14.8125 24.25 C14.1525 24.25 13.4925 24.25 12.8125 24.25 C12.8125 23.59 12.8125 22.93 12.8125 22.25 C-4.53132399 18.4560385 -18.23929241 18.64211556 -34.89453125 26.26171875 C-37.1875 27.25 -37.1875 27.25 -39.1875 27.25 C-39.1875 61.24 -39.1875 95.23 -39.1875 130.25 C-45.7875 130.25 -52.3875 130.25 -59.1875 130.25 C-59.1875 88.01 -59.1875 45.77 -59.1875 2.25 C-52.5875 2.25 -45.9875 2.25 -39.1875 2.25 C-38.8575 4.89 -38.5275 7.53 -38.1875 10.25 C-36.6715625 9.4146875 -36.6715625 9.4146875 -35.125 8.5625 C-31.04422443 6.514799 -26.82495528 5.00134186 -22.5 3.5625 C-21.85861084 3.34827393 -21.21722168 3.13404785 -20.55639648 2.91333008 C-13.52681288 0.62367342 -7.34888892 0.04143137 0 0 Z " fill="#FFFFFF" transform="translate(1758.1875,659.75)"/>
<path d="M0 0 C7.26 0 14.52 0 22 0 C26.06111784 14.05670788 29.93715236 28.14027643 33.6171875 42.30078125 C34.12406555 44.24380435 34.63116026 46.18677095 35.13845825 48.12968445 C36.45241952 53.16437054 37.76350128 58.1998018 39.07391357 63.2354126 C40.41987852 68.40545622 41.76866366 73.57476398 43.1171875 78.74414062 C45.74749913 88.82872266 48.37475895 98.91409689 51 109 C53.64 109 56.28 109 59 109 C61.29899633 100.53374836 63.59773312 92.0674263 65.89619446 83.6010294 C66.99410258 79.55693622 68.09211893 75.51287249 69.19036865 71.46887207 C75.34018647 48.83122162 75.34018647 48.83122162 81.453125 26.18359375 C81.69261871 25.29380325 81.93211243 24.40401276 82.17886353 23.48725891 C83.22860786 19.58639438 84.27621505 15.68498104 85.31982422 11.7824707 C85.67407548 10.46433446 86.028399 9.14621763 86.3828125 7.828125 C86.67559082 6.7340332 86.96836914 5.63994141 87.27001953 4.51269531 C88 2 88 2 89 0 C95.93 0 102.86 0 110 0 C107.20109004 11.36177596 104.22591915 22.65818194 101.11328125 33.9375 C100.64717657 35.63155415 100.18121216 37.32564689 99.71537781 39.01977539 C98.74247606 42.55647108 97.76834334 46.09282442 96.79321289 49.62890625 C95.57238529 54.05607666 94.35394263 58.4838987 93.13633919 62.91195679 C87.16401346 84.62896433 81.11852025 106.32367698 75 128 C61.8 128 48.6 128 35 128 C21.43554687 79.16796875 21.43554687 79.16796875 20.59907913 76.15665436 C20.04341317 74.15627723 19.48772621 72.15590593 18.93201828 70.15554047 C17.55340894 65.19290092 16.17515801 60.2301624 14.79766846 55.26721191 C12.4348823 46.75562447 10.07046277 38.24453428 7.69059181 29.73770523 C6.74089964 26.34278479 5.79291722 22.94738799 4.84502792 19.55196381 C4.40500528 17.97789295 3.96405412 16.40408133 3.52212906 14.83054352 C2.92117958 12.69071456 2.32328573 10.55005433 1.72607422 8.40917969 C1.3906662 7.21218445 1.05525818 6.01518921 0.70968628 4.78192139 C0 2 0 2 0 0 Z " fill="#FFFFFF" transform="translate(2289,662)"/>
<path d="M0 0 C6.93 0 13.86 0 21 0 C21 12.54 21 25.08 21 38 C33.87 38 46.74 38 60 38 C60 43.94 60 49.88 60 56 C47.13 56 34.26 56 21 56 C21.12015801 69.23936567 21.12015801 69.23936567 21.2578125 82.47851562 C21.31790575 87.88546167 21.3760366 93.29237475 21.421875 98.69946289 C21.45899892 103.06326323 21.5054288 107.42687798 21.55806351 111.79051781 C21.57646456 113.44767152 21.59162403 115.1048648 21.60334396 116.76207924 C20.99715372 131.86510681 20.99715372 131.86510681 25.8125 145.5625 C35.52392782 151.94429542 49.01003481 149.02232234 60 148 C61.52106634 151.04213267 61.37429338 154.28047572 61.5625 157.625 C61.60568359 158.33140625 61.64886719 159.0378125 61.69335938 159.765625 C61.79944751 161.51018537 61.90022889 163.25506697 62 165 C54.10433271 168.58893968 45.76612623 168.23975405 37.25 168.3125 C36.13367187 168.34150391 35.01734375 168.37050781 33.8671875 168.40039062 C25.02322987 168.4673903 17.83962641 166.73544101 10.125 162.375 C-1.90777428 148.92660521 -0.15530585 128.65742953 -0.09765625 111.859375 C-0.09578657 110.23984827 -0.09436527 108.62032096 -0.09336853 107.00079346 C-0.08958663 102.77917871 -0.07979434 98.55759945 -0.06866455 94.33599854 C-0.05835636 90.01176432 -0.05385094 85.68752426 -0.04882812 81.36328125 C-0.03816731 72.90883622 -0.02060663 64.45442664 0 56 C-5.61 56 -11.22 56 -17 56 C-17 50.06 -17 44.12 -17 38 C-11.39 38 -5.78 38 0 38 C0 25.46 0 12.92 0 0 Z " fill="#FFFFFF" transform="translate(2164,624)"/>
<path d="M0 0 C6.93 0 13.86 0 21 0 C21 12.54 21 25.08 21 38 C33.87 38 46.74 38 60 38 C60 43.94 60 49.88 60 56 C47.13 56 34.26 56 21 56 C21.12016532 69.06163265 21.12016532 69.06163265 21.2578125 82.12304688 C21.31790099 87.45756406 21.37603064 92.79204789 21.421875 98.12670898 C21.45900451 102.43215608 21.50543572 106.73741527 21.55806351 111.04269981 C21.57646165 112.67752441 21.59162214 114.31238906 21.60334396 115.94727516 C21.20686564 131.53697536 21.20686564 131.53697536 26 146 C34.9894536 151.72056138 47.46999761 149.10606778 57.55078125 148.12109375 C58.35902344 148.08113281 59.16726563 148.04117188 60 148 C62.11925604 150.11925604 61.41831017 154.6196093 61.5625 157.5625 C61.60568359 158.36880859 61.64886719 159.17511719 61.69335938 160.00585938 C61.79975262 162.00368805 61.90040888 164.0018207 62 166 C53.59763383 167.64618559 45.49397098 168.36487999 36.9375 168.375 C35.84373047 168.39949219 34.74996094 168.42398438 33.62304688 168.44921875 C24.90464226 168.48033739 17.7280167 166.67235726 10.125 162.375 C-2.58068145 148.1745325 -0.16448681 125.37968825 -0.09765625 107.5625 C-0.09578392 106.0607915 -0.09436389 104.55908238 -0.09336853 103.05737305 C-0.08960737 99.16461405 -0.0798344 95.27189424 -0.06866455 91.37915039 C-0.05831019 87.38298065 -0.05384133 83.38680438 -0.04882812 79.390625 C-0.0382042 71.59373033 -0.02066197 63.79687572 0 56 C-5.61 56 -11.22 56 -17 56 C-17 50.06 -17 44.12 -17 38 C-11.39 38 -5.78 38 0 38 C0 25.46 0 12.92 0 0 Z " fill="#FFFFFF" transform="translate(1895,624)"/>
<path d="M0 0 C6.6 0 13.2 0 20 0 C20 42.24 20 84.48 20 128 C13.4 128 6.8 128 0 128 C0 85.76 0 43.52 0 0 Z " fill="#FFFFFF" transform="translate(2246,662)"/>
<path d="M0 0 C6.6 0 13.2 0 20 0 C20 42.24 20 84.48 20 128 C13.4 128 6.8 128 0 128 C0 85.76 0 43.52 0 0 Z " fill="#FFFFFF" transform="translate(1977,662)"/>
<path d="M0 0 C6.6 0 13.2 0 20 0 C20 42.24 20 84.48 20 128 C13.4 128 6.8 128 0 128 C0 85.76 0 43.52 0 0 Z " fill="#FFFFFF" transform="translate(1834,662)"/>
<path d="M0 0 C6.6 0 13.2 0 20 0 C20 42.24 20 84.48 20 128 C13.4 128 6.8 128 0 128 C0 85.76 0 43.52 0 0 Z " fill="#FFFFFF" transform="translate(1644,662)"/>
<path d="M0 0 C6.6 0 13.2 0 20 0 C20 7.59 20 15.18 20 23 C13.4 23 6.8 23 0 23 C0 15.41 0 7.82 0 0 Z " fill="#FFFFFF" transform="translate(2246,612)"/>
<path d="M0 0 C6.6 0 13.2 0 20 0 C20 7.59 20 15.18 20 23 C13.4 23 6.8 23 0 23 C0 15.41 0 7.82 0 0 Z " fill="#FFFFFF" transform="translate(1977,612)"/>
<path d="M0 0 C6.6 0 13.2 0 20 0 C20 7.59 20 15.18 20 23 C13.4 23 6.8 23 0 23 C0 15.41 0 7.82 0 0 Z " fill="#FFFFFF" transform="translate(1834,612)"/>
<path d="M0 0 C6.6 0 13.2 0 20 0 C20 7.59 20 15.18 20 23 C13.4 23 6.8 23 0 23 C0 15.41 0 7.82 0 0 Z " fill="#FFFFFF" transform="translate(1644,612)"/>
</svg>
