<svg width="852" height="214" viewBox="0 0 852 214" fill="none" xmlns="http://www.w3.org/2000/svg">
<path d="M63.25 30.875C64.5133 30.8931 65.7765 30.9111 67.0781 30.9297C68.0423 30.9529 69.0065 30.9761 70 31C75.1922 41.0266 79.7619 51.2964 84.3125 61.625C85.4025 64.092 86.4933 66.5585 87.5845 69.025C88.2576 70.5471 88.9298 72.0696 89.6011 73.5924C91.2413 77.3238 91.2413 77.3238 93 81C97.3625 71.6714 101.204 62.1655 104.982 52.5879C110.89 37.8554 110.89 37.8554 118 33C123 31 123 31 140 31C140 60.04 140 89.08 140 119C134.39 119 128.78 119 123 119C122.67 100.85 122.34 82.7 122 64C113.458 82.3441 113.458 82.3441 105.812 101C105.433 101.989 105.053 102.977 104.662 103.996C103.768 106.328 102.883 108.664 102 111C96.72 111 91.44 111 86 111C84.5131 107.796 84.5131 107.796 82.9961 104.527C79.1016 96.165 75.091 87.8609 71.0625 79.5625C68.7319 74.7569 66.4012 69.9513 64 65C63.67 82.82 63.34 100.64 63 119C56.73 119 50.46 119 44 119C43.9319 110.211 43.877 101.422 43.8445 92.6323C43.829 88.5499 43.8079 84.4676 43.7737 80.3853C43.7408 76.4365 43.7231 72.488 43.7154 68.5391C43.7099 67.0418 43.6991 65.5445 43.6828 64.0473C43.4576 42.5415 43.4576 42.5415 49.4375 34.875C54.2579 31.3479 57.1845 30.7627 63.25 30.875Z" fill="white"/>
<path d="M531 39C533.425 40.178 535.687 41.3846 538 42.75C538.681 43.1427 539.362 43.5354 540.063 43.94C542.382 45.2827 544.691 46.6406 547 48C547.858 48.5018 548.716 49.0036 549.601 49.5205C555.169 52.7764 560.721 56.0596 566.259 59.3657C568.068 60.4441 569.878 61.5193 571.69 62.5913C574.194 64.0736 576.692 65.5664 579.188 67.0625C579.936 67.5032 580.684 67.9439 581.455 68.398C587.969 72.3354 587.969 72.3354 590 76C590.548 79.6799 590.432 81.3553 588.347 84.4685C585.749 87.271 583.368 88.7653 580.004 90.5664C579.422 90.8822 578.841 91.198 578.242 91.5234C576.354 92.5462 574.458 93.5542 572.562 94.5625C570.593 95.6254 568.626 96.6921 566.659 97.7591C565.339 98.4747 564.018 99.1891 562.697 99.9023C555.96 103.544 549.323 107.351 542.699 111.194C529.219 118.977 529.219 118.977 524.75 119.063C521.003 117.615 519.87 116.596 518 113C517.841 110.289 517.841 110.289 517.898 107.305C517.913 106.312 517.928 105.319 517.943 104.296C517.971 103.16 517.971 103.16 518 102C514.27 104.103 510.541 106.208 506.812 108.313C505.757 108.907 504.702 109.502 503.615 110.115C502.083 110.981 502.083 110.981 500.52 111.863C499.582 112.392 498.645 112.921 497.679 113.466C495.865 114.505 494.067 115.574 492.286 116.669C488.589 118.821 486.233 118.47 482 118C479.107 115.863 478.122 114.652 477.454 111.088C477.433 109.955 477.412 108.823 477.391 107.656C477.342 105.717 477.342 105.717 477.292 103.739C477.277 102.326 477.263 100.913 477.25 99.5C477.224 98.0426 477.197 96.5853 477.169 95.128C477.1 91.2341 477.06 87.3404 477.025 83.4461C477 80.9645 476.962 78.4833 476.922 76.002C476.855 71.8807 476.806 67.7596 476.772 63.638C476.757 62.0525 476.739 60.467 476.715 58.8816C476.686 56.6553 476.676 54.4297 476.672 52.2032C476.663 50.9312 476.653 49.6592 476.644 48.3487C477.028 44.7416 477.821 42.8681 480 40C483.084 38.4582 485.587 38.7624 489 39C492.226 40.3452 492.226 40.3452 495.484 42.211C496.067 42.5392 496.649 42.8674 497.249 43.2055C499.091 44.2482 500.92 45.3112 502.75 46.375C503.993 47.0821 505.236 47.7878 506.48 48.4922C515.019 53.3457 515.019 53.3457 519 56C518.954 55.108 518.907 54.216 518.859 53.2969C518.805 51.5412 518.805 51.5412 518.75 49.75C518.704 48.5899 518.657 47.4297 518.609 46.2344C519 43 519 43 520.891 40.6407C524.667 37.7031 526.351 37.8816 531 39ZM524 43C524.33 43.66 524.66 44.32 525 45C525.33 44.34 525.66 43.68 526 43C525.34 43 524.68 43 524 43ZM529 43C528.01 44.485 528.01 44.485 527 46C527.99 45.67 528.98 45.34 530 45C529.67 44.34 529.34 43.68 529 43ZM526 48C525.34 48.66 524.68 49.32 524 50C524.33 50.99 524.66 51.98 525 53C526.542 51.6252 526.542 51.6252 528 50C528 49.34 528 48.68 528 48C527.34 48 526.68 48 526 48ZM535 49C536.249 52.4593 537.675 55.147 540 58C542.016 57.2844 542.016 57.2844 544 56C544.805 53.95 544.805 53.95 545 52C540.188 49.7096 540.188 49.7096 535 49ZM532 51C531.34 54.96 530.68 58.92 530 63C533.465 62.505 533.465 62.505 537 62C537.959 59.8049 537.959 59.8049 538 57C536.571 54.6443 534.949 52.9958 533 51C532.67 51 532.34 51 532 51ZM528 52C526.309 53.9796 524.642 55.9795 523 58C523.99 58.99 524.98 59.98 526 61C526.66 60.67 527.32 60.34 528 60C528.465 58.1047 528.465 58.1047 528.625 55.9375C528.749 54.6382 528.873 53.3388 529 52C528.67 52 528.34 52 528 52ZM548 54C545.412 57.0558 545.412 57.0558 545 61C549.62 61 554.24 61 559 61C555.196 57.9569 552.302 56.0012 548 54ZM534 64C534.33 64.66 534.66 65.32 535 66C535.99 65.67 536.98 65.34 538 65C536.68 64.67 535.36 64.34 534 64ZM546 64C548.611 68.5699 550.7 72.1104 554 76C557.227 75.6824 558.678 75.318 561.02 73.0039C561.611 72.1983 562.203 71.3926 562.812 70.5625C563.417 69.7594 564.022 68.9564 564.645 68.1289C566.179 66.1395 566.179 66.1395 566 64C559.4 64 552.8 64 546 64ZM540 66C540 66.99 540 67.98 540 69C542.321 70.8261 542.321 70.8261 545 72C545.66 71.67 546.32 71.34 547 71C545.201 68.4391 545.201 68.4391 543 66C542.01 66 541.02 66 540 66ZM568 67C566.181 69.2106 566.181 69.2106 564.375 71.9375C563.743 72.8541 563.112 73.7706 562.461 74.7149C560.91 76.6884 560.91 76.6884 561 78C562.792 78.027 564.583 78.0464 566.375 78.0625C567.872 78.0799 567.872 78.0799 569.398 78.0977C571.984 78.1801 571.984 78.1801 574 77C572.891 73.5133 571.737 70.2252 570 67C569.34 67 568.68 67 568 67ZM574 70C574.66 71.65 575.32 73.3 576 75C576.99 74.67 577.98 74.34 579 74C578.67 73.01 578.34 72.02 578 71C575.985 70.2668 575.985 70.2668 574 70ZM547 72C547.66 74.64 548.32 77.28 549 80C549.99 80 550.98 80 552 80C550.814 76.625 549.724 74.3528 547 72ZM583 76C582.34 76.66 581.68 77.32 581 78C583.475 78.495 583.475 78.495 586 79C585.67 78.01 585.34 77.02 585 76C584.34 76 583.68 76 583 76ZM565.812 79.5C564.461 79.6392 564.461 79.6392 563.082 79.7813C562.395 79.8535 561.708 79.9257 561 80C559.949 82.1406 559.949 82.1406 560 85C561.739 87.5901 563.804 89.7913 566 92C569.679 88.7154 571.752 85.3364 574 81C574 80.34 574 79.68 574 79C571.22 79 568.575 79.213 565.812 79.5ZM577 81C575.02 83.97 575.02 83.97 573 87C573.33 87.66 573.66 88.32 574 89C575.98 87.68 577.96 86.36 580 85C579.01 83.68 578.02 82.36 577 81ZM580 81C580.99 81.99 581.98 82.98 583 84C583.33 83.01 583.66 82.02 584 81C582.68 81 581.36 81 580 81ZM543 86C541.029 87.3824 539.018 88.6862 537 90C540.203 92.8338 542.781 93.5206 547 94C548.005 92.3783 549.004 90.7526 550 89.125C550.557 88.2201 551.114 87.3152 551.688 86.3828C553.161 84.1615 553.161 84.1615 553 82C548.234 81.4553 546.518 82.9106 543 86ZM555 85C553.35 88.3 551.7 91.6 550 95C557.061 95.1429 557.061 95.1429 564 94C563.072 92.6811 562.132 91.37 561.188 90.0625C560.665 89.3316 560.143 88.6007 559.605 87.8477C558.041 85.7312 558.041 85.7312 555 85ZM529.062 93.8125C527.547 94.8953 527.547 94.8953 526 96C526 96.66 526 97.32 526 98C530.62 97.67 535.24 97.34 540 97C540 96.34 540 95.68 540 95C534.615 91.86 534.615 91.86 529.062 93.8125ZM550 98C549.34 99.65 548.68 101.3 548 103C550.64 101.68 553.28 100.36 556 99C556 98.67 556 98.34 556 98C554.02 98 552.04 98 550 98ZM531 99C531 99.66 531 100.32 531 101C532.748 101.506 534.499 102.005 536.25 102.5C537.225 102.778 538.199 103.057 539.203 103.344C542.17 104.152 542.17 104.152 546 104C546.216 101.788 546.216 101.788 544.188 99.875C540.448 96.67 535.623 98.3937 531 99ZM525 102C525.33 104.31 525.66 106.62 526 109C528.874 110.437 530.859 109.712 534 109.188C535.072 109.016 536.145 108.845 537.25 108.668C540.125 108.222 540.125 108.222 542 106C533.585 104.02 533.585 104.02 525 102ZM522 105C522.66 105.66 523.32 106.32 524 107C524 106.34 524 105.68 524 105C523.34 105 522.68 105 522 105ZM528 111C528 111.99 528 112.98 528 114C529.65 113.34 531.3 112.68 533 112C533 111.67 533 111.34 533 111C531.35 111 529.7 111 528 111Z" fill="white"/>
<path d="M765 29C777.556 29 777.556 29 781 32C783.266 35.399 783.237 36.5632 783.195 40.543C783.189 41.6161 783.182 42.6893 783.176 43.7949C783.159 44.9145 783.142 46.034 783.125 47.1875C783.116 48.3187 783.107 49.4498 783.098 50.6152C783.074 53.4104 783.041 56.2051 783 59C784.231 58.6777 785.462 58.3555 786.73 58.0234C795.537 55.8349 802.847 56.8559 811 61C817.478 65.4066 820.336 71.4977 822 79C822.632 85.8727 822.379 92.7964 822.25 99.6875C822.23 101.564 822.212 103.441 822.195 105.318C822.155 109.88 822.077 114.438 822 119C815.73 119 809.46 119 803 119C802.939 116.052 802.879 113.104 802.816 110.066C802.755 107.224 802.691 104.381 802.628 101.538C802.584 99.5561 802.543 97.5743 802.503 95.5925C802.445 92.7504 802.381 89.9084 802.316 87.0664C802.3 86.1747 802.283 85.2831 802.266 84.3644C802.563 80.3605 802.563 80.3605 801 77C799.068 76.8217 797.127 76.7321 795.188 76.6875C794.129 76.6501 793.071 76.6127 791.98 76.5742C788.317 77.0975 787.233 78.1111 785 81C783.755 84.7342 783.768 88.2737 783.684 92.168C783.663 92.9628 783.642 93.7576 783.621 94.5765C783.555 97.1134 783.496 99.6504 783.438 102.188C783.394 103.908 783.351 105.629 783.307 107.35C783.199 111.566 783.1 115.783 783 120C777.06 120 771.12 120 765 120C765 89.97 765 59.94 765 29Z" fill="white"/>
<path d="M217 29C229.556 29 229.556 29 233 32C235.234 35.3512 235.238 36.4178 235.195 40.3242C235.189 41.3522 235.182 42.3803 235.176 43.4395C235.159 44.5113 235.142 45.5832 235.125 46.6875C235.116 47.771 235.107 48.8544 235.098 49.9707C235.074 52.6474 235.041 55.3236 235 58C235.873 57.8414 236.745 57.6829 237.645 57.5195C246.884 56.089 255.697 56.3135 264 61C268.919 65.2376 272.471 69.9778 273.335 76.5452C273.373 77.4391 273.41 78.3329 273.449 79.2539C273.493 80.2646 273.537 81.2753 273.582 82.3167C273.617 83.3878 273.652 84.4589 273.688 85.5625C273.728 86.6626 273.769 87.7628 273.81 88.8962C274.12 98.9947 273.672 108.921 273 119C267.06 119 261.12 119 255 119C254.963 116.064 254.925 113.127 254.887 110.102C254.841 107.265 254.789 104.429 254.738 101.593C254.704 99.6179 254.676 97.643 254.654 95.668C254.62 92.8329 254.568 89.9987 254.512 87.1641C254.505 86.2776 254.499 85.3911 254.492 84.4777C254.473 83.657 254.453 82.8363 254.432 81.9907C254.416 80.9048 254.416 80.9048 254.399 79.797C254.125 77.5835 254.125 77.5835 251 76C246.276 75.6952 242.149 75.4373 238 78C235.69 82.2967 235.658 86.5963 235.586 91.3633C235.567 92.1553 235.547 92.9472 235.527 93.7632C235.468 96.2795 235.421 98.7959 235.375 101.312C235.337 103.024 235.298 104.736 235.258 106.447C235.16 110.631 235.081 114.815 235 119C229.06 119 223.12 119 217 119C217 89.3 217 59.6 217 29Z" fill="white"/>
<path d="M318 59C323.94 59 329.88 59 336 59C336.015 60.337 336.029 61.674 336.044 63.0515C336.102 68.0184 336.179 72.9849 336.262 77.9514C336.296 80.0998 336.324 82.2482 336.346 84.3967C336.38 87.4875 336.432 90.5775 336.488 93.668C336.495 94.6265 336.501 95.585 336.508 96.5726C336.616 101.487 336.723 105.059 340 109C342.566 110.808 342.566 110.808 345 112C344.937 114.312 344.937 114.312 344 117C339.586 119.702 336.253 120.553 331 119.66C327.438 118.484 324.895 116.352 322 114C321.443 114.289 320.886 114.577 320.312 114.875C312.053 118.893 302.857 119.608 293.941 117.16C287.135 114.083 283.004 109.319 279.891 102.609C277.033 94.2369 277.215 84.8836 281.004 76.8789C285.134 69.6676 290.563 64.7959 298.598 62.4609C304.354 61.3565 310.327 61.4871 316 63C316.66 61.68 317.32 60.36 318 59ZM298 83C295.427 85.8941 295.043 87.6546 294.562 91.5C295.08 95.6386 295.992 97.1545 299 100C302.327 102.186 304.763 102.085 308.562 101.438C311.617 100.624 313.009 99.9928 315.5 97.9375C317.478 94.0635 318.234 90.3548 318 86C317.278 83.7898 317.278 83.7898 316 82C309.463 79.158 304.159 79.7438 298 83Z" fill="white"/>
<path d="M185 59C190.94 59 196.88 59 203 59C203.015 60.337 203.029 61.674 203.044 63.0515C203.102 68.0184 203.179 72.9849 203.262 77.9514C203.296 80.0998 203.324 82.2482 203.346 84.3967C203.38 87.4875 203.432 90.5775 203.488 93.668C203.495 94.6265 203.501 95.585 203.508 96.5726C203.616 101.487 203.723 105.059 207 109C209.566 110.808 209.566 110.808 212 112C211.937 114.312 211.937 114.312 211 117C206.586 119.702 203.253 120.553 198 119.66C194.438 118.484 191.895 116.352 189 114C188.443 114.289 187.886 114.577 187.312 114.875C179.053 118.893 169.857 119.608 160.941 117.16C154.135 114.083 150.004 109.319 146.891 102.609C144.033 94.2369 144.215 84.8836 148.004 76.8789C152.134 69.6676 157.563 64.7959 165.598 62.4609C171.354 61.3565 177.327 61.4871 183 63C183.66 61.68 184.32 60.36 185 59ZM165 83C162.427 85.8941 162.043 87.6546 161.562 91.5C162.08 95.6386 162.992 97.1545 166 100C169.327 102.186 171.763 102.085 175.562 101.438C178.617 100.624 180.009 99.9928 182.5 97.9375C184.478 94.0635 185.234 90.3548 185 86C184.278 83.7898 184.278 83.7898 183 82C176.463 79.158 171.159 79.7438 165 83Z" fill="white"/>
<path d="M693 58C698.154 62.8387 699.772 69.069 700 76C699.353 81.1851 698.085 85.4993 694.063 89C687.03 93.5926 680.885 94.1596 672.625 94.0625C671.889 94.058 671.153 94.0535 670.395 94.0488C668.596 94.0372 666.798 94.0192 665 94C666.226 97.9604 666.226 97.9604 669.5 100.25C670.325 100.498 671.15 100.745 672 101C672.66 101.33 673.32 101.66 674 102C679.61 102.512 684.448 102.763 689.563 100.25C691.701 98.276 693.429 96.4436 695 94C696.875 94.3125 696.875 94.3125 699 95C701.715 99.0725 701.751 102.218 701 107C698.717 112.584 695.378 116.204 690 119C680.868 122.513 671.943 121.593 663 118C654.893 113.708 649.434 106.794 646.66 98.1133C644.229 86.6494 645.676 74.8939 651.32 64.5899C655.545 58.4151 661.104 54.5815 668.313 52.625C677.369 51.0194 685.647 52.3188 693 58ZM668 71C665.393 74.389 665 75.6274 665 80C667.438 80.081 669.874 80.1405 672.313 80.1875C673.003 80.2127 673.693 80.2378 674.404 80.2637C678.421 80.3427 678.421 80.3427 681.953 78.6445C683.476 76.2516 683.485 74.7739 683 72C678.209 67.0318 673.532 67.392 668 71Z" fill="white"/>
<path d="M436 59C441.94 59 447.88 59 454 59C454.056 63.426 454.056 63.426 454.113 67.9414C454.16 70.8143 454.211 73.687 454.262 76.5598C454.296 78.549 454.324 80.5383 454.346 82.5276C454.38 85.3951 454.432 88.2618 454.488 91.1289C454.495 92.0115 454.501 92.894 454.508 93.8034C454.645 99.6331 455.19 105.272 459.605 109.559C460.389 109.994 460.389 109.994 461.188 110.438C462.116 110.953 463.044 111.469 464 112C463.431 115.298 462.579 116.867 460 119C455.252 120.564 451.15 120.427 446.688 118.188C444.756 117.066 442.849 115.908 440.941 114.746C440.301 114.5 439.66 114.254 439 114C437.639 114.928 437.639 114.928 436.25 115.875C430.316 119.63 422.703 118.76 416 118C407.86 115.579 403.395 111.191 399.25 103.938C395.855 95.9602 395.948 87.2568 398.75 79.125C401.823 71.6137 405.87 67.693 413 64C420.516 61.0769 428.524 60.8523 436 64C436 62.35 436 60.7 436 59ZM415.625 84.25C413.785 87.363 413.075 89.3823 413 93C414.618 96.6629 416.52 99.0115 420 101C423.874 102.205 425.77 102.07 429.688 100.875C433.378 98.7863 434.567 97.9606 436 94C436.846 87.8108 436.846 87.8108 434.711 82.2461C429.018 78.0996 420.45 79.6793 415.625 84.25Z" fill="white"/>
<path d="M581 30C605.42 30 629.84 30 655 30C656.163 40.4651 656.163 40.4651 653 46C645.768 50.8216 635.692 48 627 48C627 71.43 627 94.86 627 119C621.06 119 615.12 119 609 119C609 95.57 609 72.14 609 48C601.74 48 594.48 48 587 48C582 44 582 44 581 41C581 37.37 581 33.74 581 30Z" fill="white"/>
<path d="M753.875 55.875C758.139 60.1395 759.791 63.9298 760 70C758.875 73.8125 758.875 73.8125 757 77C754.312 78.4375 754.312 78.4375 752 79C751.402 78.0512 750.804 77.1025 750.187 76.125C747.846 72.7795 746.301 71.3716 742.375 70.25C736.458 69.8117 731.728 70.6032 727.062 74.375C723.655 78.7117 722.581 81.2793 722.75 86.9765C723.308 91.4918 725.223 94.2816 728.5 97.3125C733.591 100.749 739.046 100.645 745 100C748.457 97.9543 749.779 96.3322 752 93C754.312 93.125 754.312 93.125 757 94C759.547 97.4812 760 99.6156 760 103.937C759.037 109.239 756.495 112.814 752.488 116.324C745.834 120.586 736.588 120.035 729 119C721.051 116.72 714.741 111.55 710.496 104.504C705.461 94.8506 704.295 84.3886 707.125 73.75C710.066 65.323 715.044 58.2722 723 54C733.693 49.8788 744.027 49.4523 753.875 55.875Z" fill="white"/>
<path d="M350 57C355.94 57 361.88 57 368 57C368.33 58.65 368.66 60.3 369 62C369.499 61.7113 369.998 61.4225 370.512 61.125C377.229 57.6518 383.516 56.8972 391 58C394.863 59.5038 397.821 61.3064 400.207 64.7344C401.301 67.8614 401.126 70.716 401 74C399.721 74.0258 398.442 74.0516 397.125 74.0781C395.417 74.1344 393.708 74.1918 392 74.25C391.161 74.2642 390.322 74.2784 389.457 74.293C383.647 74.5182 378.773 75.5101 374 79C369.902 84.1996 368.875 89.3898 368.684 95.8555C368.663 96.5171 368.642 97.1787 368.621 97.8604C368.555 99.9693 368.496 102.078 368.438 104.188C368.394 105.619 368.351 107.051 368.307 108.482C368.199 111.988 368.1 115.494 368 119C362.06 119 356.12 119 350 119C350 98.54 350 78.08 350 57Z" fill="white"/>
<path d="M663 155C664.32 155 665.64 155 667 155C667 162.92 667 170.84 667 179C668.32 179 669.64 179 671 179C670.917 178.072 670.835 177.144 670.75 176.188C671 173 671 173 672.437 171.125C676.251 169.451 679.896 169.763 684 170C683.34 169.01 682.68 168.02 682 167C679.084 166.75 679.084 166.75 676 167C674.68 167 673.36 167 672 167C672 166.01 672 165.02 672 164C675.252 161.832 678.22 161.701 682 161.539C685.115 162.257 686.147 163.398 688 166C688.618 168.912 688.696 171.78 688.75 174.75C688.78 175.543 688.809 176.336 688.84 177.152C688.91 179.101 688.957 181.051 689 183C688.216 182.814 687.432 182.629 686.625 182.438C684.029 181.74 684.029 181.74 682 183C679.324 183.042 676.673 183.048 674 183C671.791 183 669.583 183.024 667.375 183.062C664 183 664 183 663 182C662.912 180 662.893 177.998 662.902 175.996C662.905 174.781 662.909 173.566 662.912 172.314C662.92 171.035 662.929 169.756 662.937 168.438C662.942 167.154 662.946 165.871 662.951 164.549C662.963 161.366 662.979 158.183 663 155ZM675 175C675.33 176.32 675.66 177.64 676 179C677.792 179.783 677.792 179.783 680 180C682.307 178.853 682.307 178.853 684 177C684 176.01 684 175.02 684 174C679.259 172.813 679.259 172.813 675 175Z" fill="white"/>
<path d="M458 162C458.99 162 459.98 162 461 162C462.32 162 463.64 162 465 162C465.116 165.729 465.187 169.457 465.25 173.188C465.3 174.77 465.3 174.77 465.352 176.385C465.451 184.243 465.451 184.243 463.109 188.176C459.522 191.279 456.873 191.323 452.266 191.301C448.997 190.867 447.25 189.322 445 187C445.495 185.515 445.495 185.515 446 184C449.875 184.875 449.875 184.875 451 186C453.333 186.041 455.667 186.042 458 186C458.66 184.68 459.32 183.36 460 182C459.34 182.33 458.68 182.66 458 183C453.819 183.394 451.691 183.45 448.125 181.125C445.262 178.262 444.813 176.633 444.688 172.688C444.716 169.165 444.933 168.106 446.875 165C450.548 161.543 453.049 161.913 458 162ZM451.312 167.125C449.463 169.767 449.131 171.793 449 175C449.902 177.481 449.902 177.481 452 179C455 179.667 455 179.667 458 179C460.315 176.916 460.903 175.556 461.438 172.5C460.853 169.163 459.683 168.012 457 166C453.217 165.63 453.217 165.63 451.312 167.125Z" fill="white"/>
<path d="M164 162C166.475 162.495 166.475 162.495 169 163C169.66 162.67 170.32 162.34 171 162C177.471 161.647 177.471 161.647 181 164C181.99 163.34 182.98 162.68 184 162C187.5 161.625 187.5 161.625 191 162C193.061 163.783 193.903 165.204 194.234 167.922C194.296 170.206 194.261 172.467 194.188 174.75C194.167 175.939 194.167 175.939 194.146 177.152C194.111 179.102 194.057 181.051 194 183C192.68 183 191.36 183 190 183C189.939 182.013 189.879 181.025 189.816 180.008C189.691 178.086 189.691 178.086 189.562 176.125C189.441 174.211 189.441 174.211 189.316 172.258C189.208 169.117 189.208 169.117 188 167C186.35 167 184.7 167 183 167C182.34 172.28 181.68 177.56 181 183C179.68 183 178.36 183 177 183C176.67 178.05 176.34 173.1 176 168C174.68 167.67 173.36 167.34 172 167C169.142 169.858 169.592 172.147 169.375 176.125C169.263 178.047 169.263 178.047 169.148 180.008C169.099 180.995 169.05 181.983 169 183C167.35 183 165.7 183 164 183C164 176.07 164 169.14 164 162Z" fill="white"/>
<path d="M750 162C752.475 162.495 752.475 162.495 755 163C755.66 162.67 756.32 162.34 757 162C763.471 161.647 763.471 161.647 767 164C767.99 163.34 768.98 162.68 770 162C773.5 161.625 773.5 161.625 777 162C779.061 163.783 779.903 165.204 780.234 167.922C780.296 170.206 780.261 172.467 780.188 174.75C780.167 175.939 780.167 175.939 780.146 177.152C780.111 179.102 780.057 181.051 780 183C778.68 183 777.36 183 776 183C775.939 182.013 775.879 181.025 775.816 180.008C775.691 178.086 775.691 178.086 775.562 176.125C775.441 174.211 775.441 174.211 775.316 172.258C775.208 169.117 775.208 169.117 774 167C771.527 167.344 771.527 167.344 769 168C767.584 170.833 767.654 173.475 767.438 176.625C767.354 177.814 767.27 179.002 767.184 180.227C767.093 181.599 767.093 181.599 767 183C765.68 183 764.36 183 763 183C762.67 178.05 762.34 173.1 762 168C760.68 167.67 759.36 167.34 758 167C754.987 170.329 754.553 172.819 754.312 177.25C754.247 178.328 754.181 179.405 754.113 180.516C754.076 181.335 754.039 182.155 754 183C752.68 183 751.36 183 750 183C750 176.07 750 169.14 750 162Z" fill="white"/>
<path d="M641 155C655.069 155 655.069 155 659 158C660.821 160.929 661.016 162.618 660.875 166.062C659.788 169.711 659.268 170.977 656 173C652.309 173.33 648.695 173.229 645 173C645 176.3 645 179.6 645 183C643.68 183 642.36 183 641 183C641 173.76 641 164.52 641 155ZM645 159C645 162.3 645 165.6 645 169C649.509 169.18 649.509 169.18 654 169C656.219 167.175 656.219 167.175 656.375 164.562C656.224 161.932 656.224 161.932 654.438 160.188C651.196 158.608 648.557 158.795 645 159Z" fill="white"/>
<path d="M351 155C352.65 155 354.3 155 356 155C356.33 157.64 356.66 160.28 357 163C357.66 162.67 358.32 162.34 359 162C363.051 161.741 364.543 161.696 368 164C369.254 167.763 369.107 171.272 369.062 175.188C369.058 175.937 369.053 176.687 369.049 177.459C369.037 179.306 369.019 181.153 369 183C367.68 183 366.36 183 365 183C364.939 182.013 364.879 181.025 364.816 180.008C364.733 178.726 364.649 177.445 364.562 176.125C364.441 174.211 364.441 174.211 364.316 172.258C364.208 169.117 364.208 169.117 363 167C359.709 167.379 359.709 167.379 357 169C356.765 171.35 356.586 173.706 356.438 176.062C356.354 177.353 356.27 178.643 356.184 179.973C356.123 180.972 356.062 181.971 356 183C354.35 183 352.7 183 351 183C351 173.76 351 164.52 351 155Z" fill="white"/>
<path d="M622 162C625.375 164.062 625.375 164.062 628 167C628.33 169.31 628.66 171.62 629 174C623.72 174 618.44 174 613 174C614.497 178.107 614.497 178.107 617.375 178.937C620.609 179.014 621.671 178.156 624 176C625.32 176.66 626.64 177.32 628 178C625.914 180.692 624.247 182.707 620.84 183.508C616.42 183.729 614.558 183.442 611 180.625C607.868 176.514 607.648 174.192 608 169C609.255 166.177 610.284 164.537 612.75 162.687C616.074 161.672 618.537 161.582 622 162ZM614.187 167.375C612.803 168.934 612.803 168.934 613 171C616.63 171 620.26 171 624 171C622.422 167.316 622.422 167.316 621 166C618.073 165.692 616.574 165.564 614.187 167.375Z" fill="white"/>
<path d="M209 162C211.682 163.992 213.635 165.579 214.49 168.911C214.714 171.056 214.795 173.156 214.812 175.313C214.838 176.053 214.863 176.794 214.889 177.557C214.947 179.371 214.977 181.185 215 183C212.395 183.108 209.794 183.187 207.187 183.25C206.449 183.284 205.712 183.317 204.951 183.352C199.507 183.45 199.507 183.45 196.984 181.211C195.478 177.828 196.027 175.503 197 172C200.228 169.03 204.874 169.862 209 170C208.67 169.01 208.34 168.02 208 167C204.478 166.92 201.38 166.96 198 168C197.67 166.68 197.34 165.36 197 164C200.58 161.614 204.862 160.898 209 162ZM201 174C200.67 174.99 200.34 175.98 200 177C200.99 177.99 201.98 178.98 203 180C206.004 179.305 206.004 179.305 209 178C209.969 175.968 209.969 175.968 210 174C205.469 173.066 205.469 173.066 201 174Z" fill="white"/>
<path d="M323 162C325.81 163.794 327.509 165.019 329 168C329 169.98 329 171.96 329 174C324.05 174.33 319.1 174.66 314 175C315.32 176.32 316.64 177.64 318 179C320.68 179.015 320.68 179.015 323 178C323.33 177.34 323.66 176.68 324 176C325.32 176.33 326.64 176.66 328 177C326.25 181.875 326.25 181.875 324 183C319.368 183.555 316.018 183.636 312 181.125C308.675 177.592 308.669 174.953 308.707 170.262C309.137 166.946 310.609 165.25 313 163C316.202 161.399 319.526 161.501 323 162ZM316 166C314.515 168.475 314.515 168.475 313 171C316.96 171 320.92 171 325 171C323.422 167.316 323.422 167.316 322 166C319.085 165.5 319.085 165.5 316 166Z" fill="white"/>
<path d="M406 162C409.19 163.89 411.384 165.325 412.699 168.902C413.557 173.708 412.752 176.872 410 181C405.977 183.682 402.728 183.688 398 183C394.501 180.886 393.294 179.883 392 176C391.631 171.023 391.835 167.956 395 164C398.429 161.428 401.839 161.498 406 162ZM398.312 167.187C396.634 169.506 396.209 171.149 396 174C396.333 176.333 396.333 176.333 398 178C402.574 179.306 402.574 179.306 406.937 177.937C408.501 175.087 408.457 173.199 408 170C406.374 167.54 406.374 167.54 404 166C400.201 165.616 400.201 165.616 398.312 167.187Z" fill="white"/>
<path d="M437 162C440.19 163.89 442.384 165.325 443.699 168.902C444.557 173.708 443.752 176.872 441 181C436.997 183.668 433.707 183.834 429 183C426.244 180.818 424.564 179.128 423 176C422.828 172.203 422.976 168.503 425.16 165.297C428.907 161.82 432.077 161.121 437 162ZM429.187 167.063C427.33 170.094 427.629 172.534 428 176C429.044 178.045 429.044 178.045 431 179C433.821 179.423 435.339 179.387 437.812 177.938C439.67 174.906 439.371 172.466 439 169C437.956 166.955 437.956 166.955 436 166C433.179 165.577 431.66 165.613 429.187 167.063Z" fill="white"/>
<path d="M729 162C731.81 163.794 733.509 165.019 735 168C735.555 172.632 735.636 175.982 733.125 180C729.642 183.278 726.92 183.474 722.266 183.398C720 183 720 183 716.938 180.562C714.654 177.217 714.345 174.107 714.566 170.121C715.213 166.956 716.681 165.183 719 163C722.202 161.399 725.526 161.501 729 162ZM720.688 167.563C718.639 170.003 718.639 170.003 719.125 173.625C719.707 177.045 719.707 177.045 722 179C725.529 178.913 725.529 178.913 729 178C731.315 175.183 731.315 175.183 730.813 172C729.989 168.961 729.593 167.728 727 166C723.087 165.627 723.087 165.627 720.688 167.563Z" fill="white"/>
<path d="M250 162C252.81 163.794 254.509 165.019 256 168C256.555 172.632 256.636 175.982 254.125 180C250.852 183.081 248.539 183.334 244.039 183.293C240.869 182.837 239.181 181.247 237 179C235.271 175.543 235.51 171.78 236 168C239.614 162.218 243.31 161.039 250 162ZM241.688 167.562C239.639 170.003 239.639 170.003 240.125 173.625C240.707 177.045 240.707 177.045 243 179C245.958 179.5 245.958 179.5 249 179C251.098 177.481 251.098 177.481 252 175C251.869 171.793 251.537 169.767 249.688 167.125C246.686 165.124 244.533 165.64 241.688 167.562Z" fill="white"/>
<path d="M143 162C145.81 163.794 147.509 165.019 149 168C149.555 172.632 149.636 175.982 147.125 180C143.852 183.081 141.539 183.334 137.039 183.293C133.869 182.837 132.181 181.247 130 179C128.271 175.543 128.51 171.78 129 168C132.614 162.218 136.31 161.039 143 162ZM135.313 167.125C133.463 169.767 133.131 171.793 133 175C133.902 177.481 133.902 177.481 136 179C139 179.667 139 179.667 142 179C144.315 176.916 144.903 175.556 145.438 172.5C144.853 169.163 143.683 168.012 141 166C137.217 165.63 137.217 165.63 135.313 167.125Z" fill="white"/>
<path d="M466 162C468.293 162.121 468.293 162.121 471 163C473.512 166.799 475.114 170.834 477 175C478.65 170.71 480.3 166.42 482 162C483.32 162 484.64 162 486 162C485.431 166.062 484.535 169.575 482.969 173.363C482.57 174.332 482.172 175.301 481.762 176.299C481.345 177.293 480.929 178.288 480.5 179.312C480.084 180.326 479.667 181.34 479.238 182.385C476.147 189.853 476.147 189.853 475 191C473 191.041 471 191.043 469 191C469 189.68 469 188.36 469 187C469.99 186.67 470.98 186.34 472 186C473.58 181.597 472.455 179.045 470.6 175.02C470.257 174.312 469.915 173.604 469.562 172.875C466 165.343 466 165.343 466 162Z" fill="white"/>
<path d="M576 162C577.32 162 578.64 162 580 162C580.33 167.61 580.66 173.22 581 179C586.478 177.671 586.478 177.671 588 176C588.235 173.65 588.414 171.294 588.562 168.938C588.646 167.647 588.73 166.357 588.816 165.027C588.877 164.028 588.938 163.029 589 162C590.65 162 592.3 162 594 162C594 168.93 594 175.86 594 183C592.35 182.67 590.7 182.34 589 182C588.34 182.33 587.68 182.66 587 183C579.6 183.47 579.6 183.47 577.395 181.744C575.66 179.575 575.649 178.516 575.707 175.77C575.717 174.967 575.726 174.165 575.736 173.338C575.761 172.505 575.787 171.671 575.812 170.812C575.826 169.968 575.84 169.123 575.854 168.252C575.889 166.168 575.943 164.084 576 162Z" fill="white"/>
<path d="M505 162C506.32 162 507.64 162 509 162C509 162.66 509 163.32 509 164C509.516 163.67 510.031 163.34 510.562 163C513.902 161.63 516.426 161.61 520 162C522.057 163.784 522.903 165.206 523.234 167.922C523.296 170.206 523.261 172.467 523.188 174.75C523.167 175.939 523.167 175.939 523.146 177.152C523.111 179.102 523.057 181.051 523 183C521.68 183 520.36 183 519 183C518.939 182.013 518.879 181.025 518.816 180.008C518.733 178.726 518.649 177.445 518.562 176.125C518.441 174.211 518.441 174.211 518.316 172.258C518.208 169.117 518.208 169.117 517 167C513.709 167.379 513.709 167.379 511 169C510.765 171.35 510.586 173.706 510.438 176.062C510.354 177.353 510.27 178.643 510.184 179.973C510.123 180.972 510.062 181.971 510 183C508.35 183 506.7 183 505 183C505 176.07 505 169.14 505 162Z" fill="white"/>
<path d="M372 162C373.32 162 374.64 162 376 162C376 162.66 376 163.32 376 164C376.516 163.67 377.031 163.34 377.562 163C380.902 161.63 383.426 161.61 387 162C389.057 163.784 389.903 165.206 390.234 167.922C390.296 170.206 390.261 172.467 390.188 174.75C390.167 175.939 390.167 175.939 390.146 177.152C390.111 179.102 390.057 181.051 390 183C388.68 183 387.36 183 386 183C385.939 182.013 385.879 181.025 385.816 180.008C385.733 178.726 385.649 177.445 385.562 176.125C385.441 174.211 385.441 174.211 385.316 172.258C385.208 169.117 385.208 169.117 384 167C380.709 167.379 380.709 167.379 378 169C377.765 171.35 377.586 173.706 377.438 176.062C377.354 177.353 377.27 178.643 377.184 179.973C377.123 180.972 377.062 181.971 377 183C375.35 183 373.7 183 372 183C372 176.07 372 169.14 372 162Z" fill="white"/>
<path d="M538 162C538.99 162.66 539.98 163.32 541 164C540.67 165.32 540.34 166.64 540 168C537.03 167.67 534.06 167.34 531 167C531 167.66 531 168.32 531 169C531.71 169.219 532.421 169.438 533.152 169.664C535.909 170.615 538.445 171.591 541 173C542.375 176 542.375 176 542 179C540.688 181.375 540.688 181.375 538 183C533.023 183.651 529.24 183.827 525 181C525.33 179.68 525.66 178.36 526 177C526.94 177.217 526.94 177.217 527.898 177.438C529.124 177.716 529.124 177.716 530.375 178C531.187 178.186 531.999 178.371 532.836 178.563C534.959 179.066 534.959 179.066 537 179C536.67 178.01 536.34 177.02 536 176C533.935 175.013 533.935 175.013 531.5 174.375C527.072 173.072 527.072 173.072 526 172C525.421 165.748 525.421 165.748 527.5 163.063C531.217 161.483 533.961 161.679 538 162Z" fill="white"/>
<path d="M97 162C99.475 162.495 99.475 162.495 102 163C102.66 162.67 103.32 162.34 104 162C110.369 161.537 110.369 161.537 112.704 163.251C114.313 165.423 114.35 166.551 114.293 169.23C114.283 170.033 114.274 170.835 114.264 171.662C114.239 172.495 114.213 173.329 114.188 174.187C114.167 175.455 114.167 175.455 114.146 176.748C114.111 178.832 114.057 180.916 114 183C112.68 183 111.36 183 110 183C109.67 178.05 109.34 173.1 109 168C105.268 166.567 105.268 166.567 103.293 168.019C101.433 170.869 101.479 173.315 101.312 176.687C101.247 177.867 101.181 179.046 101.113 180.262C101.076 181.165 101.039 182.069 101 183C99.68 183 98.36 183 97 183C97 176.07 97 169.14 97 162Z" fill="white"/>
<path d="M259 162C261.475 162.495 261.475 162.495 264 163C264.66 162.67 265.32 162.34 266 162C269.438 161.688 269.438 161.688 273 162C275.068 163.78 275.903 165.201 276.234 167.923C276.296 170.206 276.261 172.467 276.188 174.75C276.167 175.939 276.167 175.939 276.146 177.152C276.111 179.102 276.057 181.051 276 183C274.68 183 273.36 183 272 183C271.67 178.05 271.34 173.1 271 168C269.68 167.67 268.36 167.34 267 167C266.01 167.66 265.02 168.32 264 169C263.413 172.346 263.413 172.346 263.312 176.125C263.247 177.406 263.181 178.688 263.113 180.008C263.076 180.995 263.039 181.983 263 183C261.68 183 260.36 183 259 183C259 176.07 259 169.14 259 162Z" fill="white"/>
<path d="M344 162C346.937 164 346.937 164 349 166C348.67 166.99 348.34 167.98 348 169C344.125 168.125 344.125 168.125 343 167C340.585 166.499 340.585 166.499 338 167C335.902 169.107 335.902 169.107 335 172C335.663 174.43 336.201 176.201 338 178C340.458 178.25 340.458 178.25 343 178C343.66 177.34 344.32 176.68 345 176C347.125 176.375 347.125 176.375 349 177C348.687 178.875 348.687 178.875 348 181C343.997 183.668 340.707 183.834 336 183C333.244 180.818 331.564 179.128 330 176C329.625 171.029 329.841 167.948 333 164C336.421 161.434 339.848 161.563 344 162Z" fill="white"/>
<path d="M286 155C293.26 155 300.52 155 308 155C308 156.32 308 157.64 308 159C305.03 159 302.06 159 299 159C299 166.92 299 174.84 299 183C297.68 183 296.36 183 295 183C295 175.08 295 167.16 295 159C292.03 159 289.06 159 286 159C286 157.68 286 156.36 286 155Z" fill="white"/>
<path d="M692 156C693.65 156 695.3 156 697 156C697 157.98 697 159.96 697 162C698.32 162 699.64 162 701 162C701 163.32 701 164.64 701 166C699.68 166 698.36 166 697 166C697 170.29 697 174.58 697 179C698.65 178.67 700.3 178.34 702 178C702.33 179.32 702.66 180.64 703 182C700.043 183.478 697.258 183.06 694 183C691.74 179.405 691.791 176.434 691.875 172.25C691.902 170.494 691.902 170.494 691.93 168.703C691.953 167.811 691.976 166.919 692 166C691.34 166 690.68 166 690 166C690 164.68 690 163.36 690 162C690.66 162 691.32 162 692 162C692 160.02 692 158.04 692 156Z" fill="white"/>
<path d="M218 156C219.32 156 220.64 156 222 156C222 157.98 222 159.96 222 162C223.65 162 225.3 162 227 162C227 163.32 227 164.64 227 166C225.35 166 223.7 166 222 166C222.33 169.96 222.66 173.92 223 178C224.65 178.33 226.3 178.66 228 179C227.67 180.32 227.34 181.64 227 183C223.625 183.125 223.625 183.125 220 183C218 181 218 181 217.805 177.523C217.818 176.14 217.842 174.758 217.875 173.375C217.884 172.669 217.893 171.962 217.902 171.234C217.926 169.489 217.962 167.745 218 166C217.01 166 216.02 166 215 166C215 164.68 215 163.36 215 162C215.99 162 216.98 162 218 162C218 160.02 218 158.04 218 156Z" fill="white"/>
<path d="M716 155C715.67 156.32 715.34 157.64 715 159C713.35 159.33 711.7 159.66 710 160C709.67 161.65 709.34 163.3 709 165C710.65 165 712.3 165 714 165C714 165.99 714 166.98 714 168C712.35 168 710.7 168 709 168C709 172.95 709 177.9 709 183C707.68 183 706.36 183 705 183C705 178.05 705 173.1 705 168C704.01 168 703.02 168 702 168C702 167.01 702 166.02 702 165C702.99 165 703.98 165 705 165C704.917 163.927 704.835 162.855 704.75 161.75C705 158 705 158 706.562 155.5C709.983 153.395 712.192 154.121 716 155Z" fill="white"/>
<path d="M130 155C129.67 156.32 129.34 157.64 129 159C127.35 159.33 125.7 159.66 124 160C123.67 161.65 123.34 163.3 123 165C124.65 165 126.3 165 128 165C128 165.99 128 166.98 128 168C126.35 168 124.7 168 123 168C123 172.95 123 177.9 123 183C121.68 183 120.36 183 119 183C119 178.05 119 173.1 119 168C118.01 168 117.02 168 116 168C116 167.01 116 166.02 116 165C116.99 165 117.98 165 119 165C118.917 163.927 118.835 162.855 118.75 161.75C119 158 119 158 120.562 155.5C123.983 153.395 126.192 154.121 130 155Z" fill="white"/>
<path d="M598 156C599.32 156 600.64 156 602 156C602 157.98 602 159.96 602 162C603.65 162 605.3 162 607 162C607 163.32 607 164.64 607 166C605.35 166 603.7 166 602 166C602.33 169.96 602.66 173.92 603 178C604.65 178.33 606.3 178.66 608 179C607.67 180.32 607.34 181.64 607 183C603.625 183.125 603.625 183.125 600 183C598 181 598 181 597.805 177.523C597.818 176.14 597.842 174.758 597.875 173.375C597.884 172.669 597.893 171.962 597.902 171.234C597.926 169.489 597.962 167.745 598 166C597.34 166 596.68 166 596 166C596 164.68 596 163.36 596 162C596.66 162 597.32 162 598 162C598 160.02 598 158.04 598 156Z" fill="white"/>
<path d="M565 156C566.32 156 567.64 156 569 156C569 157.98 569 159.96 569 162C570.32 162 571.64 162 573 162C573 163.32 573 164.64 573 166C571.68 166 570.36 166 569 166C569 170.29 569 174.58 569 179C570.65 178.67 572.3 178.34 574 178C574.33 179.32 574.66 180.64 575 182C572.018 183.491 569.284 183.119 566 183C565 182 565 182 564.902 178.402C564.909 176.914 564.921 175.426 564.938 173.938C564.942 173.179 564.947 172.42 564.951 171.639C564.963 169.759 564.981 167.88 565 166C564.01 166 563.02 166 562 166C562 164.68 562 163.36 562 162C562.99 162 563.98 162 565 162C565 160.02 565 158.04 565 156Z" fill="white"/>
<path d="M545 156C546.32 156 547.64 156 549 156C549 157.98 549 159.96 549 162C550.32 162 551.64 162 553 162C553 163.32 553 164.64 553 166C551.68 166 550.36 166 549 166C549 170.29 549 174.58 549 179C550.65 178.67 552.3 178.34 554 178C554.33 179.32 554.66 180.64 555 182C552.237 183.381 550.053 183.191 547 183C545 181 545 181 544.805 177.523C544.818 176.14 544.842 174.758 544.875 173.375C544.884 172.669 544.893 171.962 544.902 171.234C544.926 169.489 544.962 167.745 545 166C544.01 166 543.02 166 542 166C542 164.68 542 163.36 542 162C542.99 162 543.98 162 545 162C545 160.02 545 158.04 545 156Z" fill="white"/>
<path d="M88 155C89.65 155 91.3 155 93 155C93 164.24 93 173.48 93 183C91.35 183 89.7 183 88 183C88 173.76 88 164.52 88 155Z" fill="white"/>
<path d="M737 162C741 162 745 162 749 162C749 163.32 749 164.64 749 166C748.028 166.347 747.056 166.694 746.055 167.051C742.656 168.722 742.656 168.722 742.195 172.355C742.172 173.62 742.149 174.885 742.125 176.188C742.067 178.096 742.067 178.096 742.008 180.043C742.005 181.019 742.003 181.995 742 183C740.35 183 738.7 183 737 183C737 176.07 737 169.14 737 162Z" fill="white"/>
<path d="M415 155C416.32 155 417.64 155 419 155C419.33 162.59 419.66 170.18 420 178C421.32 178.66 422.64 179.32 424 180C424 180.99 424 181.98 424 183C420.625 183.125 420.625 183.125 417 183C415 181 415 181 414.773 178.386C414.783 177.307 414.794 176.229 414.805 175.117C414.811 173.951 414.818 172.784 414.824 171.582C414.841 170.359 414.858 169.135 414.875 167.875C414.884 166.644 414.893 165.413 414.902 164.145C414.926 161.096 414.959 158.048 415 155Z" fill="white"/>
<path d="M152 162C154.475 162.495 154.475 162.495 157 163C160.221 162.617 160.221 162.617 163 162C163 163.32 163 164.64 163 166C162.028 166.347 161.056 166.694 160.055 167.051C156.656 168.722 156.656 168.722 156.195 172.355C156.172 173.62 156.149 174.885 156.125 176.188C156.067 178.096 156.067 178.096 156.008 180.043C156.005 181.019 156.003 181.995 156 183C154.68 183 153.36 183 152 183C152 176.07 152 169.14 152 162Z" fill="white"/>
<path d="M497 155C498.32 155 499.64 155 501 155C501 164.24 501 173.48 501 183C499.68 183 498.36 183 497 183C497 173.76 497 164.52 497 155Z" fill="white"/>
<path d="M556 162C557.32 162 558.64 162 560 162C560 168.93 560 175.86 560 183C558.68 183 557.36 183 556 183C556 176.07 556 169.14 556 162Z" fill="white"/>
<path d="M229 162C230.32 162 231.64 162 233 162C233 168.93 233 175.86 233 183C231.68 183 230.36 183 229 183C229 176.07 229 169.14 229 162Z" fill="white"/>
<path d="M556 155C557.32 155 558.64 155 560 155C560 156.65 560 158.3 560 160C558.68 160 557.36 160 556 160C556 158.35 556 156.7 556 155Z" fill="white"/>
<path d="M229 155C230.32 155 231.64 155 233 155C233 156.65 233 158.3 233 160C231.68 160 230.36 160 229 160C229 158.35 229 156.7 229 155Z" fill="white"/>
</svg>
