<svg width="192" height="48" viewBox="0 0 192 48" fill="none" xmlns="http://www.w3.org/2000/svg">
<path d="M14.1872 6.92567C14.4705 6.92973 14.7539 6.93377 15.0458 6.93794C15.2621 6.94314 15.4784 6.94835 15.7012 6.95371C16.8658 9.20267 17.8908 11.5062 18.9115 13.8229C19.156 14.3762 19.4006 14.9294 19.6454 15.4827C19.7964 15.8241 19.9471 16.1656 20.0977 16.5071C20.4656 17.3441 20.4656 17.3441 20.8601 18.1687C21.8386 16.0763 22.7002 13.9441 23.5476 11.7959C24.8728 8.49137 24.8728 8.49137 26.4676 7.40231C27.5891 6.95371 27.5891 6.95371 31.4021 6.95371C31.4021 13.4674 31.4021 19.981 31.4021 26.692C30.1438 26.692 28.8855 26.692 27.5891 26.692C27.515 22.621 27.441 18.55 27.3648 14.3556C25.4488 18.4701 25.4488 18.4701 23.7338 22.6546C23.6488 22.8765 23.5636 23.0981 23.4759 23.3266C23.2753 23.8497 23.0768 24.3737 22.8788 24.8976C21.6945 24.8976 20.5102 24.8976 19.29 24.8976C18.9565 24.179 18.9565 24.179 18.6162 23.4457C17.7427 21.5702 16.8431 19.7076 15.9395 17.8462C15.4168 16.7683 14.894 15.6904 14.3554 14.5799C14.2814 18.5769 14.2074 22.5739 14.1311 26.692C12.7248 26.692 11.3184 26.692 9.86944 26.692C9.85416 24.7207 9.84185 22.7493 9.83456 20.7778C9.83108 19.8621 9.82635 18.9464 9.81868 18.0308C9.8113 17.1451 9.80733 16.2594 9.8056 15.3737C9.80437 15.0379 9.80194 14.702 9.79829 14.3662C9.74778 9.54246 9.74778 9.54246 11.0891 7.82287C12.1703 7.03174 12.8267 6.90048 14.1872 6.92567Z" fill="white"/>
<path d="M119.102 8.74773C119.646 9.01195 120.153 9.28259 120.672 9.58885C120.825 9.67693 120.978 9.76501 121.135 9.85576C121.655 10.1569 122.173 10.4615 122.691 10.7664C122.883 10.879 123.076 10.9915 123.274 11.1075C124.523 11.8378 125.769 12.5742 127.011 13.3157C127.416 13.5576 127.822 13.7988 128.229 14.0392C128.791 14.3717 129.351 14.7065 129.911 15.0421C130.078 15.141 130.246 15.2398 130.419 15.3417C131.88 16.2248 131.88 16.2248 132.336 17.0468C132.459 17.8722 132.433 18.248 131.965 18.9463C131.382 19.5749 130.848 19.91 130.094 20.314C129.963 20.3849 129.833 20.4557 129.698 20.5287C129.275 20.7581 128.85 20.9842 128.424 21.2103C127.983 21.4488 127.542 21.688 127.1 21.9273C126.804 22.0878 126.508 22.2481 126.212 22.4081C124.701 23.2249 123.212 24.0788 121.726 24.9408C118.703 26.6865 118.703 26.6865 117.7 26.7058C116.86 26.381 116.606 26.1524 116.186 25.3459C116.151 24.7378 116.151 24.7378 116.163 24.0685C116.167 23.8457 116.17 23.623 116.173 23.3936C116.18 23.1388 116.18 23.1388 116.186 22.8786C115.35 23.3503 114.513 23.8224 113.677 24.2946C113.44 24.4278 113.204 24.5613 112.96 24.6988C112.616 24.893 112.616 24.893 112.266 25.0908C112.055 25.2095 111.845 25.3281 111.628 25.4504C111.221 25.6834 110.818 25.9232 110.419 26.1688C109.589 26.6515 109.061 26.5728 108.111 26.4674C107.463 25.988 107.242 25.7164 107.092 24.917C107.087 24.6629 107.082 24.409 107.078 24.1472C107.067 23.7123 107.067 23.7123 107.055 23.2686C107.052 22.9517 107.049 22.6348 107.046 22.3178C107.04 21.9909 107.034 21.6641 107.028 21.3372C107.012 20.4638 107.003 19.5904 106.996 18.7169C106.99 18.1603 106.981 17.6038 106.973 17.0472C106.957 16.1228 106.946 15.1985 106.939 14.274C106.935 13.9184 106.931 13.5628 106.926 13.2072C106.92 12.7078 106.917 12.2086 106.916 11.7092C106.914 11.4239 106.912 11.1386 106.91 10.8446C106.996 10.0356 107.174 9.61534 107.663 8.97203C108.355 8.6262 108.916 8.69443 109.682 8.74773C110.405 9.04945 110.405 9.04945 111.136 9.46795C111.267 9.54157 111.397 9.61518 111.532 9.69102C111.945 9.92489 112.355 10.1633 112.766 10.4019C113.045 10.5605 113.323 10.7188 113.602 10.8768C115.518 11.9655 115.518 11.9655 116.411 12.5608C116.4 12.3607 116.39 12.1607 116.379 11.9545C116.367 11.5607 116.367 11.5607 116.354 11.1589C116.344 10.8987 116.334 10.6385 116.323 10.3704C116.411 9.64492 116.411 9.64492 116.835 9.11573C117.682 8.45683 118.059 8.49687 119.102 8.74773ZM117.532 9.64492C117.606 9.79296 117.68 9.941 117.756 10.0935C117.83 9.94548 117.904 9.79745 117.981 9.64492C117.833 9.64492 117.685 9.64492 117.532 9.64492ZM118.654 9.64492C118.431 9.97801 118.431 9.97801 118.205 10.3178C118.427 10.2438 118.649 10.1698 118.878 10.0935C118.804 9.94548 118.73 9.79745 118.654 9.64492ZM117.981 10.7664C117.833 10.9145 117.685 11.0625 117.532 11.215C117.606 11.4371 117.68 11.6591 117.756 11.8879C118.102 11.5795 118.102 11.5795 118.429 11.215C118.429 11.067 118.429 10.9189 118.429 10.7664C118.281 10.7664 118.133 10.7664 117.981 10.7664ZM119.999 10.9907C120.279 11.7666 120.599 12.3695 121.121 13.0094C121.573 12.8489 121.573 12.8489 122.018 12.5608C122.199 12.101 122.199 12.101 122.242 11.6636C121.163 11.1499 121.163 11.1499 119.999 10.9907ZM119.326 11.4393C119.178 12.3275 119.03 13.2158 118.878 14.1309C119.655 14.0199 119.655 14.0199 120.448 13.9066C120.663 13.4142 120.663 13.4142 120.672 12.7851C120.352 12.2567 119.988 11.887 119.551 11.4393C119.477 11.4393 119.403 11.4393 119.326 11.4393ZM118.429 11.6636C118.05 12.1076 117.676 12.5562 117.308 13.0094C117.53 13.2315 117.752 13.4535 117.981 13.6823C118.129 13.6083 118.277 13.5343 118.429 13.458C118.534 13.0329 118.534 13.0329 118.569 12.5468C118.597 12.2554 118.625 11.9639 118.654 11.6636C118.58 11.6636 118.506 11.6636 118.429 11.6636ZM122.915 12.1122C122.335 12.7976 122.335 12.7976 122.242 13.6823C123.279 13.6823 124.315 13.6823 125.383 13.6823C124.529 12.9997 123.88 12.5611 122.915 12.1122ZM119.775 14.3552C119.849 14.5032 119.923 14.6513 119.999 14.8038C120.221 14.7298 120.443 14.6558 120.672 14.5795C120.376 14.5055 120.08 14.4315 119.775 14.3552ZM122.467 14.3552C123.052 15.3802 123.521 16.1744 124.261 17.0468C124.985 16.9756 125.31 16.8938 125.836 16.3748C125.968 16.1941 126.101 16.0134 126.238 15.8272C126.373 15.647 126.509 15.4669 126.649 15.2813C126.993 14.8351 126.993 14.8351 126.953 14.3552C125.472 14.3552 123.992 14.3552 122.467 14.3552ZM121.121 14.8038C121.121 15.0259 121.121 15.2479 121.121 15.4767C121.641 15.8863 121.641 15.8863 122.242 16.1496C122.39 16.0756 122.538 16.0016 122.691 15.9253C122.287 15.3509 122.287 15.3509 121.794 14.8038C121.572 14.8038 121.35 14.8038 121.121 14.8038ZM127.401 15.0281C126.993 15.5239 126.993 15.5239 126.588 16.1356C126.446 16.3412 126.305 16.5467 126.159 16.7585C125.811 17.2012 125.811 17.2012 125.831 17.4954C126.233 17.5014 126.635 17.5058 127.037 17.5094C127.373 17.5133 127.373 17.5133 127.715 17.5173C128.295 17.5358 128.295 17.5358 128.747 17.2711C128.498 16.489 128.239 15.7515 127.85 15.0281C127.702 15.0281 127.554 15.0281 127.401 15.0281ZM128.747 15.701C128.895 16.0711 129.043 16.4412 129.196 16.8225C129.418 16.7485 129.64 16.6745 129.869 16.5982C129.794 16.3761 129.72 16.1541 129.644 15.9253C129.192 15.7608 129.192 15.7608 128.747 15.701ZM122.691 16.1496C122.839 16.7417 122.987 17.3339 123.14 17.944C123.362 17.944 123.584 17.944 123.812 17.944C123.546 17.187 123.302 16.6773 122.691 16.1496ZM130.766 17.0468C130.618 17.1948 130.47 17.3429 130.317 17.4954C130.872 17.6064 130.872 17.6064 131.439 17.7197C131.365 17.4976 131.291 17.2756 131.214 17.0468C131.066 17.0468 130.918 17.0468 130.766 17.0468ZM126.91 17.8318C126.607 17.8631 126.607 17.8631 126.298 17.8949C126.144 17.9111 125.99 17.9273 125.831 17.944C125.595 18.4241 125.595 18.4241 125.607 19.0655C125.997 19.6464 126.46 20.1402 126.953 20.6356C127.778 19.8988 128.243 19.1409 128.747 18.1683C128.747 18.0203 128.747 17.8722 128.747 17.7197C128.123 17.7197 127.53 17.7675 126.91 17.8318ZM129.42 18.1683C128.976 18.8345 128.976 18.8345 128.523 19.5141C128.597 19.6621 128.671 19.8102 128.747 19.9627C129.191 19.6666 129.635 19.3705 130.093 19.0655C129.871 18.7694 129.649 18.4733 129.42 18.1683ZM130.093 18.1683C130.315 18.3903 130.537 18.6124 130.766 18.8412C130.84 18.6191 130.914 18.3971 130.99 18.1683C130.694 18.1683 130.398 18.1683 130.093 18.1683ZM121.794 19.2898C121.352 19.5999 120.901 19.8923 120.448 20.187C121.166 20.8226 121.745 20.9766 122.691 21.0842C122.916 20.7204 123.14 20.3558 123.364 19.9907C123.489 19.7877 123.614 19.5848 123.742 19.3756C124.073 18.8774 124.073 18.8774 124.037 18.3926C122.968 18.2704 122.583 18.5968 121.794 19.2898ZM124.485 19.0655C124.115 19.8057 123.745 20.5459 123.364 21.3085C124.948 21.3405 124.948 21.3405 126.504 21.0842C126.296 20.7883 126.085 20.4943 125.873 20.201C125.756 20.0371 125.639 19.8731 125.518 19.7042C125.167 19.2295 125.167 19.2295 124.485 19.0655ZM118.667 21.0421C118.328 21.285 118.328 21.285 117.981 21.5328C117.981 21.6808 117.981 21.8288 117.981 21.9814C119.017 21.9074 120.053 21.8333 121.121 21.7571C121.121 21.609 121.121 21.461 121.121 21.3085C119.913 20.6042 119.913 20.6042 118.667 21.0421ZM123.364 21.9814C123.216 22.3515 123.068 22.7216 122.915 23.1029C123.507 22.8068 124.1 22.5107 124.71 22.2057C124.71 22.1317 124.71 22.0576 124.71 21.9814C124.266 21.9814 123.821 21.9814 123.364 21.9814ZM119.102 22.2057C119.102 22.3537 119.102 22.5017 119.102 22.6543C119.494 22.7678 119.887 22.8797 120.28 22.9907C120.498 23.0531 120.717 23.1157 120.942 23.18C121.608 23.3613 121.608 23.3613 122.467 23.3272C122.515 22.831 122.515 22.831 122.06 22.4019C121.221 21.6831 120.139 22.0697 119.102 22.2057ZM117.756 22.8786C117.83 23.3967 117.904 23.9148 117.981 24.4487C118.625 24.771 119.071 24.6084 119.775 24.4908C120.015 24.4523 120.256 24.4139 120.504 24.3742C121.149 24.2742 121.149 24.2742 121.569 23.7758C119.682 23.3317 119.682 23.3317 117.756 22.8786ZM117.083 23.5515C117.231 23.6995 117.38 23.8475 117.532 24.0001C117.532 23.852 117.532 23.704 117.532 23.5515C117.384 23.5515 117.236 23.5515 117.083 23.5515ZM118.429 24.8973C118.429 25.1193 118.429 25.3414 118.429 25.5702C118.799 25.4221 119.169 25.2741 119.551 25.1216C119.551 25.0475 119.551 24.9735 119.551 24.8973C119.181 24.8973 118.811 24.8973 118.429 24.8973Z" fill="white"/>
<path d="M171.588 6.50488C174.404 6.50488 174.404 6.50488 175.177 7.17778C175.685 7.94017 175.678 8.2013 175.669 9.09397C175.668 9.33466 175.666 9.57538 175.665 9.82336C175.661 10.0745 175.657 10.3256 175.653 10.5843C175.651 10.838 175.649 11.0918 175.647 11.3532C175.642 11.9801 175.634 12.607 175.625 13.2339C175.901 13.1616 176.177 13.0893 176.462 13.0148C178.437 12.5239 180.077 12.7529 181.906 13.6825C183.359 14.6708 184 16.0371 184.373 17.7198C184.515 19.2614 184.458 20.8144 184.429 22.36C184.425 22.7809 184.42 23.2019 184.417 23.6229C184.408 24.6462 184.39 25.6685 184.373 26.6918C182.967 26.6918 181.56 26.6918 180.111 26.6918C180.098 26.0306 180.084 25.3693 180.07 24.6879C180.056 24.0505 180.042 23.4128 180.028 22.7751C180.018 22.3306 180.009 21.886 180 21.4415C179.987 20.804 179.972 20.1666 179.958 19.5291C179.954 19.3291 179.95 19.1291 179.947 18.9231C180.013 18.025 180.013 18.025 179.663 17.2712C179.229 17.2312 178.794 17.2111 178.359 17.2011C178.121 17.1928 177.884 17.1844 177.639 17.1757C176.818 17.2931 176.575 17.5205 176.074 18.1684C175.795 19.006 175.798 19.7999 175.779 20.6734C175.774 20.8517 175.769 21.03 175.765 21.2136C175.75 21.7827 175.737 22.3517 175.724 22.9209C175.714 23.3067 175.704 23.6927 175.694 24.0787C175.67 25.0244 175.648 25.9702 175.625 26.9161C174.293 26.9161 172.961 26.9161 171.588 26.9161C171.588 20.1804 171.588 13.4447 171.588 6.50488Z" fill="white"/>
<path d="M48.6738 6.50488C51.4901 6.50488 51.4901 6.50488 52.2626 7.17778C52.7637 7.92945 52.7646 8.16869 52.755 9.04489C52.7536 9.27547 52.752 9.50607 52.7507 9.74365C52.7469 9.98405 52.7431 10.2245 52.7392 10.4722C52.7372 10.7152 52.7352 10.9582 52.7332 11.2086C52.7278 11.809 52.7204 12.4092 52.7112 13.0096C52.907 12.974 53.1026 12.9384 53.3045 12.9018C55.3768 12.5809 57.3535 12.6313 59.2159 13.6825C60.3192 14.6329 61.1159 15.6962 61.3097 17.1692C61.3182 17.3697 61.3265 17.5702 61.3353 17.7768C61.3452 18.0035 61.355 18.2302 61.3651 18.4638C61.373 18.704 61.3808 18.9443 61.3889 19.1918C61.3979 19.4386 61.4071 19.6853 61.4163 19.9395C61.4858 22.2046 61.3853 24.4311 61.2346 26.6918C59.9022 26.6918 58.5699 26.6918 57.1972 26.6918C57.1889 26.0333 57.1804 25.3745 57.1718 24.696C57.1615 24.0596 57.1499 23.4235 57.1384 22.7874C57.1308 22.3444 57.1245 21.9014 57.1196 21.4585C57.112 20.8225 57.1003 20.1868 57.0877 19.551C57.0862 19.3522 57.0848 19.1534 57.0832 18.9485C57.079 18.7644 57.0745 18.5803 57.0698 18.3906C57.0662 18.1471 57.0662 18.1471 57.0624 17.8986C57.0009 17.4021 57.0009 17.4021 56.3 17.0469C55.2404 16.9786 54.3147 16.9207 53.3841 17.4955C52.866 18.4593 52.8588 19.4237 52.8427 20.4929C52.8384 20.6706 52.8339 20.8482 52.8294 21.0312C52.8162 21.5956 52.8056 22.16 52.7953 22.7244C52.7868 23.1084 52.7781 23.4924 52.7691 23.8762C52.7471 24.8146 52.7294 25.7531 52.7112 26.6918C51.3789 26.6918 50.0465 26.6918 48.6738 26.6918C48.6738 20.0301 48.6738 13.3684 48.6738 6.50488Z" fill="white"/>
<path d="M71.3272 13.2334C72.6596 13.2334 73.9919 13.2334 75.3646 13.2334C75.368 13.5333 75.3711 13.8332 75.3745 14.1421C75.3875 15.2562 75.4048 16.3702 75.4234 17.4842C75.431 17.9661 75.4373 18.4479 75.4422 18.9299C75.4499 19.6231 75.4615 20.3162 75.4741 21.0094C75.4757 21.2244 75.477 21.4394 75.4786 21.6609C75.5028 22.7632 75.5268 23.5644 76.2618 24.4484C76.8374 24.8539 76.8374 24.8539 77.3833 25.1212C77.3692 25.6398 77.3692 25.6398 77.159 26.2427C76.169 26.8488 75.4214 27.0397 74.2431 26.8394C73.4442 26.5756 72.8738 26.0974 72.2244 25.5698C72.0995 25.6347 71.9746 25.6993 71.8458 25.7661C69.9933 26.6673 67.9307 26.8277 65.9308 26.2786C64.4043 25.5885 63.4777 24.5199 62.7794 23.0149C62.1384 21.137 62.1792 19.0391 63.0291 17.2436C63.9554 15.6261 65.1732 14.5334 66.9754 14.0097C68.2665 13.762 69.6062 13.7913 70.8787 14.1306C71.0267 13.8345 71.1747 13.5384 71.3272 13.2334ZM66.8413 18.6166C66.2641 19.2657 66.178 19.6606 66.0701 20.5231C66.1863 21.4514 66.3909 21.7914 67.0656 22.4297C67.8118 22.92 68.3582 22.8973 69.2103 22.7522C69.8956 22.5696 70.2078 22.428 70.7665 21.967C71.2102 21.0981 71.3797 20.2663 71.3272 19.2895C71.1653 18.7937 71.1653 18.7937 70.8787 18.3923C69.4124 17.7548 68.2227 17.8862 66.8413 18.6166Z" fill="white"/>
<path d="M41.4952 13.2334C42.8276 13.2334 44.1599 13.2334 45.5326 13.2334C45.536 13.5333 45.5391 13.8332 45.5425 14.1421C45.5555 15.2562 45.5727 16.3702 45.5914 17.4842C45.599 17.9661 45.6053 18.4479 45.6102 18.9299C45.6178 19.6231 45.6295 20.3162 45.6421 21.0094C45.6436 21.2244 45.645 21.4394 45.6465 21.6609C45.6708 22.7632 45.6948 23.5644 46.4298 24.4484C47.0053 24.8539 47.0053 24.8539 47.5513 25.1212C47.5372 25.6398 47.5372 25.6398 47.327 26.2427C46.3369 26.8488 45.5893 27.0397 44.4111 26.8394C43.6122 26.5756 43.0418 26.0974 42.3924 25.5698C42.2675 25.6347 42.1425 25.6993 42.0138 25.7661C40.1613 26.6673 38.0987 26.8277 36.0988 26.2786C34.5722 25.5885 33.6456 24.5199 32.9474 23.0149C32.3064 21.137 32.3472 19.0391 33.197 17.2436C34.1234 15.6261 35.3411 14.5334 37.1434 14.0097C38.4344 13.762 39.7742 13.7913 41.0466 14.1306C41.1947 13.8345 41.3427 13.5384 41.4952 13.2334ZM37.0092 18.6166C36.4321 19.2657 36.346 19.6606 36.2381 20.5231C36.3543 21.4514 36.5588 21.7914 37.2335 22.4297C37.9798 22.92 38.5262 22.8973 39.3783 22.7522C40.0635 22.5696 40.3757 22.428 40.9345 21.967C41.3781 21.0981 41.5477 20.2663 41.4952 19.2895C41.3333 18.7937 41.3333 18.7937 41.0466 18.3923C39.5804 17.7548 38.3907 17.8862 37.0092 18.6166Z" fill="white"/>
<path d="M155.439 13.0097C156.595 14.095 156.958 15.4924 157.009 17.0471C156.864 18.2101 156.58 19.1777 155.678 19.963C154.1 20.9931 152.722 21.1202 150.869 21.0985C150.704 21.0975 150.539 21.0964 150.369 21.0954C149.965 21.0928 149.562 21.0888 149.159 21.0844C149.434 21.9728 149.434 21.9728 150.168 22.4863C150.353 22.5419 150.538 22.5973 150.729 22.6545C150.877 22.7286 151.025 22.8026 151.178 22.8788C152.436 22.9937 153.521 23.05 154.668 22.4863C155.148 22.0436 155.535 21.6325 155.888 21.0844C156.308 21.1545 156.308 21.1545 156.785 21.3087C157.394 22.2222 157.402 22.9277 157.234 24.0003C156.722 25.2528 155.973 26.0648 154.766 26.6919C152.718 27.4799 150.716 27.2735 148.71 26.4676C146.892 25.5049 145.667 23.9541 145.045 22.0071C144.5 19.4357 144.825 16.799 146.09 14.4878C147.038 13.1028 148.285 12.2429 149.902 11.8041C151.933 11.4439 153.79 11.7354 155.439 13.0097ZM149.832 15.9256C149.247 16.6857 149.159 16.9635 149.159 17.9443C149.706 17.9624 150.252 17.9758 150.799 17.9863C150.954 17.992 151.109 17.9976 151.268 18.0034C152.169 18.0211 152.169 18.0211 152.961 17.6402C153.303 17.1035 153.305 16.7721 153.196 16.1499C152.122 15.0355 151.073 15.1163 149.832 15.9256Z" fill="white"/>
<path d="M97.7935 13.2334C99.1259 13.2334 100.458 13.2334 101.831 13.2334C101.843 14.2261 101.843 14.2261 101.856 15.2389C101.867 15.8833 101.878 16.5277 101.89 17.172C101.897 17.6182 101.904 18.0644 101.909 18.5106C101.916 19.1538 101.928 19.7968 101.94 20.4399C101.942 20.6378 101.943 20.8358 101.945 21.0398C101.976 22.3474 102.098 23.6122 103.088 24.5737C103.264 24.6713 103.264 24.6713 103.443 24.7709C103.651 24.8864 103.859 25.0021 104.074 25.1212C103.946 25.861 103.755 26.2129 103.177 26.6913C102.112 27.0421 101.192 27.0114 100.191 26.5092C99.7575 26.2575 99.3298 25.9978 98.9018 25.7372C98.7582 25.682 98.6145 25.6268 98.4664 25.5698C98.1612 25.778 98.1612 25.778 97.8496 25.9904C96.5186 26.8327 94.811 26.6375 93.3075 26.467C91.4818 25.924 90.4803 24.9398 89.5505 23.313C88.789 21.5235 88.8099 19.5714 89.4384 17.7474C90.1277 16.0626 91.0354 15.1832 92.6346 14.3549C94.3205 13.6992 96.1167 13.6489 97.7935 14.3549C97.7935 13.9848 97.7935 13.6147 97.7935 13.2334ZM93.2234 18.8969C92.8107 19.5952 92.6515 20.0481 92.6346 20.8596C92.9976 21.6812 93.4242 22.2079 94.2047 22.654C95.0737 22.9242 95.4989 22.894 96.3777 22.6259C97.2054 22.1574 97.4721 21.9722 97.7935 21.0839C97.9833 19.6956 97.9833 19.6956 97.5044 18.4475C96.2275 17.5174 94.3057 17.8717 93.2234 18.8969Z" fill="white"/>
<path d="M130.318 6.72852C135.796 6.72852 141.273 6.72852 146.916 6.72852C147.177 9.07583 147.177 9.07583 146.468 10.3173C144.846 11.3988 142.586 10.7659 140.636 10.7659C140.636 16.0212 140.636 21.2766 140.636 26.6911C139.304 26.6911 137.971 26.6911 136.599 26.6911C136.599 21.4358 136.599 16.1805 136.599 10.7659C134.97 10.7659 133.342 10.7659 131.664 10.7659C130.543 9.8687 130.543 9.8687 130.318 9.19581C130.318 8.3816 130.318 7.56739 130.318 6.72852Z" fill="white"/>
<path d="M169.094 12.533C170.05 13.4895 170.421 14.3397 170.468 15.7012C170.215 16.5564 170.215 16.5564 169.795 17.2713C169.192 17.5938 169.192 17.5938 168.673 17.7199C168.539 17.5071 168.405 17.2943 168.267 17.0751C167.742 16.3247 167.395 16.0089 166.515 15.7573C165.187 15.659 164.126 15.8365 163.08 16.6825C162.316 17.6553 162.075 18.2312 162.113 19.509C162.238 20.5218 162.667 21.1476 163.402 21.8274C164.544 22.5982 165.768 22.5749 167.103 22.4302C167.879 21.9714 168.175 21.6075 168.673 20.8601C169.192 20.8881 169.192 20.8881 169.795 21.0844C170.366 21.8652 170.468 22.344 170.468 23.3133C170.252 24.5025 169.682 25.3044 168.783 26.0917C167.29 27.0476 165.216 26.924 163.515 26.6919C161.732 26.1805 160.316 25.0209 159.364 23.4404C158.235 21.2752 157.973 18.9286 158.608 16.5424C159.268 14.6522 160.384 13.0707 162.169 12.1124C164.567 11.1881 166.885 11.0924 169.094 12.533Z" fill="white"/>
<path d="M78.5039 12.7852C79.8362 12.7852 81.1686 12.7852 82.5413 12.7852C82.6153 13.1552 82.6893 13.5253 82.7656 13.9067C82.8775 13.8419 82.9894 13.7771 83.1047 13.7104C84.6113 12.9314 86.0215 12.7621 87.7002 13.0095C88.5666 13.3468 89.2301 13.7511 89.7653 14.52C90.0107 15.2214 89.9714 15.8616 89.9432 16.5982C89.6563 16.604 89.3694 16.6098 89.074 16.6158C88.6909 16.6284 88.3076 16.6413 87.9245 16.6543C87.7363 16.6575 87.5481 16.6607 87.3541 16.664C86.0509 16.7145 84.9577 16.937 83.8871 17.7197C82.9679 18.886 82.7375 20.0502 82.6947 21.5004C82.69 21.6488 82.6853 21.7972 82.6806 21.9501C82.6658 22.4231 82.6525 22.8961 82.6395 23.3694C82.6297 23.6904 82.62 24.0115 82.6102 24.3325C82.5859 25.1189 82.5637 25.9053 82.5413 26.6917C81.209 26.6917 79.8766 26.6917 78.5039 26.6917C78.5039 22.1025 78.5039 17.5134 78.5039 12.7852Z" fill="white"/>
<path d="M148.71 34.7666C149.006 34.7666 149.302 34.7666 149.607 34.7666C149.607 36.5431 149.607 38.3195 149.607 40.1498C149.903 40.1498 150.199 40.1498 150.504 40.1498C150.486 39.9416 150.467 39.7335 150.448 39.5191C150.504 38.804 150.504 38.804 150.827 38.3834C151.682 38.0079 152.5 38.0779 153.42 38.1311C153.272 37.909 153.124 37.687 152.972 37.4582C152.318 37.4021 152.318 37.4021 151.626 37.4582C151.33 37.4582 151.034 37.4582 150.729 37.4582C150.729 37.2361 150.729 37.0141 150.729 36.7853C151.458 36.299 152.124 36.2696 152.972 36.2333C153.67 36.3943 153.902 36.6503 154.317 37.2339C154.456 37.8871 154.474 38.5303 154.486 39.1965C154.492 39.3744 154.499 39.5522 154.506 39.7353C154.522 40.1724 154.532 40.6098 154.542 41.047C154.366 41.0053 154.19 40.9638 154.009 40.9209C153.427 40.7644 153.427 40.7644 152.972 41.047C152.371 41.0564 151.777 41.0577 151.177 41.047C150.682 41.047 150.187 41.0524 149.691 41.0609C148.934 41.047 148.934 41.047 148.71 40.8227C148.69 40.3741 148.686 39.925 148.688 39.476C148.689 39.2035 148.69 38.9309 148.69 38.6501C148.692 38.3632 148.694 38.0764 148.696 37.7807C148.697 37.4927 148.698 37.205 148.699 36.9084C148.702 36.1945 148.705 35.4805 148.71 34.7666ZM151.402 39.2526C151.476 39.5487 151.55 39.8447 151.626 40.1498C152.028 40.3254 152.028 40.3254 152.523 40.3741C153.04 40.1168 153.04 40.1168 153.42 39.7012C153.42 39.4791 153.42 39.2571 153.42 39.0283C152.357 38.762 152.357 38.762 151.402 39.2526Z" fill="white"/>
<path d="M102.728 36.3365C102.95 36.3365 103.172 36.3365 103.401 36.3365C103.697 36.3365 103.993 36.3365 104.298 36.3365C104.324 37.173 104.34 38.0091 104.354 38.846C104.365 39.2008 104.365 39.2008 104.377 39.5631C104.399 41.3256 104.399 41.3256 103.874 42.2078C103.069 42.9038 102.475 42.9137 101.442 42.9087C100.709 42.8114 100.317 42.4648 99.8122 41.944C99.9232 41.6109 99.9232 41.6109 100.036 41.2711C100.906 41.4674 100.906 41.4674 101.158 41.7197C101.681 41.7289 102.205 41.7291 102.728 41.7197C102.876 41.4236 103.024 41.1276 103.177 40.8225C103.029 40.8965 102.881 40.9706 102.728 41.0468C101.79 41.1352 101.313 41.1478 100.513 40.6263C99.8709 39.9841 99.7702 39.6187 99.7422 38.7339C99.7485 37.9436 99.7971 37.7061 100.233 37.0094C101.057 36.234 101.618 36.317 102.728 36.3365ZM101.228 37.4861C100.813 38.0787 100.739 38.5331 100.709 39.2524C100.912 39.8089 100.912 39.8089 101.382 40.1496C102.055 40.2992 102.055 40.2992 102.728 40.1496C103.247 39.6822 103.379 39.3771 103.499 38.6917C103.368 37.9432 103.106 37.685 102.504 37.2337C101.655 37.1507 101.655 37.1507 101.228 37.4861Z" fill="white"/>
<path d="M36.7852 36.3365C37.3403 36.4475 37.3403 36.4475 37.9067 36.5608C38.0547 36.4868 38.2027 36.4128 38.3552 36.3365C39.8067 36.2573 39.8067 36.2573 40.5982 36.7851C40.8203 36.6371 41.0424 36.489 41.2711 36.3365C42.0562 36.2524 42.0562 36.2524 42.8412 36.3365C43.3035 36.7364 43.4924 37.0552 43.5666 37.6648C43.5805 38.1771 43.5727 38.6843 43.5563 39.1963C43.5516 39.463 43.5516 39.463 43.5469 39.7351C43.539 40.1725 43.5269 40.6096 43.5141 41.0468C43.2181 41.0468 42.922 41.0468 42.6169 41.0468C42.6032 40.8254 42.5898 40.6038 42.5757 40.3757C42.5476 39.9446 42.5476 39.9446 42.5187 39.5047C42.4915 39.0754 42.4915 39.0754 42.4635 38.6374C42.4393 37.9329 42.4393 37.9329 42.1683 37.458C41.7982 37.458 41.4281 37.458 41.0468 37.458C40.8988 38.6423 40.7508 39.8266 40.5982 41.0468C40.3022 41.0468 40.0061 41.0468 39.701 41.0468C39.627 39.9365 39.553 38.8262 39.4767 37.6823C39.1807 37.6083 38.8846 37.5343 38.5795 37.458C37.9385 38.0991 38.0394 38.6125 37.9908 39.5047C37.9656 39.9358 37.9656 39.9358 37.9398 40.3757C37.9289 40.5971 37.9179 40.8187 37.9067 41.0468C37.5366 41.0468 37.1665 41.0468 36.7852 41.0468C36.7852 39.4924 36.7852 37.938 36.7852 36.3365Z" fill="white"/>
<path d="M168.225 36.3365C168.78 36.4475 168.78 36.4475 169.346 36.5608C169.494 36.4868 169.642 36.4128 169.795 36.3365C171.246 36.2573 171.246 36.2573 172.038 36.7851C172.26 36.6371 172.482 36.489 172.711 36.3365C173.496 36.2524 173.496 36.2524 174.281 36.3365C174.743 36.7364 174.932 37.0552 175.006 37.6648C175.02 38.1771 175.012 38.6843 174.996 39.1963C174.991 39.463 174.991 39.463 174.986 39.7351C174.978 40.1725 174.966 40.6096 174.954 41.0468C174.658 41.0468 174.361 41.0468 174.056 41.0468C174.043 40.8254 174.029 40.6038 174.015 40.3757C173.987 39.9446 173.987 39.9446 173.958 39.5047C173.931 39.0754 173.931 39.0754 173.903 38.6374C173.879 37.9329 173.879 37.9329 173.608 37.458C173.053 37.5352 173.053 37.5352 172.486 37.6823C172.169 38.3178 172.184 38.9104 172.136 39.6169C172.117 39.8836 172.098 40.1501 172.079 40.4248C172.059 40.7326 172.059 40.7326 172.038 41.0468C171.742 41.0468 171.446 41.0468 171.14 41.0468C171.066 39.9365 170.992 38.8262 170.916 37.6823C170.62 37.6083 170.324 37.5343 170.019 37.458C169.343 38.2047 169.246 38.7632 169.192 39.7571C169.177 39.9989 169.162 40.2404 169.147 40.4896C169.139 40.6733 169.131 40.8573 169.122 41.0468C168.826 41.0468 168.53 41.0468 168.225 41.0468C168.225 39.4924 168.225 37.938 168.225 36.3365Z" fill="white"/>
<path d="M143.775 34.7666C146.931 34.7666 146.931 34.7666 147.813 35.4395C148.221 36.0965 148.265 36.4753 148.233 37.2478C147.99 38.0663 147.873 38.3502 147.14 38.804C146.312 38.878 145.501 38.8553 144.673 38.804C144.673 39.5442 144.673 40.2844 144.673 41.047C144.377 41.047 144.08 41.047 143.775 41.047C143.775 38.9745 143.775 36.9019 143.775 34.7666ZM144.673 35.6638C144.673 36.404 144.673 37.1442 144.673 37.9068C145.684 37.9472 145.684 37.9472 146.691 37.9068C147.189 37.4974 147.189 37.4974 147.224 36.9113C147.19 36.3214 147.19 36.3214 146.79 35.9303C146.062 35.5759 145.47 35.6178 144.673 35.6638Z" fill="white"/>
<path d="M78.7285 34.7666C79.0986 34.7666 79.4687 34.7666 79.85 34.7666C79.924 35.3588 79.998 35.9509 80.0743 36.561C80.2223 36.487 80.3704 36.413 80.5229 36.3367C81.4315 36.2786 81.7662 36.2685 82.5416 36.7853C82.8229 37.6293 82.7899 38.4164 82.7798 39.2948C82.7789 39.4628 82.7778 39.631 82.7769 39.8041C82.7742 40.2184 82.7702 40.6327 82.7659 41.047C82.4698 41.047 82.1737 41.047 81.8687 41.047C81.855 40.8256 81.8416 40.604 81.8274 40.3759C81.8088 40.0883 81.79 39.801 81.7705 39.5049C81.7433 39.0756 81.7433 39.0756 81.7153 38.6376C81.6911 37.933 81.6911 37.933 81.4201 37.4582C80.6819 37.5432 80.6819 37.5432 80.0743 37.9068C80.0216 38.4339 79.9814 38.9623 79.9483 39.4908C79.9294 39.7804 79.9106 40.0697 79.8913 40.368C79.8776 40.5921 79.8639 40.8162 79.85 41.047C79.4799 41.047 79.1098 41.047 78.7285 41.047C78.7285 38.9745 78.7285 36.9019 78.7285 34.7666Z" fill="white"/>
<path d="M139.514 36.3368C140.271 36.7993 140.271 36.7993 140.86 37.4583C140.934 37.9764 141.008 38.4945 141.084 39.0284C139.9 39.0284 138.715 39.0284 137.495 39.0284C137.831 39.9496 137.831 39.9496 138.476 40.1357C139.202 40.153 139.44 39.9605 139.962 39.477C140.258 39.625 140.555 39.773 140.86 39.9256C140.392 40.5294 140.018 40.9813 139.254 41.161C138.262 41.2106 137.845 41.1462 137.047 40.5143C136.344 39.5922 136.295 39.0714 136.374 37.9069C136.655 37.2737 136.886 36.9058 137.439 36.4909C138.185 36.2632 138.737 36.243 139.514 36.3368ZM137.761 37.5424C137.451 37.8921 137.451 37.8921 137.495 38.3555C138.309 38.3555 139.124 38.3555 139.962 38.3555C139.608 37.5291 139.608 37.5291 139.29 37.234C138.633 37.1649 138.297 37.1362 137.761 37.5424Z" fill="white"/>
<path d="M46.8792 36.336C47.4807 36.7828 47.9188 37.1387 48.1106 37.8861C48.1608 38.3672 48.179 38.8383 48.1828 39.3221C48.1886 39.488 48.1942 39.6543 48.2001 39.8254C48.2131 40.2323 48.2198 40.6391 48.2249 41.0463C47.6406 41.0705 47.0572 41.0882 46.4725 41.1023C46.307 41.11 46.1417 41.1174 45.971 41.1252C44.7499 41.1472 44.7499 41.1472 44.184 40.645C43.8462 39.8862 43.9693 39.3647 44.1876 38.579C44.9116 37.9128 45.9537 38.0994 46.8792 38.1304C46.8051 37.9083 46.7311 37.6863 46.6549 37.4575C45.8649 37.4395 45.17 37.4485 44.4119 37.6818C44.3378 37.3857 44.2638 37.0896 44.1876 36.7846C44.9906 36.2494 45.951 36.0888 46.8792 36.336ZM45.0848 39.0276C45.0107 39.2496 44.9367 39.4717 44.8605 39.7005C45.0825 39.9225 45.3046 40.1446 45.5334 40.3734C46.2072 40.2175 46.2072 40.2175 46.8792 39.9248C47.0965 39.469 47.0965 39.469 47.1035 39.0276C46.0872 38.8181 46.0872 38.8181 45.0848 39.0276Z" fill="white"/>
<path d="M72.4477 36.3366C73.078 36.739 73.459 37.0138 73.7935 37.6824C73.7935 38.1265 73.7935 38.5707 73.7935 39.0282C72.6832 39.1022 71.5729 39.1763 70.429 39.2525C70.7251 39.5486 71.0211 39.8447 71.3262 40.1497C71.9273 40.1531 71.9273 40.1531 72.4477 39.9254C72.5217 39.7774 72.5957 39.6293 72.672 39.4768C72.968 39.5508 73.2641 39.6249 73.5692 39.7011C73.1766 40.7946 73.1766 40.7946 72.672 41.0469C71.633 41.1714 70.8816 41.1896 69.9804 40.6264C69.2346 39.8339 69.2332 39.242 69.2418 38.1898C69.3382 37.446 69.6684 37.0656 70.2047 36.5609C70.9229 36.2018 71.6685 36.2247 72.4477 36.3366ZM70.8776 37.2338C70.5445 37.789 70.5445 37.789 70.2047 38.3553C71.0929 38.3553 71.9811 38.3553 72.8963 38.3553C72.5423 37.529 72.5423 37.529 72.2234 37.2338C71.5695 37.1217 71.5695 37.1217 70.8776 37.2338Z" fill="white"/>
<path d="M91.065 36.3365C91.7805 36.7604 92.2726 37.0823 92.5676 37.8846C92.76 38.9626 92.5794 39.6723 91.9622 40.5982C91.0598 41.1998 90.3311 41.2011 89.2706 41.0468C88.4858 40.5726 88.215 40.3476 87.9248 39.4767C87.842 38.3603 87.8878 37.6724 88.5977 36.7851C89.3668 36.2082 90.1317 36.2239 91.065 36.3365ZM89.3406 37.4999C88.9642 38.0201 88.8689 38.3886 88.822 39.0281C88.8967 39.5514 88.8967 39.5514 89.2706 39.9253C90.2965 40.2182 90.2965 40.2182 91.2752 39.9112C91.626 39.2719 91.6161 38.8484 91.5136 38.1309C91.1489 37.5791 91.1489 37.5791 90.6164 37.2337C89.7643 37.1476 89.7643 37.1476 89.3406 37.4999Z" fill="white"/>
<path d="M98.019 36.3361C98.7345 36.76 99.2266 37.0819 99.5216 37.8842C99.714 38.9622 99.5335 39.6719 98.9162 40.5978C98.0183 41.1962 97.2804 41.2335 96.2246 41.0464C95.6064 40.557 95.2296 40.1779 94.8788 39.4763C94.8402 38.6246 94.8734 37.7947 95.3633 37.0756C96.2037 36.2957 96.9148 36.1389 98.019 36.3361ZM96.2665 37.4717C95.85 38.1516 95.9171 38.6989 96.0003 39.4763C96.2345 39.935 96.2345 39.935 96.6732 40.1492C97.3059 40.2441 97.6464 40.236 98.2011 39.911C98.6179 39.2309 98.5508 38.6836 98.4676 37.9062C98.2334 37.4475 98.2334 37.4475 97.7947 37.2333C97.1619 37.1384 96.8212 37.1465 96.2665 37.4717Z" fill="white"/>
<path d="M163.515 36.3366C164.145 36.739 164.526 37.0138 164.86 37.6824C164.985 38.7214 165.003 39.4728 164.44 40.374C163.659 41.1093 163.048 41.1532 162.004 41.1362C161.496 41.0469 161.496 41.0469 160.809 40.5001C160.297 39.7498 160.227 39.0522 160.277 38.1582C160.422 37.4483 160.751 37.0506 161.272 36.5609C161.99 36.2018 162.735 36.2247 163.515 36.3366ZM161.65 37.5844C161.191 38.1317 161.191 38.1317 161.3 38.9441C161.43 39.7112 161.43 39.7112 161.944 40.1497C162.736 40.1302 162.736 40.1302 163.515 39.9254C164.034 39.2936 164.034 39.2936 163.921 38.5796C163.736 37.898 163.648 37.6214 163.066 37.2338C162.188 37.1502 162.188 37.1502 161.65 37.5844Z" fill="white"/>
<path d="M56.074 36.3368C56.7042 36.7392 57.0853 37.014 57.4198 37.6826C57.5442 38.7216 57.5624 39.473 56.9992 40.3742C56.2651 41.0653 55.7463 41.122 54.7369 41.1128C54.0259 41.0106 53.6473 40.6539 53.1581 40.1499C52.7703 39.3745 52.8239 38.5305 52.9338 37.6826C53.7444 36.3857 54.5734 36.1213 56.074 36.3368ZM54.2096 37.5844C53.75 38.1319 53.75 38.1319 53.859 38.9443C53.9895 39.7114 53.9895 39.7114 54.5039 40.1499C55.1673 40.2621 55.1673 40.2621 55.8497 40.1499C56.3202 39.8092 56.3202 39.8092 56.5226 39.2527C56.4932 38.5334 56.4187 38.079 56.004 37.4864C55.3306 37.0376 54.8477 37.1533 54.2096 37.5844Z" fill="white"/>
<path d="M32.074 36.3368C32.7042 36.7392 33.0853 37.014 33.4198 37.6826C33.5442 38.7216 33.5624 39.473 32.9992 40.3742C32.2651 41.0653 31.7463 41.122 30.7369 41.1128C30.0259 41.0106 29.6473 40.6539 29.1581 40.1499C28.7703 39.3745 28.8239 38.5305 28.9338 37.6826C29.7444 36.3857 30.5734 36.1213 32.074 36.3368ZM30.3498 37.4864C29.9348 38.079 29.8603 38.5334 29.831 39.2527C30.0333 39.8092 30.0333 39.8092 30.5039 40.1499C31.1768 40.2995 31.1768 40.2995 31.8497 40.1499C32.3689 39.6825 32.5008 39.3774 32.6208 38.692C32.4896 37.9435 32.2272 37.6853 31.6254 37.234C30.7768 37.1511 30.7768 37.1511 30.3498 37.4864Z" fill="white"/>
<path d="M104.523 36.3369C105.038 36.3641 105.038 36.3641 105.645 36.5612C106.208 37.4133 106.568 38.3184 106.991 39.2528C107.361 38.2906 107.731 37.3283 108.112 36.3369C108.408 36.3369 108.704 36.3369 109.009 36.3369C108.882 37.248 108.681 38.036 108.33 38.8856C108.24 39.103 108.151 39.3203 108.059 39.5442C107.965 39.7671 107.872 39.9903 107.776 40.22C107.682 40.4474 107.589 40.6749 107.493 40.9092C106.799 42.5843 106.799 42.5843 106.542 42.8416C106.094 42.8508 105.645 42.8512 105.196 42.8416C105.196 42.5455 105.196 42.2494 105.196 41.9444C105.418 41.8704 105.64 41.7964 105.869 41.7201C106.224 40.7325 105.971 40.1601 105.555 39.2573C105.478 39.0985 105.402 38.9397 105.322 38.7762C104.523 37.0867 104.523 37.0867 104.523 36.3369Z" fill="white"/>
<path d="M129.196 36.3369C129.492 36.3369 129.788 36.3369 130.093 36.3369C130.167 37.5952 130.241 38.8535 130.318 40.15C131.546 39.8519 131.546 39.8519 131.888 39.4771C131.941 38.95 131.981 38.4216 132.014 37.8931C132.033 37.6035 132.052 37.3142 132.071 37.0159C132.085 36.7918 132.098 36.5677 132.112 36.3369C132.482 36.3369 132.852 36.3369 133.234 36.3369C133.234 37.8913 133.234 39.4457 133.234 41.0472C132.864 40.9732 132.493 40.8992 132.112 40.8229C131.964 40.8969 131.816 40.9709 131.664 41.0472C130.004 41.1526 130.004 41.1526 129.509 40.7655C129.12 40.279 129.117 40.0414 129.131 39.4255C129.133 39.2454 129.135 39.0655 129.137 38.88C129.143 38.6932 129.148 38.5061 129.154 38.3134C129.157 38.1241 129.16 37.9346 129.163 37.7392C129.171 37.2718 129.183 36.8044 129.196 36.3369Z" fill="white"/>
<path d="M113.271 36.3362C113.568 36.3362 113.864 36.3362 114.169 36.3362C114.169 36.4842 114.169 36.6322 114.169 36.7848C114.284 36.7107 114.4 36.6367 114.519 36.5605C115.268 36.2532 115.834 36.2487 116.636 36.3362C117.097 36.7363 117.287 37.0553 117.361 37.6645C117.375 38.1768 117.367 38.6839 117.351 39.196C117.346 39.4627 117.346 39.4627 117.342 39.7347C117.334 40.1721 117.322 40.6093 117.309 41.0464C117.013 41.0464 116.717 41.0464 116.412 41.0464C116.398 40.8251 116.385 40.6034 116.37 40.3753C116.352 40.0878 116.333 39.8005 116.313 39.5044C116.286 39.0751 116.286 39.0751 116.258 38.637C116.234 37.9325 116.234 37.9325 115.963 37.4577C115.225 37.5427 115.225 37.5427 114.617 37.9063C114.565 38.4334 114.524 38.9618 114.491 39.4903C114.472 39.7798 114.454 40.0692 114.434 40.3675C114.421 40.5916 114.407 40.8156 114.393 41.0464C114.023 41.0464 113.653 41.0464 113.271 41.0464C113.271 39.492 113.271 37.9377 113.271 36.3362Z" fill="white"/>
<path d="M83.4395 36.3362C83.7355 36.3362 84.0316 36.3362 84.3366 36.3362C84.3366 36.4842 84.3366 36.6322 84.3366 36.7848C84.4524 36.7107 84.5679 36.6367 84.687 36.5605C85.4362 36.2532 86.0023 36.2487 86.8039 36.3362C87.2653 36.7363 87.4551 37.0553 87.5293 37.6645C87.5432 38.1768 87.5354 38.6839 87.519 39.196C87.5143 39.4627 87.5143 39.4627 87.5096 39.7347C87.5017 40.1721 87.4896 40.6093 87.4768 41.0464C87.1808 41.0464 86.8847 41.0464 86.5796 41.0464C86.566 40.8251 86.5525 40.6034 86.5384 40.3753C86.5198 40.0878 86.5009 39.8005 86.4814 39.5044C86.4543 39.0751 86.4543 39.0751 86.4262 38.637C86.402 37.9325 86.402 37.9325 86.131 37.4577C85.3929 37.5427 85.3929 37.5427 84.7852 37.9063C84.7325 38.4334 84.6924 38.9618 84.6592 39.4903C84.6403 39.7798 84.6215 40.0692 84.6022 40.3675C84.5885 40.5916 84.5749 40.8156 84.5609 41.0464C84.1909 41.0464 83.8208 41.0464 83.4395 41.0464C83.4395 39.492 83.4395 37.9377 83.4395 36.3362Z" fill="white"/>
<path d="M120.674 36.3368C120.896 36.4848 121.118 36.6328 121.347 36.7854C121.273 37.0814 121.199 37.3775 121.122 37.6826C120.456 37.6085 119.79 37.5345 119.104 37.4583C119.104 37.6063 119.104 37.7543 119.104 37.9069C119.263 37.956 119.422 38.0051 119.586 38.0558C120.205 38.2691 120.774 38.488 121.347 38.804C121.655 39.4769 121.655 39.4769 121.571 40.1498C121.277 40.6826 121.277 40.6826 120.674 41.047C119.557 41.1931 118.709 41.2325 117.758 40.5984C117.832 40.3024 117.906 40.0063 117.982 39.7012C118.193 39.7499 118.193 39.7499 118.408 39.7995C118.683 39.8618 118.683 39.8618 118.963 39.9255C119.146 39.9673 119.328 40.0088 119.515 40.0518C119.992 40.1646 119.992 40.1646 120.449 40.1498C120.375 39.9278 120.301 39.7057 120.225 39.4769C119.762 39.2556 119.762 39.2556 119.216 39.1125C118.223 38.8202 118.223 38.8202 117.982 38.5797C117.852 37.1774 117.852 37.1774 118.319 36.5752C119.152 36.2208 119.768 36.2648 120.674 36.3368Z" fill="white"/>
<path d="M21.7578 36.3362C22.313 36.4473 22.313 36.4473 22.8793 36.5605C23.0273 36.4865 23.1754 36.4125 23.3279 36.3362C24.7565 36.2324 24.7565 36.2324 25.2802 36.6168C25.6411 37.104 25.6494 37.357 25.6366 37.9579C25.6344 38.138 25.6324 38.3179 25.6301 38.5034C25.6245 38.6902 25.6187 38.8773 25.6131 39.0698C25.6084 39.3542 25.6084 39.3542 25.6036 39.6442C25.5958 40.1116 25.5837 40.5791 25.5709 41.0465C25.2748 41.0465 24.9787 41.0465 24.6737 41.0465C24.5997 39.9362 24.5257 38.8259 24.4494 37.682C23.6123 37.3606 23.6123 37.3606 23.1693 37.6863C22.7521 38.3255 22.7624 38.8742 22.725 39.6305C22.7104 39.8952 22.6956 40.1596 22.6804 40.4324C22.6721 40.6349 22.6638 40.8377 22.655 41.0465C22.3589 41.0465 22.0629 41.0465 21.7578 41.0465C21.7578 39.4921 21.7578 37.9377 21.7578 36.3362Z" fill="white"/>
<path d="M58.0938 36.3367C58.6489 36.4477 58.6489 36.4477 59.2152 36.561C59.3633 36.4869 59.5113 36.4129 59.6638 36.3367C60.435 36.2667 60.435 36.2667 61.2339 36.3367C61.6978 36.7359 61.8851 37.0546 61.9593 37.6652C61.9732 38.1773 61.9654 38.6844 61.949 39.1965C61.9443 39.4632 61.9443 39.4632 61.9396 39.7352C61.9317 40.1726 61.9196 40.6098 61.9068 41.0469C61.6108 41.0469 61.3147 41.0469 61.0096 41.0469C60.9356 39.9367 60.8616 38.8264 60.7853 37.6825C60.4893 37.6084 60.1932 37.5344 59.8881 37.4582C59.6661 37.6062 59.444 37.7542 59.2152 37.9068C59.0836 38.6573 59.0836 38.6573 59.0609 39.5049C59.0464 39.7922 59.0315 40.0798 59.0163 40.3758C59.008 40.5972 58.9997 40.8188 58.9909 41.0469C58.6949 41.0469 58.3988 41.0469 58.0938 41.0469C58.0938 39.4926 58.0938 37.9382 58.0938 36.3367Z" fill="white"/>
<path d="M77.1591 36.3366C77.8179 36.7852 77.8179 36.7852 78.2806 37.2338C78.2066 37.4558 78.1326 37.6779 78.0563 37.9067C77.1872 37.7104 77.1872 37.7104 76.9348 37.4581C76.3931 37.3457 76.3931 37.3457 75.8133 37.4581C75.3427 37.9307 75.3427 37.9307 75.1404 38.5796C75.2891 39.1246 75.4098 39.5219 75.8133 39.9254C76.3646 39.9814 76.3646 39.9814 76.9348 39.9254C77.0829 39.7773 77.2309 39.6293 77.3834 39.4768C77.8601 39.5609 77.8601 39.5609 78.2806 39.7011C78.2104 40.1216 78.2104 40.1216 78.0563 40.5983C77.1584 41.1967 76.4205 41.2339 75.3647 41.0469C74.7466 40.5574 74.3697 40.1784 74.0189 39.4768C73.9348 38.3618 73.9833 37.6707 74.6918 36.7852C75.4592 36.2096 76.2278 36.2386 77.1591 36.3366Z" fill="white"/>
<path d="M64.1504 34.7666C65.7788 34.7666 67.4072 34.7666 69.085 34.7666C69.085 35.0627 69.085 35.3588 69.085 35.6638C68.4188 35.6638 67.7526 35.6638 67.0663 35.6638C67.0663 37.4402 67.0663 39.2167 67.0663 41.047C66.7702 41.047 66.4741 41.047 66.1691 41.047C66.1691 39.2705 66.1691 37.4941 66.1691 35.6638C65.5029 35.6638 64.8367 35.6638 64.1504 35.6638C64.1504 35.3677 64.1504 35.0716 64.1504 34.7666Z" fill="white"/>
<path d="M155.214 34.9902C155.584 34.9902 155.954 34.9902 156.336 34.9902C156.336 35.4343 156.336 35.8785 156.336 36.336C156.632 36.336 156.928 36.336 157.233 36.336C157.233 36.6321 157.233 36.9282 157.233 37.2332C156.937 37.2332 156.641 37.2332 156.336 37.2332C156.336 38.1955 156.336 39.1577 156.336 40.1491C156.706 40.0751 157.076 40.0011 157.457 39.9248C157.531 40.2209 157.605 40.517 157.682 40.822C157.018 41.1535 156.394 41.0598 155.663 41.0463C155.156 40.24 155.167 39.5736 155.186 38.6351C155.192 38.2412 155.192 38.2412 155.199 37.8395C155.204 37.6394 155.209 37.4394 155.214 37.2332C155.066 37.2332 154.918 37.2332 154.766 37.2332C154.766 36.9372 154.766 36.6411 154.766 36.336C154.914 36.336 155.062 36.336 155.214 36.336C155.214 35.8919 155.214 35.4478 155.214 34.9902Z" fill="white"/>
<path d="M48.8975 34.9902C49.1936 34.9902 49.4897 34.9902 49.7947 34.9902C49.7947 35.4343 49.7947 35.8785 49.7947 36.336C50.1648 36.336 50.5349 36.336 50.9162 36.336C50.9162 36.6321 50.9162 36.9282 50.9162 37.2332C50.5461 37.2332 50.176 37.2332 49.7947 37.2332C49.8687 38.1214 49.9427 39.0097 50.019 39.9248C50.3891 39.9988 50.7592 40.0729 51.1405 40.1491C51.0665 40.4452 50.9925 40.7413 50.9162 41.0463C50.1592 41.0743 50.1592 41.0743 49.3461 41.0463C48.8975 40.5977 48.8975 40.5977 48.8538 39.8178C48.8567 39.5076 48.8621 39.1976 48.8695 38.8874C48.8715 38.7291 48.8735 38.5705 48.8755 38.4072C48.8809 38.0158 48.889 37.6246 48.8975 37.2332C48.6755 37.2332 48.4534 37.2332 48.2246 37.2332C48.2246 36.9372 48.2246 36.6411 48.2246 36.336C48.4467 36.336 48.6687 36.336 48.8975 36.336C48.8975 35.8919 48.8975 35.4478 48.8975 34.9902Z" fill="white"/>
<path d="M160.597 34.7666C160.523 35.0626 160.449 35.3587 160.373 35.6638C160.003 35.7378 159.633 35.8118 159.251 35.8881C159.177 36.2581 159.103 36.6282 159.027 37.0096C159.397 37.0096 159.767 37.0096 160.149 37.0096C160.149 37.2316 160.149 37.4537 160.149 37.6824C159.779 37.6824 159.408 37.6824 159.027 37.6824C159.027 38.7927 159.027 39.903 159.027 41.0469C158.731 41.0469 158.435 41.0469 158.13 41.0469C158.13 39.9367 158.13 38.8264 158.13 37.6824C157.908 37.6824 157.686 37.6824 157.457 37.6824C157.457 37.4604 157.457 37.2383 157.457 37.0096C157.679 37.0096 157.901 37.0096 158.13 37.0096C158.111 36.7689 158.093 36.5284 158.074 36.2806C158.13 35.4395 158.13 35.4395 158.48 34.8787C159.248 34.4066 159.743 34.5694 160.597 34.7666Z" fill="white"/>
<path d="M29.1597 34.7666C29.0857 35.0626 29.0117 35.3587 28.9354 35.6638C28.5653 35.7378 28.1952 35.8118 27.8139 35.8881C27.7399 36.2581 27.6659 36.6282 27.5896 37.0096C27.9597 37.0096 28.3298 37.0096 28.7111 37.0096C28.7111 37.2316 28.7111 37.4537 28.7111 37.6824C28.341 37.6824 27.9709 37.6824 27.5896 37.6824C27.5896 38.7927 27.5896 39.903 27.5896 41.0469C27.2935 41.0469 26.9975 41.0469 26.6924 41.0469C26.6924 39.9367 26.6924 38.8264 26.6924 37.6824C26.4704 37.6824 26.2483 37.6824 26.0195 37.6824C26.0195 37.4604 26.0195 37.2383 26.0195 37.0096C26.2416 37.0096 26.4636 37.0096 26.6924 37.0096C26.6738 36.7689 26.6554 36.5284 26.6364 36.2806C26.6924 35.4395 26.6924 35.4395 27.0428 34.8787C27.8101 34.4066 28.3056 34.5694 29.1597 34.7666Z" fill="white"/>
<path d="M134.13 34.9902C134.426 34.9902 134.722 34.9902 135.027 34.9902C135.027 35.4343 135.027 35.8785 135.027 36.336C135.398 36.336 135.768 36.336 136.149 36.336C136.149 36.6321 136.149 36.9282 136.149 37.2332C135.779 37.2332 135.409 37.2332 135.027 37.2332C135.101 38.1214 135.175 39.0097 135.252 39.9248C135.622 39.9988 135.992 40.0729 136.373 40.1491C136.299 40.4452 136.225 40.7413 136.149 41.0463C135.392 41.0743 135.392 41.0743 134.579 41.0463C134.13 40.5977 134.13 40.5977 134.086 39.8178C134.089 39.5076 134.095 39.1976 134.102 38.8874C134.104 38.7291 134.106 38.5705 134.108 38.4072C134.114 38.0158 134.122 37.6246 134.13 37.2332C133.982 37.2332 133.834 37.2332 133.682 37.2332C133.682 36.9372 133.682 36.6411 133.682 36.336C133.83 36.336 133.978 36.336 134.13 36.336C134.13 35.8919 134.13 35.4478 134.13 34.9902Z" fill="white"/>
<path d="M126.73 34.9902C127.026 34.9902 127.322 34.9902 127.627 34.9902C127.627 35.4343 127.627 35.8785 127.627 36.336C127.923 36.336 128.219 36.336 128.524 36.336C128.524 36.6321 128.524 36.9282 128.524 37.2332C128.228 37.2332 127.932 37.2332 127.627 37.2332C127.627 38.1955 127.627 39.1577 127.627 40.1491C127.997 40.0751 128.367 40.0011 128.748 39.9248C128.822 40.2209 128.896 40.517 128.973 40.822C128.304 41.1564 127.69 41.073 126.954 41.0463C126.73 40.822 126.73 40.822 126.708 40.015C126.709 39.6812 126.712 39.3475 126.716 39.0137C126.717 38.8435 126.718 38.6732 126.719 38.498C126.721 38.0764 126.725 37.6549 126.73 37.2332C126.507 37.2332 126.285 37.2332 126.057 37.2332C126.057 36.9372 126.057 36.6411 126.057 36.336C126.279 36.336 126.501 36.336 126.73 36.336C126.73 35.8919 126.73 35.4478 126.73 34.9902Z" fill="white"/>
<path d="M122.243 34.9902C122.539 34.9902 122.835 34.9902 123.14 34.9902C123.14 35.4343 123.14 35.8785 123.14 36.336C123.436 36.336 123.733 36.336 124.038 36.336C124.038 36.6321 124.038 36.9282 124.038 37.2332C123.742 37.2332 123.445 37.2332 123.14 37.2332C123.14 38.1955 123.14 39.1577 123.14 40.1491C123.51 40.0751 123.881 40.0011 124.262 39.9248C124.336 40.2209 124.41 40.517 124.486 40.822C123.866 41.1318 123.377 41.0892 122.692 41.0463C122.243 40.5977 122.243 40.5977 122.199 39.8178C122.202 39.5076 122.208 39.1976 122.215 38.8874C122.217 38.7291 122.219 38.5705 122.221 38.4072C122.227 38.0158 122.235 37.6246 122.243 37.2332C122.021 37.2332 121.799 37.2332 121.57 37.2332C121.57 36.9372 121.57 36.6411 121.57 36.336C121.792 36.336 122.014 36.336 122.243 36.336C122.243 35.8919 122.243 35.4478 122.243 34.9902Z" fill="white"/>
<path d="M19.7383 34.7666C20.1084 34.7666 20.4785 34.7666 20.8598 34.7666C20.8598 36.8391 20.8598 38.9116 20.8598 41.047C20.4897 41.047 20.1196 41.047 19.7383 41.047C19.7383 38.9745 19.7383 36.9019 19.7383 34.7666Z" fill="white"/>
<path d="M165.309 36.3369C166.206 36.3369 167.103 36.3369 168 36.3369C168 36.633 168 36.9291 168 37.2341C167.782 37.3119 167.564 37.3898 167.34 37.4698C166.577 37.8447 166.577 37.8447 166.474 38.6595C166.469 38.9433 166.464 39.227 166.458 39.5193C166.445 39.9472 166.445 39.9472 166.432 40.3839C166.431 40.6029 166.431 40.8218 166.43 41.0472C166.06 41.0472 165.69 41.0472 165.309 41.0472C165.309 39.4928 165.309 37.9384 165.309 36.3369Z" fill="white"/>
<path d="M93.0841 34.7666C93.3802 34.7666 93.6763 34.7666 93.9813 34.7666C94.0553 36.469 94.1294 38.1715 94.2056 39.9255C94.5017 40.0735 94.7978 40.2216 95.1028 40.3741C95.1028 40.5961 95.1028 40.8182 95.1028 41.047C94.3458 41.075 94.3458 41.075 93.5327 41.047C93.0841 40.5984 93.0841 40.5984 93.0332 40.0121C93.0354 39.77 93.0379 39.5282 93.0404 39.2788C93.0417 39.0173 93.0433 38.7555 93.0446 38.4859C93.0485 38.2116 93.0523 37.9371 93.0561 37.6545C93.0581 37.3783 93.0601 37.1022 93.0621 36.8178C93.0675 36.1339 93.0749 35.4503 93.0841 34.7666Z" fill="white"/>
<path d="M34.0938 36.3369C34.6489 36.4479 34.6489 36.4479 35.2152 36.5612C35.9377 36.4753 35.9377 36.4753 36.561 36.3369C36.561 36.633 36.561 36.9291 36.561 37.2341C36.343 37.3119 36.125 37.3898 35.9005 37.4698C35.1381 37.8447 35.1381 37.8447 35.0347 38.6595C35.0295 38.9433 35.0244 39.227 35.019 39.5193C35.006 39.9472 35.006 39.9472 34.9927 40.3839C34.9921 40.6029 34.9916 40.8218 34.9909 41.0472C34.6949 41.0472 34.3988 41.0472 34.0938 41.0472C34.0938 39.4928 34.0938 37.9384 34.0938 36.3369Z" fill="white"/>
<path d="M111.477 34.7666C111.773 34.7666 112.069 34.7666 112.374 34.7666C112.374 36.8391 112.374 38.9116 112.374 41.047C112.078 41.047 111.782 41.047 111.477 41.047C111.477 38.9745 111.477 36.9019 111.477 34.7666Z" fill="white"/>
<path d="M124.711 36.3369C125.007 36.3369 125.303 36.3369 125.608 36.3369C125.608 37.8913 125.608 39.4457 125.608 41.0472C125.312 41.0472 125.016 41.0472 124.711 41.0472C124.711 39.4928 124.711 37.9384 124.711 36.3369Z" fill="white"/>
<path d="M51.3652 36.3369C51.6613 36.3369 51.9574 36.3369 52.2624 36.3369C52.2624 37.8913 52.2624 39.4457 52.2624 41.0472C51.9664 41.0472 51.6703 41.0472 51.3652 41.0472C51.3652 39.4928 51.3652 37.9384 51.3652 36.3369Z" fill="white"/>
<path d="M124.711 34.7666C125.007 34.7666 125.303 34.7666 125.608 34.7666C125.608 35.1367 125.608 35.5068 125.608 35.8881C125.312 35.8881 125.016 35.8881 124.711 35.8881C124.711 35.518 124.711 35.1479 124.711 34.7666Z" fill="white"/>
<path d="M51.3652 34.7666C51.6613 34.7666 51.9574 34.7666 52.2624 34.7666C52.2624 35.1367 52.2624 35.5068 52.2624 35.8881C51.9664 35.8881 51.6703 35.8881 51.3652 35.8881C51.3652 35.518 51.3652 35.1479 51.3652 34.7666Z" fill="white"/>
</svg>
